<svg xmlns="http://www.w3.org/2000/svg" viewBox="0 0 1158 420"><g fill="none" fill-rule="evenodd"><rect width="1156" height="418" x="1" y="1" stroke="#BFBFBF" stroke-width="2" rx="12"/><path fill="#FAFAF9" d="M215.051 90.4h710.396l.077 100.6-699.602 169-185.347-34.48z"/><path fill="#FFFBEB" d="M287.55 68.84h209v154.209h-209zM716.024 68.84h209.5v154.209h-209.5z"/><path fill="#FEF4C7" d="M496.55 68.84H716v154.209H496.55z"/><path fill="#FAFAF9" stroke="#BFBFBF" stroke-width=".862" d="M41.006 325.951h184.485v33.618H41.006z"/><g fill="#0A0A0A" fill-rule="nonzero"><path d="M50.555 351.36q-1.44 0-2.595-.51a5.6 5.6 0 0 1-1.995-1.485q-.84-.975-1.29-2.385t-.45-3.24q0-1.77.555-3.195t1.47-2.415a6.5 6.5 0 0 1 2.115-1.53q1.2-.54 2.49-.54 1.32 0 2.355.495t1.995 1.395h.09l-.12-2.7v-5.61h2.46V351h-2.04l-.21-1.92h-.09a8.8 8.8 0 0 1-2.145 1.605q-1.245.675-2.595.675m.51-2.07q2.16 0 4.11-2.19v-7.26q-.99-.93-1.935-1.32a5 5 0 0 0-1.905-.39q-.96 0-1.785.405t-1.44 1.14a5.6 5.6 0 0 0-.975 1.755q-.36 1.02-.36 2.28 0 2.64 1.125 4.11t3.165 1.47M64.805 351v-14.58h2.04l.21 3.45h.09q1.14-1.77 2.805-2.79t3.705-1.02q.81 0 1.5.135t1.38.465l-.57 2.13q-.78-.27-1.305-.39t-1.395-.12q-1.65 0-3.165.945t-2.835 3.225V351zM81.845 351l-3.18-14.58h2.46l1.74 8.46q.21 1.05.36 2.01t.3 2.01h.12q.15-1.05.375-2.025t.465-1.995l1.8-7.56h2.46l1.74 7.56q.24 1.05.495 2.01t.405 2.01h.12q.18-1.05.315-2.01t.345-2.01l1.74-8.46h2.28L93.065 351h-3.18l-1.68-6.96q-.36-1.53-.72-4.32h-.12q-.36 2.79-.72 4.32l-1.62 6.96zM98.345 351l5.55-7.56-5.13-7.02h2.73l2.31 3.21q.39.6.825 1.23t.885 1.23h.12q.42-.6.84-1.26t.81-1.26l2.19-3.15h2.61l-5.19 7.23 5.58 7.35h-2.7l-2.55-3.36-.945-1.32q-.495-.69-.975-1.32h-.12q-.45.66-.9 1.305t-.9 1.335l-2.4 3.36zM118.805 351v-14.58h2.04l.21 3.45h.09q1.14-1.77 2.805-2.79t3.705-1.02q.81 0 1.5.135t1.38.465l-.57 2.13q-.78-.27-1.305-.39t-1.395-.12q-1.65 0-3.165.945t-2.835 3.225V351zM134.975 342.03v-1.86h12.9v1.86zM152.345 351l5.55-7.56-5.13-7.02h2.73l2.31 3.21q.39.6.825 1.23t.885 1.23h.12q.42-.6.84-1.26t.81-1.26l2.19-3.15h2.61l-5.19 7.23 5.58 7.35h-2.7l-2.55-3.36-.945-1.32q-.495-.69-.975-1.32h-.12q-.45.66-.9 1.305t-.9 1.335l-2.4 3.36zM172.805 351v-14.58h2.04l.21 3.45h.09q1.14-1.77 2.805-2.79t3.705-1.02q.81 0 1.5.135t1.38.465l-.57 2.13q-.78-.27-1.305-.39t-1.395-.12q-1.65 0-3.165.945t-2.835 3.225V351zM188.975 342.03v-1.86h12.9v1.86zM206.345 351l5.55-7.56-5.13-7.02h2.73l2.31 3.21q.39.6.825 1.23t.885 1.23h.12q.42-.6.84-1.26t.81-1.26l2.19-3.15h2.61l-5.19 7.23 5.58 7.35h-2.7l-2.55-3.36-.945-1.32q-.495-.69-.975-1.32h-.12q-.45.66-.9 1.305t-.9 1.335l-2.4 3.36zM260.615 351v-1.47q2.43-2.16 4.305-3.9t3.15-3.195 1.935-2.715.66-2.46q0-1.65-1.02-2.7t-3.15-1.05q-1.35 0-2.505.675t-2.085 1.635l-1.41-1.41q1.29-1.32 2.775-2.115t3.525-.795q1.44 0 2.595.405t1.965 1.14 1.245 1.785.435 2.31q0 1.35-.645 2.715t-1.815 2.82-2.79 3.03a143 143 0 0 1-3.57 3.345l1.8-.12q.9-.06 1.77-.06h6.3V351zM304.805 351.36q-1.71 0-3.165-.51a7.4 7.4 0 0 1-2.535-1.485 6.7 6.7 0 0 1-1.68-2.4q-.6-1.425-.6-3.225 0-1.83.645-3.255a7.1 7.1 0 0 1 1.755-2.415 7.5 7.5 0 0 1 2.595-1.5q1.485-.51 3.135-.51 1.8 0 3.105.63t2.205 1.5l-1.23 1.59q-.9-.78-1.875-1.23t-2.115-.45q-1.26 0-2.31.405t-1.785 1.155-1.155 1.785-.42 2.295.405 2.28 1.14 1.755 1.77 1.14 2.295.405q1.35 0 2.475-.525a8.7 8.7 0 0 0 2.025-1.305l1.11 1.59q-1.23 1.08-2.7 1.68t-3.09.6M315.215 351v-21.36h2.46v5.82l-.15 3.45h.09q1.14-1.23 2.445-2.04t3.015-.81q2.61 0 3.825 1.485t1.215 4.395V351h-2.46v-8.73q0-2.07-.78-3.075t-2.58-1.005q-.66 0-1.215.165a4.6 4.6 0 0 0-1.095.495q-.54.33-1.11.825t-1.2 1.155V351zM334.805 351v-14.58h2.04l.21 3.45h.09q1.14-1.77 2.805-2.79t3.705-1.02q.81 0 1.5.135t1.38.465l-.57 2.13q-.78-.27-1.305-.39t-1.395-.12q-1.65 0-3.165.945t-2.835 3.225V351zM357.905 351v-12.57h-6.78v-2.01h9.24V351zm.96-17.64q-.84 0-1.41-.525t-.57-1.395.57-1.395 1.41-.525 1.41.525.57 1.395-.57 1.395-1.41.525M375.725 351.36q-2.16 0-3.99-.675t-3.18-1.605l1.14-1.62q1.26.9 2.775 1.44t3.555.54q1.86 0 2.775-.675t.915-1.605q0-.42-.15-.78t-.645-.69-1.395-.63-2.37-.6q-2.85-.6-4.275-1.605t-1.425-2.655q0-.87.39-1.635t1.155-1.32 1.89-.87 2.625-.315q1.68 0 3.24.555t2.64 1.305l-1.2 1.59q-1.02-.69-2.25-1.11t-2.64-.42q-1.86 0-2.61.63t-.75 1.47q0 .96.99 1.455t3.24.975q1.83.39 3 .825t1.845.975.93 1.2.255 1.5q0 .9-.42 1.68t-1.245 1.38-2.04.945-2.775.345M412.805 351.36q-1.71 0-3.165-.51a7.4 7.4 0 0 1-2.535-1.485 6.7 6.7 0 0 1-1.68-2.4q-.6-1.425-.6-3.225 0-1.83.645-3.255a7.1 7.1 0 0 1 1.755-2.415 7.5 7.5 0 0 1 2.595-1.5q1.485-.51 3.135-.51 1.8 0 3.105.63t2.205 1.5l-1.23 1.59q-.9-.78-1.875-1.23t-2.115-.45q-1.26 0-2.31.405t-1.785 1.155-1.155 1.785-.42 2.295.405 2.28 1.14 1.755 1.77 1.14 2.295.405q1.35 0 2.475-.525a8.7 8.7 0 0 0 2.025-1.305l1.11 1.59q-1.23 1.08-2.7 1.68t-3.09.6M423.215 351v-21.36h2.46v5.82l-.15 3.45h.09q1.14-1.23 2.445-2.04t3.015-.81q2.61 0 3.825 1.485t1.215 4.395V351h-2.46v-8.73q0-2.07-.78-3.075t-2.58-1.005q-.66 0-1.215.165a4.6 4.6 0 0 0-1.095.495q-.54.33-1.11.825t-1.2 1.155V351zM442.805 351v-14.58h2.04l.21 3.45h.09q1.14-1.77 2.805-2.79t3.705-1.02q.81 0 1.5.135t1.38.465l-.57 2.13q-.78-.27-1.305-.39t-1.395-.12q-1.65 0-3.165.945t-2.835 3.225V351zM465.905 351v-12.57h-6.78v-2.01h9.24V351zm.96-17.64q-.84 0-1.41-.525t-.57-1.395.57-1.395 1.41-.525 1.41.525.57 1.395-.57 1.395-1.41.525M483.725 351.36q-2.16 0-3.99-.675t-3.18-1.605l1.14-1.62q1.26.9 2.775 1.44t3.555.54q1.86 0 2.775-.675t.915-1.605q0-.42-.15-.78t-.645-.69-1.395-.63-2.37-.6q-2.85-.6-4.275-1.605t-1.425-2.655q0-.87.39-1.635t1.155-1.32 1.89-.87 2.625-.315q1.68 0 3.24.555t2.64 1.305l-1.2 1.59q-1.02-.69-2.25-1.11t-2.64-.42q-1.86 0-2.61.63t-.75 1.47q0 .96.99 1.455t3.24.975q1.83.39 3 .825t1.845.975.93 1.2.255 1.5q0 .9-.42 1.68t-1.245 1.38-2.04.945-2.775.345M521.465 351v-5.28h-9.87v-1.65l9.57-12.21h2.64v11.88h2.97v1.98h-2.97V351zm-7.14-7.26h7.14v-5.94q.03-.78.06-1.695t.09-1.695h-.15q-.45.69-.96 1.395t-.99 1.395zM537.425 351.36q-1.02 0-1.725-.69t-.705-1.83.705-1.845a2.35 2.35 0 0 1 1.725-.705q1.02 0 1.725.705t.705 1.845-.705 1.83-1.725.69M555.425 351.36q-3.21 0-5.04-2.595t-1.83-7.395q0-4.83 1.83-7.35t5.04-2.52 5.04 2.52 1.83 7.35q0 4.8-1.83 7.395t-5.04 2.595m0-1.98q2.01 0 3.285-1.95t1.275-6.06q0-2.07-.33-3.555t-.945-2.46-1.455-1.425-1.83-.45-1.83.45-1.455 1.425-.945 2.46-.33 3.555q0 4.11 1.275 6.06t3.285 1.95m0-6.21q-.75 0-1.305-.525t-.555-1.485q0-.93.555-1.455t1.305-.525 1.305.525.555 1.455q0 .96-.555 1.485t-1.305.525M567.365 351v-19.68h2.52v9.87h.09l8.28-9.87h2.85l-6.24 7.47 6.96 12.21h-2.82l-5.73-10.32-3.39 4.05V351zM608.705 351.36q-1.65 0-3.24-.78t-2.61-2.49l1.56-1.53q.84 1.35 1.965 1.98t2.265.63q2.13 0 3.105-1.125t.975-3.555v-11.1h-8.25v-2.1h10.74v13.41q0 1.38-.33 2.595a5.4 5.4 0 0 1-1.095 2.115q-.765.9-2.01 1.425t-3.075.525M625.805 351.36q-1.02 0-1.92-.285t-1.575-.81-1.065-1.29-.39-1.755q0-1.23.585-2.145t1.86-1.575 3.285-1.08 4.83-.66q-.03-.75-.24-1.41t-.66-1.155-1.185-.795-1.785-.3q-1.44 0-2.76.555t-2.34 1.185l-.96-1.68q.54-.36 1.275-.735t1.56-.675 1.755-.495 1.89-.195q3 0 4.455 1.635t1.455 4.365V351h-2.01l-.21-1.98h-.09a14 14 0 0 1-2.715 1.65q-1.485.69-3.045.69m.66-1.98q1.26 0 2.475-.555t2.475-1.605v-3.84q-2.34.18-3.915.51t-2.52.795-1.335 1.05-.39 1.305q0 .63.27 1.065t.705.72 1.02.42 1.215.135M639.215 351v-14.58h2.04l.21 2.49h.12q1.14-1.23 2.46-2.04t3.03-.81q2.61 0 3.825 1.485t1.215 4.395V351h-2.46v-8.73q0-2.07-.78-3.075t-2.58-1.005q-.66 0-1.215.165a4.6 4.6 0 0 0-1.095.495q-.54.33-1.11.825t-1.2 1.155V351zM675.335 351v-2.04h5.52v-14.1h-4.29v-1.59q1.71-.24 2.85-.57t2.07-.84h1.83v17.1h5.01V351zM699.425 351.36q-3.21 0-5.04-2.595t-1.83-7.395q0-4.83 1.83-7.35t5.04-2.52 5.04 2.52 1.83 7.35q0 4.8-1.83 7.395t-5.04 2.595m0-1.98q2.01 0 3.285-1.95t1.275-6.06q0-2.07-.33-3.555t-.945-2.46-1.455-1.425-1.83-.45-1.83.45-1.455 1.425-.945 2.46-.33 3.555q0 4.11 1.275 6.06t3.285 1.95m0-6.21q-.75 0-1.305-.525t-.555-1.485q0-.93.555-1.455t1.305-.525 1.305.525.555 1.455q0 .96-.555 1.485t-1.305.525M729.335 351v-2.04h5.52v-14.1h-4.29v-1.59q1.71-.24 2.85-.57t2.07-.84h1.83v17.1h5.01V351zM753.425 351.36q-3.21 0-5.04-2.595t-1.83-7.395q0-4.83 1.83-7.35t5.04-2.52 5.04 2.52 1.83 7.35q0 4.8-1.83 7.395t-5.04 2.595m0-1.98q2.01 0 3.285-1.95t1.275-6.06q0-2.07-.33-3.555t-.945-2.46-1.455-1.425-1.83-.45-1.83.45-1.455 1.425-.945 2.46-.33 3.555q0 4.11 1.275 6.06t3.285 1.95m0-6.21q-.75 0-1.305-.525t-.555-1.485q0-.93.555-1.455t1.305-.525 1.305.525.555 1.455q0 .96-.555 1.485t-1.305.525M771.425 340.62q-1.02 0-1.725-.69t-.705-1.83.705-1.845a2.35 2.35 0 0 1 1.725-.705q1.02 0 1.725.705t.705 1.845-.705 1.83-1.725.69m0 10.74q-1.02 0-1.725-.69t-.705-1.83.705-1.845a2.35 2.35 0 0 1 1.725-.705q1.02 0 1.725.705t.705 1.845-.705 1.83-1.725.69M789.005 351.36q-1.29 0-2.325-.225a10 10 0 0 1-1.86-.585 9 9 0 0 1-1.5-.825q-.675-.465-1.215-.975l1.23-1.62q.48.42 1.02.825t1.185.705 1.44.48 1.755.18a5.6 5.6 0 0 0 1.905-.315 4.8 4.8 0 0 0 1.545-.885q.66-.57 1.035-1.38t.375-1.8q0-1.98-1.275-3.09t-3.435-1.11q-1.2 0-2.04.3t-1.86.87l-1.32-.84.63-9.21h10.83v2.13h-8.64l-.51 5.67q.84-.36 1.635-.57t1.905-.21q1.38 0 2.58.36t2.085 1.095 1.395 1.86.51 2.685-.585 2.76-1.575 2.025-2.265 1.26-2.655.435M807.005 351.36q-1.29 0-2.325-.225a10 10 0 0 1-1.86-.585 9 9 0 0 1-1.5-.825q-.675-.465-1.215-.975l1.23-1.62q.48.42 1.02.825t1.185.705 1.44.48 1.755.18a5.6 5.6 0 0 0 1.905-.315 4.8 4.8 0 0 0 1.545-.885q.66-.57 1.035-1.38t.375-1.8q0-1.98-1.275-3.09t-3.435-1.11q-1.2 0-2.04.3t-1.86.87l-1.32-.84.63-9.21h10.83v2.13h-8.64l-.51 5.67q.84-.36 1.635-.57t1.905-.21q1.38 0 2.58.36t2.085 1.095 1.395 1.86.51 2.685-.585 2.76-1.575 2.025-2.265 1.26-2.655.435M841.985 351l-6.27-19.68h2.64l3.18 10.62q.51 1.77.93 3.27t.96 3.24h.12q.27-.87.51-1.665a133 133 0 0 0 .915-3.165l.465-1.68 3.15-10.62h2.55l-6.24 19.68zM861.905 351v-12.57h-6.78v-2.01h9.24V351zm.96-17.64q-.84 0-1.41-.525t-.57-1.395.57-1.395 1.41-.525 1.41.525.57 1.395-.57 1.395-1.41.525M878.555 351.36q-1.44 0-2.595-.51a5.6 5.6 0 0 1-1.995-1.485q-.84-.975-1.29-2.385t-.45-3.24q0-1.77.555-3.195t1.47-2.415a6.5 6.5 0 0 1 2.115-1.53q1.2-.54 2.49-.54 1.32 0 2.355.495t1.995 1.395h.09l-.12-2.7v-5.61h2.46V351h-2.04l-.21-1.92h-.09a8.8 8.8 0 0 1-2.145 1.605q-1.245.675-2.595.675m.51-2.07q2.16 0 4.11-2.19v-7.26q-.99-.93-1.935-1.32a5 5 0 0 0-1.905-.39q-.96 0-1.785.405t-1.44 1.14a5.6 5.6 0 0 0-.975 1.755q-.36 1.02-.36 2.28 0 2.64 1.125 4.11t3.165 1.47M898.325 351.36a9 9 0 0 1-3.075-.51q-1.425-.51-2.49-1.5a7.1 7.1 0 0 1-1.68-2.415q-.615-1.425-.615-3.255 0-1.77.615-3.18t1.65-2.4a7.2 7.2 0 0 1 2.37-1.515 7.6 7.6 0 0 1 2.805-.525q1.56 0 2.805.495t2.1 1.395a6 6 0 0 1 1.305 2.16q.45 1.26.45 2.79 0 .42-.03.81t-.09.69h-11.49q.24 2.49 1.815 3.735t3.855 1.245q1.32 0 2.385-.375t2.055-1.005l.9 1.62q-1.08.72-2.475 1.23t-3.165.51m-.36-13.35q-.9 0-1.725.3t-1.485.855-1.11 1.395-.63 1.92h9.3q-.15-2.25-1.305-3.36t-3.045-1.11M915.425 351.36q-1.44 0-2.745-.51a6.7 6.7 0 0 1-2.295-1.485q-.99-.975-1.575-2.4t-.585-3.225q0-1.83.585-3.255t1.575-2.415a6.6 6.6 0 0 1 2.295-1.5q1.305-.51 2.745-.51t2.745.51 2.295 1.5 1.575 2.415.585 3.255q0 1.8-.585 3.225t-1.575 2.4a6.7 6.7 0 0 1-2.295 1.485q-1.305.51-2.745.51m0-2.04q1.05 0 1.905-.405t1.47-1.14a5.2 5.2 0 0 0 .945-1.755q.33-1.02.33-2.28t-.33-2.295a5.3 5.3 0 0 0-.945-1.785q-.615-.75-1.47-1.155a4.4 4.4 0 0 0-1.905-.405q-1.05 0-1.905.405t-1.47 1.155-.945 1.785-.33 2.295.33 2.28.945 1.755 1.47 1.14 1.905.405M933.725 351.36q-2.16 0-3.99-.675t-3.18-1.605l1.14-1.62q1.26.9 2.775 1.44t3.555.54q1.86 0 2.775-.675t.915-1.605q0-.42-.15-.78t-.645-.69-1.395-.63-2.37-.6q-2.85-.6-4.275-1.605t-1.425-2.655q0-.87.39-1.635t1.155-1.32 1.89-.87 2.625-.315q1.68 0 3.24.555t2.64 1.305l-1.2 1.59q-1.02-.69-2.25-1.11t-2.64-.42q-1.86 0-2.61.63t-.75 1.47q0 .96.99 1.455t3.24.975q1.83.39 3 .825t1.845.975.93 1.2.255 1.5q0 .9-.42 1.68t-1.245 1.38-2.04.945-2.775.345M44.975 387.03v-1.86h12.9v1.86zM64.805 396v-14.58h2.04l.21 3.45h.09q1.14-1.77 2.805-2.79t3.705-1.02q.81 0 1.5.135t1.38.465l-.57 2.13q-.78-.27-1.305-.39t-1.395-.12q-1.65 0-3.165.945t-2.835 3.225V396zM81.845 396l-3.18-14.58h2.46l1.74 8.46q.21 1.05.36 2.01t.3 2.01h.12q.15-1.05.375-2.025t.465-1.995l1.8-7.56h2.46l1.74 7.56q.24 1.05.495 2.01t.405 2.01h.12q.18-1.05.315-2.01t.345-2.01l1.74-8.46h2.28L93.065 396h-3.18l-1.68-6.96q-.36-1.53-.72-4.32h-.12q-.36 2.79-.72 4.32l-1.62 6.96zM98.975 387.03v-1.86h12.9v1.86zM118.805 396v-14.58h2.04l.21 3.45h.09q1.14-1.77 2.805-2.79t3.705-1.02q.81 0 1.5.135t1.38.465l-.57 2.13q-.78-.27-1.305-.39t-1.395-.12q-1.65 0-3.165.945t-2.835 3.225V396zM135.845 396l-3.18-14.58h2.46l1.74 8.46q.21 1.05.36 2.01t.3 2.01h.12q.15-1.05.375-2.025t.465-1.995l1.8-7.56h2.46l1.74 7.56q.24 1.05.495 2.01t.405 2.01h.12q.18-1.05.315-2.01t.345-2.01l1.74-8.46h2.28l-3.12 14.58h-3.18l-1.68-6.96q-.36-1.53-.72-4.32h-.12q-.36 2.79-.72 4.32l-1.62 6.96zM152.975 387.03v-1.86h12.9v1.86zM172.805 396v-14.58h2.04l.21 3.45h.09q1.14-1.77 2.805-2.79t3.705-1.02q.81 0 1.5.135t1.38.465l-.57 2.13q-.78-.27-1.305-.39t-1.395-.12q-1.65 0-3.165.945t-2.835 3.225V396zM188.975 387.03v-1.86h12.9v1.86zM206.975 387.03v-1.86h12.9v1.86zM261.335 396v-2.04h5.52v-14.1h-4.29v-1.59q1.71-.24 2.85-.57t2.07-.84h1.83v17.1h5.01V396zM304.805 396.36q-1.71 0-3.165-.51a7.4 7.4 0 0 1-2.535-1.485 6.7 6.7 0 0 1-1.68-2.4q-.6-1.425-.6-3.225 0-1.83.645-3.255a7.1 7.1 0 0 1 1.755-2.415 7.5 7.5 0 0 1 2.595-1.5q1.485-.51 3.135-.51 1.8 0 3.105.63t2.205 1.5l-1.23 1.59q-.9-.78-1.875-1.23t-2.115-.45q-1.26 0-2.31.405t-1.785 1.155-1.155 1.785-.42 2.295.405 2.28 1.14 1.755 1.77 1.14 2.295.405q1.35 0 2.475-.525a8.7 8.7 0 0 0 2.025-1.305l1.11 1.59q-1.23 1.08-2.7 1.68t-3.09.6M315.215 396v-21.36h2.46v5.82l-.15 3.45h.09q1.14-1.23 2.445-2.04t3.015-.81q2.61 0 3.825 1.485t1.215 4.395V396h-2.46v-8.73q0-2.07-.78-3.075t-2.58-1.005q-.66 0-1.215.165a4.6 4.6 0 0 0-1.095.495q-.54.33-1.11.825t-1.2 1.155V396zM334.805 396v-14.58h2.04l.21 3.45h.09q1.14-1.77 2.805-2.79t3.705-1.02q.81 0 1.5.135t1.38.465l-.57 2.13q-.78-.27-1.305-.39t-1.395-.12q-1.65 0-3.165.945t-2.835 3.225V396zM357.905 396v-12.57h-6.78v-2.01h9.24V396zm.96-17.64q-.84 0-1.41-.525t-.57-1.395.57-1.395 1.41-.525 1.41.525.57 1.395-.57 1.395-1.41.525M375.725 396.36q-2.16 0-3.99-.675t-3.18-1.605l1.14-1.62q1.26.9 2.775 1.44t3.555.54q1.86 0 2.775-.675t.915-1.605q0-.42-.15-.78t-.645-.69-1.395-.63-2.37-.6q-2.85-.6-4.275-1.605t-1.425-2.655q0-.87.39-1.635t1.155-1.32 1.89-.87 2.625-.315q1.68 0 3.24.555t2.64 1.305l-1.2 1.59q-1.02-.69-2.25-1.11t-2.64-.42q-1.86 0-2.61.63t-.75 1.47q0 .96.99 1.455t3.24.975q1.83.39 3 .825t1.845.975.93 1.2.255 1.5q0 .9-.42 1.68t-1.245 1.38-2.04.945-2.775.345M412.805 396.36q-1.71 0-3.165-.51a7.4 7.4 0 0 1-2.535-1.485 6.7 6.7 0 0 1-1.68-2.4q-.6-1.425-.6-3.225 0-1.83.645-3.255a7.1 7.1 0 0 1 1.755-2.415 7.5 7.5 0 0 1 2.595-1.5q1.485-.51 3.135-.51 1.8 0 3.105.63t2.205 1.5l-1.23 1.59q-.9-.78-1.875-1.23t-2.115-.45q-1.26 0-2.31.405t-1.785 1.155-1.155 1.785-.42 2.295.405 2.28 1.14 1.755 1.77 1.14 2.295.405q1.35 0 2.475-.525a8.7 8.7 0 0 0 2.025-1.305l1.11 1.59q-1.23 1.08-2.7 1.68t-3.09.6M423.215 396v-21.36h2.46v5.82l-.15 3.45h.09q1.14-1.23 2.445-2.04t3.015-.81q2.61 0 3.825 1.485t1.215 4.395V396h-2.46v-8.73q0-2.07-.78-3.075t-2.58-1.005q-.66 0-1.215.165a4.6 4.6 0 0 0-1.095.495q-.54.33-1.11.825t-1.2 1.155V396zM442.805 396v-14.58h2.04l.21 3.45h.09q1.14-1.77 2.805-2.79t3.705-1.02q.81 0 1.5.135t1.38.465l-.57 2.13q-.78-.27-1.305-.39t-1.395-.12q-1.65 0-3.165.945t-2.835 3.225V396zM465.905 396v-12.57h-6.78v-2.01h9.24V396zm.96-17.64q-.84 0-1.41-.525t-.57-1.395.57-1.395 1.41-.525 1.41.525.57 1.395-.57 1.395-1.41.525M483.725 396.36q-2.16 0-3.99-.675t-3.18-1.605l1.14-1.62q1.26.9 2.775 1.44t3.555.54q1.86 0 2.775-.675t.915-1.605q0-.42-.15-.78t-.645-.69-1.395-.63-2.37-.6q-2.85-.6-4.275-1.605t-1.425-2.655q0-.87.39-1.635t1.155-1.32 1.89-.87 2.625-.315q1.68 0 3.24.555t2.64 1.305l-1.2 1.59q-1.02-.69-2.25-1.11t-2.64-.42q-1.86 0-2.61.63t-.75 1.47q0 .96.99 1.455t3.24.975q1.83.39 3 .825t1.845.975.93 1.2.255 1.5q0 .9-.42 1.68t-1.245 1.38-2.04.945-2.775.345M530.615 396v-1.47q2.43-2.16 4.305-3.9t3.15-3.195 1.935-2.715.66-2.46q0-1.65-1.02-2.7t-3.15-1.05q-1.35 0-2.505.675t-2.085 1.635l-1.41-1.41q1.29-1.32 2.775-2.115t3.525-.795q1.44 0 2.595.405t1.965 1.14 1.245 1.785.435 2.31q0 1.35-.645 2.715t-1.815 2.82-2.79 3.03a143 143 0 0 1-3.57 3.345l1.8-.12q.9-.06 1.77-.06h6.3V396zM556.055 396.36q-1.56 0-2.895-.57a6.3 6.3 0 0 1-2.325-1.725q-.99-1.155-1.545-2.88t-.555-4.035q0-2.88.66-4.905t1.77-3.3 2.565-1.86a8 8 0 0 1 3.015-.585q1.77 0 3.075.585t2.265 1.455l-1.38 1.53q-.75-.69-1.74-1.095a5.4 5.4 0 0 0-2.07-.405q-1.14 0-2.19.42t-1.845 1.38-1.29 2.535-.525 3.885a9.7 9.7 0 0 1 2.58-1.815q1.41-.675 2.85-.675 1.32 0 2.415.375t1.89 1.11 1.23 1.845.435 2.58q0 1.38-.525 2.505a6.2 6.2 0 0 1-1.395 1.935 6.3 6.3 0 0 1-2.025 1.26q-1.155.45-2.445.45m0-1.95q.84 0 1.59-.3t1.29-.855.855-1.32.315-1.725q0-1.98-1.05-3.015t-3.03-1.035q-1.14 0-2.445.6t-2.445 1.98q.27 2.79 1.545 4.23t3.375 1.44M566.585 396v-19.68h3.06l2.76 8.4.96 3.18h.12l.93-3.18 2.79-8.4h3.06V396h-2.4v-9.84q0-.72.045-1.665t.12-1.905.135-1.86.12-1.53h-.09l-1.11 3.84-2.82 7.74h-1.8l-2.76-7.74-1.14-3.84h-.06q.06.63.135 1.53t.135 1.86.105 1.905.045 1.665V396zM608.705 396.36q-1.65 0-3.24-.78t-2.61-2.49l1.56-1.53q.84 1.35 1.965 1.98t2.265.63q2.13 0 3.105-1.125t.975-3.555v-11.1h-8.25v-2.1h10.74v13.41q0 1.38-.33 2.595a5.4 5.4 0 0 1-1.095 2.115q-.765.9-2.01 1.425t-3.075.525M625.805 396.36q-1.02 0-1.92-.285t-1.575-.81-1.065-1.29-.39-1.755q0-1.23.585-2.145t1.86-1.575 3.285-1.08 4.83-.66q-.03-.75-.24-1.41t-.66-1.155-1.185-.795-1.785-.3q-1.44 0-2.76.555t-2.34 1.185l-.96-1.68q.54-.36 1.275-.735t1.56-.675 1.755-.495 1.89-.195q3 0 4.455 1.635t1.455 4.365V396h-2.01l-.21-1.98h-.09a14 14 0 0 1-2.715 1.65q-1.485.69-3.045.69m.66-1.98q1.26 0 2.475-.555t2.475-1.605v-3.84q-2.34.18-3.915.51t-2.52.795-1.335 1.05-.39 1.305q0 .63.27 1.065t.705.72 1.02.42 1.215.135M639.215 396v-14.58h2.04l.21 2.49h.12q1.14-1.23 2.46-2.04t3.03-.81q2.61 0 3.825 1.485t1.215 4.395V396h-2.46v-8.73q0-2.07-.78-3.075t-2.58-1.005q-.66 0-1.215.165a4.6 4.6 0 0 0-1.095.495q-.54.33-1.11.825t-1.2 1.155V396zM674.615 396v-1.47q2.43-2.16 4.305-3.9t3.15-3.195 1.935-2.715.66-2.46q0-1.65-1.02-2.7t-3.15-1.05q-1.35 0-2.505.675t-2.085 1.635l-1.41-1.41q1.29-1.32 2.775-2.115t3.525-.795q1.44 0 2.595.405t1.965 1.14 1.245 1.785.435 2.31q0 1.35-.645 2.715t-1.815 2.82-2.79 3.03a143 143 0 0 1-3.57 3.345l1.8-.12q.9-.06 1.77-.06h6.3V396zM692.615 396v-1.47q2.43-2.16 4.305-3.9t3.15-3.195 1.935-2.715.66-2.46q0-1.65-1.02-2.7t-3.15-1.05q-1.35 0-2.505.675t-2.085 1.635l-1.41-1.41q1.29-1.32 2.775-2.115t3.525-.795q1.44 0 2.595.405t1.965 1.14 1.245 1.785.435 2.31q0 1.35-.645 2.715t-1.815 2.82-2.79 3.03a143 143 0 0 1-3.57 3.345l1.8-.12q.9-.06 1.77-.06h6.3V396zM735.425 396.36q-3.21 0-5.04-2.595t-1.83-7.395q0-4.83 1.83-7.35t5.04-2.52 5.04 2.52 1.83 7.35q0 4.8-1.83 7.395t-5.04 2.595m0-1.98q2.01 0 3.285-1.95t1.275-6.06q0-2.07-.33-3.555t-.945-2.46-1.455-1.425-1.83-.45-1.83.45-1.455 1.425-.945 2.46-.33 3.555q0 4.11 1.275 6.06t3.285 1.95m0-6.21q-.75 0-1.305-.525t-.555-1.485q0-.93.555-1.455t1.305-.525 1.305.525.555 1.455q0 .96-.555 1.485t-1.305.525M753.005 396.36q-1.29 0-2.325-.225a10 10 0 0 1-1.86-.585 9 9 0 0 1-1.5-.825q-.675-.465-1.215-.975l1.23-1.62q.48.42 1.02.825t1.185.705 1.44.48 1.755.18a5.6 5.6 0 0 0 1.905-.315 4.8 4.8 0 0 0 1.545-.885q.66-.57 1.035-1.38t.375-1.8q0-1.98-1.275-3.09t-3.435-1.11q-1.2 0-2.04.3t-1.86.87l-1.32-.84.63-9.21h10.83v2.13h-8.64l-.51 5.67q.84-.36 1.635-.57t1.905-.21q1.38 0 2.58.36t2.085 1.095 1.395 1.86.51 2.685-.585 2.76-1.575 2.025-2.265 1.26-2.655.435M771.425 385.62q-1.02 0-1.725-.69t-.705-1.83.705-1.845a2.35 2.35 0 0 1 1.725-.705q1.02 0 1.725.705t.705 1.845-.705 1.83-1.725.69m0 10.74q-1.02 0-1.725-.69t-.705-1.83.705-1.845a2.35 2.35 0 0 1 1.725-.705q1.02 0 1.725.705t.705 1.845-.705 1.83-1.725.69M789.425 396.36q-3.21 0-5.04-2.595t-1.83-7.395q0-4.83 1.83-7.35t5.04-2.52 5.04 2.52 1.83 7.35q0 4.8-1.83 7.395t-5.04 2.595m0-1.98q2.01 0 3.285-1.95t1.275-6.06q0-2.07-.33-3.555t-.945-2.46-1.455-1.425-1.83-.45-1.83.45-1.455 1.425-.945 2.46-.33 3.555q0 4.11 1.275 6.06t3.285 1.95m0-6.21q-.75 0-1.305-.525t-.555-1.485q0-.93.555-1.455t1.305-.525 1.305.525.555 1.455q0 .96-.555 1.485t-1.305.525M807.485 396.36q-1.62 0-2.925-.39t-2.205-1.095a5 5 0 0 1-1.395-1.665 4.5 4.5 0 0 1-.495-2.1q0-.99.36-1.77t.93-1.41 1.305-1.095 1.515-.825v-.12a7.9 7.9 0 0 1-2.055-1.845q-.855-1.095-.855-2.625 0-1.11.435-2.01t1.23-1.545a5.9 5.9 0 0 1 1.875-1.005q1.08-.36 2.37-.36 1.41 0 2.505.375t1.86 1.05 1.17 1.62.405 2.055q0 1.35-.855 2.535a8.6 8.6 0 0 1-2.055 2.025v.12q.78.39 1.47.84t1.2 1.02.795 1.335.285 1.785q0 1.08-.465 2.01t-1.335 1.62-2.145 1.08-2.925.39m1.5-10.8q2.4-1.74 2.4-3.84 0-1.44-.99-2.415t-2.88-.975q-1.62 0-2.61.84t-.99 2.25q0 .87.39 1.485t1.08 1.095 1.605.855 1.995.705m-1.44 8.97q2.16 0 3.3-.93t1.14-2.43q0-.99-.465-1.665t-1.275-1.155-1.905-.855-2.355-.795q-1.41.78-2.34 1.755t-.93 2.415q0 1.62 1.305 2.64t3.525 1.02M837.845 396l-3.18-14.58h2.46l1.74 8.46q.21 1.05.36 2.01t.3 2.01h.12q.15-1.05.375-2.025t.465-1.995l1.8-7.56h2.46l1.74 7.56q.24 1.05.495 2.01t.405 2.01h.12q.18-1.05.315-2.01t.345-2.01l1.74-8.46h2.28l-3.12 14.58h-3.18l-1.68-6.96q-.36-1.53-.72-4.32h-.12q-.36 2.79-.72 4.32l-1.62 6.96zM862.325 396.36a9 9 0 0 1-3.075-.51q-1.425-.51-2.49-1.5a7.1 7.1 0 0 1-1.68-2.415q-.615-1.425-.615-3.255 0-1.77.615-3.18t1.65-2.4a7.2 7.2 0 0 1 2.37-1.515 7.6 7.6 0 0 1 2.805-.525q1.56 0 2.805.495t2.1 1.395a6 6 0 0 1 1.305 2.16q.45 1.26.45 2.79 0 .42-.03.81t-.09.69h-11.49q.24 2.49 1.815 3.735t3.855 1.245q1.32 0 2.385-.375t2.055-1.005l.9 1.62q-1.08.72-2.475 1.23t-3.165.51m-.36-13.35q-.9 0-1.725.3t-1.485.855-1.11 1.395-.63 1.92h9.3q-.15-2.25-1.305-3.36t-3.045-1.11M880.325 396.36a9 9 0 0 1-3.075-.51q-1.425-.51-2.49-1.5a7.1 7.1 0 0 1-1.68-2.415q-.615-1.425-.615-3.255 0-1.77.615-3.18t1.65-2.4a7.2 7.2 0 0 1 2.37-1.515 7.6 7.6 0 0 1 2.805-.525q1.56 0 2.805.495t2.1 1.395a6 6 0 0 1 1.305 2.16q.45 1.26.45 2.79 0 .42-.03.81t-.09.69h-11.49q.24 2.49 1.815 3.735t3.855 1.245q1.32 0 2.385-.375t2.055-1.005l.9 1.62q-1.08.72-2.475 1.23t-3.165.51m-.36-13.35q-.9 0-1.725.3t-1.485.855-1.11 1.395-.63 1.92h9.3q-.15-2.25-1.305-3.36t-3.045-1.11M891.605 396v-21.36h2.46v14.46h.12l7.86-7.68h2.82l-5.82 5.73 6.6 8.85h-2.76l-5.37-7.35-3.45 3.39V396zM918.635 396.36q-2.34 0-3.57-1.32t-1.23-3.93v-14.46h-5.19v-2.01h7.65v16.65q0 1.62.78 2.325t2.1.705q1.29 0 2.73-.66l.63 1.83q-1.02.42-1.86.645t-2.04.225M928.355 402.27q-1.08 0-1.92-.3l.51-1.95q.3.09.645.15t.675.06q1.53 0 2.49-.885t1.5-2.235l.45-1.08-6.81-14.61h2.49l3.57 8.07q.42.96.885 2.07t.915 2.16h.12l.795-2.145q.405-1.095.765-2.085l3.18-8.07h2.34l-6.42 15.78q-.42 1.08-.96 2.01t-1.29 1.605-1.725 1.065-2.205.39M944.975 387.03v-1.86h12.9v1.86zM968.555 396.36q-1.44 0-2.595-.51a5.6 5.6 0 0 1-1.995-1.485q-.84-.975-1.29-2.385t-.45-3.24q0-1.77.555-3.195t1.47-2.415a6.5 6.5 0 0 1 2.115-1.53q1.2-.54 2.49-.54 1.32 0 2.355.495t1.995 1.395h.09l-.12-2.7v-5.61h2.46V396h-2.04l-.21-1.92h-.09a8.8 8.8 0 0 1-2.145 1.605q-1.245.675-2.595.675m.51-2.07q2.16 0 4.11-2.19v-7.26q-.99-.93-1.935-1.32a5 5 0 0 0-1.905-.39q-.96 0-1.785.405t-1.44 1.14a5.6 5.6 0 0 0-.975 1.755q-.36 1.02-.36 2.28 0 2.64 1.125 4.11t3.165 1.47M985.805 396.36q-1.02 0-1.92-.285t-1.575-.81-1.065-1.29-.39-1.755q0-1.23.585-2.145t1.86-1.575 3.285-1.08 4.83-.66q-.03-.75-.24-1.41t-.66-1.155-1.185-.795-1.785-.3q-1.44 0-2.76.555t-2.34 1.185l-.96-1.68q.54-.36 1.275-.735t1.56-.675 1.755-.495 1.89-.195q3 0 4.455 1.635t1.455 4.365V396h-2.01l-.21-1.98h-.09a14 14 0 0 1-2.715 1.65q-1.485.69-3.045.69m.66-1.98q1.26 0 2.475-.555t2.475-1.605v-3.84q-2.34.18-3.915.51t-2.52.795-1.335 1.05-.39 1.305q0 .63.27 1.065t.705.72 1.02.42 1.215.135M1008.245 396.36q-1.59 0-2.67-.435t-1.74-1.23-.945-1.905a10 10 0 0 1-.285-2.46v-6.9h-4.11v-1.86l4.2-.15.33-4.68h2.04v4.68h7.17v2.01h-7.17v6.93q0 .99.18 1.725t.6 1.245 1.14.765 1.77.255 1.89-.18 1.62-.48l.54 1.8q-.99.36-2.085.615t-2.475.255M1021.805 396.36q-1.02 0-1.92-.285t-1.575-.81-1.065-1.29-.39-1.755q0-1.23.585-2.145t1.86-1.575 3.285-1.08 4.83-.66q-.03-.75-.24-1.41t-.66-1.155-1.185-.795-1.785-.3q-1.44 0-2.76.555t-2.34 1.185l-.96-1.68q.54-.36 1.275-.735t1.56-.675 1.755-.495 1.89-.195q3 0 4.455 1.635t1.455 4.365V396h-2.01l-.21-1.98h-.09a14 14 0 0 1-2.715 1.65q-1.485.69-3.045.69m.66-1.98q1.26 0 2.475-.555t2.475-1.605v-3.84q-2.34.18-3.915.51t-2.52.795-1.335 1.05-.39 1.305q0 .63.27 1.065t.705.72 1.02.42 1.215.135M1041.425 396.36q-1.02 0-1.725-.69t-.705-1.83.705-1.845a2.35 2.35 0 0 1 1.725-.705q1.02 0 1.725.705t.705 1.845-.705 1.83-1.725.69M1060.805 396.36q-1.71 0-3.165-.51a7.4 7.4 0 0 1-2.535-1.485 6.7 6.7 0 0 1-1.68-2.4q-.6-1.425-.6-3.225 0-1.83.645-3.255a7.1 7.1 0 0 1 1.755-2.415 7.5 7.5 0 0 1 2.595-1.5q1.485-.51 3.135-.51 1.8 0 3.105.63t2.205 1.5l-1.23 1.59q-.9-.78-1.875-1.23t-2.115-.45q-1.26 0-2.31.405t-1.785 1.155-1.155 1.785-.42 2.295.405 2.28 1.14 1.755 1.77 1.14 2.295.405q1.35 0 2.475-.525a8.7 8.7 0 0 0 2.025-1.305l1.11 1.59q-1.23 1.08-2.7 1.68t-3.09.6M1077.725 396.36q-2.16 0-3.99-.675t-3.18-1.605l1.14-1.62q1.26.9 2.775 1.44t3.555.54q1.86 0 2.775-.675t.915-1.605q0-.42-.15-.78t-.645-.69-1.395-.63-2.37-.6q-2.85-.6-4.275-1.605t-1.425-2.655q0-.87.39-1.635t1.155-1.32 1.89-.87 2.625-.315q1.68 0 3.24.555t2.64 1.305l-1.2 1.59q-1.02-.69-2.25-1.11t-2.64-.42q-1.86 0-2.61.63t-.75 1.47q0 .96.99 1.455t3.24.975q1.83.39 3 .825t1.845.975.93 1.2.255 1.5q0 .9-.42 1.68t-1.245 1.38-2.04.945-2.775.345M1094.105 396l-6.15-14.58h2.49l3.36 8.28q.45 1.11.855 2.175t.795 2.115h.12q.39-1.05.765-2.115t.825-2.175l3.36-8.28h2.37l-6.03 14.58z"/></g><path fill="#E7E5E4" stroke="#BFBFBF" stroke-width="1.88" d="M288.866 91.34h52.644v73.32h-52.644z"/><path fill="#0A0A0A" fill-rule="nonzero" d="M304.682 147.6v-32.892h4.602l.474 7.783h.203q2.572-3.993 6.328-6.294 3.756-2.302 8.359-2.302 1.827 0 3.384.305a13 13 0 0 1 3.113 1.049l-1.286 4.805q-1.76-.61-2.944-.88-1.185-.27-3.147-.27-3.723 0-7.14 2.132-3.418 2.13-6.396 7.275V147.6z"/><path fill="#E7E5E4" stroke="#BFBFBF" stroke-width="1.88" d="M361.74 91.34h52.645v73.32H361.74z"/><path fill="#0A0A0A" fill-rule="nonzero" d="m375.39 147.6-7.173-32.892h5.55l3.925 19.085q.474 2.37.812 4.535t.677 4.534h.27a55 55 0 0 1 .847-4.568q.507-2.2 1.049-4.5l4.06-17.056h5.55l3.926 17.055q.54 2.37 1.116 4.535a39 39 0 0 1 .914 4.534h.27q.407-2.368.711-4.534.305-2.166.779-4.535l3.925-19.085h5.144l-7.039 32.892h-7.174l-3.79-15.702q-.812-3.451-1.624-9.746h-.271q-.812 6.294-1.624 9.746l-3.655 15.702z"/><path fill="#E7E5E4" stroke="#BFBFBF" stroke-width="1.88" d="M434.615 91.34h52.644v73.32h-52.644z"/><path fill="#0A0A0A" fill-rule="nonzero" d="m444.882 147.6 12.52-17.055-11.573-15.837h6.159l5.211 7.241q.88 1.355 1.861 2.775a87 87 0 0 0 1.997 2.775h.27a78 78 0 0 0 1.896-2.843q.946-1.488 1.827-2.842l4.94-7.106h5.889l-11.709 16.31L476.76 147.6h-6.091l-5.753-7.58q-1.016-1.422-2.132-2.978a129 129 0 0 0-2.2-2.978h-.27q-1.016 1.49-2.03 2.944-1.016 1.455-2.031 3.012l-5.415 7.58z"/><path fill="#E7E5E4" stroke="#BFBFBF" stroke-width="1.88" d="M507.49 91.34h52.644v73.32H507.49z"/><path fill="#0A0A0A" fill-rule="nonzero" d="M523.306 147.6v-32.892h4.602l.474 7.783h.203q2.572-3.993 6.328-6.294 3.756-2.302 8.359-2.302 1.827 0 3.384.305a13 13 0 0 1 3.113 1.049l-1.286 4.805q-1.76-.61-2.944-.88-1.185-.27-3.147-.27-3.723 0-7.14 2.132-3.418 2.13-6.396 7.275V147.6z"/><path fill="#E7E5E4" stroke="#BFBFBF" stroke-width="1.88" d="M580.365 91.34h52.644v73.32h-52.644z"/><path fill="#0A0A0A" fill-rule="nonzero" d="M592.052 127.364v-4.196h29.103v4.196z"/><path fill="#E7E5E4" stroke="#BFBFBF" stroke-width="1.88" d="M653.24 91.34h52.643v73.32H653.24z"/><path fill="#0A0A0A" fill-rule="nonzero" d="m663.506 147.6 12.52-17.055-11.573-15.837h6.159l5.211 7.241q.88 1.355 1.862 2.775a87 87 0 0 0 1.996 2.775h.27a78 78 0 0 0 1.896-2.843q.947-1.488 1.827-2.842l4.94-7.106h5.889l-11.709 16.31 12.589 16.582h-6.091l-5.753-7.58q-1.016-1.422-2.132-2.978a129 129 0 0 0-2.2-2.978h-.27q-1.016 1.49-2.03 2.944-1.016 1.455-2.031 3.012l-5.415 7.58z"/><path fill="#E7E5E4" stroke="#BFBFBF" stroke-width="1.88" d="M726.114 91.34h52.644v73.32h-52.644z"/><path fill="#0A0A0A" fill-rule="nonzero" d="M741.93 147.6v-32.892h4.602l.474 7.783h.203q2.572-3.993 6.328-6.294 3.756-2.302 8.359-2.302 1.827 0 3.384.305a13 13 0 0 1 3.113 1.049l-1.286 4.805q-1.76-.61-2.944-.88-1.185-.27-3.147-.27-3.723 0-7.14 2.132-3.418 2.13-6.396 7.275V147.6z"/><path fill="#E7E5E4" stroke="#BFBFBF" stroke-width="1.88" d="M798.989 91.34h52.644v73.32h-52.644z"/><path fill="#0A0A0A" fill-rule="nonzero" d="M810.676 127.364v-4.196h29.103v4.196z"/><path fill="#E7E5E4" stroke="#BFBFBF" stroke-width="1.88" d="M871.863 91.34h52.644v73.32h-52.644z"/><path fill="#0A0A0A" fill-rule="nonzero" d="M883.55 127.364v-4.196h29.103v4.196z"/><path fill="#FAFAF9" stroke="#BFBFBF" stroke-width="1.88" d="M215.991 91.34h52.644v73.32h-52.644z"/><path fill="#0A0A0A" fill-rule="nonzero" d="M240.267 148.412q-3.248 0-5.854-1.15a12.6 12.6 0 0 1-4.5-3.35q-1.896-2.2-2.911-5.381t-1.015-7.31q0-3.993 1.252-7.208t3.316-5.448a14.6 14.6 0 0 1 4.772-3.451 13.55 13.55 0 0 1 5.617-1.219q2.978 0 5.313 1.117t4.5 3.147h.204l-.271-6.091V99.412h5.55V147.6h-4.602l-.474-4.332h-.203q-2.03 2.1-4.84 3.621-2.808 1.523-5.854 1.523m1.15-4.67q4.874 0 9.273-4.94v-16.379q-2.233-2.098-4.365-2.978t-4.298-.88-4.027.914a9.9 9.9 0 0 0-3.249 2.572q-1.387 1.658-2.2 3.959-.81 2.301-.811 5.144 0 5.955 2.538 9.272 2.538 3.315 7.14 3.316"/><path fill="#D97705" fill-rule="nonzero" d="M242.173 47.448v14.463a7.002 7.002 0 0 1-1 13.929 7 7 0 0 1-1.001-13.93V47.449zm-1 16.392a5 5 0 1 0 0 10 5 5 0 0 0 0-10"/><g fill="#D97705" fill-rule="nonzero"><path d="M218.937 27.438h1.872v-2.376l1.92-.553v2.928h3.264v1.68h-3.264v6.649q0 1.247.312 1.764.312.515 1.056.515.624 0 1.056-.132.432-.13.96-.347l.432 1.463a7.4 7.4 0 0 1-1.416.504 6.8 6.8 0 0 1-1.656.192q-1.464 0-2.064-.828-.6-.827-.6-2.771v-7.008h-1.872zM232.185 35.213l.672 2.304h.12l.528-2.328 2.328-7.751h1.944l-3.552 10.775q-.408 1.177-.804 2.28a13.3 13.3 0 0 1-.876 1.968q-.48.865-1.08 1.38a2.07 2.07 0 0 1-1.392.517q-.864 0-1.416-.24l.336-1.657q.312.12.6.12.672 0 1.296-.708.624-.707 1.032-2.435l-4.824-12h2.208zM239.84 27.438h1.32l.36 1.44h.097q.552-.84 1.428-1.285t2.004-.444q2.4 0 3.576 1.416t1.176 4.632q0 1.512-.396 2.724t-1.116 2.053-1.74 1.296q-1.02.455-2.268.455-.888 0-1.404-.108a5.7 5.7 0 0 1-1.116-.371v4.991h-1.92zm4.849 1.392q-1.224 0-1.932.636-.708.635-.996 1.931v5.953q.432.335.984.515t1.464.18q1.656 0 2.628-1.236.972-1.234.972-3.636 0-.984-.168-1.788t-.54-1.368a2.6 2.6 0 0 0-.96-.875q-.588-.313-1.452-.312M261.585 38.478q-.72.576-1.812.911t-2.316.336q-1.368 0-2.376-.444a4.2 4.2 0 0 1-1.656-1.271q-.648-.829-.96-1.98-.312-1.153-.312-2.593 0-3.07 1.368-4.68 1.368-1.608 3.912-1.608.816 0 1.632.18t1.464.684 1.056 1.428.408 2.436q0 .793-.144 1.753h-7.704q0 1.055.216 1.871t.672 1.38q.456.565 1.188.864t1.788.3q.816 0 1.632-.288.816-.287 1.224-.672zm-4.128-9.649q-1.416 0-2.268.744-.852.745-1.02 2.544h5.952q0-1.823-.696-2.555t-1.968-.733"/></g><path stroke="#D97705" stroke-linecap="square" stroke-width="2" d="M388.063 46v22.876"/><path fill="#D97705" fill-rule="nonzero" d="M295.564 75.875a7 7 0 1 1 6.929-8h171.802a7.002 7.002 0 0 1 13.93 1 7 7 0 0 1-13.93 1H302.493a7 7 0 0 1-6.93 6m185.66-12a5 5 0 1 0 0 10 5 5 0 0 0 0-10m-185.66 0a5 5 0 1 0 0 10 5 5 0 0 0 0-10"/><g fill="#D97705" fill-rule="nonzero"><path d="M368.139 27.438v6.84q0 .936.108 1.644t.371 1.175q.265.469.72.709.456.24 1.152.24a3 3 0 0 0 1.152-.205 3 3 0 0 0 .9-.563q.397-.36.697-.828t.492-.997v-8.016h1.92v8.592q0 .864.06 1.788.06.925.204 1.62h-1.32l-.48-1.895h-.12a4.8 4.8 0 0 1-1.488 1.56q-.936.624-2.377.624-.96 0-1.691-.228a2.6 2.6 0 0 1-1.225-.804q-.49-.576-.743-1.549-.252-.972-.252-2.46v-7.248zM384.627 36.174q0-.72-.433-1.129a3.7 3.7 0 0 0-1.067-.684q-.638-.275-1.392-.527a6.5 6.5 0 0 1-1.392-.649 3.6 3.6 0 0 1-1.069-1.02q-.431-.624-.431-1.68 0-1.726.983-2.532.984-.803 2.736-.803 1.297 0 2.173.228a8.4 8.4 0 0 1 1.524.54l-.457 1.584a7.5 7.5 0 0 0-1.332-.468 6.6 6.6 0 0 0-1.668-.204q-1.056 0-1.548.36-.491.36-.492 1.247 0 .624.433.973.432.348 1.067.624a20 20 0 0 0 1.392.54q.758.262 1.392.696.637.43 1.069 1.091.432.66.431 1.74 0 .769-.251 1.44a2.9 2.9 0 0 1-.78 1.153q-.528.48-1.308.755-.78.276-1.837.276-1.367 0-2.327-.264-.96-.263-1.608-.623l.575-1.633q.553.313 1.44.577a6.3 6.3 0 0 0 1.8.264q1.033 0 1.704-.408.673-.408.673-1.465M398.21 38.478q-.72.576-1.811.911-1.092.336-2.317.336-1.367 0-2.375-.444a4.2 4.2 0 0 1-1.656-1.271q-.649-.829-.96-1.98-.313-1.153-.312-2.593 0-3.07 1.368-4.68 1.368-1.608 3.911-1.608.817 0 1.632.18.818.18 1.464.684.648.504 1.057 1.428.407.925.407 2.436 0 .793-.143 1.753h-7.704q0 1.055.215 1.871.216.818.673 1.38.455.566 1.188.864.732.3 1.788.3.815 0 1.632-.288.815-.287 1.224-.672zm-4.127-9.649q-1.416 0-2.269.744-.851.745-1.02 2.544h5.953q0-1.823-.697-2.555-.696-.733-1.968-.733M407.307 29.286q-.72-.24-1.369-.24-1.03 0-1.631.564-.6.563-.745 1.428v8.4h-1.92v-12h1.344l.36 1.463h.096q.457-.815 1.092-1.26.638-.443 1.62-.444.697 0 1.56.24z"/></g><path stroke="#D97705" stroke-linecap="square" stroke-width="2" d="M606.063 46v22.876"/><path fill="#D97705" fill-rule="nonzero" d="M513.564 75.875a7 7 0 1 1 6.929-8h171.802a7.002 7.002 0 0 1 13.93 1 7 7 0 0 1-13.93 1H520.493a7 7 0 0 1-6.93 6m185.66-12a5 5 0 1 0 0 10 5 5 0 0 0 0-10m-185.66 0a5 5 0 1 0 0 10 5 5 0 0 0 0-10"/><g fill="#D97705" fill-rule="nonzero"><path d="M586.103 39.99q0 2.327-1.236 3.431t-3.66 1.105q-1.44 0-2.316-.18a7 7 0 0 1-1.5-.468l.504-1.633q.552.217 1.224.409.672.19 1.752.191 1.008 0 1.644-.18t1.02-.6.528-1.08.144-1.572v-1.151h-.096a3.2 3.2 0 0 1-1.224 1.067q-.744.372-1.944.372-2.424 0-3.564-1.512t-1.14-4.703q0-3.072 1.464-4.668t4.32-1.597q1.368 0 2.34.216t1.74.505zm-4.824-1.968q1.224 0 1.92-.612t.984-1.908v-6.145q-.96-.455-2.448-.456-1.632 0-2.568 1.104t-.936 3.457q0 1.007.168 1.847t.528 1.44q.36.6.936.936t1.416.337M595.463 29.286q-.72-.24-1.368-.24-1.032 0-1.632.564-.6.563-.744 1.428v8.4h-1.92v-12h1.344l.36 1.463h.096q.456-.815 1.092-1.26.636-.443 1.62-.444.696 0 1.56.24zM597.287 33.438q0-3.05 1.356-4.669 1.356-1.62 3.9-1.62 1.344 0 2.34.444t1.644 1.273q.648.827.96 1.992.312 1.162.312 2.58 0 3.047-1.356 4.667t-3.9 1.62q-1.344 0-2.34-.444a4.25 4.25 0 0 1-1.644-1.271q-.648-.829-.96-1.992t-.312-2.58m1.992 0q0 .91.18 1.751t.564 1.465 1.008 1.008q.624.384 1.512.384 3.264.024 3.264-4.608a8.5 8.5 0 0 0-.18-1.777 4.6 4.6 0 0 0-.564-1.464 2.9 2.9 0 0 0-1.008-.995q-.624-.373-1.512-.373-3.264-.023-3.264 4.608M612.55 27.438v6.84q0 .936.109 1.644.108.708.372 1.175.264.469.72.709t1.152.24a3 3 0 0 0 1.152-.205 3 3 0 0 0 .9-.563q.396-.36.696-.828t.492-.997v-8.016h1.92v8.592q0 .864.06 1.788.06.925.204 1.62h-1.32l-.48-1.895h-.12a4.8 4.8 0 0 1-1.488 1.56q-.936.624-2.376.624-.96 0-1.692-.228a2.6 2.6 0 0 1-1.224-.804q-.492-.576-.744-1.549-.252-.972-.252-2.46v-7.248zM623.759 27.438h1.32l.36 1.44h.096q.552-.84 1.428-1.285t2.004-.444q2.4 0 3.576 1.416t1.176 4.632q0 1.512-.396 2.724t-1.116 2.053-1.74 1.296q-1.02.455-2.268.455-.888 0-1.404-.108a5.7 5.7 0 0 1-1.116-.371v4.991h-1.92zm4.848 1.392q-1.224 0-1.932.636-.708.635-.996 1.931v5.953q.432.335.984.515t1.464.18q1.656 0 2.628-1.236.972-1.234.972-3.636 0-.983-.168-1.788-.168-.804-.54-1.368a2.6 2.6 0 0 0-.96-.875q-.588-.313-1.452-.312"/></g><path stroke="#D97705" stroke-linecap="square" stroke-width="2" d="M825.063 46v22.876"/><path fill="#D97705" fill-rule="nonzero" d="M732.564 75.875a7 7 0 1 1 6.929-8h171.802a7.002 7.002 0 0 1 13.93 1 7 7 0 0 1-13.93 1H739.493a7 7 0 0 1-6.93 6m185.66-12a5 5 0 1 0 0 10 5 5 0 0 0 0-10m-185.66 0a5 5 0 1 0 0 10 5 5 0 0 0 0-10"/><g fill="#D97705" fill-rule="nonzero"><path d="M796.739 33.438q0-3.05 1.356-4.669 1.356-1.62 3.9-1.62 1.344 0 2.34.444t1.644 1.272q.648.83.96 1.993.312 1.162.312 2.58 0 3.047-1.356 4.667t-3.9 1.62q-1.344 0-2.34-.444a4.25 4.25 0 0 1-1.644-1.271q-.648-.829-.96-1.992t-.312-2.58m1.992 0q0 .91.18 1.751t.564 1.465q.384.624 1.008 1.007.624.384 1.512.384 3.264.024 3.264-4.608a8.5 8.5 0 0 0-.18-1.776 4.6 4.6 0 0 0-.564-1.464 2.9 2.9 0 0 0-1.008-.995q-.624-.373-1.512-.373-3.264-.024-3.264 4.608M808.69 27.438h1.873v-2.376l1.92-.553v2.928h3.264v1.68h-3.264v6.649q0 1.247.312 1.764.312.515 1.056.515.624 0 1.056-.132.432-.13.96-.347l.432 1.463a7.4 7.4 0 0 1-1.416.505 6.8 6.8 0 0 1-1.656.191q-1.464 0-2.064-.828-.6-.827-.6-2.771v-7.008h-1.872zM826.115 39.438v-6.84q0-.936-.108-1.645-.108-.707-.396-1.175a1.85 1.85 0 0 0-.78-.709q-.492-.24-1.284-.24-1.128 0-2.04.732a3.3 3.3 0 0 0-1.176 1.884v7.993h-1.92v-16.8h1.92v6.143h.096a4.7 4.7 0 0 1 1.5-1.187q.876-.445 2.172-.445 1.008 0 1.752.228t1.236.805.72 1.547.228 2.46v7.249zM840.299 38.478q-.72.575-1.812.911t-2.316.336q-1.368 0-2.376-.444a4.2 4.2 0 0 1-1.656-1.271q-.648-.829-.96-1.98-.312-1.153-.312-2.593 0-3.07 1.368-4.68 1.368-1.608 3.912-1.608.816 0 1.632.18t1.464.684 1.056 1.428.408 2.436q0 .793-.144 1.753h-7.704q0 1.055.216 1.871t.672 1.38q.456.565 1.188.864t1.788.3q.816 0 1.632-.288.816-.287 1.224-.672zm-4.128-9.649q-1.416 0-2.268.744t-1.02 2.544h5.952q0-1.823-.696-2.555t-1.968-.733M849.395 29.286q-.72-.24-1.368-.24-1.032 0-1.632.564-.6.563-.744 1.428v8.4h-1.92v-12h1.344l.36 1.463h.096q.456-.815 1.092-1.26.636-.443 1.62-.444.696 0 1.56.24z"/></g><g fill="#D97705" fill-rule="nonzero"><path d="M438.28 195.78q-.54.432-1.358.684a5.9 5.9 0 0 1-1.737.252q-1.026 0-1.782-.333a3.2 3.2 0 0 1-1.242-.954 4.1 4.1 0 0 1-.72-1.485 7.4 7.4 0 0 1-.234-1.944q0-2.304 1.026-3.51t2.934-1.206q.612 0 1.224.135t1.098.513.792 1.071.306 1.827q0 .594-.108 1.314H432.7q0 .792.162 1.404t.504 1.035.89.648q.55.225 1.342.225.612 0 1.224-.216t.918-.504zm-3.095-7.236q-1.062 0-1.701.558t-.765 1.908h4.464q0-1.368-.522-1.917t-1.476-.549M442.799 191.892l-3.024-4.392h1.764l1.71 2.484.504 1.026.522-1.026 1.746-2.484h1.62l-3.042 4.32 3.222 4.68h-1.71l-1.908-2.736-.54-1.08-.558 1.08-1.944 2.736h-1.602zM455.849 195.78q-.54.432-1.36.684a5.9 5.9 0 0 1-1.736.252q-1.026 0-1.782-.333a3.2 3.2 0 0 1-1.242-.954 4.1 4.1 0 0 1-.72-1.485 7.4 7.4 0 0 1-.234-1.944q0-2.304 1.026-3.51t2.934-1.206q.612 0 1.224.135t1.098.513.792 1.071.306 1.827q0 .594-.108 1.314h-5.778q0 .792.162 1.404t.504 1.035.89.648q.55.225 1.342.225.612 0 1.224-.216t.918-.504zm-3.096-7.236q-1.062 0-1.701.558t-.765 1.908h4.464q0-1.368-.522-1.917t-1.476-.549M464.363 195.906q-.54.396-1.278.603a5.7 5.7 0 0 1-1.548.207q-1.044 0-1.764-.333a3 3 0 0 1-1.18-.954q-.458-.621-.665-1.494a8.4 8.4 0 0 1-.207-1.935q0-2.286 1.008-3.501t2.898-1.215q.864 0 1.467.135t1.089.387l-.414 1.242a4 4 0 0 0-.918-.369 4.2 4.2 0 0 0-1.08-.135q-2.556 0-2.556 3.456 0 .684.135 1.305t.45 1.098.828.765 1.269.288q.648 0 1.16-.198.514-.198.838-.45zM467.639 187.5v5.13q0 .702.08 1.233.082.531.28.882t.54.531.864.18q.486 0 .864-.153a2.3 2.3 0 0 0 .675-.423q.297-.27.522-.621t.369-.747V187.5h1.44v6.444q0 .648.045 1.341.044.693.153 1.215h-.99l-.36-1.422h-.09a3.6 3.6 0 0 1-1.116 1.17q-.702.468-1.782.468-.72 0-1.27-.171a1.94 1.94 0 0 1-.917-.603q-.369-.432-.558-1.161t-.19-1.845V187.5zM474.857 187.5h1.404v-1.782l1.44-.414v2.196h2.448v1.26H477.7v4.986q0 .936.234 1.323t.792.387q.468 0 .792-.099a8 8 0 0 0 .72-.261l.324 1.098a5.5 5.5 0 0 1-1.062.378 5 5 0 0 1-1.242.144q-1.098 0-1.548-.621t-.45-2.079v-5.256h-1.404zM488.519 195.78q-.54.432-1.36.684a5.9 5.9 0 0 1-1.736.252q-1.026 0-1.782-.333a3.2 3.2 0 0 1-1.242-.954 4.1 4.1 0 0 1-.72-1.485 7.4 7.4 0 0 1-.234-1.944q0-2.304 1.026-3.51t2.934-1.206q.612 0 1.224.135t1.098.513.792 1.071.306 1.827q0 .594-.108 1.314h-5.778q0 .792.162 1.404t.504 1.035.89.648q.55.225 1.342.225.612 0 1.224-.216t.918-.504zm-3.096-7.236q-1.062 0-1.701.558t-.765 1.908h4.464q0-1.368-.522-1.917t-1.476-.549"/></g><g fill="#D97705" fill-rule="nonzero"><path d="m374.543 187.5 2.07 5.256.45 1.728h.036l.342-1.764 1.602-5.22h1.368l-3.024 9.198h-.702l-2.358-5.94-.342-1.476h-.054l-.36 1.494-2.268 5.922h-.702l-3.132-9.198h1.566l1.782 5.238.306 1.746h.018l.432-1.782 1.926-5.202zM386.189 188.886q-.54-.18-1.026-.18-.774 0-1.224.423a1.84 1.84 0 0 0-.558 1.071v6.3h-1.44v-9h1.008l.27 1.098h.072q.341-.612.819-.945t1.215-.333q.522 0 1.17.18zM388.367 187.5h1.44v9h-1.44zm-.306-2.736q0-.414.279-.711a.93.93 0 0 1 .71-.297q.433 0 .739.297a.96.96 0 0 1 .306.711.87.87 0 0 1-.306.684q-.306.27-.738.27a.98.98 0 0 1-.711-.27.91.91 0 0 1-.28-.684M391.697 187.5h1.404v-1.782l1.44-.414v2.196h2.448v1.26h-2.448v4.986q0 .936.234 1.323t.792.387q.468 0 .792-.099a8 8 0 0 0 .72-.261l.324 1.098a5.5 5.5 0 0 1-1.062.378 5 5 0 0 1-1.242.144q-1.098 0-1.548-.621t-.45-2.079v-5.256h-1.404zM405.359 195.78q-.54.432-1.36.684a5.9 5.9 0 0 1-1.736.252q-1.026 0-1.782-.333a3.2 3.2 0 0 1-1.242-.954 4.1 4.1 0 0 1-.72-1.485 7.4 7.4 0 0 1-.234-1.944q0-2.304 1.026-3.51t2.934-1.206q.612 0 1.224.135t1.098.513.792 1.071.306 1.827q0 .594-.108 1.314h-5.778q0 .792.162 1.404t.504 1.035.89.648q.55.225 1.342.225.612 0 1.224-.216t.918-.504zm-3.096-7.236q-1.062 0-1.701.558t-.765 1.908h4.464q0-1.368-.522-1.917t-1.476-.549"/></g><g fill="#D97705" fill-rule="nonzero"><path d="M300.322 188.886q-.54-.18-1.026-.18-.774 0-1.224.423a1.84 1.84 0 0 0-.558 1.071v6.3h-1.44v-9h1.008l.27 1.098h.072q.342-.612.819-.945t1.215-.333q.522 0 1.17.18zM308.764 195.78q-.54.432-1.359.684a5.9 5.9 0 0 1-1.737.252q-1.026 0-1.782-.333a3.2 3.2 0 0 1-1.242-.954 4.1 4.1 0 0 1-.72-1.485 7.4 7.4 0 0 1-.234-1.944q0-2.304 1.026-3.51t2.934-1.206q.612 0 1.224.135t1.098.513.792 1.071.306 1.827q0 .594-.108 1.314h-5.778q0 .792.162 1.404t.504 1.035.891.648 1.341.225q.612 0 1.224-.216t.918-.504zm-3.096-7.236q-1.062 0-1.701.558t-.765 1.908h4.464q0-1.368-.522-1.917t-1.476-.549M311.194 188.166q.684-.414 1.593-.612a9 9 0 0 1 1.899-.198q.936 0 1.503.252t.864.657.396.891.099.972q0 1.08-.054 2.106a37 37 0 0 0-.054 1.944q0 .666.054 1.26t.198 1.098h-1.062l-.378-1.26h-.09a3 3 0 0 1-.405.495 2.6 2.6 0 0 1-.585.432 3.7 3.7 0 0 1-.792.315q-.45.126-1.026.126a3.1 3.1 0 0 1-1.071-.18 2.399 2.399 0 0 1-1.422-1.314 2.6 2.6 0 0 1-.207-1.062q0-.792.324-1.323t.909-.846 1.404-.45 1.809-.135h.495q.243 0 .495.036.054-.54.054-.972 0-.99-.396-1.386t-1.44-.396q-.306 0-.657.045t-.72.126-.702.198a3.6 3.6 0 0 0-.585.261zm2.556 7.218q.504 0 .9-.135t.684-.342a2.2 2.2 0 0 0 .756-.945v-1.494a14 14 0 0 0-1.026-.036q-.558 0-1.089.063t-.936.234-.648.468-.243.747q0 .63.45 1.035t1.152.405M327.178 193.404q0 .918.018 1.665t.162 1.467h-.972l-.36-1.278h-.072a2.9 2.9 0 0 1-1.044 1.044q-.684.414-1.602.414-1.8 0-2.673-1.134t-.873-3.546q0-2.304 1.089-3.501t2.997-1.197q.666 0 1.053.072t.837.234V183.9h1.44zm-3.636 2.052q.918 0 1.458-.477t.738-1.449v-4.464a2 2 0 0 0-.738-.36q-.414-.108-1.098-.108-1.242 0-1.944.819t-.702 2.619q0 .738.117 1.368t.387 1.08.711.711 1.071.261"/></g><g fill="#D97705" fill-rule="nonzero"><path d="M657.28 195.78q-.54.432-1.358.684a5.9 5.9 0 0 1-1.737.252q-1.026 0-1.782-.333a3.2 3.2 0 0 1-1.242-.954 4.1 4.1 0 0 1-.72-1.485 7.4 7.4 0 0 1-.234-1.944q0-2.304 1.026-3.51t2.934-1.206q.612 0 1.224.135t1.098.513.792 1.071.306 1.827q0 .594-.108 1.314H651.7q0 .792.162 1.404t.504 1.035.89.648 1.342.225q.612 0 1.224-.216t.918-.504zm-3.095-7.236q-1.062 0-1.701.558t-.765 1.908h4.464q0-1.368-.522-1.917t-1.476-.549M661.799 191.892l-3.024-4.392h1.764l1.71 2.484.504 1.026.522-1.026 1.746-2.484h1.62l-3.042 4.32 3.222 4.68h-1.71l-1.908-2.736-.54-1.08-.558 1.08-1.944 2.736h-1.602zM674.849 195.78q-.54.432-1.36.684a5.9 5.9 0 0 1-1.736.252q-1.026 0-1.782-.333a3.2 3.2 0 0 1-1.242-.954 4.1 4.1 0 0 1-.72-1.485 7.4 7.4 0 0 1-.234-1.944q0-2.304 1.026-3.51t2.934-1.206q.612 0 1.224.135t1.098.513.792 1.071.306 1.827q0 .594-.108 1.314h-5.778q0 .792.162 1.404t.504 1.035.89.648 1.342.225q.612 0 1.224-.216t.918-.504zm-3.096-7.236q-1.062 0-1.701.558t-.765 1.908h4.464q0-1.368-.522-1.917t-1.476-.549M683.363 195.906q-.54.396-1.278.603a5.7 5.7 0 0 1-1.548.207q-1.044 0-1.764-.333a3 3 0 0 1-1.18-.954q-.458-.621-.665-1.494a8.4 8.4 0 0 1-.207-1.935q0-2.286 1.008-3.501t2.898-1.215q.864 0 1.467.135t1.089.387l-.414 1.242a4 4 0 0 0-.918-.369 4.2 4.2 0 0 0-1.08-.135q-2.556 0-2.556 3.456 0 .684.135 1.305t.45 1.098.828.765 1.269.288q.648 0 1.16-.198.514-.198.838-.45zM686.639 187.5v5.13q0 .702.08 1.233.082.531.28.882t.54.531.864.18q.486 0 .864-.153a2.3 2.3 0 0 0 .675-.423q.297-.27.522-.621t.369-.747V187.5h1.44v6.444q0 .648.045 1.341.044.693.153 1.215h-.99l-.36-1.422h-.09a3.6 3.6 0 0 1-1.116 1.17q-.702.468-1.782.468-.72 0-1.27-.171a1.94 1.94 0 0 1-.917-.603q-.369-.432-.558-1.161t-.19-1.845V187.5zM693.857 187.5h1.404v-1.782l1.44-.414v2.196h2.448v1.26H696.7v4.986q0 .936.234 1.323t.792.387q.468 0 .792-.099a8 8 0 0 0 .72-.261l.324 1.098a5.5 5.5 0 0 1-1.062.378 5 5 0 0 1-1.242.144q-1.098 0-1.548-.621t-.45-2.079v-5.256h-1.404zM707.519 195.78q-.54.432-1.36.684a5.9 5.9 0 0 1-1.736.252q-1.026 0-1.782-.333a3.2 3.2 0 0 1-1.242-.954 4.1 4.1 0 0 1-.72-1.485 7.4 7.4 0 0 1-.234-1.944q0-2.304 1.026-3.51t2.934-1.206q.612 0 1.224.135t1.098.513.792 1.071.306 1.827q0 .594-.108 1.314h-5.778q0 .792.162 1.404t.504 1.035.89.648 1.342.225q.612 0 1.224-.216t.918-.504zm-3.096-7.236q-1.062 0-1.701.558t-.765 1.908h4.464q0-1.368-.522-1.917t-1.476-.549"/></g><g fill="#D97705" fill-rule="nonzero"><path d="m593.543 187.5 2.07 5.256.45 1.728h.036l.342-1.764 1.602-5.22h1.368l-3.024 9.198h-.702l-2.358-5.94-.342-1.476h-.054l-.36 1.494-2.268 5.922h-.702l-3.132-9.198h1.566l1.782 5.238.306 1.746h.018l.432-1.782 1.926-5.202zM605.189 188.886q-.54-.18-1.026-.18-.774 0-1.224.423a1.84 1.84 0 0 0-.558 1.071v6.3h-1.44v-9h1.008l.27 1.098h.072q.341-.612.819-.945t1.215-.333q.522 0 1.17.18zM607.367 187.5h1.44v9h-1.44zm-.306-2.736q0-.414.279-.711a.93.93 0 0 1 .71-.297q.433 0 .739.297a.96.96 0 0 1 .306.711.87.87 0 0 1-.306.684q-.306.27-.738.27a.98.98 0 0 1-.711-.27.91.91 0 0 1-.28-.684M610.697 187.5h1.404v-1.782l1.44-.414v2.196h2.448v1.26h-2.448v4.986q0 .936.234 1.323t.792.387q.468 0 .792-.099a8 8 0 0 0 .72-.261l.324 1.098a5.5 5.5 0 0 1-1.062.378 5 5 0 0 1-1.242.144q-1.098 0-1.548-.621t-.45-2.079v-5.256h-1.404zM624.359 195.78q-.54.432-1.36.684a5.9 5.9 0 0 1-1.736.252q-1.026 0-1.782-.333a3.2 3.2 0 0 1-1.242-.954 4.1 4.1 0 0 1-.72-1.485 7.4 7.4 0 0 1-.234-1.944q0-2.304 1.026-3.51t2.934-1.206q.612 0 1.224.135t1.098.513.792 1.071.306 1.827q0 .594-.108 1.314h-5.778q0 .792.162 1.404t.504 1.035.89.648q.55.225 1.342.225.612 0 1.224-.216t.918-.504zm-3.096-7.236q-1.062 0-1.701.558t-.765 1.908h4.464q0-1.368-.522-1.917t-1.476-.549"/></g><g fill="#D97705" fill-rule="nonzero"><path d="M519.322 188.886q-.54-.18-1.026-.18-.774 0-1.224.423a1.84 1.84 0 0 0-.558 1.071v6.3h-1.44v-9h1.008l.27 1.098h.072q.342-.612.819-.945t1.215-.333q.522 0 1.17.18zM527.764 195.78q-.54.432-1.359.684a5.9 5.9 0 0 1-1.737.252q-1.026 0-1.782-.333a3.2 3.2 0 0 1-1.242-.954 4.1 4.1 0 0 1-.72-1.485 7.4 7.4 0 0 1-.234-1.944q0-2.304 1.026-3.51t2.934-1.206q.612 0 1.224.135t1.098.513.792 1.071.306 1.827q0 .594-.108 1.314h-5.778q0 .792.162 1.404t.504 1.035.891.648 1.341.225q.612 0 1.224-.216t.918-.504zm-3.096-7.236q-1.062 0-1.701.558t-.765 1.908h4.464q0-1.368-.522-1.917t-1.476-.549M530.194 188.166q.684-.414 1.593-.612a9 9 0 0 1 1.899-.198q.936 0 1.503.252t.864.657.396.891.099.972q0 1.08-.054 2.106a37 37 0 0 0-.054 1.944q0 .666.054 1.26t.198 1.098h-1.062l-.378-1.26h-.09a3 3 0 0 1-.405.495 2.6 2.6 0 0 1-.585.432 3.7 3.7 0 0 1-.792.315q-.45.126-1.026.126a3.1 3.1 0 0 1-1.071-.18 2.399 2.399 0 0 1-1.422-1.314 2.6 2.6 0 0 1-.207-1.062q0-.792.324-1.323t.909-.846 1.404-.45 1.809-.135h.495q.243 0 .495.036.054-.54.054-.972 0-.99-.396-1.386t-1.44-.396q-.306 0-.657.045t-.72.126-.702.198a3.6 3.6 0 0 0-.585.261zm2.556 7.218q.504 0 .9-.135t.684-.342a2.2 2.2 0 0 0 .756-.945v-1.494a14 14 0 0 0-1.026-.036q-.558 0-1.089.063t-.936.234-.648.468-.243.747q0 .63.45 1.035t1.152.405M546.178 193.404q0 .918.018 1.665t.162 1.467h-.972l-.36-1.278h-.072a2.9 2.9 0 0 1-1.044 1.044q-.684.414-1.602.414-1.8 0-2.673-1.134t-.873-3.546q0-2.304 1.089-3.501t2.997-1.197q.666 0 1.053.072t.837.234V183.9h1.44zm-3.636 2.052q.918 0 1.458-.477t.738-1.449v-4.464a2 2 0 0 0-.738-.36q-.414-.108-1.098-.108-1.242 0-1.944.819t-.702 2.619q0 .738.117 1.368t.387 1.08.711.711 1.071.261"/></g><g fill="#D97705" fill-rule="nonzero"><path d="M877.28 195.78q-.54.432-1.358.684a5.9 5.9 0 0 1-1.737.252q-1.026 0-1.782-.333a3.2 3.2 0 0 1-1.242-.954 4.1 4.1 0 0 1-.72-1.485 7.4 7.4 0 0 1-.234-1.944q0-2.304 1.026-3.51t2.934-1.206q.612 0 1.224.135t1.098.513.792 1.071.306 1.827q0 .594-.108 1.314H871.7q0 .792.162 1.404t.504 1.035.89.648 1.342.225q.612 0 1.224-.216t.918-.504zm-3.095-7.236q-1.062 0-1.701.558t-.765 1.908h4.464q0-1.368-.522-1.917t-1.476-.549M881.799 191.892l-3.024-4.392h1.764l1.71 2.484.504 1.026.522-1.026 1.746-2.484h1.62l-3.042 4.32 3.222 4.68h-1.71l-1.908-2.736-.54-1.08-.558 1.08-1.944 2.736h-1.602zM894.849 195.78q-.54.432-1.36.684a5.9 5.9 0 0 1-1.736.252q-1.026 0-1.782-.333a3.2 3.2 0 0 1-1.242-.954 4.1 4.1 0 0 1-.72-1.485 7.4 7.4 0 0 1-.234-1.944q0-2.304 1.026-3.51t2.934-1.206q.612 0 1.224.135t1.098.513.792 1.071.306 1.827q0 .594-.108 1.314h-5.778q0 .792.162 1.404t.504 1.035.89.648 1.342.225q.612 0 1.224-.216t.918-.504zm-3.096-7.236q-1.062 0-1.701.558t-.765 1.908h4.464q0-1.368-.522-1.917t-1.476-.549M903.363 195.906q-.54.396-1.278.603a5.7 5.7 0 0 1-1.548.207q-1.044 0-1.764-.333a3 3 0 0 1-1.18-.954q-.458-.621-.665-1.494a8.4 8.4 0 0 1-.207-1.935q0-2.286 1.008-3.501t2.898-1.215q.864 0 1.467.135t1.089.387l-.414 1.242a4 4 0 0 0-.918-.369 4.2 4.2 0 0 0-1.08-.135q-2.556 0-2.556 3.456 0 .684.135 1.305t.45 1.098.828.765 1.269.288q.648 0 1.16-.198.514-.198.838-.45zM906.639 187.5v5.13q0 .702.08 1.233.082.531.28.882t.54.531.864.18q.486 0 .864-.153a2.3 2.3 0 0 0 .675-.423q.297-.27.522-.621t.369-.747V187.5h1.44v6.444q0 .648.045 1.341.044.693.153 1.215h-.99l-.36-1.422h-.09a3.6 3.6 0 0 1-1.116 1.17q-.702.468-1.782.468-.72 0-1.27-.171a1.94 1.94 0 0 1-.917-.603q-.369-.432-.558-1.161t-.19-1.845V187.5zM913.857 187.5h1.404v-1.782l1.44-.414v2.196h2.448v1.26H916.7v4.986q0 .936.234 1.323t.792.387q.468 0 .792-.099a8 8 0 0 0 .72-.261l.324 1.098a5.5 5.5 0 0 1-1.062.378 5 5 0 0 1-1.242.144q-1.098 0-1.548-.621t-.45-2.079v-5.256h-1.404zM927.519 195.78q-.54.432-1.36.684a5.9 5.9 0 0 1-1.736.252q-1.026 0-1.782-.333a3.2 3.2 0 0 1-1.242-.954 4.1 4.1 0 0 1-.72-1.485 7.4 7.4 0 0 1-.234-1.944q0-2.304 1.026-3.51t2.934-1.206q.612 0 1.224.135t1.098.513.792 1.071.306 1.827q0 .594-.108 1.314h-5.778q0 .792.162 1.404t.504 1.035.89.648 1.342.225q.612 0 1.224-.216t.918-.504zm-3.096-7.236q-1.062 0-1.701.558t-.765 1.908h4.464q0-1.368-.522-1.917t-1.476-.549"/></g><g fill="#D97705" fill-rule="nonzero"><path d="m813.543 187.5 2.07 5.256.45 1.728h.036l.342-1.764 1.602-5.22h1.368l-3.024 9.198h-.702l-2.358-5.94-.342-1.476h-.054l-.36 1.494-2.268 5.922h-.702l-3.132-9.198h1.566l1.782 5.238.306 1.746h.018l.432-1.782 1.926-5.202zM825.189 188.886q-.54-.18-1.026-.18-.774 0-1.224.423a1.84 1.84 0 0 0-.558 1.071v6.3h-1.44v-9h1.008l.27 1.098h.072q.341-.612.819-.945t1.215-.333q.522 0 1.17.18zM827.367 187.5h1.44v9h-1.44zm-.306-2.736q0-.414.279-.711a.93.93 0 0 1 .71-.297q.433 0 .739.297a.96.96 0 0 1 .306.711.87.87 0 0 1-.306.684q-.306.27-.738.27a.98.98 0 0 1-.711-.27.91.91 0 0 1-.28-.684M830.697 187.5h1.404v-1.782l1.44-.414v2.196h2.448v1.26h-2.448v4.986q0 .936.234 1.323t.792.387q.468 0 .792-.099a8 8 0 0 0 .72-.261l.324 1.098a5.5 5.5 0 0 1-1.062.378 5 5 0 0 1-1.242.144q-1.098 0-1.548-.621t-.45-2.079v-5.256h-1.404zM844.359 195.78q-.54.432-1.36.684a5.9 5.9 0 0 1-1.736.252q-1.026 0-1.782-.333a3.2 3.2 0 0 1-1.242-.954 4.1 4.1 0 0 1-.72-1.485 7.4 7.4 0 0 1-.234-1.944q0-2.304 1.026-3.51t2.934-1.206q.612 0 1.224.135t1.098.513.792 1.071.306 1.827q0 .594-.108 1.314h-5.778q0 .792.162 1.404t.504 1.035.89.648q.55.225 1.342.225.612 0 1.224-.216t.918-.504zm-3.096-7.236q-1.062 0-1.701.558t-.765 1.908h4.464q0-1.368-.522-1.917t-1.476-.549"/></g><g fill="#D97705" fill-rule="nonzero"><path d="M739.322 188.886q-.54-.18-1.026-.18-.774 0-1.224.423a1.84 1.84 0 0 0-.558 1.071v6.3h-1.44v-9h1.008l.27 1.098h.072q.342-.612.819-.945t1.215-.333q.522 0 1.17.18zM747.764 195.78q-.54.432-1.359.684a5.9 5.9 0 0 1-1.737.252q-1.026 0-1.782-.333a3.2 3.2 0 0 1-1.242-.954 4.1 4.1 0 0 1-.72-1.485 7.4 7.4 0 0 1-.234-1.944q0-2.304 1.026-3.51t2.934-1.206q.612 0 1.224.135t1.098.513.792 1.071.306 1.827q0 .594-.108 1.314h-5.778q0 .792.162 1.404t.504 1.035.891.648 1.341.225q.612 0 1.224-.216t.918-.504zm-3.096-7.236q-1.062 0-1.701.558t-.765 1.908h4.464q0-1.368-.522-1.917t-1.476-.549M750.194 188.166q.684-.414 1.593-.612a9 9 0 0 1 1.899-.198q.936 0 1.503.252t.864.657.396.891.099.972q0 1.08-.054 2.106a37 37 0 0 0-.054 1.944q0 .666.054 1.26t.198 1.098h-1.062l-.378-1.26h-.09a3 3 0 0 1-.405.495 2.6 2.6 0 0 1-.585.432 3.7 3.7 0 0 1-.792.315q-.45.126-1.026.126a3.1 3.1 0 0 1-1.071-.18 2.399 2.399 0 0 1-1.422-1.314 2.6 2.6 0 0 1-.207-1.062q0-.792.324-1.323t.909-.846 1.404-.45 1.809-.135h.495q.243 0 .495.036.054-.54.054-.972 0-.99-.396-1.386t-1.44-.396q-.306 0-.657.045t-.72.126-.702.198a3.6 3.6 0 0 0-.585.261zm2.556 7.218q.504 0 .9-.135t.684-.342a2.2 2.2 0 0 0 .756-.945v-1.494a14 14 0 0 0-1.026-.036q-.558 0-1.089.063t-.936.234-.648.468-.243.747q0 .63.45 1.035t1.152.405M766.178 193.404q0 .918.018 1.665t.162 1.467h-.972l-.36-1.278h-.072a2.9 2.9 0 0 1-1.044 1.044q-.684.414-1.602.414-1.8 0-2.673-1.134t-.873-3.546q0-2.304 1.089-3.501t2.997-1.197q.666 0 1.053.072t.837.234V183.9h1.44zm-3.636 2.052q.918 0 1.458-.477t.738-1.449v-4.464a2 2 0 0 0-.738-.36q-.414-.108-1.098-.108-1.242 0-1.944.819t-.702 2.619q0 .738.117 1.368t.387 1.08.711.711 1.071.261"/></g><path stroke="#D97705" stroke-linecap="square" stroke-width="2" d="M606.115 222.875v22.875"/><path fill="#D97705" fill-rule="nonzero" d="M294.87 229.875a7 7 0 1 1 6.929-8.001h609.637a7.002 7.002 0 0 1 13.93 1.001 7 7 0 0 1-13.93 1H301.8a7 7 0 0 1-6.929 6m623.495-12a5 5 0 1 0 0 10 5 5 0 0 0 0-10m-623.495 0a5 5 0 1 0 0 10 5 5 0 0 0 0-10"/><g fill="#D97705" fill-rule="nonzero"><path d="M547.217 255.75h1.32l.36 1.44h.096q.552-.84 1.428-1.284t2.004-.444q2.4 0 3.576 1.416t1.176 4.632q0 1.512-.396 2.724t-1.116 2.052-1.74 1.296-2.268.456q-.888 0-1.404-.108a5.7 5.7 0 0 1-1.116-.372v4.992h-1.92zm4.848 1.392q-1.224 0-1.932.636t-.996 1.932v5.952q.432.336.984.516t1.464.18q1.656 0 2.628-1.236t.972-3.636q0-.984-.168-1.788t-.54-1.368a2.6 2.6 0 0 0-.96-.876q-.588-.312-1.452-.312M568.96 266.79q-.72.576-1.811.912-1.092.336-2.316.336-1.368 0-2.376-.444a4.2 4.2 0 0 1-1.656-1.272q-.648-.828-.96-1.98t-.312-2.592q0-3.072 1.368-4.68t3.912-1.608q.816 0 1.632.18t1.464.684 1.056 1.428.408 2.436q0 .792-.144 1.752h-7.704q0 1.056.216 1.872t.672 1.38 1.188.864 1.788.3q.816 0 1.632-.288t1.224-.672zm-4.127-9.648q-1.416 0-2.268.744t-1.02 2.544h5.952q0-1.824-.696-2.556t-1.968-.732M578.057 257.598q-.72-.24-1.368-.24-1.032 0-1.632.564t-.744 1.428v8.4h-1.92v-12h1.344l.36 1.464h.096q.456-.816 1.092-1.26t1.62-.444q.696 0 1.56.24zM587.585 267.75v-6.792q0-.96-.084-1.668t-.324-1.188-.684-.72-1.164-.24q-1.104 0-1.836.672a3.56 3.56 0 0 0-1.02 1.68v8.256h-1.92v-12h1.344l.36 1.464h.096a5.6 5.6 0 0 1 1.5-1.26q.852-.492 2.22-.492 1.152 0 1.884.444t1.14 1.548a3.9 3.9 0 0 1 1.524-1.464q.972-.528 2.196-.528 1.008 0 1.704.228t1.152.804.66 1.56.204 2.496v7.2h-1.92v-7.224q0-.864-.084-1.5t-.336-1.056-.696-.624-1.164-.204q-1.2 0-1.872.672t-.96 1.92v8.016zM600.449 255.75h1.92v12h-1.92zm-.408-3.648q0-.552.372-.948t.948-.396.984.396.408.948-.408.912-.984.36-.948-.36a1.22 1.22 0 0 1-.372-.912M611.753 264.486q0-.72-.432-1.128a3.7 3.7 0 0 0-1.068-.684q-.636-.276-1.392-.528a6.5 6.5 0 0 1-1.392-.648 3.6 3.6 0 0 1-1.068-1.02q-.432-.624-.432-1.68 0-1.728.984-2.532t2.736-.804q1.296 0 2.172.228a8.4 8.4 0 0 1 1.524.54l-.456 1.584a7.5 7.5 0 0 0-1.332-.468 6.6 6.6 0 0 0-1.668-.204q-1.056 0-1.548.36t-.492 1.248q0 .624.432.972t1.068.624a20 20 0 0 0 1.392.54q.756.264 1.392.696t1.068 1.092.432 1.74q0 .768-.252 1.44a2.9 2.9 0 0 1-.78 1.152q-.528.48-1.308.756t-1.836.276q-1.368 0-2.328-.264t-1.608-.624l.576-1.632q.552.312 1.44.576a6.3 6.3 0 0 0 1.8.264q1.032 0 1.704-.408t.672-1.464M621.857 264.486q0-.72-.432-1.128a3.7 3.7 0 0 0-1.068-.684q-.636-.276-1.392-.528a6.5 6.5 0 0 1-1.392-.648 3.6 3.6 0 0 1-1.068-1.02q-.432-.624-.432-1.68 0-1.728.984-2.532t2.736-.804q1.296 0 2.172.228a8.4 8.4 0 0 1 1.524.54l-.456 1.584a7.5 7.5 0 0 0-1.332-.468 6.6 6.6 0 0 0-1.668-.204q-1.056 0-1.548.36t-.492 1.248q0 .624.432.972t1.068.624a20 20 0 0 0 1.392.54q.756.264 1.392.696t1.068 1.092.432 1.74q0 .768-.252 1.44a2.9 2.9 0 0 1-.78 1.152q-.528.48-1.308.756t-1.836.276q-1.368 0-2.328-.264t-1.608-.624l.576-1.632q.552.312 1.44.576a6.3 6.3 0 0 0 1.8.264q1.032 0 1.704-.408t.672-1.464M627.089 255.75h1.92v12h-1.92zm-.408-3.648q0-.552.372-.948t.948-.396.984.396.408.948-.408.912-.984.36-.948-.36a1.22 1.22 0 0 1-.372-.912M632.44 261.75q0-3.048 1.357-4.668t3.9-1.62q1.344 0 2.34.444t1.644 1.272.96 1.992.312 2.58q0 3.048-1.356 4.668t-3.9 1.62q-1.344 0-2.34-.444a4.25 4.25 0 0 1-1.644-1.272q-.648-.828-.96-1.992t-.312-2.58m1.993 0q0 .912.18 1.752t.564 1.464 1.008 1.008 1.512.384q3.264.024 3.264-4.608a8.5 8.5 0 0 0-.18-1.776 4.6 4.6 0 0 0-.564-1.464 2.9 2.9 0 0 0-1.008-.996q-.624-.372-1.512-.372-3.264-.024-3.264 4.608M653.68 267.75v-6.84q0-1.872-.54-2.82t-1.98-.948q-1.27 0-2.1.684a3.64 3.64 0 0 0-1.163 1.716v8.208h-1.92v-12h1.344l.36 1.464h.096q.576-.768 1.548-1.26t2.316-.492q.984 0 1.728.228t1.236.804.744 1.548.252 2.46v7.248zM664.385 264.486q0-.72-.432-1.128a3.7 3.7 0 0 0-1.068-.684q-.636-.276-1.392-.528a6.5 6.5 0 0 1-1.392-.648 3.6 3.6 0 0 1-1.068-1.02q-.432-.624-.432-1.68 0-1.728.984-2.532t2.736-.804q1.296 0 2.172.228a8.4 8.4 0 0 1 1.524.54l-.456 1.584a7.5 7.5 0 0 0-1.332-.468 6.6 6.6 0 0 0-1.668-.204q-1.056 0-1.548.36t-.492 1.248q0 .624.432.972t1.068.624a20 20 0 0 0 1.392.54q.756.264 1.392.696t1.068 1.092.432 1.74q0 .768-.252 1.44a2.9 2.9 0 0 1-.78 1.152q-.528.48-1.308.756t-1.836.276q-1.368 0-2.328-.264t-1.608-.624l.576-1.632q.552.312 1.44.576a6.3 6.3 0 0 0 1.8.264q1.032 0 1.704-.408t.672-1.464"/></g></g></svg>
