<svg xmlns="http://www.w3.org/2000/svg" xmlns:xlink="http://www.w3.org/1999/xlink" viewBox="0 0 360 27"><defs><path id="a" d="M4.718 6.525q-.63.27-1.32.27t-1.32-.27a3.4 3.4 0 0 1-1.084-.724A3.4 3.4 0 0 1 .27 4.718Q0 4.088 0 3.398t.27-1.32T.994.994A3.4 3.4 0 0 1 2.078.27Q2.708 0 3.398 0t1.32.27T5.8.994t.724 1.084.27 1.32-.27 1.32T5.801 5.8a3.4 3.4 0 0 1-1.083.724m-2.64-4.312v.697l1.14-.9h.014v3.465h.638V1.32h-.638z"/></defs><g fill="none" fill-rule="evenodd"><rect width="359.5" height="26.5" x=".25" y=".25" fill="#FAFAF9" stroke="#CCC" stroke-width=".5" rx="3"/><path fill="#D6D3D1" d="M258.007 8.86h4.437v9.221h-4.437z"/><g fill="#0A0A0A" fill-rule="nonzero"><path d="M8.588 16.32q-.428 0-.8-.127a1.8 1.8 0 0 1-.64-.376 1.75 1.75 0 0 1-.424-.603 2 2 0 0 1-.154-.814q0-.458.165-.818t.45-.607.656-.375a2.4 2.4 0 0 1 .792-.127q.45 0 .787.153.337.155.563.372l-.36.472a1.9 1.9 0 0 0-.45-.281 1.25 1.25 0 0 0-.503-.101q-.293 0-.54.093a1.2 1.2 0 0 0-.424.267 1.2 1.2 0 0 0-.274.416 1.4 1.4 0 0 0-.097.536q0 .293.094.536.093.245.27.416.176.173.416.267.24.093.533.094.337 0 .603-.128a2.3 2.3 0 0 0 .484-.308l.323.48q-.315.27-.69.417t-.78.146M12.308 16.32q-.263 0-.492-.075a1.2 1.2 0 0 1-.394-.214.991.991 0 0 1-.352-.769q0-.306.146-.54.146-.232.458-.397.311-.165.802-.27a9 9 0 0 1 1.181-.157.92.92 0 0 0-.22-.578q-.207-.24-.694-.24-.338 0-.657.127t-.588.285l-.278-.502q.15-.09.338-.184a3.5 3.5 0 0 1 .843-.288q.23-.045.469-.046.765 0 1.148.413t.382 1.14v2.205h-.607l-.06-.473h-.023q-.293.226-.656.394a1.76 1.76 0 0 1-.746.169m.21-.593q.292 0 .573-.127.282-.128.567-.36v-.87q-.54.045-.9.116t-.574.18a.8.8 0 0 0-.304.244.53.53 0 0 0-.09.3q0 .277.214.398.213.12.514.12M17.94 16.32q-.405 0-.686-.113a1.1 1.1 0 0 1-.45-.315 1.25 1.25 0 0 1-.244-.483 2.4 2.4 0 0 1-.075-.626v-1.62H15.48V12.6l1.035-.037.098-1.163h.614v1.162h1.733v.6h-1.733v1.62q0 .473.192.706.19.232.694.232a2.2 2.2 0 0 0 .84-.158l.15.548q-.248.083-.526.146a3 3 0 0 1-.637.064M25.358 15.435l-.36-.248.794-1.222-1.2-.525.128-.39 1.253.39.067-1.402h.42l.067 1.402 1.253-.39.127.39-1.2.525.796 1.223-.36.247-.893-1.162zM31.44 16.32q-.405 0-.686-.113a1.1 1.1 0 0 1-.45-.315 1.25 1.25 0 0 1-.244-.483 2.4 2.4 0 0 1-.075-.626v-1.62H28.98V12.6l1.035-.037.098-1.163h.614v1.162h1.733v.6h-1.733v1.62q0 .473.192.706.19.232.694.232a2.2 2.2 0 0 0 .84-.158l.15.548q-.248.083-.526.146a3 3 0 0 1-.637.064M33.428 16.23l1.365-1.905-1.268-1.762h.81l.532.75.203.31q.105.162.21.312h.03q.097-.15.199-.315l.191-.315.487-.742h.788L35.7 14.4l1.365 1.83h-.81l-.585-.78q-.105-.157-.225-.33a9 9 0 0 0-.24-.33h-.03l-.21.326q-.105.162-.21.334l-.54.78zM40.44 16.32q-.405 0-.686-.113a1.1 1.1 0 0 1-.45-.315 1.25 1.25 0 0 1-.244-.483 2.4 2.4 0 0 1-.075-.626v-1.62H37.98V12.6l1.035-.037.097-1.163h.615v1.162h1.733v.6h-1.733v1.62q0 .473.192.706.191.232.694.232a2.2 2.2 0 0 0 .84-.158l.15.548q-.248.083-.526.146a3 3 0 0 1-.637.064M48.42 18.105v-7.5h.66v7.5zM57.795 16.32q-.525 0-.99-.169a3.5 3.5 0 0 1-.803-.401l.33-.48q.323.225.702.353t.858.127q.427 0 .63-.146t.203-.356a.4.4 0 0 0-.038-.18.38.38 0 0 0-.153-.154 1.6 1.6 0 0 0-.326-.139 6 6 0 0 0-.555-.143q-.728-.15-1.077-.408a.8.8 0 0 1-.349-.679.91.91 0 0 1 .402-.765q.198-.143.491-.225t.675-.082q.435 0 .829.146t.671.334l-.345.465a2.4 2.4 0 0 0-.574-.274 2.1 2.1 0 0 0-.648-.101q-.42 0-.59.135a.41.41 0 0 0-.168.33q0 .217.233.33.231.113.772.225.45.097.739.21.288.112.457.247t.236.304q.069.169.068.379 0 .233-.113.434a1.1 1.1 0 0 1-.326.357 1.6 1.6 0 0 1-.525.24 2.7 2.7 0 0 1-.716.086M62.25 16.32q-.36 0-.69-.127a1.7 1.7 0 0 1-.585-.376 1.8 1.8 0 0 1-.405-.603 2.1 2.1 0 0 1-.15-.814q0-.458.15-.818t.405-.607.585-.375.69-.127.69.127.585.375.405.607.15.818-.15.814q-.15.355-.405.604-.255.247-.585.375-.33.127-.69.127m0-.607q.495 0 .78-.36t.285-.953-.285-.953-.78-.36-.78.36-.285.953.285.952.78.36M65.535 16.23v-3.668h.615l.06.856h.023q.284-.45.693-.698.41-.248.904-.248.217 0 .383.034.165.034.337.117l-.165.637a4 4 0 0 0-.323-.09q-.135-.03-.344-.03-.398 0-.766.225-.367.225-.674.78v2.085zM71.94 16.32q-.405 0-.686-.113a1.1 1.1 0 0 1-.45-.315 1.25 1.25 0 0 1-.244-.483 2.4 2.4 0 0 1-.075-.626v-1.62H69.48V12.6l1.035-.037.098-1.163h.614v1.162h1.733v.6h-1.733v1.62q0 .473.192.706.191.232.694.232a2.2 2.2 0 0 0 .84-.158l.15.548q-.247.083-.526.146a3 3 0 0 1-.637.064M78.607 14.025v-.54h3.286v.54zM83.235 16.23v-5.318h.742v3.466h.03l1.808-1.815h.833l-1.44 1.454 1.62 2.213h-.818l-1.26-1.755-.773.78v.975zM93.637 16.32a2.7 2.7 0 0 1-1.046-.203 2 2 0 0 1-.382-.21 4 4 0 0 1-.311-.247l.36-.48q.232.21.54.371.306.162.75.162.24 0 .446-.072.206-.071.36-.198a.92.92 0 0 0 .334-.735q0-.466-.304-.717t-.799-.251q-.142 0-.259.019a1.5 1.5 0 0 0-.435.139 4 4 0 0 0-.229.12l-.375-.24.15-2.325h2.768v.63H93.09l-.113 1.282a1.876 1.876 0 0 1 .817-.172q.338 0 .639.09.3.09.52.273.222.185.353.465.132.282.132.664 0 .39-.15.694t-.402.514-.577.318a2.1 2.1 0 0 1-.672.109M101.107 14.025v-.54h3.286v.54zM107.183 17.888q-.789 0-1.234-.256-.447-.255-.447-.742 0-.465.593-.795v-.03a.8.8 0 0 1-.262-.229.6.6 0 0 1-.113-.379q0-.18.116-.363a1.2 1.2 0 0 1 .319-.326v-.03a1.15 1.15 0 0 1-.326-.38 1.15 1.15 0 0 1-.132-.566 1.23 1.23 0 0 1 .443-.967q.202-.172.469-.262t.566-.09q.308 0 .555.09h1.508v.585h-.893q.105.12.188.296a.9.9 0 0 1 .082.371q0 .3-.112.533a1.2 1.2 0 0 1-.308.393 1.3 1.3 0 0 1-.457.244 1.9 1.9 0 0 1-.563.083q-.135 0-.289-.03a1.7 1.7 0 0 1-.303-.09q-.256.165-.256.382 0 .383.728.383h.78q.72 0 1.073.202.352.203.352.675 0 .27-.146.506a1.3 1.3 0 0 1-.417.413q-.27.176-.656.277a3.4 3.4 0 0 1-.858.101m-.008-3.3q.315 0 .54-.21t.225-.585a.77.77 0 0 0-.225-.578.75.75 0 0 0-.54-.217.76.76 0 0 0-.772.795q0 .375.228.585.23.21.544.21m.082 2.782q.293 0 .53-.056.235-.057.4-.146a.8.8 0 0 0 .255-.207.4.4 0 0 0 .09-.243q0-.24-.194-.323-.196-.082-.585-.082h-.653q-.173 0-.308-.012a1 1 0 0 1-.247-.048.9.9 0 0 0-.326.266.5.5 0 0 0-.094.281q0 .263.292.416.294.154.84.154M115.92 18.105v-7.5h.66v7.5zM123.66 16.23v-5.318h.743v1.41l-.046.826h.023q.263-.285.581-.48.32-.195.747-.195.644 0 .945.382.3.383.3 1.102v2.273h-.743v-2.175q0-.48-.172-.709-.173-.228-.593-.229a.97.97 0 0 0-.525.147 3 3 0 0 0-.517.439v2.527zM129.975 16.32q-.42 0-.78-.127a1.737 1.737 0 0 1-1.054-.983 2.1 2.1 0 0 1-.153-.818q0-.45.157-.806a1.795 1.795 0 0 1 1.012-.982q.337-.131.706-.131.405 0 .72.127.315.128.528.356.215.229.327.548.112.318.112.701 0 .12-.008.225-.007.105-.022.18h-2.79q.06.57.431.848.372.276.911.277.308 0 .563-.086t.502-.236l.263.472a3 3 0 0 1-.641.311 2.4 2.4 0 0 1-.784.124m-.09-3.262q-.21 0-.397.063a1 1 0 0 0-.338.191q-.15.128-.255.316t-.15.434h2.137q-.037-.502-.303-.753-.267-.251-.694-.251M133.808 16.32q-.263 0-.492-.075a1.2 1.2 0 0 1-.393-.214.991.991 0 0 1-.353-.769q0-.306.146-.54.147-.232.458-.397t.802-.27a9 9 0 0 1 1.181-.157.92.92 0 0 0-.22-.578q-.207-.24-.695-.24-.336 0-.656.127-.318.127-.589.285l-.277-.502q.15-.09.338-.184a3.5 3.5 0 0 1 .843-.288q.23-.045.469-.046.765 0 1.147.413.383.413.383 1.14v2.205h-.608l-.06-.473h-.022q-.293.226-.656.394a1.76 1.76 0 0 1-.746.169m.21-.593q.292 0 .573-.127.281-.128.566-.36v-.87q-.54.045-.9.116t-.573.18a.8.8 0 0 0-.304.244.53.53 0 0 0-.09.3q0 .277.214.398.213.12.514.12M138.503 16.32a1.6 1.6 0 0 1-.65-.127 1.4 1.4 0 0 1-.498-.376 1.7 1.7 0 0 1-.322-.603 2.7 2.7 0 0 1-.113-.814q0-.45.139-.806.138-.357.367-.604a1.6 1.6 0 0 1 .525-.383q.296-.135.612-.134.322 0 .573.12.252.12.476.337h.023l-.037-.652v-1.366h.742v5.318h-.608l-.06-.45h-.022a2.2 2.2 0 0 1-.518.379q-.3.16-.63.161m.172-.615q.495 0 .922-.495v-1.74a1.3 1.3 0 0 0-.435-.293 1.2 1.2 0 0 0-.435-.082q-.218 0-.405.09a1 1 0 0 0-.33.259q-.142.168-.225.409-.082.24-.082.54 0 .638.259.974.258.338.731.338M146.108 14.025v-.54h3.284v.54zM150.66 16.23v-3.668h.607l.06.593h.03q.278-.285.6-.484a1.4 1.4 0 0 1 .75-.198q.645 0 .946.382.3.383.3 1.102v2.273h-.743v-2.175q0-.48-.173-.709-.172-.228-.592-.229a.97.97 0 0 0-.525.147 3 3 0 0 0-.517.439v2.527zM159.517 16.23v-.435q.585-.51 1.043-.926t.769-.773a3.7 3.7 0 0 0 .476-.663q.165-.308.165-.6 0-.398-.24-.638t-.735-.24q-.322 0-.6.165t-.495.39l-.42-.412q.338-.345.716-.54.38-.195.897-.195.36 0 .656.1.296.102.502.29t.319.453.113.589q0 .33-.158.664a3.5 3.5 0 0 1-.435.682 8 8 0 0 1-.66.724q-.383.375-.833.78l.447-.03q.228-.015.431-.015h1.463v.63zM164.198 16.23v-.607h1.35v-3.33h-1.066v-.465q.444-.06.732-.15t.529-.226h.547v4.17h1.208v.608zM174.42 18.105v-7.5h.66v7.5zM183.795 16.32q-.525 0-.99-.169a3.5 3.5 0 0 1-.803-.401l.33-.48q.323.225.702.353t.858.127q.427 0 .63-.146t.203-.356a.4.4 0 0 0-.037-.18.38.38 0 0 0-.154-.154 1.6 1.6 0 0 0-.327-.139 6 6 0 0 0-.554-.143q-.728-.15-1.077-.408a.8.8 0 0 1-.349-.679.91.91 0 0 1 .402-.765q.198-.143.491-.225.292-.082.675-.082.435 0 .829.146t.671.334l-.345.465a2.4 2.4 0 0 0-.574-.274 2.1 2.1 0 0 0-.649-.101q-.42 0-.588.135a.41.41 0 0 0-.169.33q0 .217.232.33.233.113.773.225.45.097.739.21.288.112.457.247t.237.304.067.379q0 .233-.113.434a1.1 1.1 0 0 1-.326.357 1.6 1.6 0 0 1-.525.24 2.7 2.7 0 0 1-.716.086M188.25 16.32q-.36 0-.69-.127a1.7 1.7 0 0 1-.585-.376 1.8 1.8 0 0 1-.405-.603 2.1 2.1 0 0 1-.15-.814q0-.458.15-.818t.405-.607.585-.375.69-.127.69.127.585.375.405.607.15.818-.15.814q-.15.355-.405.604-.255.247-.585.375-.33.127-.69.127m0-.607q.495 0 .78-.36t.285-.953-.285-.953-.78-.36-.78.36-.285.953.285.952.78.36M191.535 16.23v-3.668h.615l.06.856h.022q.285-.45.694-.698.41-.248.904-.248.217 0 .382.034t.338.117l-.165.637a4 4 0 0 0-.322-.09q-.136-.03-.345-.03-.398 0-.766.225t-.674.78v2.085zM197.94 16.32q-.405 0-.686-.113a1.1 1.1 0 0 1-.45-.315 1.25 1.25 0 0 1-.244-.483 2.4 2.4 0 0 1-.075-.626v-1.62h-1.005V12.6l1.035-.037.097-1.163h.615v1.162h1.733v.6h-1.733v1.62q0 .473.192.706.19.232.693.232a2.2 2.2 0 0 0 .84-.158l.15.548q-.248.083-.525.146a3 3 0 0 1-.637.064M204.608 14.025v-.54h3.284v.54zM209.235 16.23v-5.318h.742v3.466h.03l1.808-1.815h.832l-1.44 1.454 1.62 2.213h-.817l-1.26-1.755-.773.78v.975zM220.207 16.23v-1.275h-2.422v-.502l2.287-3.008h.833v2.925h.713v.585h-.713v1.275zm-1.642-1.86h1.642v-1.305q.008-.203.016-.446.006-.244.022-.454h-.038a6 6 0 0 1-.24.368l-.255.36zM227.108 14.025v-.54h3.284v.54zM231.66 16.23v-3.668h.607l.06.593h.03q.278-.285.6-.484a1.4 1.4 0 0 1 .75-.198q.645 0 .946.382.3.383.3 1.102v2.273h-.743v-2.175q0-.48-.173-.709-.172-.228-.592-.229a.97.97 0 0 0-.525.147 3 3 0 0 0-.517.439v2.527zM240.608 14.025v-.54h3.284v.54zM247.44 16.32q-.405 0-.686-.113a1.1 1.1 0 0 1-.45-.315 1.25 1.25 0 0 1-.244-.483 2.4 2.4 0 0 1-.075-.626v-1.62h-1.005V12.6l1.035-.037.097-1.163h.615v1.162h1.733v.6h-1.733v1.62q0 .473.192.706.19.232.693.232a2.2 2.2 0 0 0 .84-.158l.15.548q-.248.083-.525.146a3 3 0 0 1-.637.064M254.618 13.68l-.21-1.71-.023-.885h.945l-.023.885-.21 1.71zm1.792 0-.21-1.71-.022-.885h.945l-.023.885-.21 1.71zM259.118 13.68l-.21-1.71-.023-.885h.945l-.022.885-.21 1.71zm1.792 0-.21-1.71-.022-.885h.945l-.023.885-.21 1.71z"/></g><g fill-rule="nonzero" transform="translate(268.853 9.984)"><use xlink:href="#a" fill="#333"/><use xlink:href="#a" fill="#2563EB"/></g></g></svg>
