<svg xmlns="http://www.w3.org/2000/svg" viewBox="0 0 1158 313"><g fill="none" fill-rule="evenodd"><rect width="1154" height="303" x="1.89" y="7.037" fill="#FFF" stroke="#BFBFBF" stroke-width="2" rx="10"/><rect width="117" height="33" x="1027" y="124.537" stroke="#D97705" stroke-width="2" rx="8"/><g transform="translate(2.844 3.037)"><path fill="#EBEBEB" stroke="#BFBFBF" stroke-width="2" d="M1142-1c3.038 0 5.788 1.231 7.778 3.222A10.97 10.97 0 0 1 1153 10v25H-1V10C-1 6.962.231 4.212 2.222 2.222A10.97 10.97 0 0 1 10-1z"/><circle cx="17.156" cy="17" r="5.5" fill="#D8D8D8" stroke="#979797"/><circle cx="35.88" cy="17" r="5.5" fill="#D8D8D8" stroke="#979797"/><circle cx="54.603" cy="17" r="5.5" fill="#D8D8D8" stroke="#979797"/></g><path stroke="#D97705" stroke-linecap="square" stroke-width="2" d="M681.5 252.375v22.875"/><path fill="#D97705" fill-rule="nonzero" d="M988 245.375a7 7 0 1 1-6.929 8.001H378.93A7.002 7.002 0 0 1 365 252.375a7 7 0 0 1 13.93-1h602.14a7 7 0 0 1 6.93-6m0 2a5 5 0 1 0 0 10 5 5 0 0 0 0-10m-616 0a5 5 0 1 0 0 10 5 5 0 0 0 0-10"/><g fill="#D97705" fill-rule="nonzero"><path d="M581.532 296.458q-.72.528-1.704.804a7.6 7.6 0 0 1-2.064.276q-1.392 0-2.352-.444a4 4 0 0 1-1.572-1.272q-.612-.828-.888-1.992a11.2 11.2 0 0 1-.276-2.58q0-3.048 1.344-4.668t3.864-1.62q1.152 0 1.956.18t1.452.516l-.552 1.656a5.2 5.2 0 0 0-1.224-.492 5.6 5.6 0 0 0-1.44-.18q-3.408 0-3.408 4.608 0 .912.18 1.74t.6 1.464 1.104 1.02 1.692.384q.864 0 1.548-.264t1.116-.6zM582.948 291.25q0-3.048 1.356-4.668t3.9-1.62q1.344 0 2.34.444t1.644 1.272.96 1.992.312 2.58q0 3.048-1.356 4.668t-3.9 1.62q-1.344 0-2.34-.444a4.25 4.25 0 0 1-1.644-1.272q-.648-.828-.96-1.992t-.312-2.58m1.992 0q0 .912.18 1.752t.564 1.464 1.008 1.008 1.512.384q3.264.024 3.264-4.608a8.5 8.5 0 0 0-.18-1.776 4.6 4.6 0 0 0-.564-1.464 2.9 2.9 0 0 0-1.008-.996q-.624-.372-1.512-.372-3.264-.024-3.264 4.608M603.516 297.25v-6.792q0-.96-.084-1.668t-.324-1.188-.684-.72-1.164-.24q-1.104 0-1.836.672a3.56 3.56 0 0 0-1.02 1.68v8.256h-1.92v-12h1.344l.36 1.464h.096a5.6 5.6 0 0 1 1.5-1.26q.852-.492 2.22-.492 1.152 0 1.884.444t1.14 1.548a3.9 3.9 0 0 1 1.524-1.464q.972-.528 2.196-.528 1.008 0 1.704.228t1.152.804.66 1.56.204 2.496v7.2h-1.92v-7.224q0-.864-.084-1.5t-.336-1.056-.696-.624-1.164-.204q-1.2 0-1.872.672t-.96 1.92v8.016zM623.004 297.25v-6.792q0-.96-.084-1.668t-.324-1.188-.684-.72-1.164-.24q-1.104 0-1.836.672a3.56 3.56 0 0 0-1.02 1.68v8.256h-1.92v-12h1.344l.36 1.464h.096a5.6 5.6 0 0 1 1.5-1.26q.852-.492 2.22-.492 1.152 0 1.884.444t1.14 1.548a3.9 3.9 0 0 1 1.524-1.464q.972-.528 2.196-.528 1.008 0 1.704.228t1.152.804.66 1.56.204 2.496v7.2h-1.92v-7.224q0-.864-.084-1.5t-.336-1.056-.696-.624-1.164-.204q-1.2 0-1.872.672t-.96 1.92v8.016zM635.268 286.138q.912-.552 2.124-.816a12 12 0 0 1 2.532-.264q1.248 0 2.004.336t1.152.876a3 3 0 0 1 .528 1.188q.132.648.132 1.296 0 1.44-.072 2.808a49 49 0 0 0-.072 2.592q0 .888.072 1.68t.264 1.464h-1.416l-.504-1.68h-.12a4 4 0 0 1-.54.66 3.5 3.5 0 0 1-.78.576 5 5 0 0 1-1.056.42q-.6.168-1.368.168t-1.428-.24-1.14-.684a3.2 3.2 0 0 1-.756-1.068 3.5 3.5 0 0 1-.276-1.416q0-1.056.432-1.764a3.1 3.1 0 0 1 1.212-1.128q.78-.42 1.872-.6t2.412-.18h.66q.324 0 .66.048.072-.72.072-1.296 0-1.32-.528-1.848t-1.92-.528q-.408 0-.876.06t-.96.168a8 8 0 0 0-.936.264q-.444.156-.78.348zm3.408 9.624q.672 0 1.2-.18t.912-.456a2.9 2.9 0 0 0 1.008-1.26v-1.992a19 19 0 0 0-1.368-.048q-.744 0-1.452.084t-1.248.312-.864.624-.324.996q0 .84.6 1.38t1.536.54M655.068 297.25v-6.84q0-1.872-.54-2.82t-1.98-.948q-1.272 0-2.1.684a3.64 3.64 0 0 0-1.164 1.716v8.208h-1.92v-12h1.344l.36 1.464h.096q.576-.768 1.548-1.26t2.316-.492q.984 0 1.728.228t1.236.804.744 1.548.252 2.46v7.248zM669.708 293.122q0 1.224.024 2.22t.216 1.956h-1.296l-.48-1.704h-.096q-.48.84-1.392 1.392t-2.136.552q-2.4 0-3.564-1.512t-1.164-4.728q0-3.072 1.452-4.668t3.996-1.596q.888 0 1.404.096t1.116.312v-4.992h1.92zm-4.848 2.736q1.224 0 1.944-.636t.984-1.932v-5.952a2.7 2.7 0 0 0-.984-.48q-.552-.144-1.464-.144-1.656 0-2.592 1.092t-.936 3.492a10 10 0 0 0 .156 1.824q.156.84.516 1.44t.948.948 1.428.348M679.62 286.138q.912-.552 2.124-.816a12 12 0 0 1 2.532-.264q1.248 0 2.004.336t1.152.876a3 3 0 0 1 .528 1.188q.132.648.132 1.296 0 1.44-.072 2.808a49 49 0 0 0-.072 2.592q0 .888.072 1.68t.264 1.464h-1.416l-.504-1.68h-.12a4 4 0 0 1-.54.66 3.5 3.5 0 0 1-.78.576 5 5 0 0 1-1.056.42q-.6.168-1.368.168t-1.428-.24-1.14-.684a3.2 3.2 0 0 1-.756-1.068 3.5 3.5 0 0 1-.276-1.416q0-1.056.432-1.764a3.1 3.1 0 0 1 1.212-1.128q.78-.42 1.872-.6t2.412-.18h.66q.324 0 .66.048.072-.72.072-1.296 0-1.32-.528-1.848t-1.92-.528q-.408 0-.876.06t-.96.168a8 8 0 0 0-.936.264q-.444.156-.78.348zm3.408 9.624q.672 0 1.2-.18t.912-.456a2.9 2.9 0 0 0 1.008-1.26v-1.992a19 19 0 0 0-1.368-.048q-.744 0-1.452.084t-1.248.312-.864.624-.324.996q0 .84.6 1.38t1.536.54M697.38 287.098q-.72-.24-1.368-.24-1.032 0-1.632.564t-.744 1.428v8.4h-1.92v-12h1.344l.36 1.464h.096q.456-.816 1.092-1.26t1.62-.444q.696 0 1.56.24zM709.068 297.802q0 2.328-1.236 3.432t-3.66 1.104q-1.44 0-2.316-.18a7 7 0 0 1-1.5-.468l.504-1.632q.552.216 1.224.408t1.752.192q1.008 0 1.644-.18t1.02-.6.528-1.08.144-1.572v-1.152h-.096a3.2 3.2 0 0 1-1.224 1.068q-.744.372-1.944.372-2.424 0-3.564-1.512t-1.14-4.704q0-3.072 1.464-4.668t4.32-1.596q1.368 0 2.34.216t1.74.504zm-4.824-1.968q1.224 0 1.92-.612t.984-1.908v-6.144q-.96-.456-2.448-.456-1.632 0-2.568 1.104t-.936 3.456q0 1.008.168 1.848t.528 1.44.936.936 1.416.336M714.492 285.25v6.84q0 .936.108 1.644t.372 1.176.72.708 1.152.24a3 3 0 0 0 1.152-.204 3 3 0 0 0 .9-.564q.396-.36.696-.828t.492-.996v-8.016h1.92v8.592q0 .864.06 1.788t.204 1.62h-1.32l-.48-1.896h-.12a4.8 4.8 0 0 1-1.488 1.56q-.936.624-2.376.624-.96 0-1.692-.228a2.6 2.6 0 0 1-1.224-.804q-.492-.576-.744-1.548t-.252-2.46v-7.248zM732.732 297.25v-6.792q0-.96-.084-1.668t-.324-1.188-.684-.72-1.164-.24q-1.104 0-1.836.672a3.56 3.56 0 0 0-1.02 1.68v8.256h-1.92v-12h1.344l.36 1.464h.096a5.6 5.6 0 0 1 1.5-1.26q.852-.492 2.22-.492 1.152 0 1.884.444t1.14 1.548a3.9 3.9 0 0 1 1.524-1.464q.972-.528 2.196-.528 1.008 0 1.704.228t1.152.804.66 1.56.204 2.496v7.2h-1.92v-7.224q0-.864-.084-1.5t-.336-1.056-.696-.624-1.164-.204q-1.2 0-1.872.672t-.96 1.92v8.016zM753.948 296.29q-.72.576-1.812.912t-2.316.336q-1.368 0-2.376-.444a4.2 4.2 0 0 1-1.656-1.272q-.648-.828-.96-1.98t-.312-2.592q0-3.072 1.368-4.68t3.912-1.608q.816 0 1.632.18t1.464.684 1.056 1.428.408 2.436q0 .792-.144 1.752h-7.704q0 1.056.216 1.872t.672 1.38 1.188.864 1.788.3q.816 0 1.632-.288t1.224-.672zm-4.128-9.648q-1.416 0-2.268.744t-1.02 2.544h5.952q0-1.824-.696-2.556t-1.968-.732M765.084 297.25v-6.84q0-1.872-.54-2.82t-1.98-.948q-1.272 0-2.1.684a3.64 3.64 0 0 0-1.164 1.716v8.208h-1.92v-12h1.344l.36 1.464h.096q.576-.768 1.548-1.26t2.316-.492q.984 0 1.728.228t1.236.804.744 1.548.252 2.46v7.248zM768.924 285.25h1.872v-2.376l1.92-.552v2.928h3.264v1.68h-3.264v6.648q0 1.248.312 1.764t1.056.516q.624 0 1.056-.132t.96-.348l.432 1.464a7.4 7.4 0 0 1-1.416.504 6.8 6.8 0 0 1-1.656.192q-1.464 0-2.064-.828t-.6-2.772v-7.008h-1.872zM783.924 293.986q0-.72-.432-1.128a3.7 3.7 0 0 0-1.068-.684q-.636-.276-1.392-.528a6.5 6.5 0 0 1-1.392-.648 3.6 3.6 0 0 1-1.068-1.02q-.432-.624-.432-1.68 0-1.728.984-2.532t2.736-.804q1.296 0 2.172.228a8.4 8.4 0 0 1 1.524.54l-.456 1.584a7.5 7.5 0 0 0-1.332-.468 6.6 6.6 0 0 0-1.668-.204q-1.056 0-1.548.36t-.492 1.248q0 .624.432.972t1.068.624a20 20 0 0 0 1.392.54q.756.264 1.392.696t1.068 1.092.432 1.74q0 .768-.252 1.44a2.9 2.9 0 0 1-.78 1.152q-.528.48-1.308.756t-1.836.276q-1.368 0-2.328-.264t-1.608-.624l.576-1.632q.552.312 1.44.576a6.3 6.3 0 0 0 1.8.264q1.032 0 1.704-.408t.672-1.464"/></g><path fill="#D97705" fill-rule="nonzero" d="M313.804 84v17.32a7.002 7.002 0 0 1-1 13.93 7 7 0 0 1-1-13.93V84zm-1 19.25a5 5 0 1 0 0 10 5 5 0 0 0 0-10M483.304 84v17.32a7.002 7.002 0 0 1-1 13.93 7 7 0 0 1-1-13.93V84zm-1 19.25a5 5 0 1 0 0 10 5 5 0 0 0 0-10"/><g fill="#D97705" fill-rule="nonzero"><path d="M191.336 77.61q-.72.529-1.704.805a7.6 7.6 0 0 1-2.064.276q-1.392 0-2.352-.444a4 4 0 0 1-1.572-1.272q-.612-.828-.888-1.992a11.2 11.2 0 0 1-.276-2.58q0-3.048 1.344-4.668t3.864-1.62q1.152 0 1.956.18t1.452.516l-.552 1.656a5.2 5.2 0 0 0-1.224-.492 5.6 5.6 0 0 0-1.44-.18q-3.408 0-3.408 4.608 0 .912.18 1.74t.6 1.464 1.104 1.02 1.692.384q.864 0 1.548-.264t1.116-.6zM192.752 72.403q0-3.048 1.356-4.668t3.9-1.62q1.344 0 2.34.444t1.644 1.272.96 1.992.312 2.58q0 3.048-1.356 4.668t-3.9 1.62q-1.344 0-2.34-.444a4.25 4.25 0 0 1-1.644-1.272q-.648-.828-.96-1.992t-.312-2.58m1.992 0q0 .912.18 1.752t.564 1.464 1.008 1.008 1.512.384q3.264.024 3.264-4.608a8.5 8.5 0 0 0-.18-1.776 4.6 4.6 0 0 0-.564-1.464 2.9 2.9 0 0 0-1.008-.996q-.624-.372-1.512-.372-3.264-.024-3.264 4.608M213.32 78.403V71.61q0-.96-.084-1.668t-.324-1.188-.684-.72-1.164-.24q-1.104 0-1.836.672a3.56 3.56 0 0 0-1.02 1.68v8.256h-1.92v-12h1.344l.36 1.464h.096a5.6 5.6 0 0 1 1.5-1.26q.852-.492 2.22-.492 1.152 0 1.884.444t1.14 1.548a3.9 3.9 0 0 1 1.524-1.464q.972-.528 2.196-.528 1.008 0 1.704.228t1.152.804.66 1.56.204 2.496v7.2h-1.92v-7.224q0-.864-.084-1.5t-.336-1.056-.696-.624-1.164-.204q-1.2 0-1.872.672t-.96 1.92v8.016zM232.808 78.403V71.61q0-.96-.084-1.668t-.324-1.188-.684-.72-1.164-.24q-1.104 0-1.836.672a3.56 3.56 0 0 0-1.02 1.68v8.256h-1.92v-12h1.344l.36 1.464h.096a5.6 5.6 0 0 1 1.5-1.26q.852-.492 2.22-.492 1.152 0 1.884.444t1.14 1.548a3.9 3.9 0 0 1 1.524-1.464q.972-.528 2.196-.528 1.008 0 1.704.228t1.152.804.66 1.56.204 2.496v7.2h-1.92v-7.224q0-.864-.084-1.5t-.336-1.056-.696-.624-1.164-.204q-1.2 0-1.872.672t-.96 1.92v8.016zM245.072 67.29q.912-.552 2.124-.815a12 12 0 0 1 2.532-.264q1.248 0 2.004.336t1.152.876a3 3 0 0 1 .528 1.188q.132.648.132 1.296 0 1.44-.072 2.808a49 49 0 0 0-.072 2.592q0 .888.072 1.68t.264 1.464h-1.416l-.504-1.68h-.12a4 4 0 0 1-.54.66 3.5 3.5 0 0 1-.78.576 5 5 0 0 1-1.056.42q-.6.168-1.368.168t-1.428-.24-1.14-.684a3.2 3.2 0 0 1-.756-1.068 3.5 3.5 0 0 1-.276-1.416q0-1.056.432-1.764a3.1 3.1 0 0 1 1.212-1.128q.78-.42 1.872-.6t2.412-.18h.66q.324 0 .66.048.072-.72.072-1.296 0-1.32-.528-1.848t-1.92-.528q-.408 0-.876.06t-.96.168a8 8 0 0 0-.936.264q-.444.156-.78.348zm3.408 9.625q.672 0 1.2-.18t.912-.456a2.9 2.9 0 0 0 1.008-1.26v-1.992a19 19 0 0 0-1.368-.048q-.744 0-1.452.084t-1.248.312-.864.624-.324.996q0 .84.6 1.38t1.536.54M264.872 78.403v-6.84q0-1.872-.54-2.82t-1.98-.948q-1.272 0-2.1.684a3.64 3.64 0 0 0-1.164 1.716v8.208h-1.92v-12h1.344l.36 1.464h.096q.576-.768 1.548-1.26t2.316-.492q.984 0 1.728.228t1.236.804.744 1.548.252 2.46v7.248zM279.512 74.275q0 1.224.024 2.22t.216 1.956h-1.296l-.48-1.704h-.096q-.48.84-1.392 1.392t-2.136.552q-2.4 0-3.564-1.512t-1.164-4.728q0-3.072 1.452-4.668t3.996-1.596q.888 0 1.404.096t1.116.312v-4.992h1.92zm-4.848 2.736q1.224 0 1.944-.636t.984-1.932V68.49a2.7 2.7 0 0 0-.984-.48q-.552-.144-1.464-.144-1.656 0-2.592 1.092t-.936 3.492a10 10 0 0 0 .156 1.824q.156.84.516 1.44t.948.948 1.428.348M297.32 78.403v-6.84q0-1.872-.54-2.82t-1.98-.948q-1.272 0-2.1.684a3.64 3.64 0 0 0-1.164 1.716v8.208h-1.92v-12h1.344l.36 1.464h.096q.576-.768 1.548-1.26t2.316-.492q.984 0 1.728.228t1.236.804.744 1.548.252 2.46v7.248zM302.552 67.29q.912-.552 2.124-.815a12 12 0 0 1 2.532-.264q1.248 0 2.004.336t1.152.876a3 3 0 0 1 .528 1.188q.132.648.132 1.296 0 1.44-.072 2.808a49 49 0 0 0-.072 2.592q0 .888.072 1.68t.264 1.464H309.8l-.504-1.68h-.12a4 4 0 0 1-.54.66 3.5 3.5 0 0 1-.78.576 5 5 0 0 1-1.056.42q-.6.168-1.368.168t-1.428-.24-1.14-.684a3.2 3.2 0 0 1-.756-1.068 3.5 3.5 0 0 1-.276-1.416q0-1.056.432-1.764a3.1 3.1 0 0 1 1.212-1.128q.78-.42 1.872-.6t2.412-.18h.66q.324 0 .66.048.072-.72.072-1.296 0-1.32-.528-1.848t-1.92-.528q-.408 0-.876.06t-.96.168a8 8 0 0 0-.936.264q-.444.156-.78.348zm3.408 9.625q.672 0 1.2-.18t.912-.456a2.9 2.9 0 0 0 1.008-1.26v-1.992a19 19 0 0 0-1.368-.048q-.744 0-1.452.084t-1.248.312-.864.624-.324.996q0 .84.6 1.38t1.536.54M321.68 78.403V71.61q0-.96-.084-1.668t-.324-1.188-.684-.72-1.164-.24q-1.104 0-1.836.672a3.56 3.56 0 0 0-1.02 1.68v8.256h-1.92v-12h1.344l.36 1.464h.096a5.6 5.6 0 0 1 1.5-1.26q.852-.492 2.22-.492 1.152 0 1.884.444t1.14 1.548a3.9 3.9 0 0 1 1.524-1.464q.972-.528 2.196-.528 1.008 0 1.704.228t1.152.804.66 1.56.204 2.496v7.2h-1.92v-7.224q0-.864-.084-1.5t-.336-1.056-.696-.624-1.164-.204q-1.2 0-1.872.672t-.96 1.92v8.016zM342.896 77.443q-.72.576-1.812.912t-2.316.336q-1.368 0-2.376-.444a4.2 4.2 0 0 1-1.656-1.272q-.648-.828-.96-1.98t-.312-2.592q0-3.072 1.368-4.68t3.912-1.608q.816 0 1.632.18t1.464.684 1.056 1.428.408 2.436q0 .792-.144 1.752h-7.704q0 1.056.216 1.872t.672 1.38 1.188.864 1.788.3q.816 0 1.632-.288t1.224-.672zm-4.128-9.648q-1.416 0-2.268.744t-1.02 2.544h5.952q0-1.824-.696-2.556t-1.968-.732"/></g><g fill="#D97705" fill-rule="nonzero"><path d="M448.48 72q0-3.048 1.356-4.668t3.9-1.62q1.344 0 2.34.444t1.644 1.272.96 1.992.312 2.58q0 3.048-1.356 4.668t-3.9 1.62q-1.344 0-2.34-.444a4.25 4.25 0 0 1-1.644-1.272q-.648-.828-.96-1.992T448.48 72m1.992 0q0 .912.18 1.752t.564 1.464 1.008 1.008 1.512.384Q457 76.632 457 72a8.5 8.5 0 0 0-.18-1.776 4.6 4.6 0 0 0-.564-1.464 2.9 2.9 0 0 0-1.008-.996q-.624-.372-1.512-.372-3.264-.024-3.264 4.608M462.016 66h1.32l.36 1.44h.096q.552-.84 1.428-1.284t2.004-.444q2.4 0 3.576 1.416t1.176 4.632q0 1.512-.396 2.724t-1.116 2.052-1.74 1.296-2.268.456q-.888 0-1.404-.108a5.7 5.7 0 0 1-1.116-.372V82.8h-1.92zm4.848 1.392q-1.224 0-1.932.636t-.996 1.932v5.952q.432.336.984.516t1.464.18q1.656 0 2.628-1.236t.972-3.636q0-.984-.168-1.788t-.54-1.368a2.6 2.6 0 0 0-.96-.876q-.588-.312-1.452-.312M473.416 66h1.872v-2.376l1.92-.552V66h3.264v1.68h-3.264v6.648q0 1.248.312 1.764t1.056.516q.624 0 1.056-.132t.96-.348l.432 1.464a7.4 7.4 0 0 1-1.416.504 6.8 6.8 0 0 1-1.656.192q-1.464 0-2.064-.828t-.6-2.772V67.68h-1.872zM483.544 66h1.92v12h-1.92zm-.408-3.648q0-.552.372-.948t.948-.396.984.396.408.948-.408.912-.984.36-.948-.36a1.22 1.22 0 0 1-.372-.912M488.896 72q0-3.048 1.356-4.668t3.9-1.62q1.344 0 2.34.444t1.644 1.272.96 1.992.312 2.58q0 3.048-1.356 4.668t-3.9 1.62q-1.344 0-2.34-.444a4.25 4.25 0 0 1-1.644-1.272q-.648-.828-.96-1.992t-.312-2.58m1.992 0q0 .912.18 1.752t.564 1.464 1.008 1.008 1.512.384q3.264.024 3.264-4.608a8.5 8.5 0 0 0-.18-1.776 4.6 4.6 0 0 0-.564-1.464 2.9 2.9 0 0 0-1.008-.996q-.624-.372-1.512-.372-3.264-.024-3.264 4.608M510.136 78v-6.84q0-1.872-.54-2.82t-1.98-.948q-1.272 0-2.1.684a3.64 3.64 0 0 0-1.164 1.716V78h-1.92V66h1.344l.36 1.464h.096q.576-.768 1.548-1.26t2.316-.492q.984 0 1.728.228t1.236.804.744 1.548.252 2.46V78z"/></g><g fill="#D97705" fill-rule="nonzero"><path d="m752.304 84 .001 17.321a7.002 7.002 0 0 1-1 13.929 7 7 0 0 1-1-13.93V84zm-1 19.25a5 5 0 1 0 0 10 5 5 0 0 0 0-10M685.98 72q0-3.048 1.356-4.668t3.9-1.62q1.344 0 2.34.444t1.644 1.272.96 1.992.312 2.58q0 3.048-1.356 4.668t-3.9 1.62q-1.344 0-2.34-.444a4.25 4.25 0 0 1-1.644-1.272q-.648-.828-.96-1.992T685.98 72m1.992 0q0 .912.18 1.752t.564 1.464 1.008 1.008 1.512.384q3.264.024 3.264-4.608a8.5 8.5 0 0 0-.18-1.776 4.6 4.6 0 0 0-.564-1.464 2.9 2.9 0 0 0-1.008-.996q-.624-.372-1.512-.372-3.264-.024-3.264 4.608M699.516 66h1.32l.36 1.44h.096q.552-.84 1.428-1.284t2.004-.444q2.4 0 3.576 1.416t1.176 4.632q0 1.512-.396 2.724t-1.116 2.052-1.74 1.296-2.268.456q-.888 0-1.404-.108a5.7 5.7 0 0 1-1.116-.372V82.8h-1.92zm4.848 1.392q-1.224 0-1.932.636t-.996 1.932v5.952q.432.336.984.516t1.464.18q1.656 0 2.628-1.236t.972-3.636q0-.984-.168-1.788t-.54-1.368a2.6 2.6 0 0 0-.96-.876q-.588-.312-1.452-.312M710.916 66h1.872v-2.376l1.92-.552V66h3.264v1.68h-3.264v6.648q0 1.248.312 1.764t1.056.516q.624 0 1.056-.132t.96-.348l.432 1.464a7.4 7.4 0 0 1-1.416.504 6.8 6.8 0 0 1-1.656.192q-1.464 0-2.064-.828t-.6-2.772V67.68h-1.872zM721.044 66h1.92v12h-1.92zm-.408-3.648q0-.552.372-.948t.948-.396.984.396.408.948-.408.912-.984.36-.948-.36a1.22 1.22 0 0 1-.372-.912M726.396 72q0-3.048 1.356-4.668t3.9-1.62q1.344 0 2.34.444t1.644 1.272.96 1.992.312 2.58q0 3.048-1.356 4.668t-3.9 1.62q-1.344 0-2.34-.444a4.25 4.25 0 0 1-1.644-1.272q-.648-.828-.96-1.992t-.312-2.58m1.992 0q0 .912.18 1.752t.564 1.464 1.008 1.008 1.512.384q3.264.024 3.264-4.608a8.5 8.5 0 0 0-.18-1.776 4.6 4.6 0 0 0-.564-1.464 2.9 2.9 0 0 0-1.008-.996q-.624-.372-1.512-.372-3.264-.024-3.264 4.608M747.636 78v-6.84q0-1.872-.54-2.82t-1.98-.948q-1.272 0-2.1.684a3.64 3.64 0 0 0-1.164 1.716V78h-1.92V66h1.344l.36 1.464h.096q.576-.768 1.548-1.26t2.316-.492q.984 0 1.728.228t1.236.804.744 1.548.252 2.46V78zM762.588 73.032l.672 2.28h.024l.6-2.328L766.572 66h2.064l-5.112 12.264h-.816L757.5 66h2.208zM770.508 66.888q.912-.552 2.124-.816a12 12 0 0 1 2.532-.264q1.248 0 2.004.336t1.152.876a3 3 0 0 1 .528 1.188q.132.648.132 1.296 0 1.44-.072 2.808a49 49 0 0 0-.072 2.592q0 .888.072 1.68t.264 1.464h-1.416l-.504-1.68h-.12a4 4 0 0 1-.54.66 3.5 3.5 0 0 1-.78.576 5 5 0 0 1-1.056.42q-.6.168-1.368.168t-1.428-.24-1.14-.684a3.2 3.2 0 0 1-.756-1.068 3.5 3.5 0 0 1-.276-1.416q0-1.056.432-1.764a3.1 3.1 0 0 1 1.212-1.128q.78-.42 1.872-.6t2.412-.18h.66q.324 0 .66.048.072-.72.072-1.296 0-1.32-.528-1.848t-1.92-.528q-.408 0-.876.06t-.96.168a8 8 0 0 0-.936.264q-.444.156-.78.348zm3.408 9.624q.672 0 1.2-.18t.912-.456a2.9 2.9 0 0 0 1.008-1.26v-1.992a19 19 0 0 0-1.368-.048q-.744 0-1.452.084t-1.248.312-.864.624-.324.996q0 .84.6 1.38t1.536.54M784.74 75.048q0 .84.288 1.2t.816.36q.312 0 .672-.048t.816-.216l.216 1.512q-.384.192-1.068.312t-1.188.12q-1.08 0-1.776-.612t-.696-2.076V61.2h1.92zM791.34 66v6.84q0 .936.108 1.644t.372 1.176.72.708 1.152.24a3 3 0 0 0 1.152-.204 3 3 0 0 0 .9-.564q.396-.36.696-.828t.492-.996V66h1.92v8.592q0 .864.06 1.788t.204 1.62h-1.32l-.48-1.896h-.12a4.8 4.8 0 0 1-1.488 1.56q-.936.624-2.376.624-.96 0-1.692-.228a2.6 2.6 0 0 1-1.224-.804q-.492-.576-.744-1.548t-.252-2.46V66zM811.308 77.04q-.72.576-1.812.912t-2.316.336q-1.368 0-2.376-.444a4.2 4.2 0 0 1-1.656-1.272q-.648-.828-.96-1.98T801.876 72q0-3.072 1.368-4.68t3.912-1.608q.816 0 1.632.18t1.464.684 1.056 1.428.408 2.436q0 .792-.144 1.752h-7.704q0 1.056.216 1.872t.672 1.38 1.188.864 1.788.3q.816 0 1.632-.288t1.224-.672zm-4.128-9.648q-1.416 0-2.268.744t-1.02 2.544h5.952q0-1.824-.696-2.556t-1.968-.732"/></g><path fill="#D97705" fill-rule="nonzero" d="M407.804 167.741a7 7 0 0 1 1.001 13.929v17.321h-2v-17.32a7.002 7.002 0 0 1 1-13.93m0 2a5 5 0 1 0 0 10 5 5 0 0 0 0-10"/><g fill="#D97705" fill-rule="nonzero"><path d="M372.432 216.727q0-.72-.432-1.128a3.7 3.7 0 0 0-1.068-.684q-.636-.276-1.392-.528a6.5 6.5 0 0 1-1.392-.648 3.6 3.6 0 0 1-1.068-1.02q-.432-.624-.432-1.68 0-1.728.984-2.532t2.736-.804q1.296 0 2.172.228a8.4 8.4 0 0 1 1.524.54l-.456 1.584a7.5 7.5 0 0 0-1.332-.468 6.6 6.6 0 0 0-1.668-.204q-1.056 0-1.548.36t-.492 1.248q0 .624.432.972t1.068.624a20 20 0 0 0 1.392.54q.756.264 1.392.696t1.068 1.092.432 1.74q0 .768-.252 1.44a2.9 2.9 0 0 1-.78 1.152q-.528.48-1.308.756t-1.836.276q-1.368 0-2.328-.264t-1.608-.624l.576-1.632q.552.312 1.44.576a6.3 6.3 0 0 0 1.8.264q1.032 0 1.704-.408t.672-1.464M378.984 207.991v6.84q0 .936.108 1.644t.372 1.176.72.708 1.152.24a3 3 0 0 0 1.152-.204 3 3 0 0 0 .9-.564q.396-.36.696-.828t.492-.996v-8.016h1.92v8.592q0 .864.06 1.788t.204 1.62h-1.32l-.48-1.896h-.12a4.8 4.8 0 0 1-1.488 1.56q-.936.624-2.376.624-.96 0-1.692-.228a2.6 2.6 0 0 1-1.224-.804q-.492-.576-.744-1.548t-.252-2.46v-7.248zM390.192 203.191h1.92v5.976h.096a3.7 3.7 0 0 1 1.404-1.08 4.5 4.5 0 0 1 1.86-.384q2.328 0 3.492 1.488t1.164 4.608q0 3.144-1.536 4.776t-4.32 1.632q-1.344 0-2.436-.288t-1.644-.624zm4.944 6.192q-1.2 0-1.944.672t-1.08 1.896v6.048a3.7 3.7 0 0 0 1.104.396q.648.132 1.344.132 1.632 0 2.604-1.152t.972-3.6q0-.936-.168-1.752t-.528-1.392a2.7 2.7 0 0 0-.924-.912q-.564-.336-1.38-.336M411.336 219.199q-.72.528-1.704.804a7.6 7.6 0 0 1-2.064.276q-1.392 0-2.352-.444a4 4 0 0 1-1.572-1.272q-.612-.828-.888-1.992a11.2 11.2 0 0 1-.276-2.58q0-3.048 1.344-4.668t3.864-1.62q1.152 0 1.956.18t1.452.516l-.552 1.656a5.2 5.2 0 0 0-1.224-.492 5.6 5.6 0 0 0-1.44-.18q-3.408 0-3.408 4.608 0 .912.18 1.74t.6 1.464 1.104 1.02 1.692.384q.864 0 1.548-.264t1.116-.6zM412.752 213.991q0-3.048 1.356-4.668t3.9-1.62q1.344 0 2.34.444t1.644 1.272.96 1.992.312 2.58q0 3.048-1.356 4.668t-3.9 1.62q-1.344 0-2.34-.444a4.25 4.25 0 0 1-1.644-1.272q-.648-.828-.96-1.992t-.312-2.58m1.992 0q0 .912.18 1.752t.564 1.464 1.008 1.008 1.512.384q3.264.024 3.264-4.608a8.5 8.5 0 0 0-.18-1.776 4.6 4.6 0 0 0-.564-1.464 2.9 2.9 0 0 0-1.008-.996q-.624-.372-1.512-.372-3.264-.024-3.264 4.608M433.32 219.991v-6.792q0-.96-.084-1.668t-.324-1.188-.684-.72-1.164-.24q-1.104 0-1.836.672a3.56 3.56 0 0 0-1.02 1.68v8.256h-1.92v-12h1.344l.36 1.464h.096a5.6 5.6 0 0 1 1.5-1.26q.852-.492 2.22-.492 1.152 0 1.884.444t1.14 1.548a3.9 3.9 0 0 1 1.524-1.464q.972-.528 2.196-.528 1.008 0 1.704.228t1.152.804.66 1.56.204 2.496v7.2h-1.92v-7.224q0-.864-.084-1.5t-.336-1.056-.696-.624-1.164-.204q-1.2 0-1.872.672t-.96 1.92v8.016zM452.808 219.991v-6.792q0-.96-.084-1.668t-.324-1.188-.684-.72-1.164-.24q-1.104 0-1.836.672a3.56 3.56 0 0 0-1.02 1.68v8.256h-1.92v-12h1.344l.36 1.464h.096a5.6 5.6 0 0 1 1.5-1.26q.852-.492 2.22-.492 1.152 0 1.884.444t1.14 1.548a3.9 3.9 0 0 1 1.524-1.464q.972-.528 2.196-.528 1.008 0 1.704.228t1.152.804.66 1.56.204 2.496v7.2h-1.92v-7.224q0-.864-.084-1.5t-.336-1.056-.696-.624-1.164-.204q-1.2 0-1.872.672t-.96 1.92v8.016zM465.072 208.879q.912-.552 2.124-.816a12 12 0 0 1 2.532-.264q1.248 0 2.004.336t1.152.876a3 3 0 0 1 .528 1.188q.132.648.132 1.296 0 1.44-.072 2.808a49 49 0 0 0-.072 2.592q0 .888.072 1.68t.264 1.464h-1.416l-.504-1.68h-.12a4 4 0 0 1-.54.66 3.5 3.5 0 0 1-.78.576 5 5 0 0 1-1.056.42q-.6.168-1.368.168t-1.428-.24-1.14-.684a3.2 3.2 0 0 1-.756-1.068 3.5 3.5 0 0 1-.276-1.416q0-1.056.432-1.764a3.1 3.1 0 0 1 1.212-1.128q.78-.42 1.872-.6t2.412-.18h.66q.324 0 .66.048.072-.72.072-1.296 0-1.32-.528-1.848t-1.92-.528q-.408 0-.876.06t-.96.168a8 8 0 0 0-.936.264q-.444.156-.78.348zm3.408 9.624q.672 0 1.2-.18t.912-.456a2.9 2.9 0 0 0 1.008-1.26v-1.992a19 19 0 0 0-1.368-.048q-.744 0-1.452.084t-1.248.312-.864.624-.324.996q0 .84.6 1.38t1.536.54M484.872 219.991v-6.84q0-1.872-.54-2.82t-1.98-.948q-1.272 0-2.1.684a3.64 3.64 0 0 0-1.164 1.716v8.208h-1.92v-12h1.344l.36 1.464h.096q.576-.768 1.548-1.26t2.316-.492q.984 0 1.728.228t1.236.804.744 1.548.252 2.46v7.248zM499.512 215.863q0 1.224.024 2.22t.216 1.956h-1.296l-.48-1.704h-.096q-.48.84-1.392 1.392t-2.136.552q-2.4 0-3.564-1.512t-1.164-4.728q0-3.072 1.452-4.668t3.996-1.596q.888 0 1.404.096t1.116.312v-4.992h1.92zm-4.848 2.736q1.224 0 1.944-.636t.984-1.932v-5.952a2.7 2.7 0 0 0-.984-.48q-.552-.144-1.464-.144-1.656 0-2.592 1.092t-.936 3.492a10 10 0 0 0 .156 1.824q.156.84.516 1.44t.948.948 1.428.348"/></g><g fill="#D97705" fill-rule="nonzero"><path d="M608 167.213a7 7 0 0 1 1 13.93v17.32h-2l-.001-17.32a7.002 7.002 0 0 1 1-13.93m0 2a5 5 0 1 0 0 10 5 5 0 0 0 0-10M578.484 216.511q0 .84.288 1.2t.816.36q.312 0 .672-.048t.816-.216l.216 1.512q-.384.192-1.068.312t-1.188.12q-1.08 0-1.776-.612t-.696-2.076v-14.4h1.92zM582.684 213.463q0-3.048 1.356-4.668t3.9-1.62q1.344 0 2.34.444t1.644 1.272.96 1.992.312 2.58q0 3.048-1.356 4.668t-3.9 1.62q-1.344 0-2.34-.444a4.25 4.25 0 0 1-1.644-1.272q-.648-.828-.96-1.992t-.312-2.58m1.992 0q0 .912.18 1.752t.564 1.464 1.008 1.008 1.512.384q3.264.024 3.264-4.608a8.5 8.5 0 0 0-.18-1.776 4.6 4.6 0 0 0-.564-1.464 2.9 2.9 0 0 0-1.008-.996q-.624-.372-1.512-.372-3.264-.024-3.264 4.608M603.924 219.463v-6.84q0-1.872-.54-2.82t-1.98-.948q-1.272 0-2.1.684a3.64 3.64 0 0 0-1.164 1.716v8.208h-1.92v-12h1.344l.36 1.464h.096q.576-.768 1.548-1.26t2.316-.492q.984 0 1.728.228t1.236.804.744 1.548.252 2.46v7.248zM618.54 220.015q0 2.328-1.236 3.432t-3.66 1.104q-1.44 0-2.316-.18a7 7 0 0 1-1.5-.468l.504-1.632q.552.216 1.224.408t1.752.192q1.008 0 1.644-.18t1.02-.6.528-1.08.144-1.572v-1.152h-.096a3.2 3.2 0 0 1-1.224 1.068q-.744.372-1.944.372-2.424 0-3.564-1.512t-1.14-4.704q0-3.072 1.464-4.668t4.32-1.596q1.368 0 2.34.216t1.74.504zm-4.824-1.968q1.224 0 1.92-.612t.984-1.908v-6.144q-.96-.456-2.448-.456-1.632 0-2.568 1.104t-.936 3.456q0 1.008.168 1.848t.528 1.44.936.936 1.416.336M627.972 213.463q0-3.048 1.356-4.668t3.9-1.62q1.344 0 2.34.444t1.644 1.272.96 1.992.312 2.58q0 3.048-1.356 4.668t-3.9 1.62q-1.344 0-2.34-.444a4.25 4.25 0 0 1-1.644-1.272q-.648-.828-.96-1.992t-.312-2.58m1.992 0q0 .912.18 1.752t.564 1.464 1.008 1.008 1.512.384q3.264.024 3.264-4.608a8.5 8.5 0 0 0-.18-1.776 4.6 4.6 0 0 0-.564-1.464 2.9 2.9 0 0 0-1.008-.996q-.624-.372-1.512-.372-3.264-.024-3.264 4.608M641.508 207.463h1.32l.36 1.44h.096q.552-.84 1.428-1.284t2.004-.444q2.4 0 3.576 1.416t1.176 4.632q0 1.512-.396 2.724T649.956 218t-1.74 1.296-2.268.456q-.888 0-1.404-.108a5.7 5.7 0 0 1-1.116-.372v4.992h-1.92zm4.848 1.392q-1.224 0-1.932.636t-.996 1.932v5.952q.432.336.984.516t1.464.18q1.656 0 2.628-1.236t.972-3.636q0-.984-.168-1.788t-.54-1.368a2.6 2.6 0 0 0-.96-.876q-.588-.312-1.452-.312M652.908 207.463h1.872v-2.376l1.92-.552v2.928h3.264v1.68H656.7v6.648q0 1.248.312 1.764t1.056.516q.624 0 1.056-.132t.96-.348l.432 1.464a7.4 7.4 0 0 1-1.416.504 6.8 6.8 0 0 1-1.656.192q-1.464 0-2.064-.828t-.6-2.772v-7.008h-1.872zM663.036 207.463h1.92v12h-1.92zm-.408-3.648q0-.552.372-.948t.948-.396.984.396.408.948-.408.912-.984.36-.948-.36a1.22 1.22 0 0 1-.372-.912M668.388 213.463q0-3.048 1.356-4.668t3.9-1.62q1.344 0 2.34.444t1.644 1.272.96 1.992.312 2.58q0 3.048-1.356 4.668t-3.9 1.62q-1.344 0-2.34-.444a4.25 4.25 0 0 1-1.644-1.272q-.648-.828-.96-1.992t-.312-2.58m1.992 0q0 .912.18 1.752t.564 1.464 1.008 1.008 1.512.384q3.264.024 3.264-4.608a8.5 8.5 0 0 0-.18-1.776 4.6 4.6 0 0 0-.564-1.464 2.9 2.9 0 0 0-1.008-.996q-.624-.372-1.512-.372-3.264-.024-3.264 4.608M689.628 219.463v-6.84q0-1.872-.54-2.82t-1.98-.948q-1.272 0-2.1.684a3.64 3.64 0 0 0-1.164 1.716v8.208h-1.92v-12h1.344l.36 1.464h.096q.576-.768 1.548-1.26t2.316-.492q.984 0 1.728.228t1.236.804.744 1.548.252 2.46v7.248z"/></g><g fill="#D97705" fill-rule="nonzero"><path d="M905 166.99a7 7 0 0 1 1 13.928v17.321h-2v-17.32a7.002 7.002 0 0 1 1-13.93m0 2a5 5 0 1 0 0 10 5 5 0 0 0 0-10M862.176 213.24q0-3.05 1.356-4.669 1.356-1.62 3.9-1.62 1.344 0 2.34.444t1.644 1.272.96 1.992.312 2.58q0 3.048-1.356 4.668t-3.9 1.62q-1.344 0-2.34-.444a4.25 4.25 0 0 1-1.644-1.272q-.648-.828-.96-1.992t-.312-2.58m1.992 0q0 .91.18 1.751t.564 1.464q.384.624 1.008 1.008t1.512.384q3.264.024 3.264-4.608a8.5 8.5 0 0 0-.18-1.776 4.6 4.6 0 0 0-.564-1.464 2.9 2.9 0 0 0-1.008-.996q-.624-.372-1.512-.372-3.264-.024-3.264 4.608M875.712 207.24h1.32l.36 1.44h.096q.552-.84 1.428-1.285t2.004-.444q2.4 0 3.576 1.416t1.176 4.632q0 1.512-.396 2.724t-1.116 2.052-1.74 1.296-2.268.456q-.888 0-1.404-.108a5.7 5.7 0 0 1-1.116-.372v4.992h-1.92zm4.848 1.391q-1.224 0-1.932.636t-.996 1.932v5.952q.432.336.984.516t1.464.18q1.656 0 2.628-1.236t.972-3.636q0-.984-.168-1.788t-.54-1.368a2.6 2.6 0 0 0-.96-.876q-.588-.312-1.452-.312M897.456 218.28q-.72.575-1.812.911t-2.316.336q-1.368 0-2.376-.444a4.2 4.2 0 0 1-1.656-1.272q-.648-.828-.96-1.98t-.312-2.592q0-3.072 1.368-4.68t3.912-1.608q.816 0 1.632.18t1.464.684 1.056 1.428.408 2.436q0 .792-.144 1.752h-7.704q0 1.056.216 1.872t.672 1.38 1.188.864 1.788.3q.816 0 1.632-.288t1.224-.672zm-4.128-9.649q-1.416 0-2.268.744t-1.02 2.544h5.952q0-1.824-.696-2.556t-1.968-.732M906.552 209.087q-.72-.24-1.368-.24-1.032 0-1.632.564t-.744 1.428v8.4h-1.92v-12h1.344l.36 1.464h.096q.456-.816 1.092-1.26t1.62-.444q.696 0 1.56.24zM908.856 208.127q.912-.552 2.124-.816a12 12 0 0 1 2.532-.264q1.248 0 2.004.336t1.152.876a3 3 0 0 1 .528 1.188q.132.648.132 1.296 0 1.44-.072 2.808a49 49 0 0 0-.072 2.592q0 .888.072 1.68t.264 1.464h-1.416l-.504-1.68h-.12a4 4 0 0 1-.54.66 3.5 3.5 0 0 1-.78.576 5 5 0 0 1-1.056.42q-.6.168-1.368.168t-1.428-.24-1.14-.684a3.2 3.2 0 0 1-.756-1.068 3.5 3.5 0 0 1-.276-1.416q0-1.056.432-1.764a3.1 3.1 0 0 1 1.212-1.128q.78-.42 1.872-.6t2.412-.18h.66q.324 0 .66.048.072-.72.072-1.296 0-1.32-.528-1.848t-1.92-.528q-.408 0-.876.06t-.96.168a8 8 0 0 0-.936.264q-.444.156-.78.348zm3.408 9.624q.672 0 1.2-.18t.912-.456a2.9 2.9 0 0 0 1.008-1.26v-1.992a19 19 0 0 0-1.368-.048q-.744 0-1.452.084t-1.248.312-.864.624-.324.996q0 .84.6 1.38t1.536.54M928.656 219.24v-6.84q0-1.873-.54-2.82-.54-.95-1.98-.949-1.272 0-2.1.684a3.64 3.64 0 0 0-1.164 1.716v8.208h-1.92v-12h1.344l.36 1.464h.096q.576-.768 1.548-1.26t2.316-.492q.984 0 1.728.228t1.236.804.744 1.548.252 2.46v7.248zM943.296 215.111q0 1.224.024 2.22t.216 1.956h-1.296l-.48-1.704h-.096q-.48.84-1.392 1.392t-2.136.552q-2.4 0-3.564-1.512t-1.164-4.728q0-3.072 1.452-4.668t3.996-1.596q.888 0 1.404.096t1.116.312v-4.992h1.92zm-4.848 2.736q1.224 0 1.944-.636t.984-1.932v-5.952a2.7 2.7 0 0 0-.984-.48q-.552-.144-1.464-.144-1.656 0-2.592 1.092t-.936 3.492a10 10 0 0 0 .156 1.824q.156.84.516 1.44t.948.948 1.428.348"/></g><path fill="#FCBF24" d="M2.844 118.995h1152v44h-1152z" opacity=".281"/><g fill="#0A0A0A" fill-rule="nonzero"><path d="M16.304 148.288a7.6 7.6 0 0 1-2.532-.408 5.9 5.9 0 0 1-2.028-1.188 5.3 5.3 0 0 1-1.344-1.92q-.48-1.14-.48-2.58 0-1.464.516-2.604a5.7 5.7 0 0 1 1.404-1.932 6 6 0 0 1 2.076-1.2 7.7 7.7 0 0 1 2.508-.408q1.44 0 2.484.504t1.764 1.2l-.984 1.272a6.4 6.4 0 0 0-1.5-.984 4 4 0 0 0-1.692-.36q-1.008 0-1.848.324a4 4 0 0 0-1.428.924q-.588.6-.924 1.428a4.8 4.8 0 0 0-.336 1.836q0 1.008.324 1.824t.912 1.404 1.416.912a5 5 0 0 0 1.836.324q1.08 0 1.98-.42t1.62-1.044l.888 1.272a7.6 7.6 0 0 1-2.16 1.344q-1.176.48-2.472.48M24.632 148v-17.088H26.6v4.656l-.12 2.76h.072a9.5 9.5 0 0 1 1.956-1.632q1.044-.648 2.412-.648 2.088 0 3.06 1.188t.972 3.516V148h-1.968v-6.984q0-1.656-.624-2.46t-2.064-.804a3.4 3.4 0 0 0-.972.132q-.444.132-.876.396a6.7 6.7 0 0 0-.888.66q-.456.396-.96.924V148zM40.304 148v-11.664h1.632l.168 2.76h.072q.912-1.416 2.244-2.232t2.964-.816q.648 0 1.2.108t1.104.372l-.456 1.704a10 10 0 0 0-1.044-.312q-.42-.096-1.116-.096-1.32 0-2.532.756t-2.268 2.58V148zM58.784 148v-10.056H53.36v-1.608h7.392V148zm.768-14.112q-.672 0-1.128-.42t-.456-1.116.456-1.116 1.128-.42 1.128.42.456 1.116-.456 1.116-1.128.42M73.04 148.288q-1.728 0-3.192-.54t-2.544-1.284l.912-1.296a9 9 0 0 0 2.22 1.152q1.212.432 2.844.432 1.488 0 2.22-.54t.732-1.284q0-.336-.12-.624t-.516-.552-1.116-.504-1.896-.48q-2.28-.48-3.42-1.284t-1.14-2.124q0-.696.312-1.308t.924-1.056 1.512-.696 2.1-.252q1.344 0 2.592.444t2.112 1.044l-.96 1.272a7.6 7.6 0 0 0-1.8-.888 6.5 6.5 0 0 0-2.112-.336q-1.488 0-2.088.504t-.6 1.176q0 .768.792 1.164t2.592.78q1.464.312 2.4.66t1.476.78.744.96.204 1.2q0 .72-.336 1.344t-.996 1.104-1.632.756-2.22.276M88.184 151.456q-1.416 0-2.688-.612t-2.232-1.8-1.524-2.964-.564-4.08.54-4.032 1.5-2.88a6.3 6.3 0 0 1 2.244-1.74 6.6 6.6 0 0 1 2.772-.588q1.248 0 2.16.432a4.1 4.1 0 0 1 1.512 1.2q.6.768.9 1.812t.3 2.268v7.128h-1.2l-.168-1.392h-.096q-.528.672-1.38 1.176a3.46 3.46 0 0 1-3 .288 2.9 2.9 0 0 1-.984-.624q-.42-.408-.66-.996a3.4 3.4 0 0 1-.24-1.308q0-1.848 1.632-2.784t4.704-1.32v-.336q0-.864-.204-1.632a3.9 3.9 0 0 0-.636-1.344 3.05 3.05 0 0 0-1.116-.912q-.684-.336-1.62-.336-1.08 0-2.064.504t-1.74 1.5-1.2 2.496-.444 3.492q0 1.92.432 3.42t1.176 2.532 1.752 1.572 2.184.54q1.08 0 1.884-.276a5.3 5.3 0 0 0 1.5-.804l.672 1.08a7.8 7.8 0 0 1-1.92.984q-.984.336-2.184.336m.696-6.96q1.344 0 2.688-1.536v-3.024q-2.496.336-3.552.996t-1.056 1.764q0 .84.516 1.32t1.404.48M96.632 148v-11.664h1.632l.168 1.992h.096a9.4 9.4 0 0 1 1.968-1.632q1.056-.648 2.424-.648 2.088 0 3.06 1.188t.972 3.516V148h-1.968v-6.984q0-1.656-.624-2.46t-2.064-.804a3.4 3.4 0 0 0-.972.132q-.444.132-.876.396a6.7 6.7 0 0 0-.888.66q-.456.396-.96.924V148zM114.704 148.288q-2.112 0-3.084-1.188t-.972-3.516v-7.248h1.992v6.984q0 1.656.612 2.46t2.076.804q1.008 0 1.824-.516t1.8-1.644v-8.088h1.968V148h-1.608l-.168-2.04h-.096a8.4 8.4 0 0 1-1.932 1.68q-1.044.648-2.412.648M132.656 148.288q-1.272 0-2.136-.348t-1.392-.984a3.85 3.85 0 0 1-.756-1.524 8 8 0 0 1-.228-1.968v-5.52h-3.288v-1.488l3.36-.12.264-3.744h1.632v3.744h5.736v1.608h-5.736v5.544q0 .792.144 1.38t.48.996.912.612 1.416.204 1.512-.144 1.296-.384l.432 1.44q-.792.288-1.668.492a8.8 8.8 0 0 1-1.98.204M139.832 148v-17.088h1.968v4.656l-.12 2.76h.072a9.5 9.5 0 0 1 1.956-1.632q1.044-.648 2.412-.648 2.088 0 3.06 1.188t.972 3.516V148h-1.968v-6.984q0-1.656-.624-2.46t-2.064-.804a3.4 3.4 0 0 0-.972.132q-.444.132-.876.396a6.7 6.7 0 0 0-.888.66q-.456.396-.96.924V148zM157.904 148.288a5 5 0 0 1-1.536-.228q-.72-.228-1.26-.648a3.04 3.04 0 0 1-.852-1.032q-.312-.612-.312-1.404 0-.984.468-1.716T155.9 142t2.628-.864 3.864-.528q-.024-.6-.192-1.128a2.5 2.5 0 0 0-.528-.924 2.6 2.6 0 0 0-.948-.636q-.588-.24-1.428-.24a5.6 5.6 0 0 0-2.208.444q-1.056.444-1.872.948l-.768-1.344q.432-.288 1.02-.588t1.248-.54 1.404-.396 1.512-.156q2.4 0 3.564 1.308t1.164 3.492V148h-1.608l-.168-1.584h-.072q-.984.768-2.172 1.32a5.7 5.7 0 0 1-2.436.552m.528-1.584q1.008 0 1.98-.444t1.98-1.284v-3.072q-1.872.144-3.132.408t-2.016.636-1.068.84a1.84 1.84 0 0 0-.312 1.044q0 .504.216.852t.564.576.816.336.972.108M175.856 148.288q-1.272 0-2.136-.348t-1.392-.984a3.85 3.85 0 0 1-.756-1.524 8 8 0 0 1-.228-1.968v-5.52h-3.288v-1.488l3.36-.12.264-3.744h1.632v3.744h5.736v1.608h-5.736v5.544q0 .792.144 1.38t.48.996.912.612 1.416.204 1.512-.144 1.296-.384l.432 1.44q-.792.288-1.668.492a8.8 8.8 0 0 1-1.98.204M189.104 148.288a7.6 7.6 0 0 1-2.532-.408 5.9 5.9 0 0 1-2.028-1.188 5.3 5.3 0 0 1-1.344-1.92q-.48-1.14-.48-2.58 0-1.464.516-2.604a5.7 5.7 0 0 1 1.404-1.932 6 6 0 0 1 2.076-1.2 7.7 7.7 0 0 1 2.508-.408q1.44 0 2.484.504t1.764 1.2l-.984 1.272a6.4 6.4 0 0 0-1.5-.984 4 4 0 0 0-1.692-.36q-1.008 0-1.848.324a4 4 0 0 0-1.428.924q-.588.6-.924 1.428a4.8 4.8 0 0 0-.336 1.836q0 1.008.324 1.824t.912 1.404 1.416.912a5 5 0 0 0 1.836.324q1.08 0 1.98-.42t1.62-1.044l.888 1.272a7.6 7.6 0 0 1-2.16 1.344q-1.176.48-2.472.48M197.432 148v-17.088h1.968v4.656l-.12 2.76h.072a9.5 9.5 0 0 1 1.956-1.632q1.044-.648 2.412-.648 2.088 0 3.06 1.188t.972 3.516V148h-1.968v-6.984q0-1.656-.624-2.46t-2.064-.804a3.4 3.4 0 0 0-.972.132q-.444.132-.876.396a6.7 6.7 0 0 0-.888.66q-.456.396-.96.924V148zM233.312 141.832q-.72 0-1.284-.312a8 8 0 0 1-1.056-.696 16 16 0 0 0-.96-.696 1.73 1.73 0 0 0-.972-.312q-.552 0-1.044.408t-.9 1.656l-1.272-.552q.624-1.68 1.488-2.34t1.776-.66q.72 0 1.284.312t1.056.696.96.696.972.312q.288 0 .54-.084t.504-.312a2.3 2.3 0 0 0 .468-.636q.216-.408.432-1.032l1.272.576q-.624 1.68-1.488 2.328t-1.776.648M256.808 140.296q-1.464 0-2.4-1.056t-.936-2.928.936-2.892 2.4-1.02 2.4 1.02.936 2.892-.936 2.928-2.4 1.056m0-1.2q.768 0 1.32-.684t.552-2.1q0-1.44-.552-2.088t-1.32-.648-1.32.648-.552 2.088q0 1.416.552 2.1t1.32.684m-2.16 8.136-1.176-1.08 4.392-4.512.792.72zm7.488-8.616-.792-.72 4.008-4.872 1.176 1.08zm1.08 9.672q-1.464 0-2.4-1.056t-.936-2.928.936-2.892 2.4-1.02 2.4 1.02.936 2.892-.936 2.928-2.4 1.056m0-1.2q.768 0 1.32-.684t.552-2.1q0-1.44-.552-2.088t-1.32-.648-1.32.648-.552 2.088q0 1.416.552 2.1t1.32.684"/></g><g fill="#0A0A0A" fill-rule="nonzero"><path d="M286.232 148.288q-1.416 0-2.616-.42t-2.1-1.212a5.45 5.45 0 0 1-1.404-1.956q-.504-1.164-.504-2.652t.564-2.652a5.8 5.8 0 0 1 1.512-1.956 6.7 6.7 0 0 1 2.196-1.212 8.2 8.2 0 0 1 2.616-.42q1.416 0 2.556.456t1.908 1.152l-1.632 2.184q-1.32-.936-2.64-.936-1.536 0-2.496.912t-.96 2.472.924 2.472 2.412.912q.936 0 1.716-.336a8 8 0 0 0 1.428-.792l1.416 2.232a7 7 0 0 1-2.376 1.332q-1.296.42-2.52.42M297.776 148.288q-.912 0-1.632-.276a3.5 3.5 0 0 1-1.224-.768 3.5 3.5 0 0 1-.78-1.14 3.6 3.6 0 0 1-.276-1.416q0-1.008.432-1.764t1.38-1.284 2.436-.852 3.6-.444q-.096-.816-.708-1.272t-1.836-.456q-.864 0-1.74.3t-1.884.804l-1.248-2.304a14 14 0 0 1 2.628-1.152 9.5 9.5 0 0 1 2.94-.456q2.496 0 3.936 1.32t1.44 4.056V148h-2.88l-.264-1.344H302a9.5 9.5 0 0 1-1.992 1.164 5.6 5.6 0 0 1-2.232.468m1.128-2.736q.792 0 1.488-.324a7 7 0 0 0 1.32-.804v-1.968q-1.32.072-2.184.24t-1.368.42-.708.588a1.36 1.36 0 0 0-.204.72q0 .576.444.852t1.212.276M316.112 148.288q-1.416 0-2.4-.384t-1.596-1.068a4 4 0 0 1-.876-1.644 8 8 0 0 1-.264-2.136v-4.2h-3v-2.616l3.168-.144.456-3.648h2.904v3.648h5.04v2.76h-5.04v4.176q0 1.368.6 1.932t1.92.564q.672 0 1.236-.12a9 9 0 0 0 1.116-.312l.624 2.544q-.792.24-1.74.444t-2.148.204M327.344 148.288q-1.128 0-2.052-.432a4.5 4.5 0 0 1-1.584-1.236q-.66-.804-1.02-1.956t-.36-2.616.432-2.616 1.14-1.956a5 5 0 0 1 1.62-1.236 4.4 4.4 0 0 1 1.896-.432q1.008 0 1.704.324t1.296.948h.096l-.168-1.848v-4.056h3.528V148h-2.88l-.264-1.224h-.072q-.672.648-1.536 1.08a3.9 3.9 0 0 1-1.776.432m.912-2.88q.6 0 1.104-.252t.984-.852v-4.824a3 3 0 0 0-.972-.612 3 3 0 0 0-1.02-.18q-.984 0-1.692.816t-.708 2.496q0 1.776.6 2.592t1.704.816M343.712 148.288q-.84 0-1.668-.408t-1.572-1.176h-.096l-.288 1.296h-2.76v-16.824h3.528v4.128l-.12 1.872h.072a4.9 4.9 0 0 1 1.536-1.008 4.5 4.5 0 0 1 1.728-.36q1.104 0 2.004.432t1.512 1.212.948 1.896.336 2.484q0 1.536-.432 2.736t-1.152 2.028a4.95 4.95 0 0 1-1.644 1.26 4.5 4.5 0 0 1-1.932.432m-.792-2.88q.984 0 1.656-.828t.672-2.676q0-3.216-2.184-3.216-1.128 0-2.208 1.104v4.824q.504.432 1.044.612t1.02.18M371.504 148.288a9.6 9.6 0 0 1-3.144-.528q-1.536-.528-2.688-1.296l1.512-2.208a9.3 9.3 0 0 0 2.304 1.056q1.2.36 2.496.36.984 0 1.44-.288t.456-.72a.75.75 0 0 0-.132-.432q-.132-.192-.456-.348a5 5 0 0 0-.9-.3 58 58 0 0 0-1.44-.336q-2.424-.528-3.48-1.428t-1.056-2.292q0-.816.384-1.512t1.092-1.176 1.716-.756 2.28-.276q1.608 0 2.916.516t2.244 1.116l-1.584 2.112a8 8 0 0 0-1.896-.84 7 7 0 0 0-1.992-.288q-.84 0-1.248.264t-.408.672q0 .504.624.72t2.136.552q1.368.312 2.28.672t1.44.816.744 1.032.216 1.296q0 .816-.384 1.512a3.6 3.6 0 0 1-1.116 1.212q-.732.516-1.824.816t-2.532.3M386.72 148.288q-1.392 0-2.604-.42a6.1 6.1 0 0 1-2.1-1.212 5.5 5.5 0 0 1-1.392-1.956q-.504-1.164-.504-2.652 0-1.464.516-2.628a5.9 5.9 0 0 1 1.38-1.968 6 6 0 0 1 1.98-1.224 6.5 6.5 0 0 1 2.316-.42q1.368 0 2.424.432a4.9 4.9 0 0 1 1.764 1.2 5.1 5.1 0 0 1 1.068 1.812q.36 1.044.36 2.268 0 .48-.06.924a9 9 0 0 1-.108.66h-8.112q.264 1.296 1.176 1.896t2.376.6q.816 0 1.548-.216a8.8 8.8 0 0 0 1.524-.624l1.176 2.136a9.2 9.2 0 0 1-2.28 1.02 8.5 8.5 0 0 1-2.448.372m-.288-9.792q-1.056 0-1.764.552t-.972 1.68h5.088q-.264-2.232-2.352-2.232M398.576 148.288q-.912 0-1.632-.276a3.5 3.5 0 0 1-1.224-.768 3.5 3.5 0 0 1-.78-1.14 3.6 3.6 0 0 1-.276-1.416q0-1.008.432-1.764t1.38-1.284 2.436-.852 3.6-.444q-.096-.816-.708-1.272t-1.836-.456q-.864 0-1.74.3t-1.884.804l-1.248-2.304a14 14 0 0 1 2.628-1.152 9.5 9.5 0 0 1 2.94-.456q2.496 0 3.936 1.32t1.44 4.056V148h-2.88l-.264-1.344h-.096a9.5 9.5 0 0 1-1.992 1.164 5.6 5.6 0 0 1-2.232.468m1.128-2.736q.792 0 1.488-.324a7 7 0 0 0 1.32-.804v-1.968q-1.32.072-2.184.24t-1.368.42-.708.588a1.36 1.36 0 0 0-.204.72q0 .576.444.852t1.212.276M410.384 148v-11.904h2.88l.288 2.592h.072q.888-1.464 2.136-2.172a5.36 5.36 0 0 1 2.688-.708q.792 0 1.284.12t1.02.36l-.72 2.952a10 10 0 0 0-.996-.252 6 6 0 0 0-1.116-.084q-1.104 0-2.172.648t-1.836 2.256V148zM430.232 148.288q-1.416 0-2.616-.42t-2.1-1.212a5.45 5.45 0 0 1-1.404-1.956q-.504-1.164-.504-2.652t.564-2.652a5.8 5.8 0 0 1 1.512-1.956 6.7 6.7 0 0 1 2.196-1.212 8.2 8.2 0 0 1 2.616-.42q1.416 0 2.556.456t1.908 1.152l-1.632 2.184q-1.32-.936-2.64-.936-1.536 0-2.496.912t-.96 2.472.924 2.472 2.412.912q.936 0 1.716-.336a8 8 0 0 0 1.428-.792l1.416 2.232a7 7 0 0 1-2.376 1.332q-1.296.42-2.52.42M438.128 148v-16.824h3.528v4.128l-.192 2.28h.072a7 7 0 0 1 1.632-1.236q.96-.54 2.328-.54 2.016 0 2.94 1.296t.924 3.552V148h-3.528v-6.888q0-1.2-.384-1.752t-1.368-.552q-.72 0-1.26.312t-1.164.936V148zM466.88 141.328v-2.496h11.04v2.496zM484.832 148l-4.488-11.904h3.552l1.872 5.616q.288.912.552 1.824t.528 1.848h.096q.264-.936.516-1.848t.54-1.824l1.872-5.616h3.384L488.888 148zM510.08 141.328v-2.496h11.04v2.496zM524.48 141.328v-2.496h11.04v2.496zM544.4 148.288q-1.176 0-2.268-.42a6 6 0 0 1-1.944-1.212 5.75 5.75 0 0 1-1.356-1.956q-.504-1.164-.504-2.652t.504-2.652a5.75 5.75 0 0 1 1.356-1.956 6 6 0 0 1 1.944-1.212 6.3 6.3 0 0 1 2.268-.42q1.176 0 2.268.42t1.944 1.212a5.75 5.75 0 0 1 1.356 1.956q.504 1.164.504 2.652t-.504 2.652a5.75 5.75 0 0 1-1.356 1.956 6 6 0 0 1-1.944 1.212q-1.092.42-2.268.42m0-2.856q1.224 0 1.836-.912t.612-2.472-.612-2.472-1.836-.912-1.836.912-.612 2.472.612 2.472 1.836.912M553.328 148v-11.904h2.88l.264 1.584h.096a7.9 7.9 0 0 1 1.764-1.32q.996-.552 2.34-.552 2.016 0 2.952 1.296t.936 3.552V148h-3.528v-6.888q0-1.2-.384-1.752t-1.368-.552q-.72 0-1.26.312t-1.164.936V148zM575.48 148.288q-2.256 0-3.396-1.332t-1.14-3.612v-9.384H567.2v-2.784h7.272v12.312q0 .552.156.924t.432.6.624.324.732.096q.408 0 .852-.084t.996-.3l.792 2.592-.888.264q-.408.12-.816.204a9 9 0 0 1-1.872.18M583.832 152.656q-.528 0-.984-.06t-.84-.18l.624-2.688q.456.144.936.144 1.032 0 1.62-.432t.876-1.128l.24-.624-5.16-11.592h3.504l1.992 5.112q.336.84.624 1.74t.576 1.836h.096q.24-.888.528-1.788t.552-1.788l1.752-5.112h3.336L589.4 148.12q-.432 1.128-.936 1.98a5.7 5.7 0 0 1-1.152 1.416q-.648.564-1.5.852t-1.98.288M596.48 141.328v-2.496h11.04v2.496zM611.024 148v-16.824h3.528v9.72h.096l4.368-4.8h3.864l-4.536 4.848L623.24 148h-3.816l-3.12-4.872-1.752 1.872v3zM630.272 148v-9.144h-4.776v-2.76h8.304V148zm1.608-13.776q-1.032 0-1.692-.576t-.66-1.56.66-1.596 1.692-.612 1.692.612.66 1.596-.66 1.56-1.692.576M647.312 148.288q-1.416 0-2.4-.384t-1.596-1.068a4 4 0 0 1-.876-1.644 8 8 0 0 1-.264-2.136v-4.2h-3v-2.616l3.168-.144.456-3.648h2.904v3.648h5.04v2.76h-5.04v4.176q0 1.368.6 1.932t1.92.564q.672 0 1.236-.12a9 9 0 0 0 1.116-.312l.624 2.544q-.792.24-1.74.444t-2.148.204M661.712 148.288q-1.416 0-2.4-.384t-1.596-1.068a4 4 0 0 1-.876-1.644 8 8 0 0 1-.264-2.136v-4.2h-3v-2.616l3.168-.144.456-3.648h2.904v3.648h5.04v2.76h-5.04v4.176q0 1.368.6 1.932t1.92.564q.672 0 1.236-.12a9 9 0 0 0 1.116-.312l.624 2.544q-.792.24-1.74.444t-2.148.204M674.72 148.288q-1.392 0-2.604-.42a6.1 6.1 0 0 1-2.1-1.212 5.5 5.5 0 0 1-1.392-1.956q-.504-1.164-.504-2.652 0-1.464.516-2.628a5.9 5.9 0 0 1 1.38-1.968 6 6 0 0 1 1.98-1.224 6.5 6.5 0 0 1 2.316-.42q1.368 0 2.424.432a4.9 4.9 0 0 1 1.764 1.2 5.1 5.1 0 0 1 1.068 1.812q.36 1.044.36 2.268 0 .48-.06.924a9 9 0 0 1-.108.66h-8.112q.264 1.296 1.176 1.896t2.376.6q.816 0 1.548-.216a8.8 8.8 0 0 0 1.524-.624l1.176 2.136a9.2 9.2 0 0 1-2.28 1.02 8.5 8.5 0 0 1-2.448.372m-.288-9.792q-1.056 0-1.764.552t-.972 1.68h5.088q-.264-2.232-2.352-2.232M682.928 148v-11.904h2.88l.264 1.584h.096a7.9 7.9 0 0 1 1.764-1.32q.996-.552 2.34-.552 2.016 0 2.952 1.296t.936 3.552V148h-3.528v-6.888q0-1.2-.384-1.752t-1.368-.552q-.72 0-1.26.312t-1.164.936V148zM702.704 148.288a9.6 9.6 0 0 1-3.144-.528q-1.536-.528-2.688-1.296l1.512-2.208a9.3 9.3 0 0 0 2.304 1.056q1.2.36 2.496.36.984 0 1.44-.288t.456-.72a.75.75 0 0 0-.132-.432q-.132-.192-.456-.348a5 5 0 0 0-.9-.3 58 58 0 0 0-1.44-.336q-2.424-.528-3.48-1.428t-1.056-2.292q0-.816.384-1.512t1.092-1.176 1.716-.756 2.28-.276q1.608 0 2.916.516t2.244 1.116l-1.584 2.112a8 8 0 0 0-1.896-.84 7 7 0 0 0-1.992-.288q-.84 0-1.248.264t-.408.672q0 .504.624.72t2.136.552q1.368.312 2.28.672t1.44.816.744 1.032.216 1.296q0 .816-.384 1.512a3.6 3.6 0 0 1-1.116 1.212q-.732.516-1.824.816t-2.532.3M711.68 138.544v-2.496h11.04v2.496zm0 5.544v-2.496h11.04v2.496zM733.712 148.288q-1.416 0-2.4-.384t-1.596-1.068a4 4 0 0 1-.876-1.644 8 8 0 0 1-.264-2.136v-4.2h-3v-2.616l3.168-.144.456-3.648h2.904v3.648h5.04v2.76h-5.04v4.176q0 1.368.6 1.932t1.92.564q.672 0 1.236-.12a9 9 0 0 0 1.116-.312l.624 2.544q-.792.24-1.74.444t-2.148.204M741.584 148v-11.904h2.88l.288 2.592h.072q.888-1.464 2.136-2.172a5.36 5.36 0 0 1 2.688-.708q.792 0 1.284.12t1.02.36l-.72 2.952a10 10 0 0 0-.996-.252 6 6 0 0 0-1.116-.084q-1.104 0-2.172.648t-1.836 2.256V148zM758.552 148.288q-2.04 0-2.952-1.296t-.912-3.552v-7.344h3.528v6.888q0 1.2.36 1.752t1.368.552q.672 0 1.188-.288t1.14-1.08v-7.824h3.528V148h-2.88l-.264-1.704h-.096a6.6 6.6 0 0 1-1.752 1.452q-.96.54-2.256.54M775.52 148.288q-1.392 0-2.604-.42a6.1 6.1 0 0 1-2.1-1.212 5.5 5.5 0 0 1-1.392-1.956q-.504-1.164-.504-2.652 0-1.464.516-2.628a5.9 5.9 0 0 1 1.38-1.968 6 6 0 0 1 1.98-1.224 6.5 6.5 0 0 1 2.316-.42q1.368 0 2.424.432a4.9 4.9 0 0 1 1.764 1.2 5.1 5.1 0 0 1 1.068 1.812q.36 1.044.36 2.268 0 .48-.06.924a9 9 0 0 1-.108.66h-8.112q.264 1.296 1.176 1.896t2.376.6q.816 0 1.548-.216a8.8 8.8 0 0 0 1.524-.624l1.176 2.136a9.2 9.2 0 0 1-2.28 1.02 8.5 8.5 0 0 1-2.448.372m-.288-9.792q-1.056 0-1.764.552t-.972 1.68h5.088q-.264-2.232-2.352-2.232M798.08 141.328v-2.496h11.04v2.496zM818 148.288q-1.176 0-2.268-.42a6 6 0 0 1-1.944-1.212 5.75 5.75 0 0 1-1.356-1.956q-.504-1.164-.504-2.652t.504-2.652a5.75 5.75 0 0 1 1.356-1.956 6 6 0 0 1 1.944-1.212 6.3 6.3 0 0 1 2.268-.42q1.176 0 2.268.42t1.944 1.212a5.75 5.75 0 0 1 1.356 1.956q.504 1.164.504 2.652t-.504 2.652a5.75 5.75 0 0 1-1.356 1.956 6 6 0 0 1-1.944 1.212q-1.092.42-2.268.42m0-2.856q1.224 0 1.836-.912t.612-2.472-.612-2.472-1.836-.912-1.836.912-.612 2.472.612 2.472 1.836.912M841.424 148v-16.824h3.528v9.72h.096l4.368-4.8h3.864l-4.536 4.848L853.64 148h-3.816l-3.12-4.872-1.752 1.872v3zM860.672 148v-9.144h-4.776v-2.76h8.304V148zm1.608-13.776q-1.032 0-1.692-.576t-.66-1.56.66-1.596 1.692-.612 1.692.612.66 1.596-.66 1.56-1.692.576M877.712 148.288q-1.416 0-2.4-.384t-1.596-1.068a4 4 0 0 1-.876-1.644 8 8 0 0 1-.264-2.136v-4.2h-3v-2.616l3.168-.144.456-3.648h2.904v3.648h5.04v2.76h-5.04v4.176q0 1.368.6 1.932t1.92.564q.672 0 1.236-.12a9 9 0 0 0 1.116-.312l.624 2.544q-.792.24-1.74.444t-2.148.204M892.112 148.288q-1.416 0-2.4-.384t-1.596-1.068a4 4 0 0 1-.876-1.644 8 8 0 0 1-.264-2.136v-4.2h-3v-2.616l3.168-.144.456-3.648h2.904v3.648h5.04v2.76h-5.04v4.176q0 1.368.6 1.932t1.92.564q.672 0 1.236-.12a9 9 0 0 0 1.116-.312l.624 2.544q-.792.24-1.74.444t-2.148.204M905.12 148.288q-1.392 0-2.604-.42a6.1 6.1 0 0 1-2.1-1.212 5.5 5.5 0 0 1-1.392-1.956q-.504-1.164-.504-2.652 0-1.464.516-2.628a5.9 5.9 0 0 1 1.38-1.968 6 6 0 0 1 1.98-1.224 6.5 6.5 0 0 1 2.316-.42q1.368 0 2.424.432a4.9 4.9 0 0 1 1.764 1.2 5.1 5.1 0 0 1 1.068 1.812q.36 1.044.36 2.268 0 .48-.06.924a9 9 0 0 1-.108.66h-8.112q.264 1.296 1.176 1.896t2.376.6q.816 0 1.548-.216a8.8 8.8 0 0 0 1.524-.624l1.176 2.136a9.2 9.2 0 0 1-2.28 1.02 8.5 8.5 0 0 1-2.448.372m-.288-9.792q-1.056 0-1.764.552t-.972 1.68h5.088q-.264-2.232-2.352-2.232M913.328 148v-11.904h2.88l.264 1.584h.096a7.9 7.9 0 0 1 1.764-1.32q.996-.552 2.34-.552 2.016 0 2.952 1.296t.936 3.552V148h-3.528v-6.888q0-1.2-.384-1.752t-1.368-.552q-.72 0-1.26.312t-1.164.936V148zM933.104 148.288a9.6 9.6 0 0 1-3.144-.528q-1.536-.528-2.688-1.296l1.512-2.208a9.3 9.3 0 0 0 2.304 1.056q1.2.36 2.496.36.984 0 1.44-.288t.456-.72a.75.75 0 0 0-.132-.432q-.132-.192-.456-.348a5 5 0 0 0-.9-.3 58 58 0 0 0-1.44-.336q-2.424-.528-3.48-1.428t-1.056-2.292q0-.816.384-1.512t1.092-1.176 1.716-.756 2.28-.276q1.608 0 2.916.516t2.244 1.116l-1.584 2.112a8 8 0 0 0-1.896-.84 7 7 0 0 0-1.992-.288q-.84 0-1.248.264t-.408.672q0 .504.624.72t2.136.552q1.368.312 2.28.672t1.44.816.744 1.032.216 1.296q0 .816-.384 1.512a3.6 3.6 0 0 1-1.116 1.212q-.732.516-1.824.816t-2.532.3M947.6 148.288q-1.248 0-2.016-.804t-.768-2.004q0-.6.204-1.116t.564-.9.876-.6a2.9 2.9 0 0 1 1.14-.216q.624 0 1.14.216t.876.6.564.9.204 1.116q0 1.2-.768 2.004t-2.016.804M964.112 148.288q-1.416 0-2.4-.384t-1.596-1.068a4 4 0 0 1-.876-1.644 8 8 0 0 1-.264-2.136v-4.2h-3v-2.616l3.168-.144.456-3.648h2.904v3.648h5.04v2.76h-5.04v4.176q0 1.368.6 1.932t1.92.564q.672 0 1.236-.12a9 9 0 0 0 1.116-.312l.624 2.544q-.792.24-1.74.444t-2.148.204M970.088 148l4.128-6.192-3.864-5.712h3.792l1.224 1.92q.264.504.6 1.02t.648 1.02h.096l.492-1.032q.252-.528.492-1.008l1.056-1.92h3.696l-3.888 6.12 4.128 5.784h-3.792l-1.368-1.968q-.336-.504-.684-1.032t-.684-1.032h-.096q-.264.504-.552 1.02t-.552 1.044L973.784 148zM992.912 148.288q-1.416 0-2.4-.384t-1.596-1.068a4 4 0 0 1-.876-1.644 8 8 0 0 1-.264-2.136v-4.2h-3v-2.616l3.168-.144.456-3.648h2.904v3.648h5.04v2.76h-5.04v4.176q0 1.368.6 1.932t1.92.564q.672 0 1.236-.12a9 9 0 0 0 1.116-.312l.624 2.544q-.792.24-1.74.444t-2.148.204"/></g><path stroke="#EBEBEB" stroke-dasharray="8" stroke-linecap="square" stroke-width="2" d="m1151 247.513-1152-.897" opacity=".1"/><text fill="#0A0A0A" font-family="SourceCodePro-Regular, Source Code Pro" font-size="24">
            <tspan x="1002" y="148">█ </tspan>
        </text><g fill="#D97705" fill-rule="nonzero"><path d="M1060.57 141.029q0 1.628-1.177 2.865-1.179 1.236-2.854 1.236h-9.469v3.985l-11.672-5.555 11.672-5.601v3.984h8.11q.82 0 1.406-.516.585-.515.586-1.336v-8.25h3.398zM1069.698 132.905q.912-.168 2.1-.264a27 27 0 0 1 2.172-.096q1.104 0 2.1.24a4.9 4.9 0 0 1 1.752.792q.756.552 1.212 1.44t.456 2.16q0 1.968-1.08 3.192t-2.736 1.632l1.152.888 4.176 6.648h-2.328l-4.632-7.248-2.352-.36v7.608h-1.992zm4.32 1.368h-.648q-.336 0-.648.024l-.588.048q-.276.024-.444.072v6.192h1.872q1.656 0 2.736-.816t1.08-2.544q0-1.296-.888-2.136t-2.472-.84M1091.394 148.577q-.72.576-1.812.912t-2.316.336q-1.368 0-2.376-.444a4.2 4.2 0 0 1-1.656-1.272q-.648-.828-.96-1.98t-.312-2.592q0-3.072 1.368-4.68t3.912-1.608q.816 0 1.632.18t1.464.684 1.056 1.428.408 2.436q0 .792-.144 1.752h-7.704q0 1.056.216 1.872t.672 1.38 1.188.864 1.788.3q.816 0 1.632-.288t1.224-.672zm-4.128-9.648q-1.416 0-2.268.744t-1.02 2.544h5.952q0-1.824-.696-2.556t-1.968-.732M1093.242 137.537h1.872v-2.376l1.92-.552v2.928h3.264v1.68h-3.264v6.648q0 1.248.312 1.764t1.056.516q.624 0 1.056-.132t.96-.348l.432 1.464a7.4 7.4 0 0 1-1.416.504 6.8 6.8 0 0 1-1.656.192q-1.464 0-2.064-.828t-.6-2.772v-7.008h-1.872zM1104.69 137.537v6.84q0 .936.108 1.644t.372 1.176.72.708 1.152.24a3 3 0 0 0 1.152-.204 3 3 0 0 0 .9-.564q.396-.36.696-.828t.492-.996v-8.016h1.92v8.592q0 .864.06 1.788t.204 1.62h-1.32l-.48-1.896h-.12a4.8 4.8 0 0 1-1.488 1.56q-.936.624-2.376.624-.96 0-1.692-.228a2.6 2.6 0 0 1-1.224-.804q-.492-.576-.744-1.548t-.252-2.46v-7.248zM1121.562 139.385q-.72-.24-1.368-.24-1.032 0-1.632.564t-.744 1.428v8.4h-1.92v-12h1.344l.36 1.464h.096q.456-.816 1.092-1.26t1.62-.444q.696 0 1.56.24zM1131.762 149.537v-6.84q0-1.872-.54-2.82t-1.98-.948q-1.272 0-2.1.684a3.64 3.64 0 0 0-1.164 1.716v8.208h-1.92v-12h1.344l.36 1.464h.096q.576-.768 1.548-1.26t2.316-.492q.984 0 1.728.228t1.236.804.744 1.548.252 2.46v7.248z"/></g></g></svg>
