<?xml version="1.0" encoding="UTF-8"?>
<svg width="1150px" height="431px" viewBox="0 0 1150 431" version="1.1" xmlns="http://www.w3.org/2000/svg" xmlns:xlink="http://www.w3.org/1999/xlink">
    <title>chapter-03-shell-input-and-output</title>
    <g id="chapter-03-shell-input-and-output" stroke="none" stroke-width="1" fill="none" fill-rule="evenodd">
        <rect id="Border" stroke="#BFBFBF" stroke-width="2" x="1" y="1" width="1148" height="429" rx="12"></rect>
        <g id="Tomico-CC-BY-SA-4.0-ANSI-US-QWERTY-keyboard" transform="translate(28.559, 178.324)" fill-rule="nonzero">
            <g id="Layer_1" fill="#D6D3D1" stroke="#BFBFBF" stroke-width="0.604417671">
                <path d="M0.945306122,0 L192.054694,0 C192.574612,0 193,0.519827586 193,1.15517241 L193,65.8448276 C193,66.4801724 192.574612,67 192.054694,67 L0.945306122,67 C0.425387755,67 0,66.4801724 0,65.8448276 L0,1.15517241 C0,0.519827586 0.425387755,0 0.945306122,0 Z" id="Path"></path>
            </g>
            <g id="Layer_2" transform="translate(1.744, 1.7905)" fill="#F5F5F4">
                <path d="M0.775100402,3.55271368e-15 L8.13855422,3.55271368e-15 C8.56485944,3.55271368e-15 8.91365462,0.346551724 8.91365462,0.770114943 L8.91365462,8.0862069 C8.91365462,8.50977011 8.56485944,8.85632184 8.13855422,8.85632184 L0.775100402,8.85632184 C0.348795181,8.85632184 0,8.50977011 0,8.0862069 L0,0.770114943 C0,0.327298851 0.348795181,3.55271368e-15 0.775100402,3.55271368e-15 Z" id="Path"></path>
                <path d="M21.7028112,3.55271368e-15 L29.0662651,3.55271368e-15 C29.4925703,3.55271368e-15 29.8413655,0.346551724 29.8413655,0.770114943 L29.8413655,8.0862069 C29.8413655,8.50977011 29.4925703,8.85632184 29.0662651,8.85632184 L21.7028112,8.85632184 C21.276506,8.85632184 20.9277108,8.50977011 20.9277108,8.0862069 L20.9277108,0.770114943 C20.9277108,0.327298851 21.276506,3.55271368e-15 21.7028112,3.55271368e-15 Z" id="Path"></path>
                <path d="M32.1666667,3.55271368e-15 L39.5301205,3.55271368e-15 C39.9564257,3.55271368e-15 40.3052209,0.346551724 40.3052209,0.770114943 L40.3052209,8.0862069 C40.3052209,8.50977011 39.9564257,8.85632184 39.5301205,8.85632184 L32.1666667,8.85632184 C31.7403614,8.85632184 31.3915663,8.50977011 31.3915663,8.0862069 L31.3915663,0.770114943 C31.3915663,0.327298851 31.7403614,3.55271368e-15 32.1666667,3.55271368e-15 Z" id="Path"></path>
                <path d="M42.6305221,3.55271368e-15 L49.9939759,3.55271368e-15 C50.4202811,3.55271368e-15 50.7690763,0.346551724 50.7690763,0.770114943 L50.7690763,8.0862069 C50.7690763,8.50977011 50.4202811,8.85632184 49.9939759,8.85632184 L42.6305221,8.85632184 C42.2042169,8.85632184 41.8554217,8.50977011 41.8554217,8.0862069 L41.8554217,0.770114943 C41.8554217,0.327298851 42.2042169,3.55271368e-15 42.6305221,3.55271368e-15 Z" id="Path"></path>
                <path d="M53.0943775,3.55271368e-15 L60.4578313,3.55271368e-15 C60.8841365,3.55271368e-15 61.2329317,0.346551724 61.2329317,0.770114943 L61.2329317,8.0862069 C61.2329317,8.50977011 60.8841365,8.85632184 60.4578313,8.85632184 L53.0943775,8.85632184 C52.6680723,8.85632184 52.3192771,8.50977011 52.3192771,8.0862069 L52.3192771,0.770114943 C52.3192771,0.327298851 52.6680723,3.55271368e-15 53.0943775,3.55271368e-15 Z" id="Path"></path>
                <path d="M68.7901606,3.55271368e-15 L76.1536145,3.55271368e-15 C76.5799197,3.55271368e-15 76.9287149,0.346551724 76.9287149,0.770114943 L76.9287149,8.0862069 C76.9287149,8.50977011 76.5799197,8.85632184 76.1536145,8.85632184 L68.7901606,8.85632184 C68.3638554,8.85632184 68.0150602,8.50977011 68.0150602,8.0862069 L68.0150602,0.770114943 C68.0150602,0.327298851 68.3638554,3.55271368e-15 68.7901606,3.55271368e-15 Z" id="Path"></path>
                <path d="M79.2540161,3.55271368e-15 L86.6174699,3.55271368e-15 C87.0437751,3.55271368e-15 87.3925703,0.346551724 87.3925703,0.770114943 L87.3925703,8.0862069 C87.3925703,8.50977011 87.0437751,8.85632184 86.6174699,8.85632184 L79.2540161,8.85632184 C78.8277108,8.85632184 78.4789157,8.50977011 78.4789157,8.0862069 L78.4789157,0.770114943 C78.4789157,0.327298851 78.8277108,3.55271368e-15 79.2540161,3.55271368e-15 Z" id="Path"></path>
                <path d="M89.7178715,3.55271368e-15 L97.0813253,3.55271368e-15 C97.5076305,3.55271368e-15 97.8564257,0.346551724 97.8564257,0.770114943 L97.8564257,8.0862069 C97.8564257,8.50977011 97.5076305,8.85632184 97.0813253,8.85632184 L89.7178715,8.85632184 C89.2915663,8.85632184 88.9427711,8.50977011 88.9427711,8.0862069 L88.9427711,0.770114943 C88.9427711,0.327298851 89.2915663,3.55271368e-15 89.7178715,3.55271368e-15 Z" id="Path"></path>
                <path d="M100.181727,3.55271368e-15 L107.545181,3.55271368e-15 C107.971486,3.55271368e-15 108.320281,0.346551724 108.320281,0.770114943 L108.320281,8.0862069 C108.320281,8.50977011 107.971486,8.85632184 107.545181,8.85632184 L100.181727,8.85632184 C99.7554217,8.85632184 99.4066265,8.50977011 99.4066265,8.0862069 L99.4066265,0.770114943 C99.4066265,0.327298851 99.7554217,3.55271368e-15 100.181727,3.55271368e-15 Z" id="Path"></path>
                <path d="M115.87751,3.55271368e-15 L123.240964,3.55271368e-15 C123.667269,3.55271368e-15 124.016064,0.346551724 124.016064,0.770114943 L124.016064,8.0862069 C124.016064,8.50977011 123.667269,8.85632184 123.240964,8.85632184 L115.87751,8.85632184 C115.451205,8.85632184 115.10241,8.50977011 115.10241,8.0862069 L115.10241,0.770114943 C115.10241,0.327298851 115.451205,3.55271368e-15 115.87751,3.55271368e-15 Z" id="Path"></path>
                <path d="M126.341365,3.55271368e-15 L133.704819,3.55271368e-15 C134.131124,3.55271368e-15 134.47992,0.346551724 134.47992,0.770114943 L134.47992,8.0862069 C134.47992,8.50977011 134.131124,8.85632184 133.704819,8.85632184 L126.341365,8.85632184 C125.91506,8.85632184 125.566265,8.50977011 125.566265,8.0862069 L125.566265,0.770114943 C125.566265,0.327298851 125.91506,3.55271368e-15 126.341365,3.55271368e-15 Z" id="Path"></path>
                <path d="M136.805221,3.55271368e-15 L144.168675,3.55271368e-15 C144.59498,3.55271368e-15 144.943775,0.346551724 144.943775,0.770114943 L144.943775,8.0862069 C144.943775,8.50977011 144.59498,8.85632184 144.168675,8.85632184 L136.805221,8.85632184 C136.378916,8.85632184 136.03012,8.50977011 136.03012,8.0862069 L136.03012,0.770114943 C136.03012,0.327298851 136.378916,3.55271368e-15 136.805221,3.55271368e-15 Z" id="Path"></path>
                <path d="M147.269076,3.55271368e-15 L154.63253,3.55271368e-15 C155.058835,3.55271368e-15 155.407631,0.346551724 155.407631,0.770114943 L155.407631,8.0862069 C155.407631,8.50977011 155.058835,8.85632184 154.63253,8.85632184 L147.269076,8.85632184 C146.842771,8.85632184 146.493976,8.50977011 146.493976,8.0862069 L146.493976,0.770114943 C146.493976,0.327298851 146.842771,3.55271368e-15 147.269076,3.55271368e-15 Z" id="Path"></path>
                <path d="M160.348896,3.55271368e-15 L167.712349,3.55271368e-15 C168.138655,3.55271368e-15 168.48745,0.346551724 168.48745,0.770114943 L168.48745,8.0862069 C168.48745,8.50977011 168.138655,8.85632184 167.712349,8.85632184 L160.348896,8.85632184 C159.92259,8.85632184 159.573795,8.50977011 159.573795,8.0862069 L159.573795,0.770114943 C159.573795,0.327298851 159.92259,3.55271368e-15 160.348896,3.55271368e-15 Z" id="Path"></path>
                <path d="M170.812751,3.55271368e-15 L178.176205,3.55271368e-15 C178.60251,3.55271368e-15 178.951305,0.346551724 178.951305,0.770114943 L178.951305,8.0862069 C178.951305,8.50977011 178.60251,8.85632184 178.176205,8.85632184 L170.812751,8.85632184 C170.386446,8.85632184 170.037651,8.50977011 170.037651,8.0862069 L170.037651,0.770114943 C170.037651,0.327298851 170.386446,3.55271368e-15 170.812751,3.55271368e-15 Z" id="Path"></path>
                <path d="M181.276606,3.55271368e-15 L188.64006,3.55271368e-15 C189.066365,3.55271368e-15 189.415161,0.346551724 189.415161,0.770114943 L189.415161,8.0862069 C189.415161,8.50977011 189.066365,8.85632184 188.64006,8.85632184 L181.276606,8.85632184 C180.850301,8.85632184 180.501506,8.50977011 180.501506,8.0862069 L180.501506,0.770114943 C180.501506,0.327298851 180.850301,3.55271368e-15 181.276606,3.55271368e-15 Z" id="Path"></path>
                <path d="M0.775100402,12.9764368 L8.13855422,12.9764368 C8.56485944,12.9764368 8.91365462,13.3229885 8.91365462,13.7465517 L8.91365462,21.0626437 C8.91365462,21.4862069 8.56485944,21.8327586 8.13855422,21.8327586 L0.775100402,21.8327586 C0.348795181,21.8327586 0,21.4862069 0,21.0626437 L0,13.7465517 C0,13.3229885 0.348795181,12.9764368 0.775100402,12.9764368 Z" id="Path"></path>
                <path d="M11.2389558,12.9764368 L18.6024096,12.9764368 C19.0287149,12.9764368 19.37751,13.3229885 19.37751,13.7465517 L19.37751,21.0626437 C19.37751,21.4862069 19.0287149,21.8327586 18.6024096,21.8327586 L11.2389558,21.8327586 C10.8126506,21.8327586 10.4638554,21.4862069 10.4638554,21.0626437 L10.4638554,13.7465517 C10.4638554,13.3229885 10.8126506,12.9764368 11.2389558,12.9764368 Z" id="Path"></path>
                <path d="M21.7028112,12.9764368 L29.0662651,12.9764368 C29.4925703,12.9764368 29.8413655,13.3229885 29.8413655,13.7465517 L29.8413655,21.0626437 C29.8413655,21.4862069 29.4925703,21.8327586 29.0662651,21.8327586 L21.7028112,21.8327586 C21.276506,21.8327586 20.9277108,21.4862069 20.9277108,21.0626437 L20.9277108,13.7465517 C20.9277108,13.3229885 21.276506,12.9764368 21.7028112,12.9764368 Z" id="Path"></path>
                <path d="M32.1666667,12.9764368 L39.5301205,12.9764368 C39.9564257,12.9764368 40.3052209,13.3229885 40.3052209,13.7465517 L40.3052209,21.0626437 C40.3052209,21.4862069 39.9564257,21.8327586 39.5301205,21.8327586 L32.1666667,21.8327586 C31.7403614,21.8327586 31.3915663,21.4862069 31.3915663,21.0626437 L31.3915663,13.7465517 C31.3915663,13.3229885 31.7403614,12.9764368 32.1666667,12.9764368 Z" id="Path"></path>
                <path d="M42.6305221,12.9764368 L49.9939759,12.9764368 C50.4202811,12.9764368 50.7690763,13.3229885 50.7690763,13.7465517 L50.7690763,21.0626437 C50.7690763,21.4862069 50.4202811,21.8327586 49.9939759,21.8327586 L42.6305221,21.8327586 C42.2042169,21.8327586 41.8554217,21.4862069 41.8554217,21.0626437 L41.8554217,13.7465517 C41.8554217,13.3229885 42.2042169,12.9764368 42.6305221,12.9764368 Z" id="Path"></path>
                <path d="M53.0943775,12.9764368 L60.4578313,12.9764368 C60.8841365,12.9764368 61.2329317,13.3229885 61.2329317,13.7465517 L61.2329317,21.0626437 C61.2329317,21.4862069 60.8841365,21.8327586 60.4578313,21.8327586 L53.0943775,21.8327586 C52.6680723,21.8327586 52.3192771,21.4862069 52.3192771,21.0626437 L52.3192771,13.7465517 C52.3192771,13.3229885 52.6680723,12.9764368 53.0943775,12.9764368 Z" id="Path"></path>
                <path d="M63.5582329,12.9764368 L70.9216867,12.9764368 C71.347992,12.9764368 71.6967871,13.3229885 71.6967871,13.7465517 L71.6967871,21.0626437 C71.6967871,21.4862069 71.347992,21.8327586 70.9216867,21.8327586 L63.5582329,21.8327586 C63.1319277,21.8327586 62.7831325,21.4862069 62.7831325,21.0626437 L62.7831325,13.7465517 C62.7831325,13.3229885 63.1319277,12.9764368 63.5582329,12.9764368 Z" id="Path"></path>
                <path d="M74.0220884,12.9764368 L81.3855422,12.9764368 C81.8118474,12.9764368 82.1606426,13.3229885 82.1606426,13.7465517 L82.1606426,21.0626437 C82.1606426,21.4862069 81.8118474,21.8327586 81.3855422,21.8327586 L74.0220884,21.8327586 C73.5957831,21.8327586 73.246988,21.4862069 73.246988,21.0626437 L73.246988,13.7465517 C73.246988,13.3229885 73.5957831,12.9764368 74.0220884,12.9764368 Z" id="Path"></path>
                <path d="M84.4859438,12.9764368 L91.8493976,12.9764368 C92.2757028,12.9764368 92.624498,13.3229885 92.624498,13.7465517 L92.624498,21.0626437 C92.624498,21.4862069 92.2757028,21.8327586 91.8493976,21.8327586 L84.4859438,21.8327586 C84.0596386,21.8327586 83.7108434,21.4862069 83.7108434,21.0626437 L83.7108434,13.7465517 C83.7108434,13.3229885 84.0596386,12.9764368 84.4859438,12.9764368 Z" id="Path"></path>
                <path d="M94.9497992,12.9764368 L102.313253,12.9764368 C102.739558,12.9764368 103.088353,13.3229885 103.088353,13.7465517 L103.088353,21.0626437 C103.088353,21.4862069 102.739558,21.8327586 102.313253,21.8327586 L94.9497992,21.8327586 C94.523494,21.8327586 94.1746988,21.4862069 94.1746988,21.0626437 L94.1746988,13.7465517 C94.1746988,13.3229885 94.523494,12.9764368 94.9497992,12.9764368 Z" id="Path"></path>
                <path d="M105.413655,12.9764368 L112.777108,12.9764368 C113.203414,12.9764368 113.552209,13.3229885 113.552209,13.7465517 L113.552209,21.0626437 C113.552209,21.4862069 113.203414,21.8327586 112.777108,21.8327586 L105.413655,21.8327586 C104.987349,21.8327586 104.638554,21.4862069 104.638554,21.0626437 L104.638554,13.7465517 C104.638554,13.3229885 104.987349,12.9764368 105.413655,12.9764368 Z" id="Path"></path>
                <path d="M115.87751,12.9764368 L123.240964,12.9764368 C123.667269,12.9764368 124.016064,13.3229885 124.016064,13.7465517 L124.016064,21.0626437 C124.016064,21.4862069 123.667269,21.8327586 123.240964,21.8327586 L115.87751,21.8327586 C115.451205,21.8327586 115.10241,21.4862069 115.10241,21.0626437 L115.10241,13.7465517 C115.10241,13.3229885 115.451205,12.9764368 115.87751,12.9764368 Z" id="Path"></path>
                <path d="M126.341365,12.9764368 L133.704819,12.9764368 C134.131124,12.9764368 134.47992,13.3229885 134.47992,13.7465517 L134.47992,21.0626437 C134.47992,21.4862069 134.131124,21.8327586 133.704819,21.8327586 L126.341365,21.8327586 C125.91506,21.8327586 125.566265,21.4862069 125.566265,21.0626437 L125.566265,13.7465517 C125.566265,13.3229885 125.91506,12.9764368 126.341365,12.9764368 Z" id="Path"></path>
                <path d="M136.805221,12.9764368 L154.63253,12.9764368 C155.058835,12.9764368 155.407631,13.3229885 155.407631,13.7465517 L155.407631,21.0626437 C155.407631,21.4862069 155.058835,21.8327586 154.63253,21.8327586 L136.805221,21.8327586 C136.378916,21.8327586 136.03012,21.4862069 136.03012,21.0626437 L136.03012,13.7465517 C136.03012,13.3229885 136.378916,12.9764368 136.805221,12.9764368 Z" id="Path"></path>
                <path d="M160.348896,12.9764368 L167.712349,12.9764368 C168.138655,12.9764368 168.48745,13.3229885 168.48745,13.7465517 L168.48745,21.0626437 C168.48745,21.4862069 168.138655,21.8327586 167.712349,21.8327586 L160.348896,21.8327586 C159.92259,21.8327586 159.573795,21.4862069 159.573795,21.0626437 L159.573795,13.7465517 C159.573795,13.3229885 159.92259,12.9764368 160.348896,12.9764368 Z" id="Path"></path>
                <path d="M170.812751,12.9764368 L178.176205,12.9764368 C178.60251,12.9764368 178.951305,13.3229885 178.951305,13.7465517 L178.951305,21.0626437 C178.951305,21.4862069 178.60251,21.8327586 178.176205,21.8327586 L170.812751,21.8327586 C170.386446,21.8327586 170.037651,21.4862069 170.037651,21.0626437 L170.037651,13.7465517 C170.037651,13.3229885 170.386446,12.9764368 170.812751,12.9764368 Z" id="Path"></path>
                <path d="M181.276606,12.9764368 L188.64006,12.9764368 C189.066365,12.9764368 189.415161,13.3229885 189.415161,13.7465517 L189.415161,21.0626437 C189.415161,21.4862069 189.066365,21.8327586 188.64006,21.8327586 L181.276606,21.8327586 C180.850301,21.8327586 180.501506,21.4862069 180.501506,21.0626437 L180.501506,13.7465517 C180.501506,13.3229885 180.850301,12.9764368 181.276606,12.9764368 Z" id="Path"></path>
                <path d="M0.775100402,23.3729885 L13.3704819,23.3729885 C13.7967871,23.3729885 14.1455823,23.7195402 14.1455823,24.1431034 L14.1455823,31.4591954 C14.1455823,31.8827586 13.7967871,32.2293103 13.3704819,32.2293103 L0.775100402,32.2293103 C0.348795181,32.2293103 0,31.8827586 0,31.4591954 L0,24.1431034 C0,23.7195402 0.348795181,23.3729885 0.775100402,23.3729885 Z" id="Path"></path>
                <path d="M16.4708835,23.3729885 L23.8343373,23.3729885 C24.2606426,23.3729885 24.6094378,23.7195402 24.6094378,24.1431034 L24.6094378,31.4591954 C24.6094378,31.8827586 24.2606426,32.2293103 23.8343373,32.2293103 L16.4708835,32.2293103 C16.0445783,32.2293103 15.6957831,31.8827586 15.6957831,31.4591954 L15.6957831,24.1431034 C15.6957831,23.7195402 16.0445783,23.3729885 16.4708835,23.3729885 Z" id="Path"></path>
                <path d="M26.934739,23.3729885 L34.2981928,23.3729885 C34.724498,23.3729885 35.0732932,23.7195402 35.0732932,24.1431034 L35.0732932,31.4591954 C35.0732932,31.8827586 34.724498,32.2293103 34.2981928,32.2293103 L26.934739,32.2293103 C26.5084337,32.2293103 26.1596386,31.8827586 26.1596386,31.4591954 L26.1596386,24.1431034 C26.1596386,23.7195402 26.5084337,23.3729885 26.934739,23.3729885 Z" id="Path"></path>
                <path d="M37.3985944,23.3729885 L44.7620482,23.3729885 C45.1883534,23.3729885 45.5371486,23.7195402 45.5371486,24.1431034 L45.5371486,31.4591954 C45.5371486,31.8827586 45.1883534,32.2293103 44.7620482,32.2293103 L37.3985944,32.2293103 C36.9722892,32.2293103 36.623494,31.8827586 36.623494,31.4591954 L36.623494,24.1431034 C36.623494,23.7195402 36.9722892,23.3729885 37.3985944,23.3729885 Z" id="Path"></path>
                <path d="M47.8624498,23.3729885 L55.2259036,23.3729885 C55.6522088,23.3729885 56.001004,23.7195402 56.001004,24.1431034 L56.001004,31.4591954 C56.001004,31.8827586 55.6522088,32.2293103 55.2259036,32.2293103 L47.8624498,32.2293103 C47.4361446,32.2293103 47.0873494,31.8827586 47.0873494,31.4591954 L47.0873494,24.1431034 C47.0873494,23.7195402 47.4361446,23.3729885 47.8624498,23.3729885 Z" id="Path"></path>
                <path d="M58.3263052,23.3729885 L65.689759,23.3729885 C66.1160643,23.3729885 66.4648594,23.7195402 66.4648594,24.1431034 L66.4648594,31.4591954 C66.4648594,31.8827586 66.1160643,32.2293103 65.689759,32.2293103 L58.3263052,32.2293103 C57.9,32.2293103 57.5512048,31.8827586 57.5512048,31.4591954 L57.5512048,24.1431034 C57.5512048,23.7195402 57.9,23.3729885 58.3263052,23.3729885 Z" id="Path"></path>
                <path d="M68.7901606,23.3729885 L76.1536145,23.3729885 C76.5799197,23.3729885 76.9287149,23.7195402 76.9287149,24.1431034 L76.9287149,31.4591954 C76.9287149,31.8827586 76.5799197,32.2293103 76.1536145,32.2293103 L68.7901606,32.2293103 C68.3638554,32.2293103 68.0150602,31.8827586 68.0150602,31.4591954 L68.0150602,24.1431034 C68.0150602,23.7195402 68.3638554,23.3729885 68.7901606,23.3729885 Z" id="Path"></path>
                <path d="M79.2540161,23.3729885 L86.6174699,23.3729885 C87.0437751,23.3729885 87.3925703,23.7195402 87.3925703,24.1431034 L87.3925703,31.4591954 C87.3925703,31.8827586 87.0437751,32.2293103 86.6174699,32.2293103 L79.2540161,32.2293103 C78.8277108,32.2293103 78.4789157,31.8827586 78.4789157,31.4591954 L78.4789157,24.1431034 C78.4789157,23.7195402 78.8277108,23.3729885 79.2540161,23.3729885 Z" id="Path"></path>
                <path d="M89.7178715,23.3729885 L97.0813253,23.3729885 C97.5076305,23.3729885 97.8564257,23.7195402 97.8564257,24.1431034 L97.8564257,31.4591954 C97.8564257,31.8827586 97.5076305,32.2293103 97.0813253,32.2293103 L89.7178715,32.2293103 C89.2915663,32.2293103 88.9427711,31.8827586 88.9427711,31.4591954 L88.9427711,24.1431034 C88.9427711,23.7195402 89.2915663,23.3729885 89.7178715,23.3729885 Z" id="Path"></path>
                <path d="M100.181727,23.3729885 L107.545181,23.3729885 C107.971486,23.3729885 108.320281,23.7195402 108.320281,24.1431034 L108.320281,31.4591954 C108.320281,31.8827586 107.971486,32.2293103 107.545181,32.2293103 L100.181727,32.2293103 C99.7554217,32.2293103 99.4066265,31.8827586 99.4066265,31.4591954 L99.4066265,24.1431034 C99.4066265,23.7195402 99.7554217,23.3729885 100.181727,23.3729885 Z" id="Path"></path>
                <path d="M110.645582,23.3729885 L118.009036,23.3729885 C118.435341,23.3729885 118.784137,23.7195402 118.784137,24.1431034 L118.784137,31.4591954 C118.784137,31.8827586 118.435341,32.2293103 118.009036,32.2293103 L110.645582,32.2293103 C110.219277,32.2293103 109.870482,31.8827586 109.870482,31.4591954 L109.870482,24.1431034 C109.870482,23.7195402 110.219277,23.3729885 110.645582,23.3729885 Z" id="Path"></path>
                <path d="M121.109438,23.3729885 L128.472892,23.3729885 C128.899197,23.3729885 129.247992,23.7195402 129.247992,24.1431034 L129.247992,31.4591954 C129.247992,31.8827586 128.899197,32.2293103 128.472892,32.2293103 L121.109438,32.2293103 C120.683133,32.2293103 120.334337,31.8827586 120.334337,31.4591954 L120.334337,24.1431034 C120.334337,23.7195402 120.683133,23.3729885 121.109438,23.3729885 Z" id="Path"></path>
                <path d="M131.573293,23.3729885 L138.936747,23.3729885 C139.363052,23.3729885 139.711847,23.7195402 139.711847,24.1431034 L139.711847,31.4591954 C139.711847,31.8827586 139.363052,32.2293103 138.936747,32.2293103 L131.573293,32.2293103 C131.146988,32.2293103 130.798193,31.8827586 130.798193,31.4591954 L130.798193,24.1431034 C130.798193,23.7195402 131.146988,23.3729885 131.573293,23.3729885 Z" id="Path"></path>
                <path d="M142.037149,23.3729885 L154.63253,23.3729885 C155.058835,23.3729885 155.407631,23.7195402 155.407631,24.1431034 L155.407631,31.4591954 C155.407631,31.8827586 155.058835,32.2293103 154.63253,32.2293103 L142.037149,32.2293103 C141.610843,32.2293103 141.262048,31.8827586 141.262048,31.4591954 L141.262048,24.1431034 C141.262048,23.7195402 141.610843,23.3729885 142.037149,23.3729885 Z" id="Path"></path>
                <path d="M160.348896,23.3729885 L167.712349,23.3729885 C168.138655,23.3729885 168.48745,23.7195402 168.48745,24.1431034 L168.48745,31.4591954 C168.48745,31.8827586 168.138655,32.2293103 167.712349,32.2293103 L160.348896,32.2293103 C159.92259,32.2293103 159.573795,31.8827586 159.573795,31.4591954 L159.573795,24.1431034 C159.573795,23.7195402 159.92259,23.3729885 160.348896,23.3729885 Z" id="Path"></path>
                <path d="M170.812751,23.3729885 L178.176205,23.3729885 C178.60251,23.3729885 178.951305,23.7195402 178.951305,24.1431034 L178.951305,31.4591954 C178.951305,31.8827586 178.60251,32.2293103 178.176205,32.2293103 L170.812751,32.2293103 C170.386446,32.2293103 170.037651,31.8827586 170.037651,31.4591954 L170.037651,24.1431034 C170.037651,23.7195402 170.386446,23.3729885 170.812751,23.3729885 Z" id="Path"></path>
                <path d="M181.276606,23.3729885 L188.64006,23.3729885 C189.066365,23.3729885 189.415161,23.7195402 189.415161,24.1431034 L189.415161,31.4591954 C189.415161,31.8827586 189.066365,32.2293103 188.64006,32.2293103 L181.276606,32.2293103 C180.850301,32.2293103 180.501506,31.8827586 180.501506,31.4591954 L180.501506,24.1431034 C180.501506,23.7195402 180.850301,23.3729885 181.276606,23.3729885 Z" id="Path"></path>
                <path d="M0.775100402,33.7695402 L15.9864458,33.7695402 C16.412751,33.7695402 16.7615462,34.116092 16.7615462,34.5396552 L16.7615462,41.8557471 C16.7615462,42.2793103 16.412751,42.6258621 15.9864458,42.6258621 L0.775100402,42.6258621 C0.348795181,42.6258621 0,42.2793103 0,41.8557471 L0,34.5396552 C0,34.116092 0.348795181,33.7695402 0.775100402,33.7695402 Z" id="Path"></path>
                <path d="M19.0868474,33.7695402 L26.4503012,33.7695402 C26.8766064,33.7695402 27.2254016,34.116092 27.2254016,34.5396552 L27.2254016,41.8557471 C27.2254016,42.2793103 26.8766064,42.6258621 26.4503012,42.6258621 L19.0868474,42.6258621 C18.6605422,42.6258621 18.311747,42.2793103 18.311747,41.8557471 L18.311747,34.5396552 C18.311747,34.116092 18.6605422,33.7695402 19.0868474,33.7695402 Z" id="Path"></path>
                <path d="M29.5507028,33.7695402 L36.9141566,33.7695402 C37.3404618,33.7695402 37.689257,34.116092 37.689257,34.5396552 L37.689257,41.8557471 C37.689257,42.2793103 37.3404618,42.6258621 36.9141566,42.6258621 L29.5507028,42.6258621 C29.1243976,42.6258621 28.7756024,42.2793103 28.7756024,41.8557471 L28.7756024,34.5396552 C28.7756024,34.116092 29.1243976,33.7695402 29.5507028,33.7695402 Z" id="Path"></path>
                <path d="M40.0145582,33.7695402 L47.378012,33.7695402 C47.8043173,33.7695402 48.1531124,34.116092 48.1531124,34.5396552 L48.1531124,41.8557471 C48.1531124,42.2793103 47.8043173,42.6258621 47.378012,42.6258621 L40.0145582,42.6258621 C39.588253,42.6258621 39.2394578,42.2793103 39.2394578,41.8557471 L39.2394578,34.5396552 C39.2394578,34.116092 39.588253,33.7695402 40.0145582,33.7695402 Z" id="Path"></path>
                <path d="M50.4784137,33.7695402 L57.8418675,33.7695402 C58.2681727,33.7695402 58.6169679,34.116092 58.6169679,34.5396552 L58.6169679,41.8557471 C58.6169679,42.2793103 58.2681727,42.6258621 57.8418675,42.6258621 L50.4784137,42.6258621 C50.0521084,42.6258621 49.7033133,42.2793103 49.7033133,41.8557471 L49.7033133,34.5396552 C49.7033133,34.116092 50.0521084,33.7695402 50.4784137,33.7695402 Z" id="Path"></path>
                <path d="M60.9422691,33.7695402 L68.3057229,33.7695402 C68.7320281,33.7695402 69.0808233,34.116092 69.0808233,34.5396552 L69.0808233,41.8557471 C69.0808233,42.2793103 68.7320281,42.6258621 68.3057229,42.6258621 L60.9422691,42.6258621 C60.5159639,42.6258621 60.1671687,42.2793103 60.1671687,41.8557471 L60.1671687,34.5396552 C60.1671687,34.116092 60.5159639,33.7695402 60.9422691,33.7695402 Z" id="Path"></path>
                <path d="M71.4061245,33.7695402 L78.7695783,33.7695402 C79.1958835,33.7695402 79.5446787,34.116092 79.5446787,34.5396552 L79.5446787,41.8557471 C79.5446787,42.2793103 79.1958835,42.6258621 78.7695783,42.6258621 L71.4061245,42.6258621 C70.9798193,42.6258621 70.6310241,42.2793103 70.6310241,41.8557471 L70.6310241,34.5396552 C70.6310241,34.116092 70.9798193,33.7695402 71.4061245,33.7695402 Z" id="Path"></path>
                <path d="M81.8699799,33.7695402 L89.2334337,33.7695402 C89.659739,33.7695402 90.0085341,34.116092 90.0085341,34.5396552 L90.0085341,41.8557471 C90.0085341,42.2793103 89.659739,42.6258621 89.2334337,42.6258621 L81.8699799,42.6258621 C81.4436747,42.6258621 81.0948795,42.2793103 81.0948795,41.8557471 L81.0948795,34.5396552 C81.0948795,34.116092 81.4436747,33.7695402 81.8699799,33.7695402 Z" id="Path"></path>
                <path d="M92.3338353,33.7695402 L99.6972892,33.7695402 C100.123594,33.7695402 100.47239,34.116092 100.47239,34.5396552 L100.47239,41.8557471 C100.47239,42.2793103 100.123594,42.6258621 99.6972892,42.6258621 L92.3338353,42.6258621 C91.9075301,42.6258621 91.5587349,42.2793103 91.5587349,41.8557471 L91.5587349,34.5396552 C91.5587349,34.116092 91.9075301,33.7695402 92.3338353,33.7695402 Z" id="Path"></path>
                <path d="M102.797691,33.7695402 L110.161145,33.7695402 C110.58745,33.7695402 110.936245,34.116092 110.936245,34.5396552 L110.936245,41.8557471 C110.936245,42.2793103 110.58745,42.6258621 110.161145,42.6258621 L102.797691,42.6258621 C102.371386,42.6258621 102.02259,42.2793103 102.02259,41.8557471 L102.02259,34.5396552 C102.02259,34.116092 102.371386,33.7695402 102.797691,33.7695402 Z" id="Path"></path>
                <path d="M113.261546,33.7695402 L120.625,33.7695402 C121.051305,33.7695402 121.4001,34.116092 121.4001,34.5396552 L121.4001,41.8557471 C121.4001,42.2793103 121.051305,42.6258621 120.625,42.6258621 L113.261546,42.6258621 C112.835241,42.6258621 112.486446,42.2793103 112.486446,41.8557471 L112.486446,34.5396552 C112.486446,34.116092 112.835241,33.7695402 113.261546,33.7695402 Z" id="Path"></path>
                <path d="M123.725402,33.7695402 L131.088855,33.7695402 C131.515161,33.7695402 131.863956,34.116092 131.863956,34.5396552 L131.863956,41.8557471 C131.863956,42.2793103 131.515161,42.6258621 131.088855,42.6258621 L123.725402,42.6258621 C123.299096,42.6258621 122.950301,42.2793103 122.950301,41.8557471 L122.950301,34.5396552 C122.950301,34.116092 123.299096,33.7695402 123.725402,33.7695402 Z" id="Path"></path>
                <path d="M134.189257,33.7695402 L154.63253,33.7695402 C155.058835,33.7695402 155.407631,34.116092 155.407631,34.5396552 L155.407631,41.8557471 C155.407631,42.2793103 155.058835,42.6258621 154.63253,42.6258621 L134.189257,42.6258621 C133.762952,42.6258621 133.414157,42.2793103 133.414157,41.8557471 L133.414157,34.5396552 C133.414157,34.116092 133.762952,33.7695402 134.189257,33.7695402 Z" id="Path"></path>
                <path d="M0.775100402,44.166092 L21.2183735,44.166092 C21.6446787,44.166092 21.9934739,44.5126437 21.9934739,44.9362069 L21.9934739,52.2522989 C21.9934739,52.6758621 21.6446787,53.0224138 21.2183735,53.0224138 L0.775100402,53.0224138 C0.348795181,53.0224138 0,52.6758621 0,52.2522989 L0,44.9362069 C0,44.5126437 0.348795181,44.166092 0.775100402,44.166092 Z" id="Path"></path>
                <path d="M24.3187751,44.166092 L31.6822289,44.166092 C32.1085341,44.166092 32.4573293,44.5126437 32.4573293,44.9362069 L32.4573293,52.2522989 C32.4573293,52.6758621 32.1085341,53.0224138 31.6822289,53.0224138 L24.3187751,53.0224138 C23.8924699,53.0224138 23.5436747,52.6758621 23.5436747,52.2522989 L23.5436747,44.9362069 C23.5436747,44.5126437 23.8924699,44.166092 24.3187751,44.166092 Z" id="Path"></path>
                <path d="M34.7826305,44.166092 L42.1460843,44.166092 C42.5723896,44.166092 42.9211847,44.5126437 42.9211847,44.9362069 L42.9211847,52.2522989 C42.9211847,52.6758621 42.5723896,53.0224138 42.1460843,53.0224138 L34.7826305,53.0224138 C34.3563253,53.0224138 34.0075301,52.6758621 34.0075301,52.2522989 L34.0075301,44.9362069 C34.0075301,44.5126437 34.3563253,44.166092 34.7826305,44.166092 Z" id="Path"></path>
                <path d="M45.2464859,44.166092 L52.6099398,44.166092 C53.036245,44.166092 53.3850402,44.5126437 53.3850402,44.9362069 L53.3850402,52.2522989 C53.3850402,52.6758621 53.036245,53.0224138 52.6099398,53.0224138 L45.2464859,53.0224138 C44.8201807,53.0224138 44.4713855,52.6758621 44.4713855,52.2522989 L44.4713855,44.9362069 C44.4713855,44.5126437 44.8201807,44.166092 45.2464859,44.166092 Z" id="Path"></path>
                <path d="M55.7103414,44.166092 L63.0737952,44.166092 C63.5001004,44.166092 63.8488956,44.5126437 63.8488956,44.9362069 L63.8488956,52.2522989 C63.8488956,52.6758621 63.5001004,53.0224138 63.0737952,53.0224138 L55.7103414,53.0224138 C55.2840361,53.0224138 54.935241,52.6758621 54.935241,52.2522989 L54.935241,44.9362069 C54.935241,44.5126437 55.2840361,44.166092 55.7103414,44.166092 Z" id="Path"></path>
                <path d="M66.1741968,44.166092 L73.5376506,44.166092 C73.9639558,44.166092 74.312751,44.5126437 74.312751,44.9362069 L74.312751,52.2522989 C74.312751,52.6758621 73.9639558,53.0224138 73.5376506,53.0224138 L66.1741968,53.0224138 C65.7478916,53.0224138 65.3990964,52.6758621 65.3990964,52.2522989 L65.3990964,44.9362069 C65.3990964,44.5126437 65.7478916,44.166092 66.1741968,44.166092 Z" id="Path"></path>
                <path d="M76.6380522,44.166092 L84.001506,44.166092 C84.4278112,44.166092 84.7766064,44.5126437 84.7766064,44.9362069 L84.7766064,52.2522989 C84.7766064,52.6758621 84.4278112,53.0224138 84.001506,53.0224138 L76.6380522,53.0224138 C76.211747,53.0224138 75.8629518,52.6758621 75.8629518,52.2522989 L75.8629518,44.9362069 C75.8629518,44.5126437 76.211747,44.166092 76.6380522,44.166092 Z" id="Path"></path>
                <path d="M87.1019076,44.166092 L94.4653614,44.166092 C94.8916667,44.166092 95.2404618,44.5126437 95.2404618,44.9362069 L95.2404618,52.2522989 C95.2404618,52.6758621 94.8916667,53.0224138 94.4653614,53.0224138 L87.1019076,53.0224138 C86.6756024,53.0224138 86.3268072,52.6758621 86.3268072,52.2522989 L86.3268072,44.9362069 C86.3268072,44.5126437 86.6756024,44.166092 87.1019076,44.166092 Z" id="Path"></path>
                <path d="M97.5657631,44.166092 L104.929217,44.166092 C105.355522,44.166092 105.704317,44.5126437 105.704317,44.9362069 L105.704317,52.2522989 C105.704317,52.6758621 105.355522,53.0224138 104.929217,53.0224138 L97.5657631,53.0224138 C97.1394578,53.0224138 96.7906627,52.6758621 96.7906627,52.2522989 L96.7906627,44.9362069 C96.7906627,44.5126437 97.1394578,44.166092 97.5657631,44.166092 Z" id="Path"></path>
                <path d="M108.029618,44.166092 L115.393072,44.166092 C115.819378,44.166092 116.168173,44.5126437 116.168173,44.9362069 L116.168173,52.2522989 C116.168173,52.6758621 115.819378,53.0224138 115.393072,53.0224138 L108.029618,53.0224138 C107.603313,53.0224138 107.254518,52.6758621 107.254518,52.2522989 L107.254518,44.9362069 C107.254518,44.5126437 107.603313,44.166092 108.029618,44.166092 Z" id="Path"></path>
                <path d="M118.493474,44.166092 L125.856928,44.166092 C126.283233,44.166092 126.632028,44.5126437 126.632028,44.9362069 L126.632028,52.2522989 C126.632028,52.6758621 126.283233,53.0224138 125.856928,53.0224138 L118.493474,53.0224138 C118.067169,53.0224138 117.718373,52.6758621 117.718373,52.2522989 L117.718373,44.9362069 C117.718373,44.5126437 118.067169,44.166092 118.493474,44.166092 Z" id="Path"></path>
                <path d="M128.957329,44.166092 L154.63253,44.166092 C155.058835,44.166092 155.407631,44.5126437 155.407631,44.9362069 L155.407631,52.2522989 C155.407631,52.6758621 155.058835,53.0224138 154.63253,53.0224138 L128.957329,53.0224138 C128.531024,53.0224138 128.182229,52.6758621 128.182229,52.2522989 L128.182229,44.9362069 C128.182229,44.5126437 128.531024,44.166092 128.957329,44.166092 Z" id="Path"></path>
                <path d="M170.812751,44.166092 L178.176205,44.166092 C178.60251,44.166092 178.951305,44.5126437 178.951305,44.9362069 L178.951305,52.2522989 C178.951305,52.6758621 178.60251,53.0224138 178.176205,53.0224138 L170.812751,53.0224138 C170.386446,53.0224138 170.037651,52.6758621 170.037651,52.2522989 L170.037651,44.9362069 C170.037651,44.5126437 170.386446,44.166092 170.812751,44.166092 Z" id="Path"></path>
                <path d="M0.775100402,54.5626437 L10.7545181,54.5626437 C11.1808233,54.5626437 11.5296185,54.9091954 11.5296185,55.3327586 L11.5296185,62.6488506 C11.5296185,63.0724138 11.1808233,63.4189655 10.7545181,63.4189655 L0.775100402,63.4189655 C0.348795181,63.4189655 0,63.0724138 0,62.6488506 L0,55.3327586 C0,54.9091954 0.348795181,54.5626437 0.775100402,54.5626437 Z" id="Path"></path>
                <path d="M13.8549197,54.5626437 L23.8343373,54.5626437 C24.2606426,54.5626437 24.6094378,54.9091954 24.6094378,55.3327586 L24.6094378,62.6488506 C24.6094378,63.0724138 24.2606426,63.4189655 23.8343373,63.4189655 L13.8549197,63.4189655 C13.4286145,63.4189655 13.0798193,63.0724138 13.0798193,62.6488506 L13.0798193,55.3327586 C13.0798193,54.9091954 13.4286145,54.5626437 13.8549197,54.5626437 Z" id="Path"></path>
                <path d="M26.934739,54.5626437 L36.9141566,54.5626437 C37.3404618,54.5626437 37.689257,54.9091954 37.689257,55.3327586 L37.689257,62.6488506 C37.689257,63.0724138 37.3404618,63.4189655 36.9141566,63.4189655 L26.934739,63.4189655 C26.5084337,63.4189655 26.1596386,63.0724138 26.1596386,62.6488506 L26.1596386,55.3327586 C26.1596386,54.9091954 26.5084337,54.5626437 26.934739,54.5626437 Z" id="Path"></path>
                <path d="M40.0145582,54.5626437 L102.313253,54.5626437 C102.739558,54.5626437 103.088353,54.9091954 103.088353,55.3327586 L103.088353,62.6488506 C103.088353,63.0724138 102.739558,63.4189655 102.313253,63.4189655 L40.0145582,63.4189655 C39.588253,63.4189655 39.2394578,63.0724138 39.2394578,62.6488506 L39.2394578,55.3327586 C39.2394578,54.9091954 39.588253,54.5626437 40.0145582,54.5626437 Z" id="Path"></path>
                <path d="M105.413655,54.5626437 L115.393072,54.5626437 C115.819378,54.5626437 116.168173,54.9091954 116.168173,55.3327586 L116.168173,62.6488506 C116.168173,63.0724138 115.819378,63.4189655 115.393072,63.4189655 L105.413655,63.4189655 C104.987349,63.4189655 104.638554,63.0724138 104.638554,62.6488506 L104.638554,55.3327586 C104.638554,54.9091954 104.987349,54.5626437 105.413655,54.5626437 Z" id="Path"></path>
                <path d="M118.493474,54.5626437 L128.472892,54.5626437 C128.899197,54.5626437 129.247992,54.9091954 129.247992,55.3327586 L129.247992,62.6488506 C129.247992,63.0724138 128.899197,63.4189655 128.472892,63.4189655 L118.493474,63.4189655 C118.067169,63.4189655 117.718373,63.0724138 117.718373,62.6488506 L117.718373,55.3327586 C117.718373,54.9091954 118.067169,54.5626437 118.493474,54.5626437 Z" id="Path"></path>
                <path d="M131.573293,54.5626437 L141.552711,54.5626437 C141.979016,54.5626437 142.327811,54.9091954 142.327811,55.3327586 L142.327811,62.6488506 C142.327811,63.0724138 141.979016,63.4189655 141.552711,63.4189655 L131.573293,63.4189655 C131.146988,63.4189655 130.798193,63.0724138 130.798193,62.6488506 L130.798193,55.3327586 C130.798193,54.9091954 131.146988,54.5626437 131.573293,54.5626437 Z" id="Path"></path>
                <path d="M144.653112,54.5626437 L154.63253,54.5626437 C155.058835,54.5626437 155.407631,54.9091954 155.407631,55.3327586 L155.407631,62.6488506 C155.407631,63.0724138 155.058835,63.4189655 154.63253,63.4189655 L144.653112,63.4189655 C144.226807,63.4189655 143.878012,63.0724138 143.878012,62.6488506 L143.878012,55.3327586 C143.878012,54.9091954 144.226807,54.5626437 144.653112,54.5626437 Z" id="Path"></path>
                <path d="M160.348896,54.5626437 L167.712349,54.5626437 C168.138655,54.5626437 168.48745,54.9091954 168.48745,55.3327586 L168.48745,62.6488506 C168.48745,63.0724138 168.138655,63.4189655 167.712349,63.4189655 L160.348896,63.4189655 C159.92259,63.4189655 159.573795,63.0724138 159.573795,62.6488506 L159.573795,55.3327586 C159.573795,54.9091954 159.92259,54.5626437 160.348896,54.5626437 Z" id="Path"></path>
                <path d="M170.812751,54.5626437 L178.176205,54.5626437 C178.60251,54.5626437 178.951305,54.9091954 178.951305,55.3327586 L178.951305,62.6488506 C178.951305,63.0724138 178.60251,63.4189655 178.176205,63.4189655 L170.812751,63.4189655 C170.386446,63.4189655 170.037651,63.0724138 170.037651,62.6488506 L170.037651,55.3327586 C170.037651,54.9091954 170.386446,54.5626437 170.812751,54.5626437 Z" id="Path"></path>
                <path d="M181.276606,54.5626437 L188.64006,54.5626437 C189.066365,54.5626437 189.415161,54.9091954 189.415161,55.3327586 L189.415161,62.6488506 C189.415161,63.0724138 189.066365,63.4189655 188.64006,63.4189655 L181.276606,63.4189655 C180.850301,63.4189655 180.501506,63.0724138 180.501506,62.6488506 L180.501506,55.3327586 C180.501506,54.9091954 180.850301,54.5626437 181.276606,54.5626437 Z" id="Path"></path>
            </g>
        </g>
        <path id="Shape" d="M465.940154,209.564492 L495.798629,248.660162 L479.12962,251.842224 C495.476515,287.535406 531.28674,311.115066 571.490728,311.115066 C620.33605,311.115066 662.007147,276.373236 671.185164,228.995046 L679.039154,230.516506 C669.135745,281.63927 624.185392,319.115066 571.490728,319.115066 C527.452306,319.115066 488.300509,292.887926 471.055713,253.383597 L452.578702,256.908674 L465.940154,209.564492 Z M571.490728,100.013917 C615.529151,100.013917 654.680948,126.241057 671.925744,165.745386 L690.402754,162.220309 L677.041303,209.564492 L647.182828,170.468821 L663.851837,167.28676 C647.504942,131.593577 611.694717,108.013917 571.490728,108.013917 C522.460229,108.013917 480.679274,143.015712 471.701743,190.628617 L463.840269,189.146316 C473.52737,137.770159 518.596253,100.013917 571.490728,100.013917 Z" fill="#D97705" fill-rule="nonzero"></path>
        <g id="Window" transform="translate(969.3159, 272.0645)">
            <rect id="Border" stroke="#BFBFBF" stroke-width="2" fill="#FFFFFF" x="-1" y="-1" width="154.125128" height="126.5" rx="6"></rect>
            <path d="M146.34735,-1 C148.218982,-1 149.913426,-0.241371393 151.139963,0.985165119 C152.366499,2.21170163 153.125128,3.90614605 153.125128,5.77777767 L153.125128,15.0631229 L-1,15.0631229 L-1,5.77777767 C-1,3.90614605 -0.241371393,2.21170163 0.985165119,0.985165119 C2.21170163,-0.241371393 3.90614605,-1 5.77777767,-1 Z" id="Titlebar" stroke="#BFBFBF" stroke-width="2" fill="#EBEBEB"></path>
            <circle id="Oval" fill="#BFBFBF" cx="9.63239912" cy="7.03156146" r="2.34783933"></circle>
            <circle id="Oval" fill="#BFBFBF" cx="16.9344053" cy="7.03156146" r="2.34783933"></circle>
            <circle id="Oval" fill="#BFBFBF" cx="24.2364114" cy="7.03156146" r="2.34783933"></circle>
        </g>
        <path id="Line-2" d="M937.19215,79.5405878 C943.819563,79.5480787 949.18607,84.9267309 949.178579,91.5541436 C949.171088,98.1815564 943.792436,103.548063 937.165023,103.540572 C931.219207,103.533852 926.288278,99.203954 925.342333,93.5276982 L756.178,93.335 L756.178586,216.333736 L752.178586,216.333736 L752.178586,89.3314743 L754.180847,89.3337375 L925.34674,89.5273926 C926.305233,83.8529536 931.246096,79.533867 937.19215,79.5405878 Z M937.187629,83.5405852 C932.803168,83.5356295 929.23852,87.0587108 929.179334,91.4302441 L929.179,91.618 L929.182117,91.7807212 C929.308903,96.0838502 932.834633,99.5356753 937.169544,99.540575 C941.587819,99.545569 945.173587,95.9678976 945.178581,91.5496225 C945.183575,87.1313473 941.605904,83.5455792 937.187629,83.5405852 Z" fill="#D97705" fill-rule="nonzero"></path>
        <path id="Line-2" d="M419.453153,199.824014 C426.08057,199.824014 431.453153,205.196597 431.453153,211.824014 C431.453153,218.451431 426.08057,223.824014 419.453153,223.824014 C413.507443,223.824014 408.571695,219.499852 407.619206,213.824823 L251.992711,213.824014 L251.992711,209.824014 L407.619038,209.824201 C408.571117,204.148682 413.507095,199.824014 419.453153,199.824014 Z M419.453153,203.824014 C415.034875,203.824014 411.453153,207.405736 411.453153,211.824014 C411.453153,216.242292 415.034875,219.824014 419.453153,219.824014 C423.871431,219.824014 427.453153,216.242292 427.453153,211.824014 C427.453153,207.405736 423.871431,203.824014 419.453153,203.824014 Z" fill="#D97705" fill-rule="nonzero"></path>
        <path id="Line-2" d="M937.178586,199.564492 C943.806003,199.564492 949.178586,204.937075 949.178586,211.564492 C949.178586,218.191909 943.806003,223.564492 937.178586,223.564492 C931.232767,223.564492 926.296947,219.24017 925.344586,213.564987 L756.178,213.564 L756.178586,336.564492 L707.178586,336.564492 L707.178586,332.564492 L752.178,332.564 L752.178586,209.564492 L925.344586,209.563997 C926.296947,203.888814 931.232767,199.564492 937.178586,199.564492 Z M937.178586,203.564492 C932.760308,203.564492 929.178586,207.146214 929.178586,211.564492 C929.178586,215.98277 932.760308,219.564492 937.178586,219.564492 C941.596864,219.564492 945.178586,215.98277 945.178586,211.564492 C945.178586,207.146214 941.596864,203.564492 937.178586,203.564492 Z" transform="translate(823.1786, 273.0645) scale(1, -1) translate(-823.1786, -273.0645)" fill="#D97705" fill-rule="nonzero"></path>
        <text id="standard-input" font-family="SourceCodePro-Semibold, Source Code Pro" font-size="24" font-weight="500" fill="#0A0A0A">
            <tspan x="274.096286" y="165.324014">standard</tspan>
            <tspan x="295.696286" y="196.324014">input</tspan>
        </text>
        <text id="standard-output" font-family="SourceCodePro-Semibold, Source Code Pro" font-size="24" font-weight="500" fill="#0A0A0A">
            <tspan x="788.078586" y="285.202309">standard</tspan>
            <tspan x="802.478586" y="316.202309">output</tspan>
        </text>
        <text id="standard-error" font-family="SourceCodePro-Semibold, Source Code Pro" font-size="24" font-weight="500" fill="#0A0A0A">
            <tspan x="788.078586" y="369.961831">standard</tspan>
            <tspan x="809.678586" y="400.961831">error</tspan>
        </text>
        <text id="shell-process" font-family="SourceCodePro-Semibold, Source Code Pro" font-size="24" font-weight="500" fill="#0A0A0A">
            <tspan x="535.490728" y="204.824014">shell</tspan>
            <tspan x="521.090728" y="235.824014">process</tspan>
        </text>
        <text id="create-file" font-family="SourceCodePro-Semibold, Source Code Pro" font-size="24" font-weight="500" fill="#0A0A0A">
            <tspan x="802.478586" y="39.9363967">create</tspan>
            <tspan x="816.878586" y="70.9363967">file</tspan>
        </text>
        <text id="append-file" font-family="SourceCodePro-Semibold, Source Code Pro" font-size="24" font-weight="500" fill="#0A0A0A">
            <tspan x="802.478586" y="123.852645">append</tspan>
            <tspan x="816.878586" y="154.852645">file</tspan>
        </text>
        <g id="documents" transform="translate(1014.4788, 51.8148)" fill-rule="nonzero">
            <path d="M49.5563201,29.9544843 C49.8752022,29.9547574 50.1631191,29.7636836 50.2867476,29.4697415 C50.4103762,29.1757994 50.3455791,28.8363781 50.1223614,28.6086506 L34.6057054,12.830734 C34.3801726,12.6017205 34.0385581,12.531801 33.7411846,12.6537893 C33.4438111,12.7757777 33.2497109,13.0654576 33.2499769,13.3868798 L33.2499769,27.579484 C33.2499769,28.8911603 34.3133002,29.9544843 35.6249755,29.9544843 L49.5563201,29.9544843 Z" id="Path" fill="#BFBFBF"></path>
            <path d="M29.4895631,33.7149006 C27.8476154,32.0950014 26.9212635,29.8860069 26.9166482,27.579484 L26.9166482,9.37115064 L12.666658,9.37115064 C5.67962771,9.39180157 0.0206509207,15.0507822 0,22.0378173 L0,66.3711506 C0,73.3667575 5.67105594,79.0378173 12.666658,79.0378173 L41.1666384,79.0378173 C48.1622404,79.0378173 53.8332964,73.3667575 53.8332964,66.3711506 L53.8332964,36.2878173 L35.6249755,36.2878173 C33.3181868,36.2845251 31.1087048,35.3579675 29.4895631,33.7149006 Z" id="Path" fill="#BFBFBF"></path>
            <g id="sparkles" transform="translate(41.7993, 0)" fill="#FCBF24">
                <path d="M8.12515989,20.0005057 C7.72068131,20.0025463 7.35735644,19.7534804 7.21341492,19.3754751 L5.65712017,15.3284838 C5.59338313,15.1635817 5.46302757,15.0332261 5.29812548,14.9694891 L1.2499622,13.4120224 C0.872471552,13.267141 0.623300585,12.9046162 0.623300585,12.5002774 C0.623300585,12.0959387 0.872471552,11.7334139 1.2499622,11.5885325 L5.29695357,10.0322377 C5.46185567,9.96850067 5.59221122,9.83814512 5.65594826,9.67324302 L7.21341492,5.62507975 C7.35829635,5.2475891 7.72082115,4.99841813 8.12515989,4.99841813 C8.52949863,4.99841813 8.89202343,5.2475891 9.03690485,5.62507975 L10.5931996,9.67207111 C10.6569366,9.83697321 10.7872922,9.96732876 10.9521943,10.0310658 L14.9757475,11.5791572 C15.3689095,11.7248883 15.6286502,12.1013016 15.6254062,12.5205905 C15.6192772,12.9177008 15.37161,13.270936 15.0003576,13.4120224 L10.9533662,14.9683171 C10.7884641,15.0320542 10.6581086,15.1624097 10.5943715,15.3273118 L9.03690485,19.3754751 C8.89296334,19.7534804 8.52963847,20.0025463 8.12515989,20.0005057 L8.12515989,20.0005057 Z" id="Shape"></path>
                <path d="M3.4375251,6.87511569 C3.20047582,6.87511569 2.98790086,6.72914306 2.9027441,6.50791763 L2.24413141,4.79536839 C2.21525935,4.71961375 2.1554282,4.6597826 2.07967356,4.63091054 L0.367124318,3.97229785 C0.145927903,3.88711723 0,3.67454763 0,3.43751685 C0,3.20048607 0.145927903,2.98791646 0.367124318,2.90273585 L2.07967356,2.24412316 C2.15534532,2.21512326 2.21513152,2.15533706 2.24413141,2.07966531 L2.89688456,0.382350877 C2.97190287,0.178720114 3.15332054,0.0332252477 3.36838249,0.00421500393 C3.62906006,-0.0274746449 3.87792188,0.122067806 3.9723061,0.367116064 L4.63091879,2.07966531 C4.65991869,2.15533706 4.71970489,2.21512326 4.79537665,2.24412316 L6.50792589,2.90273585 C6.7291223,2.98791646 6.8750502,3.20048607 6.8750502,3.43751685 C6.8750502,3.67454763 6.7291223,3.88711723 6.50792589,3.97229785 L4.79537665,4.63091054 C4.71962201,4.6597826 4.65979086,4.71961375 4.63091879,4.79536839 L3.9723061,6.50791763 C3.88714934,6.72914306 3.67457438,6.87511569 3.4375251,6.87511569 Z" id="Path"></path>
                <path d="M15.6253755,10.0002055 C15.3667752,10.0002055 15.1349285,9.84079904 15.0421557,9.59941277 L14.1499425,7.28020546 C14.1182019,7.19755897 14.0528963,7.13225341 13.9702498,7.1005128 L11.6510425,6.20829964 C11.4098535,6.11536457 11.2507511,5.88355428 11.2507511,5.62507975 C11.2507511,5.36660522 11.4098535,5.13479492 11.6510425,5.04185985 L13.9702498,4.1496467 C14.0528963,4.11790609 14.1182019,4.05260053 14.1499425,3.96995403 L15.0355148,1.66715344 C15.1178836,1.44528166 15.3155422,1.28664452 15.5499828,1.25425095 C15.8344535,1.21981558 16.1059032,1.38323282 16.2085954,1.65074672 L17.1008086,3.96995403 C17.1325492,4.05260053 17.1978548,4.11790609 17.2805013,4.1496467 L19.5997086,5.04185985 C19.8408976,5.13479492 20,5.36660522 20,5.62507975 C20,5.88355428 19.8408976,6.11536457 19.5997086,6.20829964 L17.2805013,7.1005128 C17.1978548,7.13225341 17.1325492,7.19755897 17.1008086,7.28020546 L16.2085954,9.59941277 C16.1158226,9.84079904 15.8839759,10.0002055 15.6253755,10.0002055 Z" id="Path"></path>
            </g>
        </g>
    </g>
</svg>