<svg xmlns="http://www.w3.org/2000/svg" viewBox="0 0 1158 313"><g fill="none" fill-rule="evenodd"><rect width="1154" height="303" x="1.89" y="7.037" fill="#FFF" stroke="#BFBFBF" stroke-width="2" rx="10"/><g fill="#D97705" fill-rule="nonzero"><path d="M716.704 233.604q0 1.272-.468 2.604t-1.224 2.676a27 27 0 0 1-1.692 2.628 59 59 0 0 1-1.872 2.436l-1.176 1.032v.096l1.536-.264h5.232v1.776h-9.552v-.696q.528-.552 1.272-1.368a40 40 0 0 0 3.132-3.924q.78-1.116 1.416-2.268t1.02-2.28.384-2.136q0-1.176-.672-1.956t-2.04-.78q-.912 0-1.776.372a7 7 0 0 0-1.488.852l-.792-1.368a6.2 6.2 0 0 1 1.992-1.128 7.4 7.4 0 0 1 2.472-.408q1.032 0 1.824.3t1.344.852.84 1.308a4.6 4.6 0 0 1 .288 1.644M720.112 238.188q0-4.32 1.404-6.504t4.092-2.184q2.904 0 4.212 2.148t1.308 6.54q0 4.32-1.404 6.504t-4.116 2.184q-2.856 0-4.176-2.28t-1.32-6.408m1.992 0q0 1.56.204 2.844t.636 2.208 1.092 1.44 1.572.516q1.824 0 2.676-1.692t.852-5.316q0-1.536-.18-2.832t-.6-2.232-1.092-1.44-1.656-.504q-1.8 0-2.652 1.704t-.852 5.304M742.864 233.604q0 1.272-.468 2.604t-1.224 2.676a27 27 0 0 1-1.692 2.628 59 59 0 0 1-1.872 2.436l-1.176 1.032v.096l1.536-.264h5.232v1.776h-9.552v-.696q.528-.552 1.272-1.368a40 40 0 0 0 3.132-3.924q.78-1.116 1.416-2.268t1.02-2.28.384-2.136q0-1.176-.672-1.956t-2.04-.78q-.912 0-1.776.372a7 7 0 0 0-1.488.852l-.792-1.368a6.2 6.2 0 0 1 1.992-1.128 7.4 7.4 0 0 1 2.472-.408q1.032 0 1.824.3t1.344.852.84 1.308a4.6 4.6 0 0 1 .288 1.644M747.832 244.812h3.36v-11.616l.24-1.416-.96 1.128-2.64 1.896-.912-1.224 5.28-4.08h.864v15.312h3.288v1.776h-8.52z"/></g><g fill="#D97705" fill-rule="nonzero"><path d="M716.704 261.328q0 1.272-.468 2.605t-1.224 2.675a27 27 0 0 1-1.692 2.628 59 59 0 0 1-1.872 2.436l-1.176 1.032v.096l1.536-.264h5.232v1.776h-9.552v-.696q.528-.552 1.272-1.368a40 40 0 0 0 3.132-3.923q.78-1.116 1.416-2.269.636-1.151 1.02-2.28t.384-2.136q0-1.175-.672-1.956t-2.04-.78q-.912 0-1.776.373a7 7 0 0 0-1.488.851l-.792-1.368a6.2 6.2 0 0 1 1.992-1.127 7.4 7.4 0 0 1 2.472-.409q1.032 0 1.824.3t1.344.852q.552.553.84 1.308a4.6 4.6 0 0 1 .288 1.644M720.112 265.912q0-4.32 1.404-6.503 1.404-2.185 4.092-2.185 2.904 0 4.212 2.149 1.308 2.147 1.308 6.54 0 4.32-1.404 6.503-1.404 2.185-4.116 2.184-2.856 0-4.176-2.28t-1.32-6.408m1.992 0q0 1.56.204 2.844t.636 2.209q.432.923 1.092 1.44t1.572.516q1.824 0 2.676-1.692t.852-5.317q0-1.535-.18-2.832t-.6-2.231q-.42-.938-1.092-1.44-.672-.505-1.656-.505-1.8 0-2.652 1.704t-.852 5.304M742.864 261.328q0 1.272-.468 2.605t-1.224 2.675a27 27 0 0 1-1.692 2.628 59 59 0 0 1-1.872 2.436l-1.176 1.032v.096l1.536-.264h5.232v1.776h-9.552v-.696q.528-.552 1.272-1.368a40 40 0 0 0 3.132-3.923q.78-1.116 1.416-2.269.636-1.151 1.02-2.28t.384-2.136q0-1.175-.672-1.956t-2.04-.78q-.912 0-1.776.373a7 7 0 0 0-1.488.851l-.792-1.368a6.2 6.2 0 0 1 1.992-1.127 7.4 7.4 0 0 1 2.472-.409q1.032 0 1.824.3t1.344.852q.552.553.84 1.308a4.6 4.6 0 0 1 .288 1.644M755.944 261.328q0 1.272-.468 2.605t-1.224 2.675a27 27 0 0 1-1.692 2.628 59 59 0 0 1-1.872 2.436l-1.176 1.032v.096l1.536-.264h5.232v1.776h-9.552v-.696q.528-.552 1.272-1.368a40 40 0 0 0 3.132-3.923q.78-1.116 1.416-2.269.636-1.151 1.02-2.28t.384-2.136q0-1.175-.672-1.956t-2.04-.78q-.912 0-1.776.373a7 7 0 0 0-1.488.851l-.792-1.368a6.2 6.2 0 0 1 1.992-1.127 7.4 7.4 0 0 1 2.472-.409q1.032 0 1.824.3t1.344.852q.552.553.84 1.308a4.6 4.6 0 0 1 .288 1.644"/></g><g transform="translate(2.844 3.037)"><path fill="#EBEBEB" stroke="#BFBFBF" stroke-width="2" d="M1142-1c3.038 0 5.788 1.231 7.778 3.222A10.97 10.97 0 0 1 1153 10v25H-1V10C-1 6.962.231 4.212 2.222 2.222A10.97 10.97 0 0 1 10-1z"/><circle cx="15.788" cy="17" r="5.5" fill="#D8D8D8" stroke="#979797"/><circle cx="34.511" cy="17" r="5.5" fill="#D8D8D8" stroke="#979797"/><circle cx="53.234" cy="17" r="5.5" fill="#D8D8D8" stroke="#979797"/></g><g fill="#D97705" fill-rule="nonzero"><path d="M763.304 84v17.32a7.002 7.002 0 0 1-1 13.93 7 7 0 0 1-1-13.929V84zm-1 19.25a5 5 0 1 0 0 10 5 5 0 0 0 0-10M622.836 77.208q-.72.528-1.704.804a7.6 7.6 0 0 1-2.064.276q-1.392 0-2.352-.444a4 4 0 0 1-1.572-1.272q-.612-.828-.888-1.992a11.2 11.2 0 0 1-.276-2.58q0-3.048 1.344-4.668t3.864-1.62q1.152 0 1.956.18t1.452.516l-.552 1.656a5.2 5.2 0 0 0-1.224-.492 5.6 5.6 0 0 0-1.44-.18q-3.408 0-3.408 4.608 0 .912.18 1.74t.6 1.464 1.104 1.02 1.692.384q.864 0 1.548-.264t1.116-.6zM633.18 78v-6.84q0-.936-.108-1.644t-.396-1.176a1.85 1.85 0 0 0-.78-.708q-.492-.24-1.284-.24-1.128 0-2.04.732a3.3 3.3 0 0 0-1.176 1.884V78h-1.92V61.2h1.92v6.144h.096a4.7 4.7 0 0 1 1.5-1.188q.876-.444 2.172-.444 1.008 0 1.752.228t1.236.804.72 1.548.228 2.46V78zM638.412 66.888q.912-.552 2.124-.816a12 12 0 0 1 2.532-.264q1.248 0 2.004.336t1.152.876a3 3 0 0 1 .528 1.188q.132.648.132 1.296 0 1.44-.072 2.808a49 49 0 0 0-.072 2.592q0 .888.072 1.68t.264 1.464h-1.416l-.504-1.68h-.12a4 4 0 0 1-.54.66 3.5 3.5 0 0 1-.78.576 5 5 0 0 1-1.056.42q-.6.168-1.368.168t-1.428-.24-1.14-.684a3.2 3.2 0 0 1-.756-1.068 3.5 3.5 0 0 1-.276-1.416q0-1.056.432-1.764a3.1 3.1 0 0 1 1.212-1.128q.78-.42 1.872-.6t2.412-.18h.66q.324 0 .66.048.072-.72.072-1.296 0-1.32-.528-1.848t-1.92-.528q-.408 0-.876.06t-.96.168a8 8 0 0 0-.936.264q-.444.156-.78.348zm3.408 9.624q.672 0 1.2-.18t.912-.456a2.9 2.9 0 0 0 1.008-1.26v-1.992a19 19 0 0 0-1.368-.048q-.744 0-1.452.084t-1.248.312-.864.624-.324.996q0 .84.6 1.38t1.536.54M656.172 67.848q-.72-.24-1.368-.24-1.032 0-1.632.564t-.744 1.428V78h-1.92V66h1.344l.36 1.464h.096q.456-.816 1.092-1.26t1.62-.444q.696 0 1.56.24zM658.476 66.888q.912-.552 2.124-.816a12 12 0 0 1 2.532-.264q1.248 0 2.004.336t1.152.876a3 3 0 0 1 .528 1.188q.132.648.132 1.296 0 1.44-.072 2.808a49 49 0 0 0-.072 2.592q0 .888.072 1.68t.264 1.464h-1.416l-.504-1.68h-.12a4 4 0 0 1-.54.66 3.5 3.5 0 0 1-.78.576 5 5 0 0 1-1.056.42q-.6.168-1.368.168t-1.428-.24-1.14-.684a3.2 3.2 0 0 1-.756-1.068 3.5 3.5 0 0 1-.276-1.416q0-1.056.432-1.764a3.1 3.1 0 0 1 1.212-1.128q.78-.42 1.872-.6t2.412-.18h.66q.324 0 .66.048.072-.72.072-1.296 0-1.32-.528-1.848t-1.92-.528q-.408 0-.876.06t-.96.168a8 8 0 0 0-.936.264q-.444.156-.78.348zm3.408 9.624q.672 0 1.2-.18t.912-.456a2.9 2.9 0 0 0 1.008-1.26v-1.992a19 19 0 0 0-1.368-.048q-.744 0-1.452.084t-1.248.312-.864.624-.324.996q0 .84.6 1.38t1.536.54M678.756 77.208q-.72.528-1.704.804a7.6 7.6 0 0 1-2.064.276q-1.392 0-2.352-.444a4 4 0 0 1-1.572-1.272q-.612-.828-.888-1.992A11.2 11.2 0 0 1 669.9 72q0-3.048 1.344-4.668t3.864-1.62q1.152 0 1.956.18t1.452.516l-.552 1.656a5.2 5.2 0 0 0-1.224-.492 5.6 5.6 0 0 0-1.44-.18q-3.408 0-3.408 4.608 0 .912.18 1.74t.6 1.464 1.104 1.02 1.692.384q.864 0 1.548-.264t1.116-.6zM679.812 66h1.872v-2.376l1.92-.552V66h3.264v1.68h-3.264v6.648q0 1.248.312 1.764t1.056.516q.624 0 1.056-.132t.96-.348l.432 1.464a7.4 7.4 0 0 1-1.416.504 6.8 6.8 0 0 1-1.656.192q-1.464 0-2.064-.828t-.6-2.772V67.68h-1.872zM698.028 77.04q-.72.576-1.812.912t-2.316.336q-1.368 0-2.376-.444a4.2 4.2 0 0 1-1.656-1.272q-.648-.828-.96-1.98T688.596 72q0-3.072 1.368-4.68t3.912-1.608q.816 0 1.632.18t1.464.684 1.056 1.428.408 2.436q0 .792-.144 1.752h-7.704q0 1.056.216 1.872t.672 1.38 1.188.864 1.788.3q.816 0 1.632-.288t1.224-.672zm-4.128-9.648q-1.416 0-2.268.744t-1.02 2.544h5.952q0-1.824-.696-2.556t-1.968-.732M707.124 67.848q-.72-.24-1.368-.24-1.032 0-1.632.564t-.744 1.428V78h-1.92V66h1.344l.36 1.464h.096q.456-.816 1.092-1.26t1.62-.444q.696 0 1.56.24zM721.692 67.848q-.72-.24-1.368-.24-1.032 0-1.632.564t-.744 1.428V78h-1.92V66h1.344l.36 1.464h.096q.456-.816 1.092-1.26t1.62-.444q.696 0 1.56.24zM723.996 66.888q.912-.552 2.124-.816a12 12 0 0 1 2.532-.264q1.248 0 2.004.336t1.152.876a3 3 0 0 1 .528 1.188q.132.648.132 1.296 0 1.44-.072 2.808a49 49 0 0 0-.072 2.592q0 .888.072 1.68t.264 1.464h-1.416l-.504-1.68h-.12a4 4 0 0 1-.54.66 3.5 3.5 0 0 1-.78.576 5 5 0 0 1-1.056.42q-.6.168-1.368.168t-1.428-.24-1.14-.684a3.2 3.2 0 0 1-.756-1.068 3.5 3.5 0 0 1-.276-1.416q0-1.056.432-1.764a3.1 3.1 0 0 1 1.212-1.128q.78-.42 1.872-.6t2.412-.18h.66q.324 0 .66.048.072-.72.072-1.296 0-1.32-.528-1.848t-1.92-.528q-.408 0-.876.06t-.96.168a8 8 0 0 0-.936.264q-.444.156-.78.348zm3.408 9.624q.672 0 1.2-.18t.912-.456a2.9 2.9 0 0 0 1.008-1.26v-1.992a19 19 0 0 0-1.368-.048q-.744 0-1.452.084t-1.248.312-.864.624-.324.996q0 .84.6 1.38t1.536.54M743.796 78v-6.84q0-1.872-.54-2.82t-1.98-.948q-1.272 0-2.1.684a3.64 3.64 0 0 0-1.164 1.716V78h-1.92V66h1.344l.36 1.464h.096q.576-.768 1.548-1.26t2.316-.492q.984 0 1.728.228t1.236.804.744 1.548.252 2.46V78zM758.412 78.552q0 2.328-1.236 3.432t-3.66 1.104q-1.44 0-2.316-.18a7 7 0 0 1-1.5-.468l.504-1.632q.552.216 1.224.408t1.752.192q1.008 0 1.644-.18t1.02-.6.528-1.08.144-1.572v-1.152h-.096a3.2 3.2 0 0 1-1.224 1.068q-.744.372-1.944.372-2.424 0-3.564-1.512t-1.14-4.704q0-3.072 1.464-4.668t4.32-1.596q1.368 0 2.34.216t1.74.504zm-4.824-1.968q1.224 0 1.92-.612t.984-1.908V67.92q-.96-.456-2.448-.456-1.632 0-2.568 1.104t-.936 3.456q0 1.008.168 1.848t.528 1.44.936.936 1.416.336M770.868 77.04q-.72.576-1.812.912t-2.316.336q-1.368 0-2.376-.444a4.2 4.2 0 0 1-1.656-1.272q-.648-.828-.96-1.98T761.436 72q0-3.072 1.368-4.68t3.912-1.608q.816 0 1.632.18t1.464.684 1.056 1.428.408 2.436q0 .792-.144 1.752h-7.704q0 1.056.216 1.872t.672 1.38 1.188.864 1.788.3q.816 0 1.632-.288t1.224-.672zm-4.128-9.648q-1.416 0-2.268.744t-1.02 2.544h5.952q0-1.824-.696-2.556t-1.968-.732"/></g><g fill="#D97705" fill-rule="nonzero"><path d="M878.304 84v17.32a7.002 7.002 0 0 1-1 13.93 7 7 0 0 1-1-13.929V84zm-1 19.25a5 5 0 1 0 0 10 5 5 0 0 0 0-10M850.804 84v17.32a7.002 7.002 0 0 1-1 13.93 7 7 0 0 1-1-13.929V84zm-1 19.25a5 5 0 1 0 0 10 5 5 0 0 0 0-10M821.804 84v17.32a7.002 7.002 0 0 1-1 13.93 7 7 0 0 1-1-13.929V84zm-1 19.25a5 5 0 1 0 0 10 5 5 0 0 0 0-10M819.932 74.736q0-.72-.432-1.128a3.7 3.7 0 0 0-1.068-.684q-.636-.276-1.392-.528a6.5 6.5 0 0 1-1.392-.648 3.6 3.6 0 0 1-1.068-1.02q-.432-.624-.432-1.68 0-1.728.984-2.532t2.736-.804q1.296 0 2.172.228a8.4 8.4 0 0 1 1.524.54l-.456 1.584a7.5 7.5 0 0 0-1.332-.468 6.6 6.6 0 0 0-1.668-.204q-1.056 0-1.548.36T816.068 69q0 .624.432.972t1.068.624a20 20 0 0 0 1.392.54q.756.264 1.392.696t1.068 1.092.432 1.74q0 .768-.252 1.44a2.9 2.9 0 0 1-.78 1.152q-.528.48-1.308.756t-1.836.276q-1.368 0-2.328-.264t-1.608-.624l.576-1.632q.552.312 1.44.576a6.3 6.3 0 0 0 1.8.264q1.032 0 1.704-.408t.672-1.464M823.172 66h1.872v-2.376l1.92-.552V66h3.264v1.68h-3.264v6.648q0 1.248.312 1.764t1.056.516q.624 0 1.056-.132t.96-.348l.432 1.464a7.4 7.4 0 0 1-1.416.504 6.8 6.8 0 0 1-1.656.192q-1.464 0-2.064-.828t-.6-2.772V67.68h-1.872zM832.7 66.888q.912-.552 2.124-.816a12 12 0 0 1 2.532-.264q1.248 0 2.004.336t1.152.876a3 3 0 0 1 .528 1.188q.132.648.132 1.296 0 1.44-.072 2.808a49 49 0 0 0-.072 2.592q0 .888.072 1.68t.264 1.464h-1.416l-.504-1.68h-.12a4 4 0 0 1-.54.66 3.5 3.5 0 0 1-.78.576 5 5 0 0 1-1.056.42q-.6.168-1.368.168t-1.428-.24-1.14-.684a3.2 3.2 0 0 1-.756-1.068 3.5 3.5 0 0 1-.276-1.416q0-1.056.432-1.764a3.1 3.1 0 0 1 1.212-1.128q.78-.42 1.872-.6t2.412-.18h.66q.324 0 .66.048.072-.72.072-1.296 0-1.32-.528-1.848t-1.92-.528q-.408 0-.876.06t-.96.168a8 8 0 0 0-.936.264q-.444.156-.78.348zm3.408 9.624q.672 0 1.2-.18t.912-.456a2.9 2.9 0 0 0 1.008-1.26v-1.992a19 19 0 0 0-1.368-.048q-.744 0-1.452.084t-1.248.312-.864.624-.324.996q0 .84.6 1.38t1.536.54M850.46 67.848q-.72-.24-1.368-.24-1.032 0-1.632.564t-.744 1.428V78h-1.92V66h1.344l.36 1.464h.096q.456-.816 1.092-1.26t1.62-.444q.696 0 1.56.24zM867.14 66l2.76 7.008.6 2.304h.048l.456-2.352L873.14 66h1.824l-4.032 12.264h-.936l-3.144-7.92-.456-1.968h-.072l-.48 1.992-3.024 7.896h-.936L857.708 66h2.088l2.376 6.984.408 2.328h.024l.576-2.376L865.748 66zM877.412 66h1.92v12h-1.92zm-.408-3.648q0-.552.372-.948t.948-.396.984.396.408.948-.408.912-.984.36-.948-.36a1.22 1.22 0 0 1-.372-.912M885.572 75.048q0 .84.288 1.2t.816.36q.312 0 .672-.048t.816-.216l.216 1.512q-.384.192-1.068.312t-1.188.12q-1.08 0-1.776-.612t-.696-2.076V61.2h1.92zM899.66 73.872q0 1.224.024 2.22t.216 1.956h-1.296l-.48-1.704h-.096q-.48.84-1.392 1.392t-2.136.552q-2.4 0-3.564-1.512t-1.164-4.728q0-3.072 1.452-4.668t3.996-1.596q.888 0 1.404.096t1.116.312V61.2h1.92zm-4.848 2.736q1.224 0 1.944-.636t.984-1.932v-5.952a2.7 2.7 0 0 0-.984-.48q-.552-.144-1.464-.144-1.656 0-2.592 1.092t-.936 3.492a10 10 0 0 0 .156 1.824q.156.84.516 1.44t.948.948 1.428.348M911.54 77.208q-.72.528-1.704.804a7.6 7.6 0 0 1-2.064.276q-1.392 0-2.352-.444a4 4 0 0 1-1.572-1.272q-.612-.828-.888-1.992a11.2 11.2 0 0 1-.276-2.58q0-3.048 1.344-4.668t3.864-1.62q1.152 0 1.956.18t1.452.516l-.552 1.656a5.2 5.2 0 0 0-1.224-.492 5.6 5.6 0 0 0-1.44-.18q-3.408 0-3.408 4.608 0 .912.18 1.74t.6 1.464 1.104 1.02 1.692.384q.864 0 1.548-.264t1.116-.6zM913.988 66.888q.912-.552 2.124-.816a12 12 0 0 1 2.532-.264q1.248 0 2.004.336t1.152.876a3 3 0 0 1 .528 1.188q.132.648.132 1.296 0 1.44-.072 2.808a49 49 0 0 0-.072 2.592q0 .888.072 1.68t.264 1.464h-1.416l-.504-1.68h-.12a4 4 0 0 1-.54.66 3.5 3.5 0 0 1-.78.576 5 5 0 0 1-1.056.42q-.6.168-1.368.168t-1.428-.24-1.14-.684a3.2 3.2 0 0 1-.756-1.068 3.5 3.5 0 0 1-.276-1.416q0-1.056.432-1.764a3.1 3.1 0 0 1 1.212-1.128q.78-.42 1.872-.6t2.412-.18h.66q.324 0 .66.048.072-.72.072-1.296 0-1.32-.528-1.848t-1.92-.528q-.408 0-.876.06t-.96.168a8 8 0 0 0-.936.264q-.444.156-.78.348zm3.408 9.624q.672 0 1.2-.18t.912-.456a2.9 2.9 0 0 0 1.008-1.26v-1.992a19 19 0 0 0-1.368-.048q-.744 0-1.452.084t-1.248.312-.864.624-.324.996q0 .84.6 1.38t1.536.54M931.748 67.848q-.72-.24-1.368-.24-1.032 0-1.632.564t-.744 1.428V78h-1.92V66h1.344l.36 1.464h.096q.456-.816 1.092-1.26t1.62-.444q.696 0 1.56.24zM943.46 73.872q0 1.224.024 2.22t.216 1.956h-1.296l-.48-1.704h-.096q-.48.84-1.392 1.392t-2.136.552q-2.4 0-3.564-1.512t-1.164-4.728q0-3.072 1.452-4.668t3.996-1.596q.888 0 1.404.096t1.116.312V61.2h1.92zm-4.848 2.736q1.224 0 1.944-.636t.984-1.932v-5.952a2.7 2.7 0 0 0-.984-.48q-.552-.144-1.464-.144-1.656 0-2.592 1.092t-.936 3.492a10 10 0 0 0 .156 1.824q.156.84.516 1.44t.948.948 1.428.348M952.436 74.736q0-.72-.432-1.128a3.7 3.7 0 0 0-1.068-.684q-.636-.276-1.392-.528a6.5 6.5 0 0 1-1.392-.648 3.6 3.6 0 0 1-1.068-1.02q-.432-.624-.432-1.68 0-1.728.984-2.532t2.736-.804q1.296 0 2.172.228a8.4 8.4 0 0 1 1.524.54l-.456 1.584a7.5 7.5 0 0 0-1.332-.468 6.6 6.6 0 0 0-1.668-.204q-1.056 0-1.548.36T948.572 69q0 .624.432.972t1.068.624a20 20 0 0 0 1.392.54q.756.264 1.392.696t1.068 1.092.432 1.74q0 .768-.252 1.44a2.9 2.9 0 0 1-.78 1.152q-.528.48-1.308.756t-1.836.276q-1.368 0-2.328-.264t-1.608-.624l.576-1.632q.552.312 1.44.576a6.3 6.3 0 0 0 1.8.264q1.032 0 1.704-.408t.672-1.464"/></g><path fill="#D97705" fill-rule="nonzero" d="M898 166.99a7 7 0 0 1 1 13.928v17.321h-2l-.001-17.32a7.002 7.002 0 0 1 1-13.93m0 2a5 5 0 1 0 0 10 5 5 0 0 0 0-10M850.5 166.74a7 7 0 0 1 1 13.928v99.571h-2l-.001-99.57a7.002 7.002 0 0 1 1-13.93m0 2a5 5 0 1 0 0 10 5 5 0 0 0 0-10M821 166.74a7 7 0 0 1 1 13.928v99.571h-2l-.001-99.57a7.002 7.002 0 0 1 1-13.93m0 2a5 5 0 1 0 0 10 5 5 0 0 0 0-10"/><g fill="#D97705" fill-rule="nonzero"><path d="M897.88 219.24v-6.793q0-.96-.084-1.668t-.324-1.188-.684-.72-1.164-.24q-1.104 0-1.836.672a3.56 3.56 0 0 0-1.02 1.68v8.256h-1.92v-12h1.344l.36 1.464h.096a5.6 5.6 0 0 1 1.5-1.26q.852-.492 2.22-.492 1.152 0 1.884.444t1.14 1.548a3.9 3.9 0 0 1 1.524-1.464q.972-.528 2.196-.528 1.008 0 1.704.228t1.152.804.66 1.56.204 2.496v7.2h-1.92v-7.224q0-.864-.084-1.5t-.336-1.056-.696-.624-1.164-.204q-1.2 0-1.872.672t-.96 1.92v8.016zM910.144 208.127q.912-.552 2.124-.816a12 12 0 0 1 2.532-.264q1.248 0 2.004.336t1.152.876a3 3 0 0 1 .528 1.188q.132.648.132 1.296 0 1.44-.072 2.808a49 49 0 0 0-.072 2.592q0 .888.072 1.68t.264 1.464h-1.416l-.504-1.68h-.12a4 4 0 0 1-.54.66 3.5 3.5 0 0 1-.78.576 5 5 0 0 1-1.056.42q-.6.168-1.368.168t-1.428-.24-1.14-.684a3.2 3.2 0 0 1-.756-1.068 3.5 3.5 0 0 1-.276-1.416q0-1.056.432-1.764a3.1 3.1 0 0 1 1.212-1.128q.78-.42 1.872-.6t2.412-.18h.66q.324 0 .66.048.072-.72.072-1.296 0-1.32-.528-1.848t-1.92-.528q-.408 0-.876.06t-.96.168a8 8 0 0 0-.936.264q-.444.156-.78.348zm3.408 9.624q.672 0 1.2-.18t.912-.456a2.9 2.9 0 0 0 1.008-1.26v-1.992a19 19 0 0 0-1.368-.048q-.744 0-1.452.084t-1.248.312-.864.624-.324.996q0 .84.6 1.38t1.536.54M920.656 207.24h1.872v-2.377l1.92-.552v2.928h3.264v1.68h-3.264v6.648q0 1.248.312 1.764t1.056.516q.624 0 1.056-.132t.96-.348l.432 1.464a7.4 7.4 0 0 1-1.416.504 6.8 6.8 0 0 1-1.656.192q-1.464 0-2.064-.828t-.6-2.772v-7.008h-1.872zM938.296 218.447q-.72.528-1.704.804a7.6 7.6 0 0 1-2.064.276q-1.392 0-2.352-.444a4 4 0 0 1-1.572-1.272q-.612-.828-.888-1.992a11.2 11.2 0 0 1-.276-2.58q0-3.048 1.344-4.668t3.864-1.62q1.152 0 1.956.18t1.452.516l-.552 1.656a5.2 5.2 0 0 0-1.224-.492 5.6 5.6 0 0 0-1.44-.18q-3.408 0-3.408 4.608 0 .912.18 1.74t.6 1.464 1.104 1.02 1.692.384q.864 0 1.548-.264t1.116-.6zM948.64 219.24v-6.84q0-.937-.108-1.645t-.396-1.176a1.85 1.85 0 0 0-.78-.708q-.492-.24-1.284-.24-1.128 0-2.04.732a3.3 3.3 0 0 0-1.176 1.884v7.992h-1.92v-16.8h1.92v6.144h.096a4.7 4.7 0 0 1 1.5-1.188q.876-.444 2.172-.444 1.008 0 1.752.228t1.236.804.72 1.548.228 2.46v7.248zM962.824 218.28q-.72.575-1.812.911t-2.316.336q-1.368 0-2.376-.444a4.2 4.2 0 0 1-1.656-1.272q-.648-.828-.96-1.98t-.312-2.592q0-3.072 1.368-4.68t3.912-1.608q.816 0 1.632.18t1.464.684 1.056 1.428.408 2.436q0 .792-.144 1.752h-7.704q0 1.056.216 1.872t.672 1.38 1.188.864 1.788.3q.816 0 1.632-.288t1.224-.672zm-4.128-9.649q-1.416 0-2.268.744t-1.02 2.544h5.952q0-1.824-.696-2.556t-1.968-.732M971.536 215.975q0-.72-.432-1.128a3.7 3.7 0 0 0-1.068-.684q-.636-.276-1.392-.528a6.5 6.5 0 0 1-1.392-.648 3.6 3.6 0 0 1-1.068-1.02q-.432-.624-.432-1.68 0-1.728.984-2.532t2.736-.804q1.296 0 2.172.228a8.4 8.4 0 0 1 1.524.54l-.456 1.584a7.5 7.5 0 0 0-1.332-.468 6.6 6.6 0 0 0-1.668-.204q-1.056 0-1.548.36t-.492 1.248q0 .624.432.972t1.068.624a20 20 0 0 0 1.392.54q.756.264 1.392.696t1.068 1.092.432 1.74q0 .768-.252 1.44a2.9 2.9 0 0 1-.78 1.152q-.528.48-1.308.756t-1.836.276q-1.368 0-2.328-.264t-1.608-.624l.576-1.632q.552.312 1.44.576a6.3 6.3 0 0 0 1.8.264q1.032 0 1.704-.408t.672-1.464M992.008 207.24v12h-1.92v-10.32h-4.848v10.32h-1.92v-10.32h-1.872v-1.68h1.872v-.673q0-2.256 1.116-3.276t3.276-1.02q1.416 0 2.52.276t1.728.66l-.648 1.536a4.7 4.7 0 0 0-1.536-.6 9 9 0 0 0-1.896-.192q-.888 0-1.404.204a1.64 1.64 0 0 0-.792.624q-.276.42-.36 1.044t-.084 1.416zM997.864 216.287q0 .84.288 1.2t.816.36q.312 0 .672-.048t.816-.216l.216 1.512q-.384.192-1.068.312t-1.188.12q-1.08 0-1.776-.612t-.696-2.076v-14.4h1.92zM1011.496 218.28q-.72.575-1.812.911t-2.316.336q-1.368 0-2.376-.444a4.2 4.2 0 0 1-1.656-1.272q-.648-.828-.96-1.98t-.312-2.592q0-3.072 1.368-4.68t3.912-1.608q.816 0 1.632.18t1.464.684 1.056 1.428.408 2.436q0 .792-.144 1.752h-7.704q0 1.056.216 1.872t.672 1.38 1.188.864 1.788.3q.816 0 1.632-.288t1.224-.672zm-4.128-9.649q-1.416 0-2.268.744t-1.02 2.544h5.952q0-1.824-.696-2.556t-1.968-.732M1029.04 219.24v-6.84q0-1.873-.54-2.82-.54-.95-1.98-.949-1.272 0-2.1.684a3.64 3.64 0 0 0-1.164 1.716v8.208h-1.92v-12h1.344l.36 1.464h.096q.576-.768 1.548-1.26t2.316-.492q.984 0 1.728.228t1.236.804.744 1.548.252 2.46v7.248zM1034.272 208.127q.912-.552 2.124-.816a12 12 0 0 1 2.532-.264q1.248 0 2.004.336t1.152.876a3 3 0 0 1 .528 1.188q.132.648.132 1.296 0 1.44-.072 2.808a49 49 0 0 0-.072 2.592q0 .888.072 1.68t.264 1.464h-1.416l-.504-1.68h-.12a4 4 0 0 1-.54.66 3.5 3.5 0 0 1-.78.576 5 5 0 0 1-1.056.42q-.6.168-1.368.168t-1.428-.24-1.14-.684a3.2 3.2 0 0 1-.756-1.068 3.5 3.5 0 0 1-.276-1.416q0-1.056.432-1.764a3.1 3.1 0 0 1 1.212-1.128q.78-.42 1.872-.6t2.412-.18h.66q.324 0 .66.048.072-.72.072-1.296 0-1.32-.528-1.848t-1.92-.528q-.408 0-.876.06t-.96.168a8 8 0 0 0-.936.264q-.444.156-.78.348zm3.408 9.624q.672 0 1.2-.18t.912-.456a2.9 2.9 0 0 0 1.008-1.26v-1.992a19 19 0 0 0-1.368-.048q-.744 0-1.452.084t-1.248.312-.864.624-.324.996q0 .84.6 1.38t1.536.54M1053.4 219.24v-6.793q0-.96-.084-1.668t-.324-1.188-.684-.72-1.164-.24q-1.104 0-1.836.672a3.56 3.56 0 0 0-1.02 1.68v8.256h-1.92v-12h1.344l.36 1.464h.096a5.6 5.6 0 0 1 1.5-1.26q.852-.492 2.22-.492 1.152 0 1.884.444t1.14 1.548a3.9 3.9 0 0 1 1.524-1.464q.972-.528 2.196-.528 1.008 0 1.704.228t1.152.804.66 1.56.204 2.496v7.2h-1.92v-7.224q0-.864-.084-1.5t-.336-1.056-.696-.624-1.164-.204q-1.2 0-1.872.672t-.96 1.92v8.016zM1074.616 218.28q-.72.575-1.812.911t-2.316.336q-1.368 0-2.376-.444a4.2 4.2 0 0 1-1.656-1.272q-.648-.828-.96-1.98t-.312-2.592q0-3.072 1.368-4.68t3.912-1.608q.816 0 1.632.18t1.464.684 1.056 1.428.408 2.436q0 .792-.144 1.752h-7.704q0 1.056.216 1.872t.672 1.38 1.188.864 1.788.3q.816 0 1.632-.288t1.224-.672zm-4.128-9.649q-1.416 0-2.268.744t-1.02 2.544h5.952q0-1.824-.696-2.556t-1.968-.732M1083.328 215.975q0-.72-.432-1.128a3.7 3.7 0 0 0-1.068-.684q-.636-.276-1.392-.528a6.5 6.5 0 0 1-1.392-.648 3.6 3.6 0 0 1-1.068-1.02q-.432-.624-.432-1.68 0-1.728.984-2.532t2.736-.804q1.296 0 2.172.228a8.4 8.4 0 0 1 1.524.54l-.456 1.584a7.5 7.5 0 0 0-1.332-.468 6.6 6.6 0 0 0-1.668-.204q-1.056 0-1.548.36t-.492 1.248q0 .624.432.972t1.068.624a20 20 0 0 0 1.392.54q.756.264 1.392.696t1.068 1.092.432 1.74q0 .768-.252 1.44a2.9 2.9 0 0 1-.78 1.152q-.528.48-1.308.756t-1.836.276q-1.368 0-2.328-.264t-1.608-.624l.576-1.632q.552.312 1.44.576a6.3 6.3 0 0 0 1.8.264q1.032 0 1.704-.408t.672-1.464M899.608 247.28q-.72.575-1.812.911t-2.316.336q-1.368 0-2.376-.444a4.2 4.2 0 0 1-1.656-1.272q-.648-.828-.96-1.98t-.312-2.592q0-3.072 1.368-4.68t3.912-1.608q.816 0 1.632.18t1.464.684 1.056 1.428.408 2.436q0 .792-.144 1.752h-7.704q0 1.056.216 1.872t.672 1.38 1.188.864 1.788.3q.816 0 1.632-.288t1.224-.672zm-4.128-9.649q-1.416 0-2.268.744t-1.02 2.544h5.952q0-1.824-.696-2.556t-1.968-.732M910.744 248.24v-6.84q0-1.873-.54-2.82-.54-.95-1.98-.949-1.272 0-2.1.684a3.64 3.64 0 0 0-1.164 1.716v8.208h-1.92v-12h1.344l.36 1.464h.096q.576-.768 1.548-1.26t2.316-.492q.984 0 1.728.228t1.236.804.744 1.548.252 2.46v7.248zM925.384 244.111q0 1.224.024 2.22t.216 1.956h-1.296l-.48-1.704h-.096q-.48.84-1.392 1.392t-2.136.552q-2.4 0-3.564-1.512t-1.164-4.728q0-3.072 1.452-4.668t3.996-1.596q.888 0 1.404.096t1.116.312v-4.992h1.92zm-4.848 2.736q1.224 0 1.944-.636t.984-1.932v-5.952a2.7 2.7 0 0 0-.984-.48q-.552-.144-1.464-.144-1.656 0-2.592 1.092t-.936 3.492a10 10 0 0 0 .156 1.824q.156.84.516 1.44t.948.948 1.428.348M929.488 236.24h1.92v12h-1.92zm-.408-3.649q0-.552.372-.948t.948-.396.984.396.408.948-.408.912-.984.36-.948-.36a1.22 1.22 0 0 1-.372-.912M943.216 248.24v-6.84q0-1.873-.54-2.82-.54-.95-1.98-.949-1.272 0-2.1.684a3.64 3.64 0 0 0-1.164 1.716v8.208h-1.92v-12h1.344l.36 1.464h.096q.576-.768 1.548-1.26t2.316-.492q.984 0 1.728.228t1.236.804.744 1.548.252 2.46v7.248zM957.832 248.791q0 2.328-1.236 3.432t-3.66 1.104q-1.44 0-2.316-.18a7 7 0 0 1-1.5-.468l.504-1.632q.552.216 1.224.408t1.752.192q1.008 0 1.644-.18t1.02-.6.528-1.08.144-1.572v-1.152h-.096a3.2 3.2 0 0 1-1.224 1.068q-.744.372-1.944.372-2.424 0-3.564-1.512t-1.14-4.704q0-3.072 1.464-4.668t4.32-1.596q1.368 0 2.34.216t1.74.504zm-4.824-1.968q1.224 0 1.92-.612t.984-1.908v-6.144q-.96-.456-2.448-.456-1.632 0-2.568 1.104t-.936 3.456q0 1.008.168 1.848t.528 1.44.936.936 1.416.336M968.344 236.24h1.92v12h-1.92zm-.408-3.649q0-.552.372-.948t.948-.396.984.396.408.948-.408.912-.984.36-.948-.36a1.22 1.22 0 0 1-.372-.912M982.072 248.24v-6.84q0-1.873-.54-2.82-.54-.95-1.98-.949-1.272 0-2.1.684a3.64 3.64 0 0 0-1.164 1.716v8.208h-1.92v-12h1.344l.36 1.464h.096q.576-.768 1.548-1.26t2.316-.492q.984 0 1.728.228t1.236.804.744 1.548.252 2.46v7.248zM994.288 236.24h1.92v12.647q0 2.232-.768 3.336t-2.448 1.104a5 5 0 0 1-.72-.048v-1.632q.672 0 1.068-.204t.612-.636.276-1.092.06-1.548zm-.408-3.649q0-.552.372-.948t.948-.396.984.396.408.948-.408.912-.984.36-.948-.36a1.22 1.22 0 0 1-.372-.912M1000.312 236.24h1.32l.36 1.44h.096q.552-.84 1.428-1.285t2.004-.444q2.4 0 3.576 1.416t1.176 4.632q0 1.512-.396 2.724t-1.116 2.052-1.74 1.296-2.268.456q-.888 0-1.404-.108a5.7 5.7 0 0 1-1.116-.372v4.992h-1.92zm4.848 1.391q-1.224 0-1.932.636t-.996 1.932v5.952q.432.336.984.516t1.464.18q1.656 0 2.628-1.236t.972-3.636q0-.984-.168-1.788t-.54-1.368a2.6 2.6 0 0 0-.96-.876q-.588-.312-1.452-.312M1022.488 248.791q0 2.328-1.236 3.432t-3.66 1.104q-1.44 0-2.316-.18a7 7 0 0 1-1.5-.468l.504-1.632q.552.216 1.224.408t1.752.192q1.008 0 1.644-.18t1.02-.6.528-1.08.144-1.572v-1.152h-.096a3.2 3.2 0 0 1-1.224 1.068q-.744.372-1.944.372-2.424 0-3.564-1.512t-1.14-4.704q0-3.072 1.464-4.668t4.32-1.596q1.368 0 2.34.216t1.74.504zm-4.824-1.968q1.224 0 1.92-.612t.984-1.908v-6.144q-.96-.456-2.448-.456-1.632 0-2.568 1.104t-.936 3.456q0 1.008.168 1.848t.528 1.44.936.936 1.416.336"/></g><path fill="#D97705" fill-rule="nonzero" d="M731 166.99a7 7 0 0 1 1 13.928v17.321h-2v-17.32a7.002 7.002 0 0 1 1-13.93m0 2a5 5 0 1 0 0 10 5 5 0 0 0 0-10"/><g fill="#D97705" fill-rule="nonzero"><path d="M508.88 218.864v-6.792q0-.96-.084-1.668t-.324-1.188-.684-.72-1.164-.24q-1.104 0-1.836.672a3.56 3.56 0 0 0-1.02 1.68v8.256h-1.92v-12h1.344l.36 1.464h.096a5.6 5.6 0 0 1 1.5-1.26q.852-.492 2.22-.492 1.152 0 1.884.444t1.14 1.548a3.9 3.9 0 0 1 1.524-1.464q.972-.528 2.196-.528 1.008 0 1.704.228t1.152.804.66 1.56.204 2.496v7.2h-1.92v-7.224q0-.864-.084-1.5t-.336-1.056-.696-.624-1.164-.204q-1.2 0-1.872.672t-.96 1.92v8.016zM521.144 207.752q.912-.552 2.124-.816a12 12 0 0 1 2.532-.264q1.248 0 2.004.336t1.152.876a3 3 0 0 1 .528 1.188q.132.648.132 1.296 0 1.44-.072 2.808a49 49 0 0 0-.072 2.592q0 .888.072 1.68t.264 1.464h-1.416l-.504-1.68h-.12a4 4 0 0 1-.54.66 3.5 3.5 0 0 1-.78.576 5 5 0 0 1-1.056.42q-.6.168-1.368.168t-1.428-.24-1.14-.684a3.2 3.2 0 0 1-.756-1.068 3.5 3.5 0 0 1-.276-1.416q0-1.056.432-1.764a3.1 3.1 0 0 1 1.212-1.128q.78-.42 1.872-.6t2.412-.18h.66q.324 0 .66.048.072-.72.072-1.296 0-1.32-.528-1.848t-1.92-.528q-.408 0-.876.06t-.96.168a8 8 0 0 0-.936.264q-.444.156-.78.348zm3.408 9.624q.672 0 1.2-.18t.912-.456a2.9 2.9 0 0 0 1.008-1.26v-1.992a19 19 0 0 0-1.368-.048q-.744 0-1.452.084t-1.248.312-.864.624-.324.996q0 .84.6 1.38t1.536.54M531.656 206.864h1.872v-2.376l1.92-.552v2.928h3.264v1.68h-3.264v6.648q0 1.248.312 1.764t1.056.516q.624 0 1.056-.132t.96-.348l.432 1.464a7.4 7.4 0 0 1-1.416.504 6.8 6.8 0 0 1-1.656.192q-1.464 0-2.064-.828t-.6-2.772v-7.008h-1.872zM549.296 218.072q-.72.528-1.704.804a7.6 7.6 0 0 1-2.064.276q-1.392 0-2.352-.444a4 4 0 0 1-1.572-1.272q-.612-.828-.888-1.992a11.2 11.2 0 0 1-.276-2.58q0-3.048 1.344-4.668t3.864-1.62q1.152 0 1.956.18t1.452.516l-.552 1.656a5.2 5.2 0 0 0-1.224-.492 5.6 5.6 0 0 0-1.44-.18q-3.408 0-3.408 4.608 0 .912.18 1.74t.6 1.464 1.104 1.02 1.692.384q.864 0 1.548-.264t1.116-.6zM559.64 218.864v-6.84q0-.936-.108-1.644t-.396-1.176a1.85 1.85 0 0 0-.78-.708q-.492-.24-1.284-.24-1.128 0-2.04.732a3.3 3.3 0 0 0-1.176 1.884v7.992h-1.92v-16.8h1.92v6.144h.096a4.7 4.7 0 0 1 1.5-1.188q.876-.444 2.172-.444 1.008 0 1.752.228t1.236.804.72 1.548.228 2.46v7.248zM573.824 217.904q-.72.576-1.812.912t-2.316.336q-1.368 0-2.376-.444a4.2 4.2 0 0 1-1.656-1.272q-.648-.828-.96-1.98t-.312-2.592q0-3.072 1.368-4.68t3.912-1.608q.816 0 1.632.18t1.464.684 1.056 1.428.408 2.436q0 .792-.144 1.752h-7.704q0 1.056.216 1.872t.672 1.38 1.188.864 1.788.3q.816 0 1.632-.288t1.224-.672zm-4.128-9.648q-1.416 0-2.268.744t-1.02 2.544h5.952q0-1.824-.696-2.556t-1.968-.732M582.536 215.6q0-.72-.432-1.128a3.7 3.7 0 0 0-1.068-.684q-.636-.276-1.392-.528a6.5 6.5 0 0 1-1.392-.648 3.6 3.6 0 0 1-1.068-1.02q-.432-.624-.432-1.68 0-1.728.984-2.532t2.736-.804q1.296 0 2.172.228a8.4 8.4 0 0 1 1.524.54l-.456 1.584a7.5 7.5 0 0 0-1.332-.468 6.6 6.6 0 0 0-1.668-.204q-1.056 0-1.548.36t-.492 1.248q0 .624.432.972t1.068.624a20 20 0 0 0 1.392.54q.756.264 1.392.696t1.068 1.092.432 1.74q0 .768-.252 1.44a2.9 2.9 0 0 1-.78 1.152q-.528.48-1.308.756t-1.836.276q-1.368 0-2.328-.264t-1.608-.624l.576-1.632q.552.312 1.44.576a6.3 6.3 0 0 0 1.8.264q1.032 0 1.704-.408t.672-1.464M602.984 214.736q0 1.224.024 2.22t.216 1.956h-1.296l-.48-1.704h-.096q-.48.84-1.392 1.392t-2.136.552q-2.4 0-3.564-1.512t-1.164-4.728q0-3.072 1.452-4.668t3.996-1.596q.888 0 1.404.096t1.116.312v-4.992h1.92zm-4.848 2.736q1.224 0 1.944-.636t.984-1.932v-5.952a2.7 2.7 0 0 0-.984-.48q-.552-.144-1.464-.144-1.656 0-2.592 1.092t-.936 3.492a10 10 0 0 0 .156 1.824q.156.84.516 1.44t.948.948 1.428.348M607.088 206.864h1.92v12h-1.92zm-.408-3.648q0-.552.372-.948t.948-.396.984.396.408.948-.408.912-.984.36-.948-.36a1.22 1.22 0 0 1-.372-.912M618.776 208.712q-.72-.24-1.368-.24-1.032 0-1.632.564t-.744 1.428v8.4h-1.92v-12h1.344l.36 1.464h.096q.456-.816 1.092-1.26t1.62-.444q.696 0 1.56.24zM630.032 217.904q-.72.576-1.812.912t-2.316.336q-1.368 0-2.376-.444a4.2 4.2 0 0 1-1.656-1.272q-.648-.828-.96-1.98t-.312-2.592q0-3.072 1.368-4.68t3.912-1.608q.816 0 1.632.18t1.464.684 1.056 1.428.408 2.436q0 .792-.144 1.752h-7.704q0 1.056.216 1.872t.672 1.38 1.188.864 1.788.3q.816 0 1.632-.288t1.224-.672zm-4.128-9.648q-1.416 0-2.268.744t-1.02 2.544h5.952q0-1.824-.696-2.556t-1.968-.732M641.384 218.072q-.72.528-1.704.804a7.6 7.6 0 0 1-2.064.276q-1.392 0-2.352-.444a4 4 0 0 1-1.572-1.272q-.612-.828-.888-1.992a11.2 11.2 0 0 1-.276-2.58q0-3.048 1.344-4.668t3.864-1.62q1.152 0 1.956.18t1.452.516l-.552 1.656a5.2 5.2 0 0 0-1.224-.492 5.6 5.6 0 0 0-1.44-.18q-3.408 0-3.408 4.608 0 .912.18 1.74t.6 1.464 1.104 1.02 1.692.384q.864 0 1.548-.264t1.116-.6zM642.44 206.864h1.872v-2.376l1.92-.552v2.928h3.264v1.68h-3.264v6.648q0 1.248.312 1.764t1.056.516q.624 0 1.056-.132t.96-.348l.432 1.464a7.4 7.4 0 0 1-1.416.504 6.8 6.8 0 0 1-1.656.192q-1.464 0-2.064-.828t-.6-2.772v-7.008h-1.872zM651.224 212.864q0-3.048 1.356-4.668t3.9-1.62q1.344 0 2.34.444t1.644 1.272.96 1.992.312 2.58q0 3.048-1.356 4.668t-3.9 1.62q-1.344 0-2.34-.444a4.25 4.25 0 0 1-1.644-1.272q-.648-.828-.96-1.992t-.312-2.58m1.992 0q0 .912.18 1.752t.564 1.464 1.008 1.008 1.512.384q3.264.024 3.264-4.608a8.5 8.5 0 0 0-.18-1.776 4.6 4.6 0 0 0-.564-1.464 2.9 2.9 0 0 0-1.008-.996q-.624-.372-1.512-.372-3.264-.024-3.264 4.608M670.424 208.712q-.72-.24-1.368-.24-1.032 0-1.632.564t-.744 1.428v8.4h-1.92v-12h1.344l.36 1.464h.096q.456-.816 1.092-1.26t1.62-.444q.696 0 1.56.24zM673.328 206.864h1.92v12h-1.92zm-.408-3.648q0-.552.372-.948t.948-.396.984.396.408.948-.408.912-.984.36-.948-.36a1.22 1.22 0 0 1-.372-.912M688.112 217.904q-.72.576-1.812.912t-2.316.336q-1.368 0-2.376-.444a4.2 4.2 0 0 1-1.656-1.272q-.648-.828-.96-1.98t-.312-2.592q0-3.072 1.368-4.68t3.912-1.608q.816 0 1.632.18t1.464.684 1.056 1.428.408 2.436q0 .792-.144 1.752h-7.704q0 1.056.216 1.872t.672 1.38 1.188.864 1.788.3q.816 0 1.632-.288t1.224-.672zm-4.128-9.648q-1.416 0-2.268.744t-1.02 2.544h5.952q0-1.824-.696-2.556t-1.968-.732M696.824 215.6q0-.72-.432-1.128a3.7 3.7 0 0 0-1.068-.684q-.636-.276-1.392-.528a6.5 6.5 0 0 1-1.392-.648 3.6 3.6 0 0 1-1.068-1.02q-.432-.624-.432-1.68 0-1.728.984-2.532t2.736-.804q1.296 0 2.172.228a8.4 8.4 0 0 1 1.524.54l-.456 1.584a7.5 7.5 0 0 0-1.332-.468 6.6 6.6 0 0 0-1.668-.204q-1.056 0-1.548.36t-.492 1.248q0 .624.432.972t1.068.624a20 20 0 0 0 1.392.54q.756.264 1.392.696t1.068 1.092.432 1.74q0 .768-.252 1.44a2.9 2.9 0 0 1-.78 1.152q-.528.48-1.308.756t-1.836.276q-1.368 0-2.328-.264t-1.608-.624l.576-1.632q.552.312 1.44.576a6.3 6.3 0 0 0 1.8.264q1.032 0 1.704-.408t.672-1.464M716.912 205.88q0 1.272-.468 2.604t-1.224 2.676a27 27 0 0 1-1.692 2.628 59 59 0 0 1-1.872 2.436l-1.176 1.032v.096l1.536-.264h5.232v1.776h-9.552v-.696q.528-.552 1.272-1.368a40 40 0 0 0 3.132-3.924q.78-1.116 1.416-2.268t1.02-2.28.384-2.136q0-1.176-.672-1.956t-2.04-.78q-.912 0-1.776.372a7 7 0 0 0-1.488.852l-.792-1.368a6.2 6.2 0 0 1 1.992-1.128 7.4 7.4 0 0 1 2.472-.408q1.032 0 1.824.3t1.344.852.84 1.308a4.6 4.6 0 0 1 .288 1.644M720.32 210.464q0-4.32 1.404-6.504t4.092-2.184q2.904 0 4.212 2.148t1.308 6.54q0 4.32-1.404 6.504t-4.116 2.184q-2.856 0-4.176-2.28t-1.32-6.408m1.992 0q0 1.56.204 2.844t.636 2.208 1.092 1.44 1.572.516q1.824 0 2.676-1.692t.852-5.316q0-1.536-.18-2.832t-.6-2.232-1.092-1.44-1.656-.504q-1.8 0-2.652 1.704t-.852 5.304M743.072 205.88q0 1.272-.468 2.604t-1.224 2.676a27 27 0 0 1-1.692 2.628 59 59 0 0 1-1.872 2.436l-1.176 1.032v.096l1.536-.264h5.232v1.776h-9.552v-.696q.528-.552 1.272-1.368a40 40 0 0 0 3.132-3.924q.78-1.116 1.416-2.268t1.02-2.28.384-2.136q0-1.176-.672-1.956t-2.04-.78q-.912 0-1.776.372a7 7 0 0 0-1.488.852l-.792-1.368a6.2 6.2 0 0 1 1.992-1.128 7.4 7.4 0 0 1 2.472-.408q1.032 0 1.824.3t1.344.852.84 1.308a4.6 4.6 0 0 1 .288 1.644M746.48 210.464q0-4.32 1.404-6.504t4.092-2.184q2.904 0 4.212 2.148t1.308 6.54q0 4.32-1.404 6.504t-4.116 2.184q-2.856 0-4.176-2.28t-1.32-6.408m1.992 0q0 1.56.204 2.844t.636 2.208 1.092 1.44 1.572.516q1.824 0 2.676-1.692t.852-5.316q0-1.536-.18-2.832t-.6-2.232-1.092-1.44-1.656-.504q-1.8 0-2.652 1.704t-.852 5.304"/></g><g fill="#D97705" fill-rule="nonzero"><path d="M819.88 301.24v-6.793q0-.96-.084-1.668t-.324-1.188-.684-.72-1.164-.24q-1.104 0-1.836.672a3.56 3.56 0 0 0-1.02 1.68v8.256h-1.92v-12h1.344l.36 1.464h.096a5.6 5.6 0 0 1 1.5-1.26q.852-.492 2.22-.492 1.152 0 1.884.444t1.14 1.548a3.9 3.9 0 0 1 1.524-1.464q.972-.528 2.196-.528 1.008 0 1.704.228t1.152.804.66 1.56.204 2.496v7.2h-1.92v-7.224q0-.864-.084-1.5t-.336-1.056-.696-.624-1.164-.204q-1.2 0-1.872.672t-.96 1.92v8.016zM832.144 290.127q.912-.552 2.124-.816a12 12 0 0 1 2.532-.264q1.248 0 2.004.336t1.152.876a3 3 0 0 1 .528 1.188q.132.648.132 1.296 0 1.44-.072 2.808a49 49 0 0 0-.072 2.592q0 .888.072 1.68t.264 1.464h-1.416l-.504-1.68h-.12a4 4 0 0 1-.54.66 3.5 3.5 0 0 1-.78.576 5 5 0 0 1-1.056.42q-.6.168-1.368.168t-1.428-.24-1.14-.684a3.2 3.2 0 0 1-.756-1.068 3.5 3.5 0 0 1-.276-1.416q0-1.056.432-1.764a3.1 3.1 0 0 1 1.212-1.128q.78-.42 1.872-.6t2.412-.18h.66q.324 0 .66.048.072-.72.072-1.296 0-1.32-.528-1.848t-1.92-.528q-.408 0-.876.06t-.96.168a8 8 0 0 0-.936.264q-.444.156-.78.348zm3.408 9.624q.672 0 1.2-.18t.912-.456a2.9 2.9 0 0 0 1.008-1.26v-1.992a19 19 0 0 0-1.368-.048q-.744 0-1.452.084t-1.248.312-.864.624-.324.996q0 .84.6 1.38t1.536.54M842.656 289.24h1.872v-2.377l1.92-.552v2.928h3.264v1.68h-3.264v6.648q0 1.248.312 1.764t1.056.516q.624 0 1.056-.132t.96-.348l.432 1.464a7.4 7.4 0 0 1-1.416.504 6.8 6.8 0 0 1-1.656.192q-1.464 0-2.064-.828t-.6-2.772v-7.008h-1.872zM860.296 300.447q-.72.528-1.704.804a7.6 7.6 0 0 1-2.064.276q-1.392 0-2.352-.444a4 4 0 0 1-1.572-1.272q-.612-.828-.888-1.992a11.2 11.2 0 0 1-.276-2.58q0-3.048 1.344-4.668t3.864-1.62q1.152 0 1.956.18t1.452.516l-.552 1.656a5.2 5.2 0 0 0-1.224-.492 5.6 5.6 0 0 0-1.44-.18q-3.408 0-3.408 4.608 0 .912.18 1.74t.6 1.464 1.104 1.02 1.692.384q.864 0 1.548-.264t1.116-.6zM870.64 301.24v-6.84q0-.937-.108-1.645t-.396-1.176a1.85 1.85 0 0 0-.78-.708q-.492-.24-1.284-.24-1.128 0-2.04.732a3.3 3.3 0 0 0-1.176 1.884v7.992h-1.92v-16.8h1.92v6.144h.096a4.7 4.7 0 0 1 1.5-1.188q.876-.444 2.172-.444 1.008 0 1.752.228t1.236.804.72 1.548.228 2.46v7.248zM884.824 300.28q-.72.575-1.812.911t-2.316.336q-1.368 0-2.376-.444a4.2 4.2 0 0 1-1.656-1.272q-.648-.828-.96-1.98t-.312-2.592q0-3.072 1.368-4.68t3.912-1.608q.816 0 1.632.18t1.464.684 1.056 1.428.408 2.436q0 .792-.144 1.752h-7.704q0 1.056.216 1.872t.672 1.38 1.188.864 1.788.3q.816 0 1.632-.288t1.224-.672zm-4.128-9.649q-1.416 0-2.268.744t-1.02 2.544h5.952q0-1.824-.696-2.556t-1.968-.732M893.536 297.975q0-.72-.432-1.128a3.7 3.7 0 0 0-1.068-.684q-.636-.276-1.392-.528a6.5 6.5 0 0 1-1.392-.648 3.6 3.6 0 0 1-1.068-1.02q-.432-.624-.432-1.68 0-1.728.984-2.532t2.736-.804q1.296 0 2.172.228a8.4 8.4 0 0 1 1.524.54l-.456 1.584a7.5 7.5 0 0 0-1.332-.468 6.6 6.6 0 0 0-1.668-.204q-1.056 0-1.548.36t-.492 1.248q0 .624.432.972t1.068.624a20 20 0 0 0 1.392.54q.756.264 1.392.696t1.068 1.092.432 1.74q0 .768-.252 1.44a2.9 2.9 0 0 1-.78 1.152q-.528.48-1.308.756t-1.836.276q-1.368 0-2.328-.264t-1.608-.624l.576-1.632q.552.312 1.44.576a6.3 6.3 0 0 0 1.8.264q1.032 0 1.704-.408t.672-1.464M904.576 290.127q.912-.552 2.124-.816a12 12 0 0 1 2.532-.264q1.248 0 2.004.336t1.152.876a3 3 0 0 1 .528 1.188q.132.648.132 1.296 0 1.44-.072 2.808a49 49 0 0 0-.072 2.592q0 .888.072 1.68t.264 1.464h-1.416l-.504-1.68h-.12a4 4 0 0 1-.54.66 3.5 3.5 0 0 1-.78.576 5 5 0 0 1-1.056.42q-.6.168-1.368.168t-1.428-.24-1.14-.684a3.2 3.2 0 0 1-.756-1.068 3.5 3.5 0 0 1-.276-1.416q0-1.056.432-1.764a3.1 3.1 0 0 1 1.212-1.128q.78-.42 1.872-.6t2.412-.18h.66q.324 0 .66.048.072-.72.072-1.296 0-1.32-.528-1.848t-1.92-.528q-.408 0-.876.06t-.96.168a8 8 0 0 0-.936.264q-.444.156-.78.348zm3.408 9.624q.672 0 1.2-.18t.912-.456a2.9 2.9 0 0 0 1.008-1.26v-1.992a19 19 0 0 0-1.368-.048q-.744 0-1.452.084t-1.248.312-.864.624-.324.996q0 .84.6 1.38t1.536.54M924.376 301.24v-6.84q0-1.874-.54-2.82-.54-.95-1.98-.949-1.272 0-2.1.684a3.64 3.64 0 0 0-1.164 1.716v8.208h-1.92v-12h1.344l.36 1.464h.096q.576-.768 1.548-1.26t2.316-.492q.984 0 1.728.228t1.236.804.744 1.548.252 2.46v7.248zM933.328 297.015l.672 2.304h.12l.528-2.328 2.328-7.752h1.944l-3.552 10.776q-.408 1.176-.804 2.28a13.3 13.3 0 0 1-.876 1.968q-.48.864-1.08 1.38a2.07 2.07 0 0 1-1.392.516q-.864 0-1.416-.24l.336-1.656q.312.12.6.12.672 0 1.296-.708t1.032-2.436l-4.824-12h2.208zM955.744 297.111q0 1.224.024 2.22t.216 1.956h-1.296l-.48-1.704h-.096q-.48.84-1.392 1.392t-2.136.552q-2.4 0-3.564-1.512t-1.164-4.728q0-3.072 1.452-4.668t3.996-1.596q.888 0 1.404.096t1.116.312v-4.992h1.92zm-4.848 2.736q1.224 0 1.944-.636t.984-1.932v-5.952a2.7 2.7 0 0 0-.984-.48q-.552-.144-1.464-.144-1.656 0-2.592 1.092t-.936 3.492a10 10 0 0 0 .156 1.824q.156.84.516 1.44t.948.948 1.428.348M959.848 289.24h1.92v12h-1.92zm-.408-3.649q0-.552.372-.948t.948-.396.984.396.408.948-.408.912-.984.36-.948-.36a1.22 1.22 0 0 1-.372-.912M971.536 291.087q-.72-.24-1.368-.24-1.032 0-1.632.564t-.744 1.428v8.4h-1.92v-12h1.344l.36 1.464h.096q.456-.816 1.092-1.26t1.62-.444q.696 0 1.56.24zM982.792 300.28q-.72.575-1.812.911t-2.316.336q-1.368 0-2.376-.444a4.2 4.2 0 0 1-1.656-1.272q-.648-.828-.96-1.98t-.312-2.592q0-3.072 1.368-4.68t3.912-1.608q.816 0 1.632.18t1.464.684 1.056 1.428.408 2.436q0 .792-.144 1.752h-7.704q0 1.056.216 1.872t.672 1.38 1.188.864 1.788.3q.816 0 1.632-.288t1.224-.672zm-4.128-9.649q-1.416 0-2.268.744t-1.02 2.544h5.952q0-1.824-.696-2.556t-1.968-.732M994.144 300.447q-.72.528-1.704.804a7.6 7.6 0 0 1-2.064.276q-1.392 0-2.352-.444a4 4 0 0 1-1.572-1.272q-.612-.828-.888-1.992a11.2 11.2 0 0 1-.276-2.58q0-3.048 1.344-4.668t3.864-1.62q1.152 0 1.956.18t1.452.516l-.552 1.656a5.2 5.2 0 0 0-1.224-.492 5.6 5.6 0 0 0-1.44-.18q-3.408 0-3.408 4.608 0 .912.18 1.74t.6 1.464 1.104 1.02 1.692.384q.864 0 1.548-.264t1.116-.6zM995.2 289.24h1.872v-2.377l1.92-.552v2.928h3.264v1.68h-3.264v6.648q0 1.248.312 1.764t1.056.516q.624 0 1.056-.132t.96-.348l.432 1.464a7.4 7.4 0 0 1-1.416.504 6.8 6.8 0 0 1-1.656.192q-1.464 0-2.064-.828t-.6-2.772v-7.008H995.2zM1003.984 295.24q0-3.05 1.356-4.669 1.356-1.62 3.9-1.62 1.344 0 2.34.444t1.644 1.272.96 1.992.312 2.58q0 3.048-1.356 4.668t-3.9 1.62q-1.344 0-2.34-.444a4.25 4.25 0 0 1-1.644-1.272q-.648-.828-.96-1.992t-.312-2.58m1.992 0q0 .91.18 1.751t.564 1.464q.384.624 1.008 1.008t1.512.384q3.264.024 3.264-4.608a8.5 8.5 0 0 0-.18-1.776 4.6 4.6 0 0 0-.564-1.464 2.9 2.9 0 0 0-1.008-.996q-.624-.372-1.512-.372-3.264-.024-3.264 4.608M1023.184 291.087q-.72-.24-1.368-.24-1.032 0-1.632.564t-.744 1.428v8.4h-1.92v-12h1.344l.36 1.464h.096q.456-.816 1.092-1.26t1.62-.444q.696 0 1.56.24zM1029.208 297.015l.672 2.304h.12l.528-2.328 2.328-7.752h1.944l-3.552 10.776q-.408 1.176-.804 2.28a13.3 13.3 0 0 1-.876 1.968q-.48.864-1.08 1.38a2.07 2.07 0 0 1-1.392.516q-.864 0-1.416-.24l.336-1.656q.312.12.6.12.672 0 1.296-.708t1.032-2.436l-4.824-12h2.208zM1050.112 301.24v-6.84q0-1.874-.54-2.82-.54-.95-1.98-.949-1.272 0-2.1.684a3.64 3.64 0 0 0-1.164 1.716v8.208h-1.92v-12h1.344l.36 1.464h.096q.576-.768 1.548-1.26t2.316-.492q.984 0 1.728.228t1.236.804.744 1.548.252 2.46v7.248zM1055.344 290.127q.912-.552 2.124-.816a12 12 0 0 1 2.532-.264q1.248 0 2.004.336t1.152.876a3 3 0 0 1 .528 1.188q.132.648.132 1.296 0 1.44-.072 2.808a49 49 0 0 0-.072 2.592q0 .888.072 1.68t.264 1.464h-1.416l-.504-1.68h-.12a4 4 0 0 1-.54.66 3.5 3.5 0 0 1-.78.576 5 5 0 0 1-1.056.42q-.6.168-1.368.168t-1.428-.24-1.14-.684a3.2 3.2 0 0 1-.756-1.068 3.5 3.5 0 0 1-.276-1.416q0-1.056.432-1.764a3.1 3.1 0 0 1 1.212-1.128q.78-.42 1.872-.6t2.412-.18h.66q.324 0 .66.048.072-.72.072-1.296 0-1.32-.528-1.848t-1.92-.528q-.408 0-.876.06t-.96.168a8 8 0 0 0-.936.264q-.444.156-.78.348zm3.408 9.624q.672 0 1.2-.18t.912-.456a2.9 2.9 0 0 0 1.008-1.26v-1.992a19 19 0 0 0-1.368-.048q-.744 0-1.452.084t-1.248.312-.864.624-.324.996q0 .84.6 1.38t1.536.54M1074.472 301.24v-6.793q0-.96-.084-1.668t-.324-1.188-.684-.72-1.164-.24q-1.104 0-1.836.672a3.56 3.56 0 0 0-1.02 1.68v8.256h-1.92v-12h1.344l.36 1.464h.096a5.6 5.6 0 0 1 1.5-1.26q.852-.492 2.22-.492 1.152 0 1.884.444t1.14 1.548a3.9 3.9 0 0 1 1.524-1.464q.972-.528 2.196-.528 1.008 0 1.704.228t1.152.804.66 1.56.204 2.496v7.2h-1.92v-7.224q0-.864-.084-1.5t-.336-1.056-.696-.624-1.164-.204q-1.2 0-1.872.672t-.96 1.92v8.016zM1095.688 300.28q-.72.575-1.812.911t-2.316.336q-1.368 0-2.376-.444a4.2 4.2 0 0 1-1.656-1.272q-.648-.828-.96-1.98t-.312-2.592q0-3.072 1.368-4.68t3.912-1.608q.816 0 1.632.18t1.464.684 1.056 1.428.408 2.436q0 .792-.144 1.752h-7.704q0 1.056.216 1.872t.672 1.38 1.188.864 1.788.3q.816 0 1.632-.288t1.224-.672zm-4.128-9.649q-1.416 0-2.268.744t-1.02 2.544h5.952q0-1.824-.696-2.556t-1.968-.732"/></g><path fill="#FCBF24" d="M2.844 118.995h1152v44h-1152z" opacity=".281"/><g fill="#0A0A0A" fill-rule="nonzero"><path d="M16.304 148.288a7.6 7.6 0 0 1-2.532-.408 5.9 5.9 0 0 1-2.028-1.188 5.3 5.3 0 0 1-1.344-1.92q-.48-1.14-.48-2.58 0-1.464.516-2.604a5.7 5.7 0 0 1 1.404-1.932 6 6 0 0 1 2.076-1.2 7.7 7.7 0 0 1 2.508-.408q1.44 0 2.484.504t1.764 1.2l-.984 1.272a6.4 6.4 0 0 0-1.5-.984 4 4 0 0 0-1.692-.36q-1.008 0-1.848.324a4 4 0 0 0-1.428.924q-.588.6-.924 1.428a4.8 4.8 0 0 0-.336 1.836q0 1.008.324 1.824t.912 1.404 1.416.912a5 5 0 0 0 1.836.324q1.08 0 1.98-.42t1.62-1.044l.888 1.272a7.6 7.6 0 0 1-2.16 1.344q-1.176.48-2.472.48M24.632 148v-17.088H26.6v4.656l-.12 2.76h.072a9.5 9.5 0 0 1 1.956-1.632q1.044-.648 2.412-.648 2.088 0 3.06 1.188t.972 3.516V148h-1.968v-6.984q0-1.656-.624-2.46t-2.064-.804a3.4 3.4 0 0 0-.972.132q-.444.132-.876.396a6.7 6.7 0 0 0-.888.66q-.456.396-.96.924V148zM40.304 148v-11.664h1.632l.168 2.76h.072q.912-1.416 2.244-2.232t2.964-.816q.648 0 1.2.108t1.104.372l-.456 1.704a10 10 0 0 0-1.044-.312q-.42-.096-1.116-.096-1.32 0-2.532.756t-2.268 2.58V148zM58.784 148v-10.056H53.36v-1.608h7.392V148zm.768-14.112q-.672 0-1.128-.42t-.456-1.116.456-1.116 1.128-.42 1.128.42.456 1.116-.456 1.116-1.128.42M73.04 148.288q-1.728 0-3.192-.54t-2.544-1.284l.912-1.296a9 9 0 0 0 2.22 1.152q1.212.432 2.844.432 1.488 0 2.22-.54t.732-1.284q0-.336-.12-.624t-.516-.552-1.116-.504-1.896-.48q-2.28-.48-3.42-1.284t-1.14-2.124q0-.696.312-1.308t.924-1.056 1.512-.696 2.1-.252q1.344 0 2.592.444t2.112 1.044l-.96 1.272a7.6 7.6 0 0 0-1.8-.888 6.5 6.5 0 0 0-2.112-.336q-1.488 0-2.088.504t-.6 1.176q0 .768.792 1.164t2.592.78q1.464.312 2.4.66t1.476.78.744.96.204 1.2q0 .72-.336 1.344t-.996 1.104-1.632.756-2.22.276M88.184 151.456q-1.416 0-2.688-.612t-2.232-1.8-1.524-2.964-.564-4.08.54-4.032 1.5-2.88a6.3 6.3 0 0 1 2.244-1.74 6.6 6.6 0 0 1 2.772-.588q1.248 0 2.16.432a4.1 4.1 0 0 1 1.512 1.2q.6.768.9 1.812t.3 2.268v7.128h-1.2l-.168-1.392h-.096q-.528.672-1.38 1.176a3.46 3.46 0 0 1-3 .288 2.9 2.9 0 0 1-.984-.624q-.42-.408-.66-.996a3.4 3.4 0 0 1-.24-1.308q0-1.848 1.632-2.784t4.704-1.32v-.336q0-.864-.204-1.632a3.9 3.9 0 0 0-.636-1.344 3.05 3.05 0 0 0-1.116-.912q-.684-.336-1.62-.336-1.08 0-2.064.504t-1.74 1.5-1.2 2.496-.444 3.492q0 1.92.432 3.42t1.176 2.532 1.752 1.572 2.184.54q1.08 0 1.884-.276a5.3 5.3 0 0 0 1.5-.804l.672 1.08a7.8 7.8 0 0 1-1.92.984q-.984.336-2.184.336m.696-6.96q1.344 0 2.688-1.536v-3.024q-2.496.336-3.552.996t-1.056 1.764q0 .84.516 1.32t1.404.48M101.6 148.288a6 6 0 0 1-2.196-.408 5.4 5.4 0 0 1-1.836-1.188q-.792-.78-1.26-1.92t-.468-2.58q0-1.464.468-2.604a5.8 5.8 0 0 1 1.26-1.932 5.3 5.3 0 0 1 1.836-1.2 6 6 0 0 1 2.196-.408q1.152 0 2.196.408a5.3 5.3 0 0 1 1.836 1.2 5.8 5.8 0 0 1 1.26 1.932q.468 1.14.468 2.604 0 1.44-.468 2.58t-1.26 1.92-1.836 1.188a6 6 0 0 1-2.196.408m0-1.632q.84 0 1.524-.324t1.176-.912.756-1.404a5.9 5.9 0 0 0 .264-1.824q0-1.008-.264-1.836a4.3 4.3 0 0 0-.756-1.428q-.492-.6-1.176-.924a3.5 3.5 0 0 0-1.524-.324q-.84 0-1.524.324a3.4 3.4 0 0 0-1.176.924q-.492.6-.756 1.428a6 6 0 0 0-.264 1.836q0 1.008.264 1.824t.756 1.404 1.176.912 1.524.324M111.032 152.92v-16.584h1.632l.168 1.488h.072a7.2 7.2 0 0 1 1.884-1.272 5 5 0 0 1 2.148-.504q1.176 0 2.076.42t1.512 1.2.924 1.872.312 2.46q0 1.488-.432 2.652t-1.164 1.98a4.9 4.9 0 0 1-1.692 1.236q-.96.42-2.016.42-.816 0-1.764-.396a5.7 5.7 0 0 1-1.716-1.116h-.072l.096 2.208v3.936zm5.088-6.288q1.584 0 2.592-1.224T119.72 142a7.4 7.4 0 0 0-.192-1.752 4 4 0 0 0-.588-1.356 2.7 2.7 0 0 0-1.02-.876q-.624-.312-1.488-.312-.768 0-1.644.42T113 139.456v5.808q.84.744 1.68 1.056t1.44.312M125.432 148v-17.088h1.968v4.656l-.12 2.76h.072a9.5 9.5 0 0 1 1.956-1.632q1.044-.648 2.412-.648 2.088 0 3.06 1.188t.972 3.516V148h-1.968v-6.984q0-1.656-.624-2.46t-2.064-.804a3.4 3.4 0 0 0-.972.132q-.444.132-.876.396a6.7 6.7 0 0 0-.888.66q-.456.396-.96.924V148zM145.184 148v-10.056h-5.424v-1.608h7.392V148zm.768-14.112q-.672 0-1.128-.42t-.456-1.116.456-1.116 1.128-.42 1.128.42.456 1.116-.456 1.116-1.128.42M155.504 148v-11.664h1.632l.168 2.76h.072q.912-1.416 2.244-2.232t2.964-.816q.648 0 1.2.108t1.104.372l-.456 1.704a10 10 0 0 0-1.044-.312q-.42-.096-1.116-.096-1.32 0-2.532.756t-2.268 2.58V148zM190.112 141.832q-.72 0-1.284-.312a8 8 0 0 1-1.056-.696 16 16 0 0 0-.96-.696 1.73 1.73 0 0 0-.972-.312q-.552 0-1.044.408t-.9 1.656l-1.272-.552q.624-1.68 1.488-2.34t1.776-.66q.72 0 1.284.312t1.056.696.96.696.972.312q.288 0 .54-.084t.504-.312a2.3 2.3 0 0 0 .468-.636q.216-.408.432-1.032l1.272.576q-.624 1.68-1.488 2.328t-1.776.648M213.608 140.296q-1.464 0-2.4-1.056t-.936-2.928.936-2.892 2.4-1.02 2.4 1.02.936 2.892-.936 2.928-2.4 1.056m0-1.2q.768 0 1.32-.684t.552-2.1q0-1.44-.552-2.088t-1.32-.648-1.32.648-.552 2.088q0 1.416.552 2.1t1.32.684m-2.16 8.136-1.176-1.08 4.392-4.512.792.72zm7.488-8.616-.792-.72 4.008-4.872 1.176 1.08zm1.08 9.672q-1.464 0-2.4-1.056t-.936-2.928.936-2.892 2.4-1.02 2.4 1.02.936 2.892-.936 2.928-2.4 1.056m0-1.2q.768 0 1.32-.684t.552-2.1q0-1.44-.552-2.088t-1.32-.648-1.32.648-.552 2.088q0 1.416.552 2.1t1.32.684"/></g><g fill="#0A0A0A" fill-rule="nonzero"><path d="M240.784 148v-11.904h2.88l.288 2.592h.072q.888-1.464 2.136-2.172a5.36 5.36 0 0 1 2.688-.708q.792 0 1.284.12t1.02.36l-.72 2.952a10 10 0 0 0-.996-.252 6 6 0 0 0-1.116-.084q-1.104 0-2.172.648t-1.836 2.256V148zM253.24 148v-11.904h2.664l.24 1.464h.096q.336-.72.936-1.236t1.632-.516q.768 0 1.308.492t.756 1.452a3.7 3.7 0 0 1 .972-1.38q.636-.564 1.668-.564 1.296 0 1.98 1.02t.684 2.82V148h-3.36v-8.112q0-.552-.144-.816t-.504-.264q-.336 0-.576.288t-.504.864V148h-2.76v-8.112q0-1.08-.672-1.08-.336 0-.576.288t-.48.864V148zM283 148v-15.648h5.544q1.272 0 2.388.252t1.944.84a4.1 4.1 0 0 1 1.308 1.56q.48.972.48 2.388 0 1.368-.492 2.376a4.6 4.6 0 0 1-1.332 1.656 5.7 5.7 0 0 1-1.944.96 8.6 8.6 0 0 1-2.352.312h-2.016V148zm3.528-8.112h1.8q2.88 0 2.88-2.496 0-1.224-.732-1.728t-2.148-.504h-1.8zM297.328 148v-16.824h3.528v4.128l-.192 2.28h.072a7 7 0 0 1 1.632-1.236q.96-.54 2.328-.54 2.016 0 2.94 1.296t.924 3.552V148h-3.528v-6.888q0-1.2-.384-1.752t-1.368-.552q-.72 0-1.26.312t-1.164.936V148zM317.2 148.288q-1.176 0-2.268-.42a6 6 0 0 1-1.944-1.212 5.75 5.75 0 0 1-1.356-1.956q-.504-1.164-.504-2.652t.504-2.652a5.75 5.75 0 0 1 1.356-1.956 6 6 0 0 1 1.944-1.212 6.3 6.3 0 0 1 2.268-.42q1.176 0 2.268.42t1.944 1.212a5.75 5.75 0 0 1 1.356 1.956q.504 1.164.504 2.652t-.504 2.652a5.75 5.75 0 0 1-1.356 1.956 6 6 0 0 1-1.944 1.212q-1.092.42-2.268.42m0-2.856q1.224 0 1.836-.912t.612-2.472-.612-2.472-1.836-.912-1.836.912-.612 2.472.612 2.472 1.836.912M333.712 148.288q-1.416 0-2.4-.384t-1.596-1.068a4 4 0 0 1-.876-1.644 8 8 0 0 1-.264-2.136v-4.2h-3v-2.616l3.168-.144.456-3.648h2.904v3.648h5.04v2.76h-5.04v4.176q0 1.368.6 1.932t1.92.564q.672 0 1.236-.12a9 9 0 0 0 1.116-.312l.624 2.544q-.792.24-1.74.444t-2.148.204M346 148.288q-1.176 0-2.268-.42a6 6 0 0 1-1.944-1.212 5.75 5.75 0 0 1-1.356-1.956q-.504-1.164-.504-2.652t.504-2.652a5.75 5.75 0 0 1 1.356-1.956 6 6 0 0 1 1.944-1.212 6.3 6.3 0 0 1 2.268-.42q1.176 0 2.268.42t1.944 1.212a5.75 5.75 0 0 1 1.356 1.956q.504 1.164.504 2.652t-.504 2.652a5.75 5.75 0 0 1-1.356 1.956 6 6 0 0 1-1.944 1.212q-1.092.42-2.268.42m0-2.856q1.224 0 1.836-.912t.612-2.472-.612-2.472-1.836-.912-1.836.912-.612 2.472.612 2.472 1.836.912M359.848 153.064q-1.152 0-2.148-.18t-1.716-.552-1.128-.948-.408-1.368q0-1.464 1.848-2.376v-.096a3 3 0 0 1-.852-.792q-.348-.48-.348-1.248 0-.6.396-1.2a3.8 3.8 0 0 1 1.02-1.032v-.096q-.648-.432-1.104-1.212t-.456-1.836q0-1.08.42-1.884t1.116-1.344a4.9 4.9 0 0 1 1.62-.816 6.7 6.7 0 0 1 1.932-.276q1.104 0 1.968.288h4.824v2.592h-2.4q.192.264.36.684t.168.876q0 1.032-.384 1.776a3.55 3.55 0 0 1-1.044 1.236q-.66.492-1.56.732t-1.932.24q-.768 0-1.632-.24a1.7 1.7 0 0 0-.396.384q-.132.192-.132.504 0 .48.48.684t1.536.204h2.208q2.352 0 3.588.696t1.236 2.304q0 .936-.504 1.728t-1.416 1.356-2.232.888-2.928.324m.192-10.968a1.8 1.8 0 0 0 1.272-.492q.528-.492.528-1.476 0-.936-.528-1.44a1.78 1.78 0 0 0-1.272-.504q-.744 0-1.26.504t-.516 1.44q0 .984.516 1.476t1.26.492m.312 8.736q1.44 0 2.328-.408t.888-1.032q0-.576-.528-.744t-1.56-.168h-1.488q-.648 0-1.068-.036a4 4 0 0 1-.756-.132q-.456.288-.648.564a1.05 1.05 0 0 0-.192.612q0 .672.804 1.008t2.22.336M370.384 148v-11.904h2.88l.288 2.592h.072q.888-1.464 2.136-2.172a5.36 5.36 0 0 1 2.688-.708q.792 0 1.284.12t1.02.36l-.72 2.952a10 10 0 0 0-.996-.252 6 6 0 0 0-1.116-.084q-1.104 0-2.172.648t-1.836 2.256V148zM387.376 148.288q-.912 0-1.632-.276a3.5 3.5 0 0 1-1.224-.768 3.5 3.5 0 0 1-.78-1.14 3.6 3.6 0 0 1-.276-1.416q0-1.008.432-1.764t1.38-1.284 2.436-.852 3.6-.444q-.096-.816-.708-1.272t-1.836-.456q-.864 0-1.74.3t-1.884.804l-1.248-2.304a14 14 0 0 1 2.628-1.152 9.5 9.5 0 0 1 2.94-.456q2.496 0 3.936 1.32t1.44 4.056V148h-2.88l-.264-1.344h-.096a9.5 9.5 0 0 1-1.992 1.164 5.6 5.6 0 0 1-2.232.468m1.128-2.736q.792 0 1.488-.324a7 7 0 0 0 1.32-.804v-1.968q-1.32.072-2.184.24t-1.368.42-.708.588a1.36 1.36 0 0 0-.204.72q0 .576.444.852t1.212.276M398.128 152.416v-16.32h2.88l.264 1.2h.072a6.3 6.3 0 0 1 1.656-1.068 4.6 4.6 0 0 1 1.896-.42q1.104 0 1.992.432a4.3 4.3 0 0 1 1.512 1.224q.624.792.948 1.908t.324 2.484q0 1.536-.432 2.724t-1.152 2.016a4.95 4.95 0 0 1-1.644 1.26 4.5 4.5 0 0 1-1.932.432q-1.632 0-2.928-1.296h-.096l.168 1.944v3.48zm5.568-7.008q1.008 0 1.68-.828t.672-2.676q0-3.216-2.184-3.216-1.128 0-2.208 1.104v4.824q.504.432 1.044.612t.996.18M412.528 148v-16.824h3.528v4.128l-.192 2.28h.072a7 7 0 0 1 1.632-1.236q.96-.54 2.328-.54 2.016 0 2.94 1.296t.924 3.552V148h-3.528v-6.888q0-1.2-.384-1.752t-1.368-.552q-.72 0-1.26.312t-1.164.936V148zM428.632 152.656q-.528 0-.984-.06t-.84-.18l.624-2.688q.456.144.936.144 1.032 0 1.62-.432t.876-1.128l.24-.624-5.16-11.592h3.504l1.992 5.112q.336.84.624 1.74t.576 1.836h.096q.24-.888.528-1.788t.552-1.788l1.752-5.112h3.336L434.2 148.12q-.432 1.128-.936 1.98a5.7 5.7 0 0 1-1.152 1.416q-.648.564-1.5.852t-1.98.288M441.376 151.84l7.896-20.88h2.952l-7.896 20.88zM461.152 148.288q-1.584 0-3.132-.564a8.7 8.7 0 0 1-2.82-1.692l2.04-2.424a8.3 8.3 0 0 0 1.944 1.176q1.056.456 2.208.456t1.68-.384.528-.984q0-.408-.168-.684a1.65 1.65 0 0 0-.48-.492 4.3 4.3 0 0 0-.768-.408q-.456-.192-1.008-.432l-2.016-.864a7 7 0 0 1-1.26-.624 4.9 4.9 0 0 1-1.068-.9 4.1 4.1 0 0 1-.732-1.2 4.1 4.1 0 0 1-.276-1.548q0-.96.42-1.812a4.6 4.6 0 0 1 1.176-1.488 5.6 5.6 0 0 1 1.812-.996q1.056-.36 2.328-.36 1.44 0 2.784.528a7.6 7.6 0 0 1 2.424 1.536l-1.8 2.232a7.3 7.3 0 0 0-1.632-.924q-.816-.324-1.968-.324-.888 0-1.428.36t-.54 1.056.708 1.068 1.86.78l1.896.816q1.56.576 2.46 1.584t.9 2.664q0 .984-.408 1.86a4.5 4.5 0 0 1-1.176 1.536q-.768.66-1.896 1.056t-2.592.396M470.128 148v-16.824h3.528v4.128l-.192 2.28h.072a7 7 0 0 1 1.632-1.236q.96-.54 2.328-.54 2.016 0 2.94 1.296t.924 3.552V148h-3.528v-6.888q0-1.2-.384-1.752t-1.368-.552q-.72 0-1.26.312t-1.164.936V148zM490 148.288q-1.176 0-2.268-.42a6 6 0 0 1-1.944-1.212 5.75 5.75 0 0 1-1.356-1.956q-.504-1.164-.504-2.652t.504-2.652a5.75 5.75 0 0 1 1.356-1.956 6 6 0 0 1 1.944-1.212 6.3 6.3 0 0 1 2.268-.42q1.176 0 2.268.42t1.944 1.212a5.75 5.75 0 0 1 1.356 1.956q.504 1.164.504 2.652t-.504 2.652a5.75 5.75 0 0 1-1.356 1.956 6 6 0 0 1-1.944 1.212q-1.092.42-2.268.42m0-2.856q1.224 0 1.836-.912t.612-2.472-.612-2.472-1.836-.912-1.836.912-.612 2.472.612 2.472 1.836.912M504.4 148.288q-1.176 0-2.268-.42a6 6 0 0 1-1.944-1.212 5.75 5.75 0 0 1-1.356-1.956q-.504-1.164-.504-2.652t.504-2.652a5.75 5.75 0 0 1 1.356-1.956 6 6 0 0 1 1.944-1.212 6.3 6.3 0 0 1 2.268-.42q1.176 0 2.268.42t1.944 1.212a5.75 5.75 0 0 1 1.356 1.956q.504 1.164.504 2.652t-.504 2.652a5.75 5.75 0 0 1-1.356 1.956 6 6 0 0 1-1.944 1.212q-1.092.42-2.268.42m0-2.856q1.224 0 1.836-.912t.612-2.472-.612-2.472-1.836-.912-1.836.912-.612 2.472.612 2.472 1.836.912M520.912 148.288q-1.416 0-2.4-.384t-1.596-1.068a4 4 0 0 1-.876-1.644 8 8 0 0 1-.264-2.136v-4.2h-3v-2.616l3.168-.144.456-3.648h2.904v3.648h5.04v2.76h-5.04v4.176q0 1.368.6 1.932t1.92.564q.672 0 1.236-.12a9 9 0 0 0 1.116-.312l.624 2.544q-.792.24-1.74.444t-2.148.204M533.104 148.288a9.6 9.6 0 0 1-3.144-.528q-1.536-.528-2.688-1.296l1.512-2.208a9.3 9.3 0 0 0 2.304 1.056q1.2.36 2.496.36.984 0 1.44-.288t.456-.72a.75.75 0 0 0-.132-.432q-.132-.192-.456-.348a5 5 0 0 0-.9-.3 58 58 0 0 0-1.44-.336q-2.424-.528-3.48-1.428t-1.056-2.292q0-.816.384-1.512t1.092-1.176 1.716-.756 2.28-.276q1.608 0 2.916.516t2.244 1.116l-1.584 2.112a8 8 0 0 0-1.896-.84 7 7 0 0 0-1.992-.288q-.84 0-1.248.264t-.408.672q0 .504.624.72t2.136.552q1.368.312 2.28.672t1.44.816.744 1.032.216 1.296q0 .816-.384 1.512a3.6 3.6 0 0 1-1.116 1.212q-.732.516-1.824.816t-2.532.3M542.176 151.84l7.896-20.88h2.952l-7.896 20.88zM563.344 148.288q-1.464 0-2.772-.516a6.6 6.6 0 0 1-2.304-1.524q-.996-1.008-1.584-2.508t-.588-3.468q0-1.944.576-3.468t1.584-2.58a6.7 6.7 0 0 1 2.376-1.608 7.8 7.8 0 0 1 2.928-.552q1.488 0 2.688.612t1.992 1.38l-1.944 2.184a4.9 4.9 0 0 0-1.212-.816q-.66-.312-1.524-.312-.84 0-1.536.348a3.6 3.6 0 0 0-1.212.996q-.516.648-.804 1.584t-.288 2.112q0 2.424 1.104 3.756t2.88 1.332q.84 0 1.548-.384t1.284-1.008l1.944 2.136q-1.944 2.304-5.136 2.304M576.4 148.288q-1.176 0-2.268-.42a6 6 0 0 1-1.944-1.212 5.75 5.75 0 0 1-1.356-1.956q-.504-1.164-.504-2.652t.504-2.652a5.75 5.75 0 0 1 1.356-1.956 6 6 0 0 1 1.944-1.212 6.3 6.3 0 0 1 2.268-.42q1.176 0 2.268.42t1.944 1.212a5.75 5.75 0 0 1 1.356 1.956q.504 1.164.504 2.652t-.504 2.652a5.75 5.75 0 0 1-1.356 1.956 6 6 0 0 1-1.944 1.212q-1.092.42-2.268.42m0-2.856q1.224 0 1.836-.912t.612-2.472-.612-2.472-1.836-.912-1.836.912-.612 2.472.612 2.472 1.836.912M593.08 148.288q-2.256 0-3.396-1.332t-1.14-3.612v-9.384H584.8v-2.784h7.272v12.312q0 .552.156.924t.432.6.624.324.732.096q.408 0 .852-.084t.996-.3l.792 2.592-.888.264q-.408.12-.816.204a9 9 0 0 1-1.872.18M605.2 148.288q-1.176 0-2.268-.42a6 6 0 0 1-1.944-1.212 5.75 5.75 0 0 1-1.356-1.956q-.504-1.164-.504-2.652t.504-2.652a5.75 5.75 0 0 1 1.356-1.956 6 6 0 0 1 1.944-1.212 6.3 6.3 0 0 1 2.268-.42q1.176 0 2.268.42t1.944 1.212a5.75 5.75 0 0 1 1.356 1.956q.504 1.164.504 2.652t-.504 2.652a5.75 5.75 0 0 1-1.356 1.956 6 6 0 0 1-1.944 1.212q-1.092.42-2.268.42m0-2.856q1.224 0 1.836-.912t.612-2.472-.612-2.472-1.836-.912-1.836.912-.612 2.472.612 2.472 1.836.912M615.184 148v-11.904h2.88l.288 2.592h.072q.888-1.464 2.136-2.172a5.36 5.36 0 0 1 2.688-.708q.792 0 1.284.12t1.02.36l-.72 2.952a10 10 0 0 0-.996-.252 6 6 0 0 0-1.116-.084q-1.104 0-2.172.648t-1.836 2.256V148zM632.176 148.288q-.912 0-1.632-.276a3.5 3.5 0 0 1-1.224-.768 3.5 3.5 0 0 1-.78-1.14 3.6 3.6 0 0 1-.276-1.416q0-1.008.432-1.764t1.38-1.284 2.436-.852 3.6-.444q-.096-.816-.708-1.272t-1.836-.456q-.864 0-1.74.3t-1.884.804l-1.248-2.304a14 14 0 0 1 2.628-1.152 9.5 9.5 0 0 1 2.94-.456q2.496 0 3.936 1.32t1.44 4.056V148h-2.88l-.264-1.344h-.096a9.5 9.5 0 0 1-1.992 1.164 5.6 5.6 0 0 1-2.232.468m1.128-2.736q.792 0 1.488-.324a7 7 0 0 0 1.32-.804v-1.968q-1.32.072-2.184.24t-1.368.42-.708.588a1.36 1.36 0 0 0-.204.72q0 .576.444.852t1.212.276M647.344 148.288q-1.128 0-2.052-.432a4.5 4.5 0 0 1-1.584-1.236q-.66-.804-1.02-1.956t-.36-2.616.432-2.616 1.14-1.956a5 5 0 0 1 1.62-1.236 4.4 4.4 0 0 1 1.896-.432q1.008 0 1.704.324t1.296.948h.096l-.168-1.848v-4.056h3.528V148h-2.88l-.264-1.224h-.072q-.672.648-1.536 1.08a3.9 3.9 0 0 1-1.776.432m.912-2.88q.6 0 1.104-.252t.984-.852v-4.824a3 3 0 0 0-.972-.612 3 3 0 0 0-1.02-.18q-.984 0-1.692.816t-.708 2.496q0 1.776.6 2.592t1.704.816M662.8 148.288q-1.176 0-2.268-.42a6 6 0 0 1-1.944-1.212 5.75 5.75 0 0 1-1.356-1.956q-.504-1.164-.504-2.652t.504-2.652a5.75 5.75 0 0 1 1.356-1.956 6 6 0 0 1 1.944-1.212 6.3 6.3 0 0 1 2.268-.42q1.176 0 2.268.42t1.944 1.212a5.75 5.75 0 0 1 1.356 1.956q.504 1.164.504 2.652t-.504 2.652a5.75 5.75 0 0 1-1.356 1.956 6 6 0 0 1-1.944 1.212q-1.092.42-2.268.42m0-2.856q1.224 0 1.836-.912t.612-2.472-.612-2.472-1.836-.912-1.836.912-.612 2.472.612 2.472 1.836.912M671.776 151.84l7.896-20.88h2.952l-7.896 20.88zM685.792 148v-2.016q1.632-1.368 2.976-2.556a33 33 0 0 0 2.304-2.22q.96-1.032 1.488-1.944t.528-1.728q0-1.128-.648-1.716t-1.848-.588q-.912 0-1.668.468a8.4 8.4 0 0 0-1.404 1.092l-1.896-1.896q.6-.6 1.188-1.056a6.3 6.3 0 0 1 1.248-.756q.66-.3 1.392-.456a7.8 7.8 0 0 1 1.62-.156q1.2 0 2.184.348t1.692.984 1.104 1.524.396 1.992q0 .96-.456 1.956a10 10 0 0 1-1.236 1.992 21 21 0 0 1-1.788 1.992 45 45 0 0 1-2.112 1.956q.648-.072 1.404-.132t1.356-.06h3.624V148zM706 148.288q-1.32 0-2.4-.516a5.03 5.03 0 0 1-1.848-1.524q-.768-1.008-1.188-2.496t-.42-3.432.42-3.408 1.188-2.46a4.86 4.86 0 0 1 1.848-1.488q1.08-.492 2.4-.492t2.4.492 1.848 1.488 1.188 2.46.42 3.408-.42 3.432-1.188 2.496a5.03 5.03 0 0 1-1.848 1.524q-1.08.516-2.4.516m0-2.736q.576 0 1.068-.264t.852-.876.576-1.608.216-2.484-.216-2.472-.576-1.572-.852-.828a2.4 2.4 0 0 0-1.068-.24q-.576 0-1.068.24t-.852.828-.576 1.572-.216 2.472.216 2.484.576 1.608.852.876 1.068.264m0-3.456q-.768 0-1.284-.492t-.516-1.332.516-1.332 1.284-.492 1.284.492.516 1.332-.516 1.332-1.284.492M714.592 148v-2.016q1.632-1.368 2.976-2.556a33 33 0 0 0 2.304-2.22q.96-1.032 1.488-1.944t.528-1.728q0-1.128-.648-1.716t-1.848-.588q-.912 0-1.668.468a8.4 8.4 0 0 0-1.404 1.092l-1.896-1.896q.6-.6 1.188-1.056a6.3 6.3 0 0 1 1.248-.756q.66-.3 1.392-.456a7.8 7.8 0 0 1 1.62-.156q1.2 0 2.184.348t1.692.984 1.104 1.524.396 1.992q0 .96-.456 1.956a10 10 0 0 1-1.236 1.992 21 21 0 0 1-1.788 1.992 45 45 0 0 1-2.112 1.956q.648-.072 1.404-.132t1.356-.06h3.624V148zM732.4 151.648v-20.64h7.104v1.872h-4.416v16.896h4.416v1.872zM749.2 148.288q-1.32 0-2.4-.516a5.03 5.03 0 0 1-1.848-1.524q-.768-1.008-1.188-2.496t-.42-3.432.42-3.408 1.188-2.46a4.86 4.86 0 0 1 1.848-1.488q1.08-.492 2.4-.492t2.4.492 1.848 1.488 1.188 2.46.42 3.408-.42 3.432-1.188 2.496a5.03 5.03 0 0 1-1.848 1.524q-1.08.516-2.4.516m0-2.736q.576 0 1.068-.264t.852-.876.576-1.608.216-2.484-.216-2.472-.576-1.572-.852-.828a2.4 2.4 0 0 0-1.068-.24q-.576 0-1.068.24t-.852.828-.576 1.572-.216 2.472.216 2.484.576 1.608.852.876 1.068.264m0-3.456q-.768 0-1.284-.492t-.516-1.332.516-1.332 1.284-.492 1.284.492.516 1.332-.516 1.332-1.284.492M758.08 141.328v-2.496h11.04v2.496zM777.496 148.288q-1.968 0-3.384-.588t-2.304-1.572l1.632-2.232a7 7 0 0 0 1.716 1.104q.948.432 2.004.432 1.248 0 2.052-.468t.804-1.332q0-.504-.216-.912t-.744-.684-1.416-.432-2.232-.156v-2.496q2.256 0 3.18-.564t.924-1.476q0-.792-.6-1.236t-1.656-.444q-.912 0-1.68.36a8 8 0 0 0-1.56.984l-1.776-2.16a9.4 9.4 0 0 1 2.412-1.428 7.4 7.4 0 0 1 2.772-.516q1.248 0 2.28.276t1.776.816 1.152 1.308.408 1.776q0 1.2-.768 2.028t-2.136 1.356v.096q1.44.384 2.424 1.308t.984 2.412q0 1.056-.492 1.884a4.4 4.4 0 0 1-1.32 1.392 6.4 6.4 0 0 1-1.932.864q-1.104.3-2.304.3M787.696 151.648v-1.872h4.416V132.88h-4.416v-1.872h7.104v20.64zM801.376 151.84l7.896-20.88h2.952l-7.896 20.88zM818.416 145.816l-1.536-1.056 2.328-3.768-3.672-1.632.552-1.704 3.888 1.032.288-4.272h1.872l.288 4.272 3.888-1.032.552 1.704-3.672 1.632 2.328 3.768-1.536 1.056-2.784-3.408zM830.176 151.84l7.896-20.88h2.952l-7.896 20.88zM847.216 145.816l-1.536-1.056 2.328-3.768-3.672-1.632.552-1.704 3.888 1.032.288-4.272h1.872l.288 4.272 3.888-1.032.552 1.704-3.672 1.632 2.328 3.768-1.536 1.056-2.784-3.408zM858.976 151.84l7.896-20.88h2.952l-7.896 20.88zM876.016 145.816l-1.536-1.056 2.328-3.768-3.672-1.632.552-1.704 3.888 1.032.288-4.272h1.872l.288 4.272 3.888-1.032.552 1.704-3.672 1.632 2.328 3.768-1.536 1.056-2.784-3.408zM890.68 152.704a8.2 8.2 0 0 1-2.004-.228 9.3 9.3 0 0 1-1.668-.588l1.032-2.52q.72.336 1.308.456t1.116.12q1.272 0 1.74-.612t.468-1.908v-8.568h-4.776v-2.76h8.304v11.184q0 1.08-.252 2.064a4.24 4.24 0 0 1-.888 1.728q-.636.744-1.704 1.188t-2.676.444m3.6-18.48q-1.032 0-1.692-.576t-.66-1.56.66-1.596 1.692-.612 1.692.612.66 1.596-.66 1.56-1.692.576M902.128 152.416v-16.32h2.88l.264 1.2h.072a6.3 6.3 0 0 1 1.656-1.068 4.6 4.6 0 0 1 1.896-.42q1.104 0 1.992.432a4.3 4.3 0 0 1 1.512 1.224q.624.792.948 1.908t.324 2.484q0 1.536-.432 2.724t-1.152 2.016a4.95 4.95 0 0 1-1.644 1.26 4.5 4.5 0 0 1-1.932.432q-1.632 0-2.928-1.296h-.096l.168 1.944v3.48zm5.568-7.008q1.008 0 1.68-.828t.672-2.676q0-3.216-2.184-3.216-1.128 0-2.208 1.104v4.824q.504.432 1.044.612t.996.18M921.448 153.064q-1.152 0-2.148-.18t-1.716-.552-1.128-.948-.408-1.368q0-1.464 1.848-2.376v-.096a3 3 0 0 1-.852-.792q-.348-.48-.348-1.248 0-.6.396-1.2a3.8 3.8 0 0 1 1.02-1.032v-.096q-.648-.432-1.104-1.212t-.456-1.836q0-1.08.42-1.884t1.116-1.344a4.9 4.9 0 0 1 1.62-.816 6.7 6.7 0 0 1 1.932-.276q1.104 0 1.968.288h4.824v2.592h-2.4q.192.264.36.684t.168.876q0 1.032-.384 1.776a3.55 3.55 0 0 1-1.044 1.236q-.66.492-1.56.732t-1.932.24q-.768 0-1.632-.24a1.7 1.7 0 0 0-.396.384q-.132.192-.132.504 0 .48.48.684t1.536.204h2.208q2.352 0 3.588.696t1.236 2.304q0 .936-.504 1.728t-1.416 1.356-2.232.888-2.928.324m.192-10.968a1.8 1.8 0 0 0 1.272-.492q.528-.492.528-1.476 0-.936-.528-1.44a1.78 1.78 0 0 0-1.272-.504q-.744 0-1.26.504t-.516 1.44q0 .984.516 1.476t1.26.492m.312 8.736q1.44 0 2.328-.408t.888-1.032q0-.576-.528-.744t-1.56-.168h-1.488q-.648 0-1.068-.036a4 4 0 0 1-.756-.132q-.456.288-.648.564a1.05 1.05 0 0 0-.192.612q0 .672.804 1.008t2.22.336"/></g><path stroke="#EBEBEB" stroke-dasharray="8" stroke-linecap="square" stroke-width="2" d="m1151 247.513-1152-.897" opacity=".1"/><g fill="#D97705" fill-rule="nonzero"><path d="M716.704 289.053q0 1.272-.468 2.604t-1.224 2.676a27 27 0 0 1-1.692 2.628 59 59 0 0 1-1.872 2.436l-1.176 1.032v.096l1.536-.264h5.232v1.776h-9.552v-.696q.528-.552 1.272-1.368a40 40 0 0 0 3.132-3.924q.78-1.116 1.416-2.268t1.02-2.28.384-2.136q0-1.176-.672-1.956t-2.04-.78q-.912 0-1.776.372a7 7 0 0 0-1.488.852l-.792-1.368a6.2 6.2 0 0 1 1.992-1.128 7.4 7.4 0 0 1 2.472-.408q1.032 0 1.824.3t1.344.852.84 1.308a4.6 4.6 0 0 1 .288 1.644M720.112 293.637q0-4.32 1.404-6.504t4.092-2.184q2.904 0 4.212 2.148t1.308 6.54q0 4.32-1.404 6.504t-4.116 2.184q-2.856 0-4.176-2.28t-1.32-6.408m1.992 0q0 1.56.204 2.844t.636 2.208 1.092 1.44 1.572.516q1.824 0 2.676-1.692t.852-5.316q0-1.536-.18-2.832t-.6-2.232-1.092-1.44-1.656-.504q-1.8 0-2.652 1.704t-.852 5.304M742.864 289.053q0 1.272-.468 2.604t-1.224 2.676a27 27 0 0 1-1.692 2.628 59 59 0 0 1-1.872 2.436l-1.176 1.032v.096l1.536-.264h5.232v1.776h-9.552v-.696q.528-.552 1.272-1.368a40 40 0 0 0 3.132-3.924q.78-1.116 1.416-2.268t1.02-2.28.384-2.136q0-1.176-.672-1.956t-2.04-.78q-.912 0-1.776.372a7 7 0 0 0-1.488.852l-.792-1.368a6.2 6.2 0 0 1 1.992-1.128 7.4 7.4 0 0 1 2.472-.408q1.032 0 1.824.3t1.344.852.84 1.308a4.6 4.6 0 0 1 .288 1.644M750.856 300.645a4.6 4.6 0 0 0 1.512-.24q.696-.24 1.2-.708t.792-1.116.288-1.416q0-1.68-.996-2.496t-2.748-.816h-1.776v-.696l3.456-5.328 1.104-1.056-1.56.24h-4.752v-1.776h8.568v.696l-3.816 5.736-.84.696v.048l.816-.168q.96.024 1.776.348a4.05 4.05 0 0 1 1.416.936q.6.612.936 1.464t.336 1.932q0 1.296-.456 2.304a4.9 4.9 0 0 1-1.236 1.692 5.4 5.4 0 0 1-1.836 1.044 6.9 6.9 0 0 1-2.232.36q-1.08 0-1.944-.168a8 8 0 0 1-1.512-.432l.504-1.704q.552.264 1.308.444t1.692.18"/></g></g></svg>
