<svg xmlns="http://www.w3.org/2000/svg" viewBox="0 0 1158 255"><g fill="none" fill-rule="evenodd"><rect width="1155" height="252.5" x="1.39" y="1.537" fill="#FFF" stroke="#BFBFBF" stroke-width="2" rx="10"/><path fill="#FCBF24" d="M451 42.95h232v48.5l-86.047 51.409H536l-85-51.41zM756 42.95h232v48.5l-86.047 51.409H841l-85-51.41zM146 42.95h232v48.5l-86.047 51.409H231l-85-51.41z" opacity=".505"/><path fill="#0A0A0A" fill-rule="nonzero" d="M417.74 92.45v-44h5.72v44zM718.74 92.45v-44h5.72v44z"/><g fill="#0A0A0A" fill-rule="nonzero"><path d="M171.092 81.977q-2.596 0-4.796-.77t-3.85-2.222-2.574-3.586-.924-4.862q0-2.727 1.034-4.862 1.034-2.133 2.772-3.586 1.738-1.451 4.026-2.222a15 15 0 0 1 4.796-.77q2.596.001 4.686.836 2.09.837 3.498 2.112l-2.992 4.004q-2.42-1.716-4.84-1.716-2.816 0-4.576 1.672-1.76 1.673-1.76 4.532t1.694 4.532q1.694 1.672 4.422 1.672 1.716 0 3.146-.616a14.5 14.5 0 0 0 2.618-1.452l2.596 4.092a12.8 12.8 0 0 1-4.356 2.442q-2.376.77-4.62.77M195.6 81.977q-2.156 0-4.158-.77a11 11 0 0 1-3.564-2.222q-1.562-1.452-2.486-3.586t-.924-4.862.924-4.862q.924-2.133 2.486-3.586a11 11 0 0 1 3.564-2.222q2.002-.77 4.158-.77t4.158.77a11 11 0 0 1 3.564 2.222q1.562 1.452 2.486 3.586t.924 4.862q0 2.73-.924 4.862-.924 2.134-2.486 3.586a11 11 0 0 1-3.564 2.222q-2.002.77-4.158.77m0-5.236q2.244 0 3.366-1.672t1.122-4.532-1.122-4.532-3.366-1.672-3.366 1.672-1.122 4.532 1.122 4.532 3.366 1.672M210.34 81.45V59.624h4.884l.44 2.684h.176q.616-1.32 1.716-2.266 1.1-.945 2.992-.946 1.408 0 2.398.902.99.904 1.386 2.662a6.8 6.8 0 0 1 1.782-2.53q1.166-1.034 3.058-1.034 2.376 0 3.63 1.87t1.254 5.17V81.45h-6.16V66.577q0-1.011-.264-1.496-.264-.483-.924-.484-.616 0-1.056.528t-.924 1.584v14.74h-5.06V66.577q0-1.98-1.232-1.98-.616 0-1.056.528t-.88 1.584v14.74zM236.74 81.45V59.624h4.884l.44 2.684h.176q.616-1.32 1.716-2.266 1.1-.945 2.992-.946 1.408 0 2.398.902.99.904 1.386 2.662a6.8 6.8 0 0 1 1.782-2.53q1.166-1.034 3.058-1.034 2.376 0 3.63 1.87t1.254 5.17V81.45h-6.16V66.577q0-1.011-.264-1.496-.264-.483-.924-.484-.616 0-1.056.528t-.924 1.584v14.74h-5.06V66.577q0-1.98-1.232-1.98-.616 0-1.056.528t-.88 1.584v14.74zM271.456 81.977q-1.672 0-2.992-.506-1.32-.505-2.244-1.408a6.4 6.4 0 0 1-1.43-2.09q-.506-1.188-.506-2.596 0-1.848.792-3.234t2.53-2.354 4.466-1.562 6.6-.814q-.176-1.495-1.298-2.332t-3.366-.836q-1.584 0-3.19.55t-3.454 1.474l-2.288-4.224a26 26 0 0 1 4.818-2.112 17.3 17.3 0 0 1 5.39-.836q4.576 0 7.216 2.42t2.64 7.436V81.45h-5.28l-.484-2.464h-.176a17.4 17.4 0 0 1-3.652 2.134q-1.98.858-4.092.858m2.068-5.016q1.452 0 2.728-.594 1.275-.594 2.42-1.474v-3.608q-2.42.132-4.004.44-1.584.309-2.508.77-.924.463-1.298 1.078a2.5 2.5 0 0 0-.374 1.32q0 1.056.814 1.562t2.222.506M291.168 81.45V59.624h5.28l.484 2.904h.176a14.4 14.4 0 0 1 3.234-2.42q1.825-1.011 4.29-1.012 3.696 0 5.412 2.376t1.716 6.512V81.45h-6.468V68.821q0-2.2-.704-3.212-.704-1.011-2.508-1.012-1.32 0-2.31.572-.99.573-2.134 1.716V81.45zM325.664 81.977q-2.068 0-3.762-.792a8.2 8.2 0 0 1-2.904-2.266q-1.21-1.474-1.87-3.586t-.66-4.796.792-4.796 2.09-3.586 2.97-2.266a8 8 0 0 1 3.476-.792q1.848 0 3.124.594 1.276.595 2.376 1.738h.176l-.308-3.388v-7.436h6.468V81.45h-5.28l-.484-2.244h-.132a11.3 11.3 0 0 1-2.816 1.98q-1.584.792-3.256.792m1.672-5.28q1.1 0 2.024-.462t1.804-1.562V65.83q-.88-.792-1.782-1.122a5.4 5.4 0 0 0-1.87-.33q-1.804.001-3.102 1.496-1.298 1.497-1.298 4.576 0 3.256 1.1 4.752t3.124 1.496M344.276 81.45v-5.237h7.524V60.065h-6.204v-4.004a45 45 0 0 0 2.53-.462q1.122-.24 2.046-.55a17 17 0 0 0 1.738-.682q.814-.373 1.606-.858h4.752v22.704h6.336v5.236z"/></g><g fill="#0A0A0A" fill-rule="nonzero"><path d="M781.092 81.977q-2.596 0-4.796-.77t-3.85-2.222-2.574-3.586-.924-4.862q0-2.727 1.034-4.862 1.034-2.133 2.772-3.586 1.738-1.451 4.026-2.222a15 15 0 0 1 4.796-.77q2.596.001 4.686.836 2.09.837 3.498 2.112l-2.992 4.004q-2.42-1.716-4.84-1.716-2.816 0-4.576 1.672-1.76 1.673-1.76 4.532t1.694 4.532q1.694 1.672 4.422 1.672 1.716 0 3.146-.616a14.5 14.5 0 0 0 2.618-1.452l2.596 4.092a12.8 12.8 0 0 1-4.356 2.442q-2.376.77-4.62.77M805.6 81.977q-2.155 0-4.158-.77a11 11 0 0 1-3.564-2.222q-1.562-1.452-2.486-3.586t-.924-4.862.924-4.862q.924-2.133 2.486-3.586a11 11 0 0 1 3.564-2.222q2.002-.77 4.158-.77 2.155 0 4.158.77a11 11 0 0 1 3.564 2.222q1.562 1.452 2.486 3.586t.924 4.862q0 2.73-.924 4.862-.924 2.134-2.486 3.586a11 11 0 0 1-3.564 2.222q-2.002.77-4.158.77m0-5.236q2.244 0 3.366-1.672t1.122-4.532-1.122-4.532-3.366-1.672-3.366 1.672-1.122 4.532 1.122 4.532 3.366 1.672M820.34 81.45V59.624h4.884l.44 2.684h.176q.616-1.32 1.716-2.266 1.1-.945 2.992-.946 1.408 0 2.398.902.99.904 1.386 2.662a6.8 6.8 0 0 1 1.782-2.53q1.166-1.034 3.058-1.034 2.376 0 3.63 1.87t1.254 5.17V81.45h-6.16V66.577q0-1.011-.264-1.496-.264-.483-.924-.484-.616 0-1.056.528t-.924 1.584v14.74h-5.06V66.577q0-1.98-1.232-1.98-.616 0-1.056.528t-.88 1.584v14.74zM846.74 81.45V59.624h4.884l.44 2.684h.176q.616-1.32 1.716-2.266 1.1-.945 2.992-.946 1.408 0 2.398.902.99.904 1.386 2.662a6.8 6.8 0 0 1 1.782-2.53q1.166-1.034 3.058-1.034 2.376 0 3.63 1.87t1.254 5.17V81.45h-6.16V66.577q0-1.011-.264-1.496-.264-.483-.924-.484-.616 0-1.056.528t-.924 1.584v14.74h-5.06V66.577q0-1.98-1.232-1.98-.616 0-1.056.528t-.88 1.584v14.74zM881.456 81.977q-1.672 0-2.992-.506-1.32-.505-2.244-1.408a6.4 6.4 0 0 1-1.43-2.09q-.506-1.188-.506-2.596 0-1.848.792-3.234t2.53-2.354 4.466-1.562 6.6-.814q-.176-1.495-1.298-2.332t-3.366-.836q-1.585 0-3.19.55-1.606.55-3.454 1.474l-2.288-4.224a26 26 0 0 1 4.818-2.112 17.3 17.3 0 0 1 5.39-.836q4.576 0 7.216 2.42t2.64 7.436V81.45h-5.28l-.484-2.464h-.176a17.4 17.4 0 0 1-3.652 2.134q-1.98.858-4.092.858m2.068-5.016q1.452 0 2.728-.594 1.275-.594 2.42-1.474v-3.608q-2.42.132-4.004.44-1.584.309-2.508.77-.924.463-1.298 1.078a2.5 2.5 0 0 0-.374 1.32q0 1.056.814 1.562t2.222.506M901.168 81.45V59.624h5.28l.484 2.904h.176a14.4 14.4 0 0 1 3.234-2.42q1.825-1.011 4.29-1.012 3.696 0 5.412 2.376t1.716 6.512V81.45h-6.468V68.821q0-2.2-.704-3.212-.704-1.011-2.508-1.012-1.32 0-2.31.572-.99.573-2.134 1.716V81.45zM935.664 81.977q-2.069 0-3.762-.792a8.2 8.2 0 0 1-2.904-2.266q-1.21-1.474-1.87-3.586t-.66-4.796.792-4.796 2.09-3.586 2.97-2.266a8 8 0 0 1 3.476-.792q1.848 0 3.124.594 1.276.595 2.376 1.738h.176l-.308-3.388v-7.436h6.468V81.45h-5.28l-.484-2.244h-.132a11.3 11.3 0 0 1-2.816 1.98q-1.584.792-3.256.792m1.672-5.28q1.1 0 2.024-.462t1.804-1.562V65.83q-.88-.792-1.782-1.122a5.4 5.4 0 0 0-1.87-.33q-1.804.001-3.102 1.496-1.298 1.497-1.298 4.576 0 3.256 1.1 4.752t3.124 1.496M963.076 81.977q-3.608 0-6.204-1.078-2.596-1.077-4.224-2.882l2.992-4.092a12.8 12.8 0 0 0 3.146 2.024 8.8 8.8 0 0 0 3.674.792q2.288 0 3.762-.858t1.474-2.442q0-.924-.396-1.672t-1.364-1.254q-.967-.505-2.596-.792-1.628-.285-4.092-.286v-4.576q4.135 0 5.83-1.034 1.694-1.033 1.694-2.706 0-1.452-1.1-2.266t-3.036-.814q-1.672 0-3.08.66t-2.86 1.804l-3.256-3.96a17.2 17.2 0 0 1 4.422-2.618q2.354-.946 5.082-.946 2.288.001 4.18.506 1.892.506 3.256 1.496t2.112 2.398q.748 1.409.748 3.256 0 2.2-1.408 3.718t-3.916 2.486v.176q2.64.706 4.444 2.398 1.804 1.695 1.804 4.422 0 1.936-.902 3.454a8 8 0 0 1-2.42 2.552q-1.518 1.035-3.542 1.584t-4.224.55"/></g><g transform="translate(732.337 130.55)"><path fill="#FEEDC1" stroke="#D97705" stroke-width="2.596" d="m289.13 13.606 20.383 29.358L289.13 72.32H2.458l20.046-29.357L2.458 13.606z"/><circle cx="140.367" cy="43" r="43" fill="#FCBF24"/><path fill="#D97705" fill-rule="nonzero" d="m98.422 42.034 11.329 15.256-6.778 1.202c6.202 14.919 20.836 24.917 37.358 24.917 16.98 0 31.972-10.56 37.86-26.188l.458-1.214 2.43.915-.458 1.215c-6.266 16.63-22.222 27.868-40.29 27.868-17.778 0-33.502-10.878-39.972-27.05l-7.327 1.3zM140.331-.078c17.777 0 33.501 10.878 39.972 27.05l7.326-1.3-5.39 18.221-11.329-15.255 6.778-1.203c-6.202-14.919-20.836-24.917-37.357-24.917-17.224 0-32.387 10.866-38.094 26.822l-.437 1.222-2.445-.874.438-1.222C105.866 11.486 122-.078 140.33-.078"/><g fill="#0A0A0A" fill-rule="nonzero"><path d="M43.015 51.233V38.18h-7.04v-2.087h9.595v15.14zm.997-18.317q-.872 0-1.464-.545-.592-.546-.592-1.449t.592-1.448q.593-.546 1.464-.546.873 0 1.464.546.592.545.592 1.448t-.592 1.449-1.464.545M54.76 51.233v-15.14h2.118l.218 2.586h.124q1.184-1.278 2.555-2.118 1.37-.841 3.146-.841 2.71 0 3.972 1.541 1.26 1.542 1.261 4.564v9.408H65.6v-9.065q0-2.15-.81-3.193t-2.679-1.044q-.685 0-1.262.172a4.8 4.8 0 0 0-1.137.514 8.7 8.7 0 0 0-1.152.856q-.592.515-1.246 1.2v10.56z"/></g><g fill="#0A0A0A" fill-rule="nonzero"><path d="M224.277 51.607a7.8 7.8 0 0 1-2.85-.53 7 7 0 0 1-2.383-1.542q-1.028-1.013-1.636-2.492t-.607-3.349q0-1.9.607-3.38t1.636-2.507a6.9 6.9 0 0 1 2.383-1.558 7.8 7.8 0 0 1 2.85-.53 7.8 7.8 0 0 1 2.85.53 6.9 6.9 0 0 1 2.383 1.558q1.028 1.027 1.636 2.507t.607 3.38q0 1.87-.607 3.349t-1.636 2.492a7 7 0 0 1-2.383 1.542 7.8 7.8 0 0 1-2.85.53m0-2.119q1.09 0 1.978-.42t1.527-1.184a5.4 5.4 0 0 0 .98-1.822q.344-1.06.343-2.368t-.342-2.383a5.5 5.5 0 0 0-.981-1.853 4.4 4.4 0 0 0-1.527-1.2q-.888-.42-1.978-.42t-1.978.42q-.887.42-1.526 1.2a5.5 5.5 0 0 0-.982 1.853q-.342 1.075-.342 2.383t.342 2.368.982 1.822q.638.764 1.526 1.184t1.978.42M241.286 51.607q-2.742 0-4.003-1.542T236.02 45.5v-9.408h2.586v9.065q0 2.15.794 3.193.795 1.044 2.695 1.044 1.308 0 2.367-.67 1.06-.67 2.336-2.134V36.093h2.555v15.14h-2.087l-.218-2.648h-.125q-1.152 1.34-2.508 2.18-1.355.842-3.13.842M264.587 51.607q-1.65 0-2.773-.452-1.121-.452-1.806-1.277-.685-.826-.982-1.978t-.296-2.555V38.18h-4.267v-1.93l4.36-.157.344-4.86h2.118v4.86h7.445v2.087h-7.445v7.196q0 1.029.187 1.792.186.763.623 1.292.435.53 1.184.795.747.264 1.837.265 1.091 0 1.963-.187t1.682-.499l.56 1.87q-1.026.373-2.164.638-1.137.264-2.57.265"/></g><g fill="#0A0A0A" fill-rule="nonzero"><path d="M132.434 51.607q-1.838 0-3.395-.545a8.2 8.2 0 0 1-2.726-1.574 7.1 7.1 0 0 1-1.822-2.538q-.654-1.511-.654-3.443 0-1.931.732-3.442a7.55 7.55 0 0 1 1.962-2.539 8.8 8.8 0 0 1 2.85-1.573 10.6 10.6 0 0 1 3.396-.545q1.837 0 3.318.592 1.48.592 2.476 1.495l-2.118 2.835q-1.714-1.215-3.427-1.215-1.994 0-3.24 1.184t-1.246 3.208 1.2 3.209q1.2 1.185 3.13 1.184 1.215 0 2.228-.436 1.013-.437 1.853-1.028l1.838 2.897a9.1 9.1 0 0 1-3.084 1.729q-1.682.545-3.27.545M149.131 51.607q-2.554 0-4.392-.763-1.838-.765-2.99-2.04l2.118-2.898a9 9 0 0 0 2.227 1.433 6.2 6.2 0 0 0 2.601.56q1.62 0 2.664-.607 1.043-.607 1.043-1.729 0-.654-.28-1.183-.28-.53-.966-.888-.686-.359-1.838-.56-1.152-.203-2.897-.203v-3.24q2.928 0 4.128-.732t1.2-1.916q0-1.028-.78-1.604-.778-.577-2.15-.577-1.182 0-2.18.468-.997.467-2.025 1.277L142.31 33.6a12.2 12.2 0 0 1 3.131-1.853q1.666-.67 3.598-.67 1.62 0 2.96.358 1.338.359 2.305 1.06a4.96 4.96 0 0 1 1.495 1.697q.53.997.53 2.305 0 1.558-.997 2.633-.998 1.074-2.773 1.76v.124q1.87.499 3.146 1.698 1.278 1.2 1.278 3.13 0 1.372-.639 2.446a5.7 5.7 0 0 1-1.713 1.807q-1.076.732-2.508 1.121-1.433.39-2.99.39"/></g></g><g transform="translate(426.337 130.55)"><path fill="#FEEDC1" stroke="#D97705" stroke-width="2.596" d="m289.13 13.606 20.383 29.358L289.13 72.32H2.458l20.046-29.357L2.458 13.606z"/><circle cx="140.367" cy="43" r="43" fill="#FCBF24"/><path fill="#D97705" fill-rule="nonzero" d="m98.422 42.034 11.329 15.256-6.778 1.202c6.202 14.919 20.836 24.917 37.358 24.917 16.98 0 31.972-10.56 37.86-26.188l.458-1.214 2.43.915-.458 1.215c-6.266 16.63-22.222 27.868-40.29 27.868-17.778 0-33.502-10.878-39.972-27.05l-7.327 1.3zM140.331-.078c17.777 0 33.501 10.878 39.972 27.05l7.326-1.3-5.39 18.221-11.329-15.255 6.778-1.203c-6.202-14.919-20.836-24.917-37.357-24.917-17.224 0-32.387 10.866-38.094 26.822l-.437 1.222-2.445-.874.438-1.222C105.866 11.486 122-.078 140.33-.078"/><g fill="#0A0A0A" fill-rule="nonzero"><path d="M43.015 51.233V38.18h-7.04v-2.087h9.595v15.14zm.997-18.317q-.872 0-1.464-.545-.592-.546-.592-1.449t.592-1.448q.593-.546 1.464-.546.873 0 1.464.546.592.545.592 1.448t-.592 1.449-1.464.545M54.76 51.233v-15.14h2.118l.218 2.586h.124q1.184-1.278 2.555-2.118 1.37-.841 3.146-.841 2.71 0 3.972 1.541 1.26 1.542 1.261 4.564v9.408H65.6v-9.065q0-2.15-.81-3.193t-2.679-1.044q-.685 0-1.262.172a4.8 4.8 0 0 0-1.137.514 8.7 8.7 0 0 0-1.152.856q-.592.515-1.246 1.2v10.56z"/></g><g fill="#0A0A0A" fill-rule="nonzero"><path d="M224.277 51.607a7.8 7.8 0 0 1-2.85-.53 7 7 0 0 1-2.383-1.542q-1.028-1.013-1.636-2.492t-.607-3.349q0-1.9.607-3.38t1.636-2.507a6.9 6.9 0 0 1 2.383-1.558 7.8 7.8 0 0 1 2.85-.53 7.8 7.8 0 0 1 2.85.53 6.9 6.9 0 0 1 2.383 1.558q1.028 1.027 1.636 2.507t.607 3.38q0 1.87-.607 3.349t-1.636 2.492a7 7 0 0 1-2.383 1.542 7.8 7.8 0 0 1-2.85.53m0-2.119q1.09 0 1.978-.42t1.527-1.184a5.4 5.4 0 0 0 .98-1.822q.344-1.06.343-2.368t-.342-2.383a5.5 5.5 0 0 0-.981-1.853 4.4 4.4 0 0 0-1.527-1.2q-.888-.42-1.978-.42t-1.978.42q-.887.42-1.526 1.2a5.5 5.5 0 0 0-.982 1.853q-.342 1.075-.342 2.383t.342 2.368.982 1.822q.638.764 1.526 1.184t1.978.42M241.286 51.607q-2.742 0-4.003-1.542T236.02 45.5v-9.408h2.586v9.065q0 2.15.794 3.193.795 1.044 2.695 1.044 1.308 0 2.367-.67 1.06-.67 2.336-2.134V36.093h2.555v15.14h-2.087l-.218-2.648h-.125q-1.152 1.34-2.508 2.18-1.355.842-3.13.842M264.587 51.607q-1.65 0-2.773-.452-1.121-.452-1.806-1.277-.685-.826-.982-1.978t-.296-2.555V38.18h-4.267v-1.93l4.36-.157.344-4.86h2.118v4.86h7.445v2.087h-7.445v7.196q0 1.029.187 1.792.186.763.623 1.292.435.53 1.184.795.747.264 1.837.265 1.091 0 1.963-.187t1.682-.499l.56 1.87q-1.026.373-2.164.638-1.137.264-2.57.265"/></g><g fill="#0A0A0A" fill-rule="nonzero"><path d="M132.434 51.607q-1.838 0-3.395-.545a8.2 8.2 0 0 1-2.726-1.574 7.1 7.1 0 0 1-1.822-2.538q-.654-1.511-.654-3.443 0-1.931.732-3.442a7.55 7.55 0 0 1 1.962-2.539 8.8 8.8 0 0 1 2.85-1.573 10.6 10.6 0 0 1 3.396-.545q1.837 0 3.318.592 1.48.592 2.476 1.495l-2.118 2.835q-1.714-1.215-3.427-1.215-1.994 0-3.24 1.184t-1.246 3.208 1.2 3.209q1.2 1.185 3.13 1.184 1.215 0 2.228-.436 1.013-.437 1.853-1.028l1.838 2.897a9.1 9.1 0 0 1-3.084 1.729q-1.682.545-3.27.545M142.247 51.233v-2.617a195 195 0 0 0 3.863-3.317 43 43 0 0 0 2.99-2.882q1.246-1.34 1.932-2.523t.685-2.243q0-1.465-.841-2.227-.84-.764-2.399-.764-1.183 0-2.165.608-.98.607-1.822 1.417l-2.461-2.46q.78-.78 1.542-1.371a8 8 0 0 1 1.62-.982 8.8 8.8 0 0 1 1.807-.592 10 10 0 0 1 2.102-.202q1.558 0 2.835.452a6.5 6.5 0 0 1 2.196 1.277q.919.826 1.433 1.978t.514 2.586q0 1.246-.592 2.538-.591 1.293-1.604 2.586a27 27 0 0 1-2.32 2.586 59 59 0 0 1-2.742 2.538q.84-.093 1.822-.17.981-.08 1.76-.079h4.704v3.863z"/></g></g><g transform="translate(113.57 130.55)"><path fill="#FEEDC1" stroke="#D97705" stroke-width="2.596" d="m295.97 13.606 20.382 29.358L295.97 72.32H1.298V13.606z"/><circle cx="147.206" cy="43" r="43" fill="#FCBF24"/><path fill="#D97705" fill-rule="nonzero" d="M105.262 42.034 116.59 57.29l-6.778 1.202c6.202 14.919 20.836 24.917 37.358 24.917 16.98 0 31.973-10.56 37.86-26.188l.458-1.214 2.43.915-.458 1.215c-6.266 16.63-22.221 27.868-40.29 27.868-17.778 0-33.501-10.878-39.972-27.05l-7.327 1.3zM147.17-.078c17.778 0 33.501 10.878 39.972 27.05l7.326-1.3-5.39 18.221-11.328-15.255 6.777-1.203c-6.202-14.919-20.835-24.917-37.357-24.917-17.224 0-32.387 10.866-38.094 26.822l-.437 1.222-2.444-.874.437-1.222C112.705 11.486 128.84-.078 147.17-.078"/><g fill="#0A0A0A" fill-rule="nonzero"><path d="M43.332 51.233V38.18h-7.04v-2.087h9.594v15.14zm.997-18.317q-.873 0-1.464-.545-.592-.546-.592-1.449t.592-1.448 1.464-.546 1.464.546.592 1.448q0 .903-.592 1.449-.593.545-1.464.545M55.076 51.233v-15.14h2.118l.218 2.586h.125q1.184-1.278 2.554-2.118 1.371-.841 3.147-.841 2.71 0 3.972 1.541 1.26 1.542 1.261 4.564v9.408h-2.554v-9.065q0-2.15-.81-3.193t-2.68-1.044q-.685 0-1.26.172a4.8 4.8 0 0 0-1.138.514 8.7 8.7 0 0 0-1.152.856q-.592.515-1.247 1.2v10.56z"/></g><g fill="#0A0A0A" fill-rule="nonzero"><path d="M231.116 51.607a7.8 7.8 0 0 1-2.85-.53 7 7 0 0 1-2.383-1.542q-1.027-1.013-1.636-2.492-.607-1.48-.607-3.349 0-1.9.607-3.38t1.636-2.507a6.9 6.9 0 0 1 2.383-1.558 7.8 7.8 0 0 1 2.85-.53 7.8 7.8 0 0 1 2.85.53 6.9 6.9 0 0 1 2.384 1.558q1.027 1.027 1.635 2.507t.608 3.38q0 1.87-.608 3.349-.607 1.48-1.635 2.492a7 7 0 0 1-2.383 1.542 7.8 7.8 0 0 1-2.85.53m0-2.119q1.091 0 1.978-.42.888-.42 1.527-1.184a5.4 5.4 0 0 0 .981-1.822q.343-1.06.343-2.368t-.343-2.383a5.5 5.5 0 0 0-.981-1.853 4.4 4.4 0 0 0-1.527-1.2q-.886-.42-1.978-.42-1.09 0-1.978.42t-1.526 1.2a5.5 5.5 0 0 0-.981 1.853q-.343 1.075-.343 2.383t.343 2.368.98 1.822q.64.764 1.527 1.184.888.42 1.978.42M248.125 51.607q-2.742 0-4.003-1.542T242.86 45.5v-9.408h2.586v9.065q0 2.15.794 3.193.795 1.044 2.695 1.044 1.308 0 2.367-.67 1.06-.67 2.337-2.134V36.093h2.554v15.14h-2.087l-.218-2.648h-.125q-1.152 1.34-2.507 2.18-1.356.842-3.131.842M271.426 51.607q-1.65 0-2.772-.452t-1.807-1.277-.981-1.978-.296-2.555V38.18h-4.268v-1.93l4.361-.157.343-4.86h2.118v4.86h7.445v2.087h-7.445v7.196q0 1.029.187 1.792t.623 1.292q.435.53 1.184.795.746.264 1.838.265 1.09 0 1.962-.187.873-.187 1.683-.499l.56 1.87q-1.028.373-2.165.638-1.136.264-2.57.265"/></g><g fill="#0A0A0A" fill-rule="nonzero"><path d="M139.273 51.607q-1.838 0-3.395-.545a8.2 8.2 0 0 1-2.726-1.574 7.1 7.1 0 0 1-1.822-2.538q-.654-1.512-.654-3.443t.732-3.442a7.55 7.55 0 0 1 1.962-2.539 8.8 8.8 0 0 1 2.85-1.573 10.6 10.6 0 0 1 3.396-.545q1.837 0 3.318.592 1.48.591 2.476 1.495l-2.118 2.835q-1.713-1.215-3.427-1.215-1.994 0-3.24 1.184-1.245 1.183-1.245 3.208t1.199 3.209q1.2 1.184 3.13 1.184 1.215 0 2.228-.436 1.013-.437 1.853-1.028l1.838 2.897a9.1 9.1 0 0 1-3.084 1.729q-1.681.545-3.27.545M149.74 51.233v-3.707h5.327V36.093h-4.392V33.26a32 32 0 0 0 1.791-.328q.795-.171 1.449-.389t1.23-.483 1.137-.607h3.364v16.074h4.486v3.707z"/></g></g><g fill="#0A0A0A" fill-rule="nonzero"><path d="M476.092 81.977q-2.596 0-4.796-.77t-3.85-2.222-2.574-3.586-.924-4.862q0-2.727 1.034-4.862 1.034-2.133 2.772-3.586 1.738-1.451 4.026-2.222a15 15 0 0 1 4.796-.77q2.596.001 4.686.836 2.09.837 3.498 2.112l-2.992 4.004q-2.42-1.716-4.84-1.716-2.816 0-4.576 1.672-1.76 1.673-1.76 4.532t1.694 4.532q1.694 1.672 4.422 1.672 1.716 0 3.146-.616a14.5 14.5 0 0 0 2.618-1.452l2.596 4.092a12.8 12.8 0 0 1-4.356 2.442q-2.376.77-4.62.77M500.6 81.977q-2.156 0-4.158-.77a11 11 0 0 1-3.564-2.222q-1.562-1.452-2.486-3.586t-.924-4.862.924-4.862q.924-2.133 2.486-3.586a11 11 0 0 1 3.564-2.222q2.002-.77 4.158-.77 2.155 0 4.158.77a11 11 0 0 1 3.564 2.222q1.562 1.452 2.486 3.586t.924 4.862q0 2.73-.924 4.862-.924 2.134-2.486 3.586a11 11 0 0 1-3.564 2.222q-2.002.77-4.158.77m0-5.236q2.244 0 3.366-1.672t1.122-4.532-1.122-4.532-3.366-1.672-3.366 1.672-1.122 4.532 1.122 4.532 3.366 1.672M515.34 81.45V59.624h4.884l.44 2.684h.176q.616-1.32 1.716-2.266 1.1-.945 2.992-.946 1.408 0 2.398.902.99.904 1.386 2.662a6.8 6.8 0 0 1 1.782-2.53q1.166-1.034 3.058-1.034 2.376 0 3.63 1.87t1.254 5.17V81.45h-6.16V66.577q0-1.011-.264-1.496-.264-.483-.924-.484-.616 0-1.056.528t-.924 1.584v14.74h-5.06V66.577q0-1.98-1.232-1.98-.616 0-1.056.528t-.88 1.584v14.74zM541.74 81.45V59.624h4.884l.44 2.684h.176q.616-1.32 1.716-2.266 1.1-.945 2.992-.946 1.408 0 2.398.902.99.904 1.386 2.662a6.8 6.8 0 0 1 1.782-2.53q1.166-1.034 3.058-1.034 2.376 0 3.63 1.87t1.254 5.17V81.45h-6.16V66.577q0-1.011-.264-1.496-.264-.483-.924-.484-.616 0-1.056.528t-.924 1.584v14.74h-5.06V66.577q0-1.98-1.232-1.98-.616 0-1.056.528t-.88 1.584v14.74zM576.456 81.977q-1.672 0-2.992-.506-1.32-.505-2.244-1.408a6.4 6.4 0 0 1-1.43-2.09q-.506-1.188-.506-2.596 0-1.848.792-3.234t2.53-2.354 4.466-1.562 6.6-.814q-.176-1.495-1.298-2.332t-3.366-.836q-1.584 0-3.19.55t-3.454 1.474l-2.288-4.224a26 26 0 0 1 4.818-2.112 17.3 17.3 0 0 1 5.39-.836q4.576 0 7.216 2.42t2.64 7.436V81.45h-5.28l-.484-2.464h-.176a17.4 17.4 0 0 1-3.652 2.134q-1.98.858-4.092.858m2.068-5.016q1.452 0 2.728-.594 1.275-.594 2.42-1.474v-3.608q-2.42.132-4.004.44-1.584.309-2.508.77-.924.463-1.298 1.078a2.5 2.5 0 0 0-.374 1.32q0 1.056.814 1.562t2.222.506M596.168 81.45V59.624h5.28l.484 2.904h.176a14.4 14.4 0 0 1 3.234-2.42q1.826-1.011 4.29-1.012 3.696 0 5.412 2.376t1.716 6.512V81.45h-6.468V68.821q0-2.2-.704-3.212-.704-1.011-2.508-1.012-1.32 0-2.31.572-.99.573-2.134 1.716V81.45zM630.664 81.977q-2.069 0-3.762-.792a8.2 8.2 0 0 1-2.904-2.266q-1.21-1.474-1.87-3.586t-.66-4.796.792-4.796 2.09-3.586 2.97-2.266a8 8 0 0 1 3.476-.792q1.848 0 3.124.594 1.276.595 2.376 1.738h.176l-.308-3.388v-7.436h6.468V81.45h-5.28l-.484-2.244h-.132a11.3 11.3 0 0 1-2.816 1.98q-1.584.792-3.256.792m1.672-5.28q1.1 0 2.024-.462t1.804-1.562V65.83q-.88-.792-1.782-1.122a5.4 5.4 0 0 0-1.87-.33q-1.804.001-3.102 1.496-1.298 1.497-1.298 4.576 0 3.256 1.1 4.752t3.124 1.496M648.352 81.45v-3.697a276 276 0 0 0 5.456-4.686q2.464-2.178 4.224-4.07 1.76-1.89 2.728-3.564.968-1.671.968-3.168 0-2.067-1.188-3.146t-3.388-1.078a5.7 5.7 0 0 0-3.058.858 15.4 15.4 0 0 0-2.574 2.002l-3.476-3.476a23 23 0 0 1 2.178-1.936 11.5 11.5 0 0 1 2.288-1.386 12.4 12.4 0 0 1 2.552-.836q1.342-.286 2.97-.286 2.2 0 4.004.638 1.804.639 3.102 1.804a8.2 8.2 0 0 1 2.024 2.794q.726 1.629.726 3.652 0 1.762-.836 3.586-.836 1.827-2.266 3.652a39 39 0 0 1-3.278 3.652 83 83 0 0 1-3.872 3.586q1.188-.132 2.574-.242a32 32 0 0 1 2.486-.11h6.644v5.456z"/></g></g></svg>
