<?xml version="1.0" encoding="UTF-8"?>
<svg width="1158px" height="252px" viewBox="0 0 1158 252" version="1.1" xmlns="http://www.w3.org/2000/svg" xmlns:xlink="http://www.w3.org/1999/xlink">
    <title>chapter-01-command-line-example</title>
    <g id="chapter-01-command-line-example" stroke="none" stroke-width="1" fill="none" fill-rule="evenodd">
        <rect id="Border" stroke="#BFBFBF" stroke-width="2" fill="#FFFFFF" x="1.88981389" y="1.03666292" width="1154" height="246" rx="10"></rect>
        <g id="Titlebar" transform="translate(2.8438, 2.0367)">
            <path d="M1142,-1 C1145.03757,-1 1147.78757,0.231216938 1149.77817,2.22182541 C1151.76878,4.21243388 1153,6.96243388 1153,10 L1153,35 L-1,35 L-1,10 C-1,6.96243388 0.231216938,4.21243388 2.22182541,2.22182541 C4.21243388,0.231216938 6.96243388,-1 10,-1 L1142,-1 Z" stroke="#BFBFBF" stroke-width="2" fill="#EBEBEB"></path>
            <circle id="Oval" stroke="#979797" fill="#D8D8D8" cx="17.1562081" cy="17" r="5.5"></circle>
            <circle id="Oval" stroke="#979797" fill="#D8D8D8" cx="35.8795419" cy="17" r="5.5"></circle>
            <circle id="Oval" stroke="#979797" fill="#D8D8D8" cx="54.6028757" cy="17" r="5.5"></circle>
        </g>
        <g id="command-line" transform="translate(615.4508, 207.258)" fill="#D97705" fill-rule="nonzero">
            <path d="M8.856,16.2 C8.376,16.552 7.808,16.82 7.152,17.004 C6.496,17.188 5.808,17.28 5.088,17.28 C4.16,17.28 3.376,17.132 2.736,16.836 C2.096,16.54 1.572,16.116 1.164,15.564 C0.756,15.012 0.46,14.348 0.276,13.572 C0.092,12.796 -4.54747351e-13,11.936 -4.54747351e-13,10.992 C-4.54747351e-13,8.96 0.448,7.404 1.344,6.324 C2.24,5.244 3.528,4.704 5.208,4.704 C5.976,4.704 6.628,4.764 7.164,4.884 C7.7,5.004 8.184,5.176 8.616,5.4 L8.064,7.056 C7.696,6.848 7.288,6.684 6.84,6.564 C6.392,6.444 5.912,6.384 5.4,6.384 C3.128,6.384 1.992,7.92 1.992,10.992 C1.992,11.6 2.052,12.18 2.172,12.732 C2.292,13.284 2.492,13.772 2.772,14.196 C3.052,14.62 3.42,14.96 3.876,15.216 C4.332,15.472 4.896,15.6 5.568,15.6 C6.144,15.6 6.66,15.512 7.116,15.336 C7.572,15.16 7.944,14.96 8.232,14.736 L8.856,16.2 Z" id="Path"></path>
            <path d="M10.272,10.992 C10.272,8.96 10.724,7.404 11.628,6.324 C12.532,5.244 13.832,4.704 15.528,4.704 C16.424,4.704 17.204,4.852 17.868,5.148 C18.532,5.444 19.08,5.868 19.512,6.42 C19.944,6.972 20.264,7.636 20.472,8.412 C20.68,9.188 20.784,10.048 20.784,10.992 C20.784,13.024 20.332,14.58 19.428,15.66 C18.524,16.74 17.224,17.28 15.528,17.28 C14.632,17.28 13.852,17.132 13.188,16.836 C12.524,16.54 11.976,16.116 11.544,15.564 C11.112,15.012 10.792,14.348 10.584,13.572 C10.376,12.796 10.272,11.936 10.272,10.992 Z M12.264,10.992 C12.264,11.6 12.324,12.184 12.444,12.744 C12.564,13.304 12.752,13.792 13.008,14.208 C13.264,14.624 13.6,14.96 14.016,15.216 C14.432,15.472 14.936,15.6 15.528,15.6 C17.704,15.616 18.792,14.08 18.792,10.992 C18.792,10.368 18.732,9.776 18.612,9.216 C18.492,8.656 18.304,8.168 18.048,7.752 C17.792,7.336 17.456,7.004 17.04,6.756 C16.624,6.508 16.12,6.384 15.528,6.384 C13.352,6.368 12.264,7.904 12.264,10.992 Z" id="Shape"></path>
            <path d="M30.84,16.992 L30.84,10.2 C30.84,9.56 30.812,9.004 30.756,8.532 C30.7,8.06 30.592,7.664 30.432,7.344 C30.272,7.024 30.044,6.784 29.748,6.624 C29.452,6.464 29.064,6.384 28.584,6.384 C27.848,6.384 27.236,6.608 26.748,7.056 C26.26,7.504 25.92,8.064 25.728,8.736 L25.728,16.992 L23.808,16.992 L23.808,4.992 L25.152,4.992 L25.512,6.456 L25.608,6.456 C26.04,5.944 26.54,5.524 27.108,5.196 C27.676,4.868 28.416,4.704 29.328,4.704 C30.096,4.704 30.724,4.852 31.212,5.148 C31.7,5.444 32.08,5.96 32.352,6.696 C32.72,6.072 33.228,5.584 33.876,5.232 C34.524,4.88 35.256,4.704 36.072,4.704 C36.744,4.704 37.312,4.78 37.776,4.932 C38.24,5.084 38.624,5.352 38.928,5.736 C39.232,6.12 39.452,6.64 39.588,7.296 C39.724,7.952 39.792,8.784 39.792,9.792 L39.792,16.992 L37.872,16.992 L37.872,9.768 C37.872,9.192 37.844,8.692 37.788,8.268 C37.732,7.844 37.62,7.492 37.452,7.212 C37.284,6.932 37.052,6.724 36.756,6.588 C36.46,6.452 36.072,6.384 35.592,6.384 C34.792,6.384 34.168,6.608 33.72,7.056 C33.272,7.504 32.952,8.144 32.76,8.976 L32.76,16.992 L30.84,16.992 Z" id="Path"></path>
            <path d="M50.328,16.992 L50.328,10.2 C50.328,9.56 50.3,9.004 50.244,8.532 C50.188,8.06 50.08,7.664 49.92,7.344 C49.76,7.024 49.532,6.784 49.236,6.624 C48.94,6.464 48.552,6.384 48.072,6.384 C47.336,6.384 46.724,6.608 46.236,7.056 C45.748,7.504 45.408,8.064 45.216,8.736 L45.216,16.992 L43.296,16.992 L43.296,4.992 L44.64,4.992 L45,6.456 L45.096,6.456 C45.528,5.944 46.028,5.524 46.596,5.196 C47.164,4.868 47.904,4.704 48.816,4.704 C49.584,4.704 50.212,4.852 50.7,5.148 C51.188,5.444 51.568,5.96 51.84,6.696 C52.208,6.072 52.716,5.584 53.364,5.232 C54.012,4.88 54.744,4.704 55.56,4.704 C56.232,4.704 56.8,4.78 57.264,4.932 C57.728,5.084 58.112,5.352 58.416,5.736 C58.72,6.12 58.94,6.64 59.076,7.296 C59.212,7.952 59.28,8.784 59.28,9.792 L59.28,16.992 L57.36,16.992 L57.36,9.768 C57.36,9.192 57.332,8.692 57.276,8.268 C57.22,7.844 57.108,7.492 56.94,7.212 C56.772,6.932 56.54,6.724 56.244,6.588 C55.948,6.452 55.56,6.384 55.08,6.384 C54.28,6.384 53.656,6.608 53.208,7.056 C52.76,7.504 52.44,8.144 52.248,8.976 L52.248,16.992 L50.328,16.992 Z" id="Path"></path>
            <path d="M62.592,5.88 C63.2,5.512 63.908,5.24 64.716,5.064 C65.524,4.888 66.368,4.8 67.248,4.8 C68.08,4.8 68.748,4.912 69.252,5.136 C69.756,5.36 70.14,5.652 70.404,6.012 C70.668,6.372 70.844,6.768 70.932,7.2 C71.02,7.632 71.064,8.064 71.064,8.496 C71.064,9.456 71.04,10.392 70.992,11.304 C70.944,12.216 70.92,13.08 70.92,13.896 C70.92,14.488 70.944,15.048 70.992,15.576 C71.04,16.104 71.128,16.592 71.256,17.04 L69.84,17.04 L69.336,15.36 L69.216,15.36 C69.072,15.584 68.892,15.804 68.676,16.02 C68.46,16.236 68.2,16.428 67.896,16.596 C67.592,16.764 67.24,16.904 66.84,17.016 C66.44,17.128 65.984,17.184 65.472,17.184 C64.96,17.184 64.484,17.104 64.044,16.944 C63.604,16.784 63.224,16.556 62.904,16.26 C62.584,15.964 62.332,15.608 62.148,15.192 C61.964,14.776 61.872,14.304 61.872,13.776 C61.872,13.072 62.016,12.484 62.304,12.012 C62.592,11.54 62.996,11.164 63.516,10.884 C64.036,10.604 64.66,10.404 65.388,10.284 C66.116,10.164 66.92,10.104 67.8,10.104 C68.024,10.104 68.244,10.104 68.46,10.104 C68.676,10.104 68.896,10.12 69.12,10.152 C69.168,9.672 69.192,9.24 69.192,8.856 C69.192,7.976 69.016,7.36 68.664,7.008 C68.312,6.656 67.672,6.48 66.744,6.48 C66.472,6.48 66.18,6.5 65.868,6.54 C65.556,6.58 65.236,6.636 64.908,6.708 C64.58,6.78 64.268,6.868 63.972,6.972 C63.676,7.076 63.416,7.192 63.192,7.32 L62.592,5.88 Z M66,15.504 C66.448,15.504 66.848,15.444 67.2,15.324 C67.552,15.204 67.856,15.052 68.112,14.868 C68.368,14.684 68.58,14.48 68.748,14.256 C68.916,14.032 69.04,13.816 69.12,13.608 L69.12,11.616 C68.896,11.6 68.668,11.588 68.436,11.58 C68.204,11.572 67.976,11.568 67.752,11.568 C67.256,11.568 66.772,11.596 66.3,11.652 C65.828,11.708 65.412,11.812 65.052,11.964 C64.692,12.116 64.404,12.324 64.188,12.588 C63.972,12.852 63.864,13.184 63.864,13.584 C63.864,14.144 64.064,14.604 64.464,14.964 C64.864,15.324 65.376,15.504 66,15.504 Z" id="Shape"></path>
            <path d="M82.392,16.992 L82.392,10.152 C82.392,8.904 82.212,7.964 81.852,7.332 C81.492,6.7 80.832,6.384 79.872,6.384 C79.024,6.384 78.324,6.612 77.772,7.068 C77.22,7.524 76.832,8.096 76.608,8.784 L76.608,16.992 L74.688,16.992 L74.688,4.992 L76.032,4.992 L76.392,6.456 L76.488,6.456 C76.872,5.944 77.388,5.524 78.036,5.196 C78.684,4.868 79.456,4.704 80.352,4.704 C81.008,4.704 81.584,4.78 82.08,4.932 C82.576,5.084 82.988,5.352 83.316,5.736 C83.644,6.12 83.892,6.636 84.06,7.284 C84.228,7.932 84.312,8.752 84.312,9.744 L84.312,16.992 L82.392,16.992 Z" id="Path"></path>
            <path d="M97.032,12.864 C97.032,13.68 97.04,14.42 97.056,15.084 C97.072,15.748 97.144,16.4 97.272,17.04 L95.976,17.04 L95.496,15.336 L95.4,15.336 C95.08,15.896 94.616,16.36 94.008,16.728 C93.4,17.096 92.688,17.28 91.872,17.28 C90.272,17.28 89.084,16.776 88.308,15.768 C87.532,14.76 87.144,13.184 87.144,11.04 C87.144,8.992 87.628,7.436 88.596,6.372 C89.564,5.308 90.896,4.776 92.592,4.776 C93.184,4.776 93.652,4.808 93.996,4.872 C94.34,4.936 94.712,5.04 95.112,5.184 L95.112,0.192 L97.032,0.192 L97.032,12.864 Z M92.184,15.6 C93,15.6 93.648,15.388 94.128,14.964 C94.608,14.54 94.936,13.896 95.112,13.032 L95.112,7.08 C94.824,6.856 94.496,6.696 94.128,6.6 C93.76,6.504 93.272,6.456 92.664,6.456 C91.56,6.456 90.696,6.82 90.072,7.548 C89.448,8.276 89.136,9.44 89.136,11.04 C89.136,11.696 89.188,12.304 89.292,12.864 C89.396,13.424 89.568,13.904 89.808,14.304 C90.048,14.704 90.364,15.02 90.756,15.252 C91.148,15.484 91.624,15.6 92.184,15.6 Z" id="Shape"></path>
            <path d="M109.272,14.04 C109.272,14.6 109.368,15 109.56,15.24 C109.752,15.48 110.024,15.6 110.376,15.6 C110.584,15.6 110.808,15.584 111.048,15.552 C111.288,15.52 111.56,15.448 111.864,15.336 L112.08,16.848 C111.824,16.976 111.468,17.08 111.012,17.16 C110.556,17.24 110.16,17.28 109.824,17.28 C109.104,17.28 108.512,17.076 108.048,16.668 C107.584,16.26 107.352,15.568 107.352,14.592 L107.352,0.192 L109.272,0.192 L109.272,14.04 Z" id="Path"></path>
            <path d="M114.552,4.992 L116.472,4.992 L116.472,16.992 L114.552,16.992 L114.552,4.992 Z M114.144,1.344 C114.144,0.976 114.268,0.66 114.516,0.396 C114.764,0.132 115.08,0 115.464,0 C115.848,0 116.176,0.132 116.448,0.396 C116.72,0.66 116.856,0.976 116.856,1.344 C116.856,1.712 116.72,2.016 116.448,2.256 C116.176,2.496 115.848,2.616 115.464,2.616 C115.08,2.616 114.764,2.496 114.516,2.256 C114.268,2.016 114.144,1.712 114.144,1.344 Z" id="Shape"></path>
            <path d="M128.28,16.992 L128.28,10.152 C128.28,8.904 128.1,7.964 127.74,7.332 C127.38,6.7 126.72,6.384 125.76,6.384 C124.912,6.384 124.212,6.612 123.66,7.068 C123.108,7.524 122.72,8.096 122.496,8.784 L122.496,16.992 L120.576,16.992 L120.576,4.992 L121.92,4.992 L122.28,6.456 L122.376,6.456 C122.76,5.944 123.276,5.524 123.924,5.196 C124.572,4.868 125.344,4.704 126.24,4.704 C126.896,4.704 127.472,4.78 127.968,4.932 C128.464,5.084 128.876,5.352 129.204,5.736 C129.532,6.12 129.78,6.636 129.948,7.284 C130.116,7.932 130.2,8.752 130.2,9.744 L130.2,16.992 L128.28,16.992 Z" id="Path"></path>
            <path d="M142.464,16.032 C141.984,16.416 141.38,16.72 140.652,16.944 C139.924,17.168 139.152,17.28 138.336,17.28 C137.424,17.28 136.632,17.132 135.96,16.836 C135.288,16.54 134.736,16.116 134.304,15.564 C133.872,15.012 133.552,14.352 133.344,13.584 C133.136,12.816 133.032,11.952 133.032,10.992 C133.032,8.944 133.488,7.384 134.4,6.312 C135.312,5.24 136.616,4.704 138.312,4.704 C138.856,4.704 139.4,4.764 139.944,4.884 C140.488,5.004 140.976,5.232 141.408,5.568 C141.84,5.904 142.192,6.38 142.464,6.996 C142.736,7.612 142.872,8.424 142.872,9.432 C142.872,9.96 142.824,10.544 142.728,11.184 L135.024,11.184 C135.024,11.888 135.096,12.512 135.24,13.056 C135.384,13.6 135.608,14.06 135.912,14.436 C136.216,14.812 136.612,15.1 137.1,15.3 C137.588,15.5 138.184,15.6 138.888,15.6 C139.432,15.6 139.976,15.504 140.52,15.312 C141.064,15.12 141.472,14.896 141.744,14.64 L142.464,16.032 Z M138.336,6.384 C137.392,6.384 136.636,6.632 136.068,7.128 C135.5,7.624 135.16,8.472 135.048,9.672 L141,9.672 C141,8.456 140.768,7.604 140.304,7.116 C139.84,6.628 139.184,6.384 138.336,6.384 Z" id="Shape"></path>
        </g>
        <line x1="138.85" y1="179.37505" x2="138.85" y2="202.25" id="Line-2" stroke="#D97705" stroke-width="2" stroke-linecap="square"></line>
        <path id="Line-2" d="M17.9,186.37495 C14.0340068,186.37495 10.9,183.240943 10.9,179.37495 C10.9,175.508957 14.0340068,172.37495 17.9,172.37495 C21.4261219,172.37495 24.3433024,174.982138 24.8289666,178.37394 L252.871033,178.37394 C253.356698,174.982138 256.273878,172.37495 259.8,172.37495 C263.665993,172.37495 266.8,175.508957 266.8,179.37495 C266.8,183.240943 263.665993,186.37495 259.8,186.37495 C256.273531,186.37495 253.356123,183.767248 252.87089,180.374958 L24.82911,180.374958 C24.3438768,183.767248 21.4264691,186.37495 17.9,186.37495 Z M259.8,174.37495 C257.038576,174.37495 254.8,176.613526 254.8,179.37495 C254.8,182.136374 257.038576,184.37495 259.8,184.37495 C262.561424,184.37495 264.8,182.136374 264.8,179.37495 C264.8,176.613526 262.561424,174.37495 259.8,174.37495 Z M17.9,174.37495 C15.1385763,174.37495 12.9,176.613526 12.9,179.37495 C12.9,182.136374 15.1385763,184.37495 17.9,184.37495 C20.6614237,184.37495 22.9,182.136374 22.9,179.37495 C22.9,176.613526 20.6614237,174.37495 17.9,174.37495 Z" fill="#D97705" fill-rule="nonzero"></path>
        <path id="Line-2" d="M288.80417,172 C292.670163,172 295.80417,175.134007 295.80417,179 C295.80417,182.526394 293.196579,185.443752 289.804395,185.929079 L289.80417,203.25 L287.80417,203.25 L287.804161,185.92911 C284.411871,185.443877 281.80417,182.526469 281.80417,179 C281.80417,175.134007 284.938176,172 288.80417,172 Z M288.80417,174 C286.042746,174 283.80417,176.238576 283.80417,179 C283.80417,181.761424 286.042746,184 288.80417,184 C291.565593,184 293.80417,181.761424 293.80417,179 C293.80417,176.238576 291.565593,174 288.80417,174 Z" fill="#D97705" fill-rule="nonzero"></path>
        <path id="Line-2" d="M691.274808,137.97359 C695.140801,137.97359 698.274808,141.107597 698.274808,144.97359 C698.274808,148.500059 695.667107,151.417467 692.274816,151.9027 L692.274808,203.25 L690.274808,203.25 L690.274583,151.902669 C686.882399,151.417343 684.274808,148.499984 684.274808,144.97359 C684.274808,141.107597 687.408815,137.97359 691.274808,137.97359 Z M691.274808,139.97359 C688.513384,139.97359 686.274808,142.212166 686.274808,144.97359 C686.274808,147.735014 688.513384,149.97359 691.274808,149.97359 C694.036232,149.97359 696.274808,147.735014 696.274808,144.97359 C696.274808,142.212166 694.036232,139.97359 691.274808,139.97359 Z" fill="#D97705" fill-rule="nonzero"></path>
        <g id="Command-Prompt" transform="translate(48.0261, 207.258)" fill="#D97705" fill-rule="nonzero">
            <path d="M8.856,16.2 C8.376,16.552 7.808,16.82 7.152,17.004 C6.496,17.188 5.808,17.28 5.088,17.28 C4.16,17.28 3.376,17.132 2.736,16.836 C2.096,16.54 1.572,16.116 1.164,15.564 C0.756,15.012 0.46,14.348 0.276,13.572 C0.092,12.796 0,11.936 0,10.992 C0,8.96 0.448,7.404 1.344,6.324 C2.24,5.244 3.528,4.704 5.208,4.704 C5.976,4.704 6.628,4.764 7.164,4.884 C7.7,5.004 8.184,5.176 8.616,5.4 L8.064,7.056 C7.696,6.848 7.288,6.684 6.84,6.564 C6.392,6.444 5.912,6.384 5.4,6.384 C3.128,6.384 1.992,7.92 1.992,10.992 C1.992,11.6 2.052,12.18 2.172,12.732 C2.292,13.284 2.492,13.772 2.772,14.196 C3.052,14.62 3.42,14.96 3.876,15.216 C4.332,15.472 4.896,15.6 5.568,15.6 C6.144,15.6 6.66,15.512 7.116,15.336 C7.572,15.16 7.944,14.96 8.232,14.736 L8.856,16.2 Z" id="Path"></path>
            <path d="M10.272,10.992 C10.272,8.96 10.724,7.404 11.628,6.324 C12.532,5.244 13.832,4.704 15.528,4.704 C16.424,4.704 17.204,4.852 17.868,5.148 C18.532,5.444 19.08,5.868 19.512,6.42 C19.944,6.972 20.264,7.636 20.472,8.412 C20.68,9.188 20.784,10.048 20.784,10.992 C20.784,13.024 20.332,14.58 19.428,15.66 C18.524,16.74 17.224,17.28 15.528,17.28 C14.632,17.28 13.852,17.132 13.188,16.836 C12.524,16.54 11.976,16.116 11.544,15.564 C11.112,15.012 10.792,14.348 10.584,13.572 C10.376,12.796 10.272,11.936 10.272,10.992 Z M12.264,10.992 C12.264,11.6 12.324,12.184 12.444,12.744 C12.564,13.304 12.752,13.792 13.008,14.208 C13.264,14.624 13.6,14.96 14.016,15.216 C14.432,15.472 14.936,15.6 15.528,15.6 C17.704,15.616 18.792,14.08 18.792,10.992 C18.792,10.368 18.732,9.776 18.612,9.216 C18.492,8.656 18.304,8.168 18.048,7.752 C17.792,7.336 17.456,7.004 17.04,6.756 C16.624,6.508 16.12,6.384 15.528,6.384 C13.352,6.368 12.264,7.904 12.264,10.992 Z" id="Shape"></path>
            <path d="M30.84,16.992 L30.84,10.2 C30.84,9.56 30.812,9.004 30.756,8.532 C30.7,8.06 30.592,7.664 30.432,7.344 C30.272,7.024 30.044,6.784 29.748,6.624 C29.452,6.464 29.064,6.384 28.584,6.384 C27.848,6.384 27.236,6.608 26.748,7.056 C26.26,7.504 25.92,8.064 25.728,8.736 L25.728,16.992 L23.808,16.992 L23.808,4.992 L25.152,4.992 L25.512,6.456 L25.608,6.456 C26.04,5.944 26.54,5.524 27.108,5.196 C27.676,4.868 28.416,4.704 29.328,4.704 C30.096,4.704 30.724,4.852 31.212,5.148 C31.7,5.444 32.08,5.96 32.352,6.696 C32.72,6.072 33.228,5.584 33.876,5.232 C34.524,4.88 35.256,4.704 36.072,4.704 C36.744,4.704 37.312,4.78 37.776,4.932 C38.24,5.084 38.624,5.352 38.928,5.736 C39.232,6.12 39.452,6.64 39.588,7.296 C39.724,7.952 39.792,8.784 39.792,9.792 L39.792,16.992 L37.872,16.992 L37.872,9.768 C37.872,9.192 37.844,8.692 37.788,8.268 C37.732,7.844 37.62,7.492 37.452,7.212 C37.284,6.932 37.052,6.724 36.756,6.588 C36.46,6.452 36.072,6.384 35.592,6.384 C34.792,6.384 34.168,6.608 33.72,7.056 C33.272,7.504 32.952,8.144 32.76,8.976 L32.76,16.992 L30.84,16.992 Z" id="Path"></path>
            <path d="M50.328,16.992 L50.328,10.2 C50.328,9.56 50.3,9.004 50.244,8.532 C50.188,8.06 50.08,7.664 49.92,7.344 C49.76,7.024 49.532,6.784 49.236,6.624 C48.94,6.464 48.552,6.384 48.072,6.384 C47.336,6.384 46.724,6.608 46.236,7.056 C45.748,7.504 45.408,8.064 45.216,8.736 L45.216,16.992 L43.296,16.992 L43.296,4.992 L44.64,4.992 L45,6.456 L45.096,6.456 C45.528,5.944 46.028,5.524 46.596,5.196 C47.164,4.868 47.904,4.704 48.816,4.704 C49.584,4.704 50.212,4.852 50.7,5.148 C51.188,5.444 51.568,5.96 51.84,6.696 C52.208,6.072 52.716,5.584 53.364,5.232 C54.012,4.88 54.744,4.704 55.56,4.704 C56.232,4.704 56.8,4.78 57.264,4.932 C57.728,5.084 58.112,5.352 58.416,5.736 C58.72,6.12 58.94,6.64 59.076,7.296 C59.212,7.952 59.28,8.784 59.28,9.792 L59.28,16.992 L57.36,16.992 L57.36,9.768 C57.36,9.192 57.332,8.692 57.276,8.268 C57.22,7.844 57.108,7.492 56.94,7.212 C56.772,6.932 56.54,6.724 56.244,6.588 C55.948,6.452 55.56,6.384 55.08,6.384 C54.28,6.384 53.656,6.608 53.208,7.056 C52.76,7.504 52.44,8.144 52.248,8.976 L52.248,16.992 L50.328,16.992 Z" id="Path"></path>
            <path d="M62.592,5.88 C63.2,5.512 63.908,5.24 64.716,5.064 C65.524,4.888 66.368,4.8 67.248,4.8 C68.08,4.8 68.748,4.912 69.252,5.136 C69.756,5.36 70.14,5.652 70.404,6.012 C70.668,6.372 70.844,6.768 70.932,7.2 C71.02,7.632 71.064,8.064 71.064,8.496 C71.064,9.456 71.04,10.392 70.992,11.304 C70.944,12.216 70.92,13.08 70.92,13.896 C70.92,14.488 70.944,15.048 70.992,15.576 C71.04,16.104 71.128,16.592 71.256,17.04 L69.84,17.04 L69.336,15.36 L69.216,15.36 C69.072,15.584 68.892,15.804 68.676,16.02 C68.46,16.236 68.2,16.428 67.896,16.596 C67.592,16.764 67.24,16.904 66.84,17.016 C66.44,17.128 65.984,17.184 65.472,17.184 C64.96,17.184 64.484,17.104 64.044,16.944 C63.604,16.784 63.224,16.556 62.904,16.26 C62.584,15.964 62.332,15.608 62.148,15.192 C61.964,14.776 61.872,14.304 61.872,13.776 C61.872,13.072 62.016,12.484 62.304,12.012 C62.592,11.54 62.996,11.164 63.516,10.884 C64.036,10.604 64.66,10.404 65.388,10.284 C66.116,10.164 66.92,10.104 67.8,10.104 C68.024,10.104 68.244,10.104 68.46,10.104 C68.676,10.104 68.896,10.12 69.12,10.152 C69.168,9.672 69.192,9.24 69.192,8.856 C69.192,7.976 69.016,7.36 68.664,7.008 C68.312,6.656 67.672,6.48 66.744,6.48 C66.472,6.48 66.18,6.5 65.868,6.54 C65.556,6.58 65.236,6.636 64.908,6.708 C64.58,6.78 64.268,6.868 63.972,6.972 C63.676,7.076 63.416,7.192 63.192,7.32 L62.592,5.88 Z M66,15.504 C66.448,15.504 66.848,15.444 67.2,15.324 C67.552,15.204 67.856,15.052 68.112,14.868 C68.368,14.684 68.58,14.48 68.748,14.256 C68.916,14.032 69.04,13.816 69.12,13.608 L69.12,11.616 C68.896,11.6 68.668,11.588 68.436,11.58 C68.204,11.572 67.976,11.568 67.752,11.568 C67.256,11.568 66.772,11.596 66.3,11.652 C65.828,11.708 65.412,11.812 65.052,11.964 C64.692,12.116 64.404,12.324 64.188,12.588 C63.972,12.852 63.864,13.184 63.864,13.584 C63.864,14.144 64.064,14.604 64.464,14.964 C64.864,15.324 65.376,15.504 66,15.504 Z" id="Shape"></path>
            <path d="M82.392,16.992 L82.392,10.152 C82.392,8.904 82.212,7.964 81.852,7.332 C81.492,6.7 80.832,6.384 79.872,6.384 C79.024,6.384 78.324,6.612 77.772,7.068 C77.22,7.524 76.832,8.096 76.608,8.784 L76.608,16.992 L74.688,16.992 L74.688,4.992 L76.032,4.992 L76.392,6.456 L76.488,6.456 C76.872,5.944 77.388,5.524 78.036,5.196 C78.684,4.868 79.456,4.704 80.352,4.704 C81.008,4.704 81.584,4.78 82.08,4.932 C82.576,5.084 82.988,5.352 83.316,5.736 C83.644,6.12 83.892,6.636 84.06,7.284 C84.228,7.932 84.312,8.752 84.312,9.744 L84.312,16.992 L82.392,16.992 Z" id="Path"></path>
            <path d="M97.032,12.864 C97.032,13.68 97.04,14.42 97.056,15.084 C97.072,15.748 97.144,16.4 97.272,17.04 L95.976,17.04 L95.496,15.336 L95.4,15.336 C95.08,15.896 94.616,16.36 94.008,16.728 C93.4,17.096 92.688,17.28 91.872,17.28 C90.272,17.28 89.084,16.776 88.308,15.768 C87.532,14.76 87.144,13.184 87.144,11.04 C87.144,8.992 87.628,7.436 88.596,6.372 C89.564,5.308 90.896,4.776 92.592,4.776 C93.184,4.776 93.652,4.808 93.996,4.872 C94.34,4.936 94.712,5.04 95.112,5.184 L95.112,0.192 L97.032,0.192 L97.032,12.864 Z M92.184,15.6 C93,15.6 93.648,15.388 94.128,14.964 C94.608,14.54 94.936,13.896 95.112,13.032 L95.112,7.08 C94.824,6.856 94.496,6.696 94.128,6.6 C93.76,6.504 93.272,6.456 92.664,6.456 C91.56,6.456 90.696,6.82 90.072,7.548 C89.448,8.276 89.136,9.44 89.136,11.04 C89.136,11.696 89.188,12.304 89.292,12.864 C89.396,13.424 89.568,13.904 89.808,14.304 C90.048,14.704 90.364,15.02 90.756,15.252 C91.148,15.484 91.624,15.6 92.184,15.6 Z" id="Shape"></path>
            <path d="M107.328,0.36 C107.936,0.216 108.592,0.12 109.296,0.072 C110,0.024 110.696,0 111.384,0 C112.12,0 112.868,0.072 113.628,0.216 C114.388,0.36 115.08,0.624 115.704,1.008 C116.328,1.392 116.836,1.92 117.228,2.592 C117.62,3.264 117.816,4.12 117.816,5.16 C117.816,6.184 117.632,7.048 117.264,7.752 C116.896,8.456 116.408,9.028 115.8,9.468 C115.192,9.908 114.496,10.224 113.712,10.416 C112.928,10.608 112.12,10.704 111.288,10.704 C111.208,10.704 111.076,10.704 110.892,10.704 C110.708,10.704 110.516,10.7 110.316,10.692 C110.116,10.684 109.92,10.672 109.728,10.656 C109.536,10.64 109.4,10.624 109.32,10.608 L109.32,16.992 L107.328,16.992 L107.328,0.36 Z M111.432,1.728 C111.016,1.728 110.616,1.736 110.232,1.752 C109.848,1.768 109.544,1.808 109.32,1.872 L109.32,8.832 C109.4,8.864 109.528,8.884 109.704,8.892 C109.88,8.9 110.064,8.908 110.256,8.916 C110.448,8.924 110.632,8.928 110.808,8.928 C110.984,8.928 111.112,8.928 111.192,8.928 C111.736,8.928 112.276,8.876 112.812,8.772 C113.348,8.668 113.832,8.48 114.264,8.208 C114.696,7.936 115.044,7.552 115.308,7.056 C115.572,6.56 115.704,5.928 115.704,5.16 C115.704,4.504 115.58,3.956 115.332,3.516 C115.084,3.076 114.756,2.724 114.348,2.46 C113.94,2.196 113.48,2.008 112.968,1.896 C112.456,1.784 111.944,1.728 111.432,1.728 Z" id="Shape"></path>
            <path d="M125.376,6.84 C124.896,6.68 124.44,6.6 124.008,6.6 C123.32,6.6 122.776,6.788 122.376,7.164 C121.976,7.54 121.728,8.016 121.632,8.592 L121.632,16.992 L119.712,16.992 L119.712,4.992 L121.056,4.992 L121.416,6.456 L121.512,6.456 C121.816,5.912 122.18,5.492 122.604,5.196 C123.028,4.9 123.568,4.752 124.224,4.752 C124.688,4.752 125.208,4.832 125.784,4.992 L125.376,6.84 Z" id="Path"></path>
            <path d="M127.2,10.992 C127.2,8.96 127.652,7.404 128.556,6.324 C129.46,5.244 130.76,4.704 132.456,4.704 C133.352,4.704 134.132,4.852 134.796,5.148 C135.46,5.444 136.008,5.868 136.44,6.42 C136.872,6.972 137.192,7.636 137.4,8.412 C137.608,9.188 137.712,10.048 137.712,10.992 C137.712,13.024 137.26,14.58 136.356,15.66 C135.452,16.74 134.152,17.28 132.456,17.28 C131.56,17.28 130.78,17.132 130.116,16.836 C129.452,16.54 128.904,16.116 128.472,15.564 C128.04,15.012 127.72,14.348 127.512,13.572 C127.304,12.796 127.2,11.936 127.2,10.992 Z M129.192,10.992 C129.192,11.6 129.252,12.184 129.372,12.744 C129.492,13.304 129.68,13.792 129.936,14.208 C130.192,14.624 130.528,14.96 130.944,15.216 C131.36,15.472 131.864,15.6 132.456,15.6 C134.632,15.616 135.72,14.08 135.72,10.992 C135.72,10.368 135.66,9.776 135.54,9.216 C135.42,8.656 135.232,8.168 134.976,7.752 C134.72,7.336 134.384,7.004 133.968,6.756 C133.552,6.508 133.048,6.384 132.456,6.384 C130.28,6.368 129.192,7.904 129.192,10.992 Z" id="Shape"></path>
            <path d="M147.768,16.992 L147.768,10.2 C147.768,9.56 147.74,9.004 147.684,8.532 C147.628,8.06 147.52,7.664 147.36,7.344 C147.2,7.024 146.972,6.784 146.676,6.624 C146.38,6.464 145.992,6.384 145.512,6.384 C144.776,6.384 144.164,6.608 143.676,7.056 C143.188,7.504 142.848,8.064 142.656,8.736 L142.656,16.992 L140.736,16.992 L140.736,4.992 L142.08,4.992 L142.44,6.456 L142.536,6.456 C142.968,5.944 143.468,5.524 144.036,5.196 C144.604,4.868 145.344,4.704 146.256,4.704 C147.024,4.704 147.652,4.852 148.14,5.148 C148.628,5.444 149.008,5.96 149.28,6.696 C149.648,6.072 150.156,5.584 150.804,5.232 C151.452,4.88 152.184,4.704 153,4.704 C153.672,4.704 154.24,4.78 154.704,4.932 C155.168,5.084 155.552,5.352 155.856,5.736 C156.16,6.12 156.38,6.64 156.516,7.296 C156.652,7.952 156.72,8.784 156.72,9.792 L156.72,16.992 L154.8,16.992 L154.8,9.768 C154.8,9.192 154.772,8.692 154.716,8.268 C154.66,7.844 154.548,7.492 154.38,7.212 C154.212,6.932 153.98,6.724 153.684,6.588 C153.388,6.452 153,6.384 152.52,6.384 C151.72,6.384 151.096,6.608 150.648,7.056 C150.2,7.504 149.88,8.144 149.688,8.976 L149.688,16.992 L147.768,16.992 Z" id="Path"></path>
            <path d="M160.224,4.992 L161.544,4.992 L161.904,6.432 L162,6.432 C162.368,5.872 162.844,5.444 163.428,5.148 C164.012,4.852 164.68,4.704 165.432,4.704 C167.032,4.704 168.224,5.176 169.008,6.12 C169.792,7.064 170.184,8.608 170.184,10.752 C170.184,11.76 170.052,12.668 169.788,13.476 C169.524,14.284 169.152,14.968 168.672,15.528 C168.192,16.088 167.612,16.52 166.932,16.824 C166.252,17.128 165.496,17.28 164.664,17.28 C164.072,17.28 163.604,17.244 163.26,17.172 C162.916,17.1 162.544,16.976 162.144,16.8 L162.144,21.792 L160.224,21.792 L160.224,4.992 Z M165.072,6.384 C164.256,6.384 163.612,6.596 163.14,7.02 C162.668,7.444 162.336,8.088 162.144,8.952 L162.144,14.904 C162.432,15.128 162.76,15.3 163.128,15.42 C163.496,15.54 163.984,15.6 164.592,15.6 C165.696,15.6 166.572,15.188 167.22,14.364 C167.868,13.54 168.192,12.328 168.192,10.728 C168.192,10.072 168.136,9.476 168.024,8.94 C167.912,8.404 167.732,7.948 167.484,7.572 C167.236,7.196 166.916,6.904 166.524,6.696 C166.132,6.488 165.648,6.384 165.072,6.384 Z" id="Shape"></path>
            <path d="M171.624,4.992 L173.496,4.992 L173.496,2.616 L175.416,2.064 L175.416,4.992 L178.68,4.992 L178.68,6.672 L175.416,6.672 L175.416,13.32 C175.416,14.152 175.52,14.74 175.728,15.084 C175.936,15.428 176.288,15.6 176.784,15.6 C177.2,15.6 177.552,15.556 177.84,15.468 C178.128,15.38 178.448,15.264 178.8,15.12 L179.232,16.584 C178.8,16.792 178.328,16.96 177.816,17.088 C177.304,17.216 176.752,17.28 176.16,17.28 C175.184,17.28 174.496,17.004 174.096,16.452 C173.696,15.9 173.496,14.976 173.496,13.68 L173.496,6.672 L171.624,6.672 L171.624,4.992 Z" id="Path"></path>
        </g>
        <g id="Cursor" transform="translate(256.9803, 211.962)" fill="#D97705" fill-rule="nonzero">
            <path d="M8.856,11.496 C8.376,11.848 7.808,12.116 7.152,12.3 C6.496,12.484 5.808,12.576 5.088,12.576 C4.16,12.576 3.376,12.428 2.736,12.132 C2.096,11.836 1.572,11.412 1.164,10.86 C0.756,10.308 0.46,9.644 0.276,8.868 C0.092,8.092 0,7.232 0,6.288 C0,4.256 0.448,2.7 1.344,1.62 C2.24,0.54 3.528,0 5.208,0 C5.976,0 6.628,0.06 7.164,0.18 C7.7,0.3 8.184,0.472 8.616,0.696 L8.064,2.352 C7.696,2.144 7.288,1.98 6.84,1.86 C6.392,1.74 5.912,1.68 5.4,1.68 C3.128,1.68 1.992,3.216 1.992,6.288 C1.992,6.896 2.052,7.476 2.172,8.028 C2.292,8.58 2.492,9.068 2.772,9.492 C3.052,9.916 3.42,10.256 3.876,10.512 C4.332,10.768 4.896,10.896 5.568,10.896 C6.144,10.896 6.66,10.808 7.116,10.632 C7.572,10.456 7.944,10.256 8.232,10.032 L8.856,11.496 Z" id="Path"></path>
            <path d="M13.224,0.288 L13.224,7.128 C13.224,7.752 13.26,8.3 13.332,8.772 C13.404,9.244 13.528,9.636 13.704,9.948 C13.88,10.26 14.12,10.496 14.424,10.656 C14.728,10.816 15.112,10.896 15.576,10.896 C16.008,10.896 16.392,10.828 16.728,10.692 C17.064,10.556 17.364,10.368 17.628,10.128 C17.892,9.888 18.124,9.612 18.324,9.3 C18.524,8.988 18.688,8.656 18.816,8.304 L18.816,0.288 L20.736,0.288 L20.736,8.88 C20.736,9.456 20.756,10.052 20.796,10.668 C20.836,11.284 20.904,11.824 21,12.288 L19.68,12.288 L19.2,10.392 L19.08,10.392 C18.712,11.016 18.216,11.536 17.592,11.952 C16.968,12.368 16.176,12.576 15.216,12.576 C14.576,12.576 14.012,12.5 13.524,12.348 C13.036,12.196 12.628,11.928 12.3,11.544 C11.972,11.16 11.724,10.644 11.556,9.996 C11.388,9.348 11.304,8.528 11.304,7.536 L11.304,0.288 L13.224,0.288 Z" id="Path"></path>
            <path d="M30.096,2.136 C29.616,1.976 29.16,1.896 28.728,1.896 C28.04,1.896 27.496,2.084 27.096,2.46 C26.696,2.836 26.448,3.312 26.352,3.888 L26.352,12.288 L24.432,12.288 L24.432,0.288 L25.776,0.288 L26.136,1.752 L26.232,1.752 C26.536,1.208 26.9,0.788 27.324,0.492 C27.748,0.196 28.288,0.048 28.944,0.048 C29.408,0.048 29.928,0.128 30.504,0.288 L30.096,2.136 Z" id="Path"></path>
            <path d="M37.872,9.024 C37.872,8.544 37.728,8.168 37.44,7.896 C37.152,7.624 36.796,7.396 36.372,7.212 C35.948,7.028 35.484,6.852 34.98,6.684 C34.476,6.516 34.012,6.3 33.588,6.036 C33.164,5.772 32.808,5.432 32.52,5.016 C32.232,4.6 32.088,4.04 32.088,3.336 C32.088,2.184 32.416,1.34 33.072,0.804 C33.728,0.268 34.64,0 35.808,0 C36.672,0 37.396,0.076 37.98,0.228 C38.564,0.38 39.072,0.56 39.504,0.768 L39.048,2.352 C38.68,2.176 38.236,2.02 37.716,1.884 C37.196,1.748 36.64,1.68 36.048,1.68 C35.344,1.68 34.828,1.8 34.5,2.04 C34.172,2.28 34.008,2.696 34.008,3.288 C34.008,3.704 34.152,4.028 34.44,4.26 C34.728,4.492 35.084,4.7 35.508,4.884 C35.932,5.068 36.396,5.248 36.9,5.424 C37.404,5.6 37.868,5.832 38.292,6.12 C38.716,6.408 39.072,6.772 39.36,7.212 C39.648,7.652 39.792,8.232 39.792,8.952 C39.792,9.464 39.708,9.944 39.54,10.392 C39.372,10.84 39.112,11.224 38.76,11.544 C38.408,11.864 37.972,12.116 37.452,12.3 C36.932,12.484 36.32,12.576 35.616,12.576 C34.704,12.576 33.928,12.488 33.288,12.312 C32.648,12.136 32.112,11.928 31.68,11.688 L32.256,10.056 C32.624,10.264 33.104,10.456 33.696,10.632 C34.288,10.808 34.888,10.896 35.496,10.896 C36.184,10.896 36.752,10.76 37.2,10.488 C37.648,10.216 37.872,9.728 37.872,9.024 Z" id="Path"></path>
            <path d="M42.024,6.288 C42.024,4.256 42.476,2.7 43.38,1.62 C44.284,0.54 45.584,0 47.28,0 C48.176,0 48.956,0.148 49.62,0.444 C50.284,0.74 50.832,1.164 51.264,1.716 C51.696,2.268 52.016,2.932 52.224,3.708 C52.432,4.484 52.536,5.344 52.536,6.288 C52.536,8.32 52.084,9.876 51.18,10.956 C50.276,12.036 48.976,12.576 47.28,12.576 C46.384,12.576 45.604,12.428 44.94,12.132 C44.276,11.836 43.728,11.412 43.296,10.86 C42.864,10.308 42.544,9.644 42.336,8.868 C42.128,8.092 42.024,7.232 42.024,6.288 Z M44.016,6.288 C44.016,6.896 44.076,7.48 44.196,8.04 C44.316,8.6 44.504,9.088 44.76,9.504 C45.016,9.92 45.352,10.256 45.768,10.512 C46.184,10.768 46.688,10.896 47.28,10.896 C49.456,10.912 50.544,9.376 50.544,6.288 C50.544,5.664 50.484,5.072 50.364,4.512 C50.244,3.952 50.056,3.464 49.8,3.048 C49.544,2.632 49.208,2.3 48.792,2.052 C48.376,1.804 47.872,1.68 47.28,1.68 C45.104,1.664 44.016,3.2 44.016,6.288 Z" id="Shape"></path>
            <path d="M61.224,2.136 C60.744,1.976 60.288,1.896 59.856,1.896 C59.168,1.896 58.624,2.084 58.224,2.46 C57.824,2.836 57.576,3.312 57.48,3.888 L57.48,12.288 L55.56,12.288 L55.56,0.288 L56.904,0.288 L57.264,1.752 L57.36,1.752 C57.664,1.208 58.028,0.788 58.452,0.492 C58.876,0.196 59.416,0.048 60.072,0.048 C60.536,0.048 61.056,0.128 61.632,0.288 L61.224,2.136 Z" id="Path"></path>
        </g>
        <path id="Line-2" d="M47.85,82.0991629 L47.8500082,99.420053 C51.2422984,99.9052862 53.85,102.822694 53.85,106.349163 C53.85,110.215156 50.7159932,113.349163 46.85,113.349163 C42.9840068,113.349163 39.85,110.215156 39.85,106.349163 C39.85,102.823041 42.4571882,99.9058606 45.8489899,99.4201963 L45.85,82.0991629 L47.85,82.0991629 Z M46.85,101.349163 C44.0885763,101.349163 41.85,103.587739 41.85,106.349163 C41.85,109.110587 44.0885763,111.349163 46.85,111.349163 C49.6114237,111.349163 51.85,109.110587 51.85,106.349163 C51.85,103.587739 49.6114237,101.349163 46.85,101.349163 Z" fill="#D97705" fill-rule="nonzero"></path>
        <g id="Cursor" transform="translate(26.5061, 62.8112)" fill="#D97705" fill-rule="nonzero">
            <path d="M1.92,0.288 L1.92,7.128 C1.92,7.752 1.956,8.3 2.028,8.772 C2.1,9.244 2.224,9.636 2.4,9.948 C2.576,10.26 2.816,10.496 3.12,10.656 C3.424,10.816 3.808,10.896 4.272,10.896 C4.704,10.896 5.088,10.828 5.424,10.692 C5.76,10.556 6.06,10.368 6.324,10.128 C6.588,9.888 6.82,9.612 7.02,9.3 C7.22,8.988 7.384,8.656 7.512,8.304 L7.512,0.288 L9.432,0.288 L9.432,8.88 C9.432,9.456 9.452,10.052 9.492,10.668 C9.532,11.284 9.6,11.824 9.696,12.288 L8.376,12.288 L7.896,10.392 L7.776,10.392 C7.408,11.016 6.912,11.536 6.288,11.952 C5.664,12.368 4.872,12.576 3.912,12.576 C3.272,12.576 2.708,12.5 2.22,12.348 C1.732,12.196 1.324,11.928 0.996,11.544 C0.668,11.16 0.42,10.644 0.252,9.996 C0.084,9.348 0,8.528 0,7.536 L0,0.288 L1.92,0.288 Z" id="Path"></path>
            <path d="M18.408,9.024 C18.408,8.544 18.264,8.168 17.976,7.896 C17.688,7.624 17.332,7.396 16.908,7.212 C16.484,7.028 16.02,6.852 15.516,6.684 C15.012,6.516 14.548,6.3 14.124,6.036 C13.7,5.772 13.344,5.432 13.056,5.016 C12.768,4.6 12.624,4.04 12.624,3.336 C12.624,2.184 12.952,1.34 13.608,0.804 C14.264,0.268 15.176,0 16.344,0 C17.208,0 17.932,0.076 18.516,0.228 C19.1,0.38 19.608,0.56 20.04,0.768 L19.584,2.352 C19.216,2.176 18.772,2.02 18.252,1.884 C17.732,1.748 17.176,1.68 16.584,1.68 C15.88,1.68 15.364,1.8 15.036,2.04 C14.708,2.28 14.544,2.696 14.544,3.288 C14.544,3.704 14.688,4.028 14.976,4.26 C15.264,4.492 15.62,4.7 16.044,4.884 C16.468,5.068 16.932,5.248 17.436,5.424 C17.94,5.6 18.404,5.832 18.828,6.12 C19.252,6.408 19.608,6.772 19.896,7.212 C20.184,7.652 20.328,8.232 20.328,8.952 C20.328,9.464 20.244,9.944 20.076,10.392 C19.908,10.84 19.648,11.224 19.296,11.544 C18.944,11.864 18.508,12.116 17.988,12.3 C17.468,12.484 16.856,12.576 16.152,12.576 C15.24,12.576 14.464,12.488 13.824,12.312 C13.184,12.136 12.648,11.928 12.216,11.688 L12.792,10.056 C13.16,10.264 13.64,10.456 14.232,10.632 C14.824,10.808 15.424,10.896 16.032,10.896 C16.72,10.896 17.288,10.76 17.736,10.488 C18.184,10.216 18.408,9.728 18.408,9.024 Z" id="Path"></path>
            <path d="M31.992,11.328 C31.512,11.712 30.908,12.016 30.18,12.24 C29.452,12.464 28.68,12.576 27.864,12.576 C26.952,12.576 26.16,12.428 25.488,12.132 C24.816,11.836 24.264,11.412 23.832,10.86 C23.4,10.308 23.08,9.648 22.872,8.88 C22.664,8.112 22.56,7.248 22.56,6.288 C22.56,4.24 23.016,2.68 23.928,1.608 C24.84,0.536 26.144,0 27.84,0 C28.384,0 28.928,0.06 29.472,0.18 C30.016,0.3 30.504,0.528 30.936,0.864 C31.368,1.2 31.72,1.676 31.992,2.292 C32.264,2.908 32.4,3.72 32.4,4.728 C32.4,5.256 32.352,5.84 32.256,6.48 L24.552,6.48 C24.552,7.184 24.624,7.808 24.768,8.352 C24.912,8.896 25.136,9.356 25.44,9.732 C25.744,10.108 26.14,10.396 26.628,10.596 C27.116,10.796 27.712,10.896 28.416,10.896 C28.96,10.896 29.504,10.8 30.048,10.608 C30.592,10.416 31,10.192 31.272,9.936 L31.992,11.328 Z M27.864,1.68 C26.92,1.68 26.164,1.928 25.596,2.424 C25.028,2.92 24.688,3.768 24.576,4.968 L30.528,4.968 C30.528,3.752 30.296,2.9 29.832,2.412 C29.368,1.924 28.712,1.68 27.864,1.68 Z" id="Shape"></path>
            <path d="M41.088,2.136 C40.608,1.976 40.152,1.896 39.72,1.896 C39.032,1.896 38.488,2.084 38.088,2.46 C37.688,2.836 37.44,3.312 37.344,3.888 L37.344,12.288 L35.424,12.288 L35.424,0.288 L36.768,0.288 L37.128,1.752 L37.224,1.752 C37.528,1.208 37.892,0.788 38.316,0.492 C38.74,0.196 39.28,0.048 39.936,0.048 C40.4,0.048 40.92,0.128 41.496,0.288 L41.088,2.136 Z" id="Path"></path>
        </g>
        <path id="Line-2" d="M145.84995,82.2241629 L145.849958,99.545053 C149.242248,100.030286 151.84995,102.947694 151.84995,106.474163 C151.84995,110.340156 148.715943,113.474163 144.84995,113.474163 C140.983957,113.474163 137.84995,110.340156 137.84995,106.474163 C137.84995,102.948041 140.457138,100.030861 143.84894,99.5451963 L143.84995,82.2241629 L145.84995,82.2241629 Z M144.84995,101.474163 C142.088526,101.474163 139.84995,103.712739 139.84995,106.474163 C139.84995,109.235587 142.088526,111.474163 144.84995,111.474163 C147.611374,111.474163 149.84995,109.235587 149.84995,106.474163 C149.84995,103.712739 147.611374,101.474163 144.84995,101.474163 Z" fill="#D97705" fill-rule="nonzero"></path>
        <g id="Cursor" transform="translate(124.198, 58.2992)" fill="#D97705" fill-rule="nonzero">
            <path d="M7.704,16.8 L7.704,9.96 C7.704,9.336 7.668,8.788 7.596,8.316 C7.524,7.844 7.392,7.452 7.2,7.14 C7.008,6.828 6.748,6.592 6.42,6.432 C6.092,6.272 5.664,6.192 5.136,6.192 C4.384,6.192 3.704,6.436 3.096,6.924 C2.488,7.412 2.096,8.04 1.92,8.808 L1.92,16.8 L0,16.8 L0,0 L1.92,0 L1.92,6.144 L2.016,6.144 C2.432,5.648 2.932,5.252 3.516,4.956 C4.1,4.66 4.824,4.512 5.688,4.512 C6.36,4.512 6.944,4.588 7.44,4.74 C7.936,4.892 8.348,5.16 8.676,5.544 C9.004,5.928 9.244,6.444 9.396,7.092 C9.548,7.74 9.624,8.56 9.624,9.552 L9.624,16.8 L7.704,16.8 Z" id="Path"></path>
            <path d="M12.456,10.8 C12.456,8.768 12.908,7.212 13.812,6.132 C14.716,5.052 16.016,4.512 17.712,4.512 C18.608,4.512 19.388,4.66 20.052,4.956 C20.716,5.252 21.264,5.676 21.696,6.228 C22.128,6.78 22.448,7.444 22.656,8.22 C22.864,8.996 22.968,9.856 22.968,10.8 C22.968,12.832 22.516,14.388 21.612,15.468 C20.708,16.548 19.408,17.088 17.712,17.088 C16.816,17.088 16.036,16.94 15.372,16.644 C14.708,16.348 14.16,15.924 13.728,15.372 C13.296,14.82 12.976,14.156 12.768,13.38 C12.56,12.604 12.456,11.744 12.456,10.8 Z M14.448,10.8 C14.448,11.408 14.508,11.992 14.628,12.552 C14.748,13.112 14.936,13.6 15.192,14.016 C15.448,14.432 15.784,14.768 16.2,15.024 C16.616,15.28 17.12,15.408 17.712,15.408 C19.888,15.424 20.976,13.888 20.976,10.8 C20.976,10.176 20.916,9.584 20.796,9.024 C20.676,8.464 20.488,7.976 20.232,7.56 C19.976,7.144 19.64,6.812 19.224,6.564 C18.808,6.316 18.304,6.192 17.712,6.192 C15.536,6.176 14.448,7.712 14.448,10.8 Z" id="Shape"></path>
            <path d="M31.272,13.536 C31.272,13.056 31.128,12.68 30.84,12.408 C30.552,12.136 30.196,11.908 29.772,11.724 C29.348,11.54 28.884,11.364 28.38,11.196 C27.876,11.028 27.412,10.812 26.988,10.548 C26.564,10.284 26.208,9.944 25.92,9.528 C25.632,9.112 25.488,8.552 25.488,7.848 C25.488,6.696 25.816,5.852 26.472,5.316 C27.128,4.78 28.04,4.512 29.208,4.512 C30.072,4.512 30.796,4.588 31.38,4.74 C31.964,4.892 32.472,5.072 32.904,5.28 L32.448,6.864 C32.08,6.688 31.636,6.532 31.116,6.396 C30.596,6.26 30.04,6.192 29.448,6.192 C28.744,6.192 28.228,6.312 27.9,6.552 C27.572,6.792 27.408,7.208 27.408,7.8 C27.408,8.216 27.552,8.54 27.84,8.772 C28.128,9.004 28.484,9.212 28.908,9.396 C29.332,9.58 29.796,9.76 30.3,9.936 C30.804,10.112 31.268,10.344 31.692,10.632 C32.116,10.92 32.472,11.284 32.76,11.724 C33.048,12.164 33.192,12.744 33.192,13.464 C33.192,13.976 33.108,14.456 32.94,14.904 C32.772,15.352 32.512,15.736 32.16,16.056 C31.808,16.376 31.372,16.628 30.852,16.812 C30.332,16.996 29.72,17.088 29.016,17.088 C28.104,17.088 27.328,17 26.688,16.824 C26.048,16.648 25.512,16.44 25.08,16.2 L25.656,14.568 C26.024,14.776 26.504,14.968 27.096,15.144 C27.688,15.32 28.288,15.408 28.896,15.408 C29.584,15.408 30.152,15.272 30.6,15 C31.048,14.728 31.272,14.24 31.272,13.536 Z" id="Path"></path>
            <path d="M34.512,4.8 L36.384,4.8 L36.384,2.424 L38.304,1.872 L38.304,4.8 L41.568,4.8 L41.568,6.48 L38.304,6.48 L38.304,13.128 C38.304,13.96 38.408,14.548 38.616,14.892 C38.824,15.236 39.176,15.408 39.672,15.408 C40.088,15.408 40.44,15.364 40.728,15.276 C41.016,15.188 41.336,15.072 41.688,14.928 L42.12,16.392 C41.688,16.6 41.216,16.768 40.704,16.896 C40.192,17.024 39.64,17.088 39.048,17.088 C38.072,17.088 37.384,16.812 36.984,16.26 C36.584,15.708 36.384,14.784 36.384,13.488 L36.384,6.48 L34.512,6.48 L34.512,4.8 Z" id="Path"></path>
        </g>
        <path id="Line-2" d="M232.8499,82.3491629 L232.849908,99.670053 C236.242198,100.155286 238.8499,103.072694 238.8499,106.599163 C238.8499,110.465156 235.715893,113.599163 231.8499,113.599163 C227.983907,113.599163 224.8499,110.465156 224.8499,106.599163 C224.8499,103.073041 227.457088,100.155861 230.84889,99.6701963 L230.8499,82.3491629 L232.8499,82.3491629 Z M231.8499,101.599163 C229.088476,101.599163 226.8499,103.837739 226.8499,106.599163 C226.8499,109.360587 229.088476,111.599163 231.8499,111.599163 C234.611324,111.599163 236.8499,109.360587 236.8499,106.599163 C236.8499,103.837739 234.611324,101.599163 231.8499,101.599163 Z" fill="#D97705" fill-rule="nonzero"></path>
        <g id="Cursor" transform="translate(210.526, 58.1552)" fill="#D97705" fill-rule="nonzero">
            <path d="M8.856,16.152 C8.376,16.504 7.808,16.772 7.152,16.956 C6.496,17.14 5.808,17.232 5.088,17.232 C4.16,17.232 3.376,17.084 2.736,16.788 C2.096,16.492 1.572,16.068 1.164,15.516 C0.756,14.964 0.46,14.3 0.276,13.524 C0.092,12.748 0,11.888 0,10.944 C0,8.912 0.448,7.356 1.344,6.276 C2.24,5.196 3.528,4.656 5.208,4.656 C5.976,4.656 6.628,4.716 7.164,4.836 C7.7,4.956 8.184,5.128 8.616,5.352 L8.064,7.008 C7.696,6.8 7.288,6.636 6.84,6.516 C6.392,6.396 5.912,6.336 5.4,6.336 C3.128,6.336 1.992,7.872 1.992,10.944 C1.992,11.552 2.052,12.132 2.172,12.684 C2.292,13.236 2.492,13.724 2.772,14.148 C3.052,14.572 3.42,14.912 3.876,15.168 C4.332,15.424 4.896,15.552 5.568,15.552 C6.144,15.552 6.66,15.464 7.116,15.288 C7.572,15.112 7.944,14.912 8.232,14.688 L8.856,16.152 Z" id="Path"></path>
            <path d="M13.224,4.944 L13.224,11.784 C13.224,12.408 13.26,12.956 13.332,13.428 C13.404,13.9 13.528,14.292 13.704,14.604 C13.88,14.916 14.12,15.152 14.424,15.312 C14.728,15.472 15.112,15.552 15.576,15.552 C16.008,15.552 16.392,15.484 16.728,15.348 C17.064,15.212 17.364,15.024 17.628,14.784 C17.892,14.544 18.124,14.268 18.324,13.956 C18.524,13.644 18.688,13.312 18.816,12.96 L18.816,4.944 L20.736,4.944 L20.736,13.536 C20.736,14.112 20.756,14.708 20.796,15.324 C20.836,15.94 20.904,16.48 21,16.944 L19.68,16.944 L19.2,15.048 L19.08,15.048 C18.712,15.672 18.216,16.192 17.592,16.608 C16.968,17.024 16.176,17.232 15.216,17.232 C14.576,17.232 14.012,17.156 13.524,17.004 C13.036,16.852 12.628,16.584 12.3,16.2 C11.972,15.816 11.724,15.3 11.556,14.652 C11.388,14.004 11.304,13.184 11.304,12.192 L11.304,4.944 L13.224,4.944 Z" id="Path"></path>
            <path d="M30.096,6.792 C29.616,6.632 29.16,6.552 28.728,6.552 C28.04,6.552 27.496,6.74 27.096,7.116 C26.696,7.492 26.448,7.968 26.352,8.544 L26.352,16.944 L24.432,16.944 L24.432,4.944 L25.776,4.944 L26.136,6.408 L26.232,6.408 C26.536,5.864 26.9,5.444 27.324,5.148 C27.748,4.852 28.288,4.704 28.944,4.704 C29.408,4.704 29.928,4.784 30.504,4.944 L30.096,6.792 Z" id="Path"></path>
            <path d="M38.256,6.792 C37.776,6.632 37.32,6.552 36.888,6.552 C36.2,6.552 35.656,6.74 35.256,7.116 C34.856,7.492 34.608,7.968 34.512,8.544 L34.512,16.944 L32.592,16.944 L32.592,4.944 L33.936,4.944 L34.296,6.408 L34.392,6.408 C34.696,5.864 35.06,5.444 35.484,5.148 C35.908,4.852 36.448,4.704 37.104,4.704 C37.568,4.704 38.088,4.784 38.664,4.944 L38.256,6.792 Z" id="Path"></path>
            <path d="M49.512,15.984 C49.032,16.368 48.428,16.672 47.7,16.896 C46.972,17.12 46.2,17.232 45.384,17.232 C44.472,17.232 43.68,17.084 43.008,16.788 C42.336,16.492 41.784,16.068 41.352,15.516 C40.92,14.964 40.6,14.304 40.392,13.536 C40.184,12.768 40.08,11.904 40.08,10.944 C40.08,8.896 40.536,7.336 41.448,6.264 C42.36,5.192 43.664,4.656 45.36,4.656 C45.904,4.656 46.448,4.716 46.992,4.836 C47.536,4.956 48.024,5.184 48.456,5.52 C48.888,5.856 49.24,6.332 49.512,6.948 C49.784,7.564 49.92,8.376 49.92,9.384 C49.92,9.912 49.872,10.496 49.776,11.136 L42.072,11.136 C42.072,11.84 42.144,12.464 42.288,13.008 C42.432,13.552 42.656,14.012 42.96,14.388 C43.264,14.764 43.66,15.052 44.148,15.252 C44.636,15.452 45.232,15.552 45.936,15.552 C46.48,15.552 47.024,15.456 47.568,15.264 C48.112,15.072 48.52,14.848 48.792,14.592 L49.512,15.984 Z M45.384,6.336 C44.44,6.336 43.684,6.584 43.116,7.08 C42.548,7.576 42.208,8.424 42.096,9.624 L48.048,9.624 C48.048,8.408 47.816,7.556 47.352,7.068 C46.888,6.58 46.232,6.336 45.384,6.336 Z" id="Shape"></path>
            <path d="M60.648,16.944 L60.648,10.104 C60.648,8.856 60.468,7.916 60.108,7.284 C59.748,6.652 59.088,6.336 58.128,6.336 C57.28,6.336 56.58,6.564 56.028,7.02 C55.476,7.476 55.088,8.048 54.864,8.736 L54.864,16.944 L52.944,16.944 L52.944,4.944 L54.288,4.944 L54.648,6.408 L54.744,6.408 C55.128,5.896 55.644,5.476 56.292,5.148 C56.94,4.82 57.712,4.656 58.608,4.656 C59.264,4.656 59.84,4.732 60.336,4.884 C60.832,5.036 61.244,5.304 61.572,5.688 C61.9,6.072 62.148,6.588 62.316,7.236 C62.484,7.884 62.568,8.704 62.568,9.696 L62.568,16.944 L60.648,16.944 Z" id="Path"></path>
            <path d="M64.488,4.944 L66.36,4.944 L66.36,2.568 L68.28,2.016 L68.28,4.944 L71.544,4.944 L71.544,6.624 L68.28,6.624 L68.28,13.272 C68.28,14.104 68.384,14.692 68.592,15.036 C68.8,15.38 69.152,15.552 69.648,15.552 C70.064,15.552 70.416,15.508 70.704,15.42 C70.992,15.332 71.312,15.216 71.664,15.072 L72.096,16.536 C71.664,16.744 71.192,16.912 70.68,17.04 C70.168,17.168 69.616,17.232 69.024,17.232 C68.048,17.232 67.36,16.956 66.96,16.404 C66.56,15.852 66.36,14.928 66.36,13.632 L66.36,6.624 L64.488,6.624 L64.488,4.944 Z" id="Path"></path>
            <path d="M79.296,4.944 L81.168,4.944 L81.168,4.272 C81.168,3.536 81.228,2.896 81.348,2.352 C81.468,1.808 81.664,1.364 81.936,1.02 C82.208,0.676 82.56,0.42 82.992,0.252 C83.424,0.084 83.96,0 84.6,0 C85.112,0 85.564,0.032 85.956,0.096 C86.348,0.16 86.76,0.28 87.192,0.456 L86.76,2.064 C86.392,1.904 86.044,1.8 85.716,1.752 C85.388,1.704 85.08,1.68 84.792,1.68 C84.376,1.68 84.052,1.744 83.82,1.872 C83.588,2 83.42,2.188 83.316,2.436 C83.212,2.684 83.148,2.988 83.124,3.348 C83.1,3.708 83.088,4.128 83.088,4.608 L83.088,4.944 L86.28,4.944 L86.28,6.624 L83.088,6.624 L83.088,16.944 L81.168,16.944 L81.168,6.624 L79.296,6.624 L79.296,4.944 Z" id="Path"></path>
            <path d="M87.336,10.944 C87.336,8.912 87.788,7.356 88.692,6.276 C89.596,5.196 90.896,4.656 92.592,4.656 C93.488,4.656 94.268,4.804 94.932,5.1 C95.596,5.396 96.144,5.82 96.576,6.372 C97.008,6.924 97.328,7.588 97.536,8.364 C97.744,9.14 97.848,10 97.848,10.944 C97.848,12.976 97.396,14.532 96.492,15.612 C95.588,16.692 94.288,17.232 92.592,17.232 C91.696,17.232 90.916,17.084 90.252,16.788 C89.588,16.492 89.04,16.068 88.608,15.516 C88.176,14.964 87.856,14.3 87.648,13.524 C87.44,12.748 87.336,11.888 87.336,10.944 Z M89.328,10.944 C89.328,11.552 89.388,12.136 89.508,12.696 C89.628,13.256 89.816,13.744 90.072,14.16 C90.328,14.576 90.664,14.912 91.08,15.168 C91.496,15.424 92,15.552 92.592,15.552 C94.768,15.568 95.856,14.032 95.856,10.944 C95.856,10.32 95.796,9.728 95.676,9.168 C95.556,8.608 95.368,8.12 95.112,7.704 C94.856,7.288 94.52,6.956 94.104,6.708 C93.688,6.46 93.184,6.336 92.592,6.336 C90.416,6.32 89.328,7.856 89.328,10.944 Z" id="Shape"></path>
            <path d="M103.008,13.992 C103.008,14.552 103.104,14.952 103.296,15.192 C103.488,15.432 103.76,15.552 104.112,15.552 C104.32,15.552 104.544,15.536 104.784,15.504 C105.024,15.472 105.296,15.4 105.6,15.288 L105.816,16.8 C105.56,16.928 105.204,17.032 104.748,17.112 C104.292,17.192 103.896,17.232 103.56,17.232 C102.84,17.232 102.248,17.028 101.784,16.62 C101.32,16.212 101.088,15.52 101.088,14.544 L101.088,0.144 L103.008,0.144 L103.008,13.992 Z" id="Path"></path>
            <path d="M117.096,12.816 C117.096,13.632 117.104,14.372 117.12,15.036 C117.136,15.7 117.208,16.352 117.336,16.992 L116.04,16.992 L115.56,15.288 L115.464,15.288 C115.144,15.848 114.68,16.312 114.072,16.68 C113.464,17.048 112.752,17.232 111.936,17.232 C110.336,17.232 109.148,16.728 108.372,15.72 C107.596,14.712 107.208,13.136 107.208,10.992 C107.208,8.944 107.692,7.388 108.66,6.324 C109.628,5.26 110.96,4.728 112.656,4.728 C113.248,4.728 113.716,4.76 114.06,4.824 C114.404,4.888 114.776,4.992 115.176,5.136 L115.176,0.144 L117.096,0.144 L117.096,12.816 Z M112.248,15.552 C113.064,15.552 113.712,15.34 114.192,14.916 C114.672,14.492 115,13.848 115.176,12.984 L115.176,7.032 C114.888,6.808 114.56,6.648 114.192,6.552 C113.824,6.456 113.336,6.408 112.728,6.408 C111.624,6.408 110.76,6.772 110.136,7.5 C109.512,8.228 109.2,9.392 109.2,10.992 C109.2,11.648 109.252,12.256 109.356,12.816 C109.46,13.376 109.632,13.856 109.872,14.256 C110.112,14.656 110.428,14.972 110.82,15.204 C111.212,15.436 111.688,15.552 112.248,15.552 Z" id="Shape"></path>
            <path d="M129.552,15.984 C129.072,16.368 128.468,16.672 127.74,16.896 C127.012,17.12 126.24,17.232 125.424,17.232 C124.512,17.232 123.72,17.084 123.048,16.788 C122.376,16.492 121.824,16.068 121.392,15.516 C120.96,14.964 120.64,14.304 120.432,13.536 C120.224,12.768 120.12,11.904 120.12,10.944 C120.12,8.896 120.576,7.336 121.488,6.264 C122.4,5.192 123.704,4.656 125.4,4.656 C125.944,4.656 126.488,4.716 127.032,4.836 C127.576,4.956 128.064,5.184 128.496,5.52 C128.928,5.856 129.28,6.332 129.552,6.948 C129.824,7.564 129.96,8.376 129.96,9.384 C129.96,9.912 129.912,10.496 129.816,11.136 L122.112,11.136 C122.112,11.84 122.184,12.464 122.328,13.008 C122.472,13.552 122.696,14.012 123,14.388 C123.304,14.764 123.7,15.052 124.188,15.252 C124.676,15.452 125.272,15.552 125.976,15.552 C126.52,15.552 127.064,15.456 127.608,15.264 C128.152,15.072 128.56,14.848 128.832,14.592 L129.552,15.984 Z M125.424,6.336 C124.48,6.336 123.724,6.584 123.156,7.08 C122.588,7.576 122.248,8.424 122.136,9.624 L128.088,9.624 C128.088,8.408 127.856,7.556 127.392,7.068 C126.928,6.58 126.272,6.336 125.424,6.336 Z" id="Shape"></path>
            <path d="M138.648,6.792 C138.168,6.632 137.712,6.552 137.28,6.552 C136.592,6.552 136.048,6.74 135.648,7.116 C135.248,7.492 135,7.968 134.904,8.544 L134.904,16.944 L132.984,16.944 L132.984,4.944 L134.328,4.944 L134.688,6.408 L134.784,6.408 C135.088,5.864 135.452,5.444 135.876,5.148 C136.3,4.852 136.84,4.704 137.496,4.704 C137.96,4.704 138.48,4.784 139.056,4.944 L138.648,6.792 Z" id="Path"></path>
        </g>
        <rect id="Rectangle" fill="#FCBF24" opacity="0.281026931" x="2.8437919" y="122.994638" width="1152" height="44"></rect>
        <g id="chris@nuthatch-~-%-" transform="translate(9.92, 128)" fill="#0A0A0A" fill-rule="nonzero">
            <path d="M6.384,24.288 C5.472,24.288 4.628,24.152 3.852,23.88 C3.076,23.608 2.4,23.212 1.824,22.692 C1.248,22.172 0.8,21.532 0.48,20.772 C0.16,20.012 0,19.152 0,18.192 C0,17.216 0.172,16.348 0.516,15.588 C0.86,14.828 1.328,14.184 1.92,13.656 C2.512,13.128 3.204,12.728 3.996,12.456 C4.788,12.184 5.624,12.048 6.504,12.048 C7.464,12.048 8.292,12.216 8.988,12.552 C9.684,12.888 10.272,13.288 10.752,13.752 L9.768,15.024 C9.288,14.608 8.788,14.28 8.268,14.04 C7.748,13.8 7.184,13.68 6.576,13.68 C5.904,13.68 5.288,13.788 4.728,14.004 C4.168,14.22 3.692,14.528 3.3,14.928 C2.908,15.328 2.6,15.804 2.376,16.356 C2.152,16.908 2.04,17.52 2.04,18.192 C2.04,18.864 2.148,19.472 2.364,20.016 C2.58,20.56 2.884,21.028 3.276,21.42 C3.668,21.812 4.14,22.116 4.692,22.332 C5.244,22.548 5.856,22.656 6.528,22.656 C7.248,22.656 7.908,22.516 8.508,22.236 C9.108,21.956 9.648,21.608 10.128,21.192 L11.016,22.464 C10.36,23.04 9.64,23.488 8.856,23.808 C8.072,24.128 7.248,24.288 6.384,24.288 Z" id="Path"></path>
            <path d="M14.712,24 L14.712,6.912 L16.68,6.912 L16.68,11.568 L16.56,14.328 L16.632,14.328 C17.24,13.672 17.892,13.128 18.588,12.696 C19.284,12.264 20.088,12.048 21,12.048 C22.392,12.048 23.412,12.444 24.06,13.236 C24.708,14.028 25.032,15.2 25.032,16.752 L25.032,24 L23.064,24 L23.064,17.016 C23.064,15.912 22.856,15.092 22.44,14.556 C22.024,14.02 21.336,13.752 20.376,13.752 C20.024,13.752 19.7,13.796 19.404,13.884 C19.108,13.972 18.816,14.104 18.528,14.28 C18.24,14.456 17.944,14.676 17.64,14.94 C17.336,15.204 17.016,15.512 16.68,15.864 L16.68,24 L14.712,24 Z" id="Path"></path>
            <path d="M30.384,24 L30.384,12.336 L32.016,12.336 L32.184,15.096 L32.256,15.096 C32.864,14.152 33.612,13.408 34.5,12.864 C35.388,12.32 36.376,12.048 37.464,12.048 C37.896,12.048 38.296,12.084 38.664,12.156 C39.032,12.228 39.4,12.352 39.768,12.528 L39.312,14.232 C38.896,14.088 38.548,13.984 38.268,13.92 C37.988,13.856 37.616,13.824 37.152,13.824 C36.272,13.824 35.428,14.076 34.62,14.58 C33.812,15.084 33.056,15.944 32.352,17.16 L32.352,24 L30.384,24 Z" id="Path"></path>
            <path d="M48.864,24 L48.864,13.944 L43.44,13.944 L43.44,12.336 L50.832,12.336 L50.832,24 L48.864,24 Z M49.632,9.888 C49.184,9.888 48.808,9.748 48.504,9.468 C48.2,9.188 48.048,8.816 48.048,8.352 C48.048,7.888 48.2,7.516 48.504,7.236 C48.808,6.956 49.184,6.816 49.632,6.816 C50.08,6.816 50.456,6.956 50.76,7.236 C51.064,7.516 51.216,7.888 51.216,8.352 C51.216,8.816 51.064,9.188 50.76,9.468 C50.456,9.748 50.08,9.888 49.632,9.888 Z" id="Shape"></path>
            <path d="M63.12,24.288 C61.968,24.288 60.904,24.108 59.928,23.748 C58.952,23.388 58.104,22.96 57.384,22.464 L58.296,21.168 C58.968,21.648 59.708,22.032 60.516,22.32 C61.324,22.608 62.272,22.752 63.36,22.752 C64.352,22.752 65.092,22.572 65.58,22.212 C66.068,21.852 66.312,21.424 66.312,20.928 C66.312,20.704 66.272,20.496 66.192,20.304 C66.112,20.112 65.94,19.928 65.676,19.752 C65.412,19.576 65.04,19.408 64.56,19.248 C64.08,19.088 63.448,18.928 62.664,18.768 C61.144,18.448 60.004,18.02 59.244,17.484 C58.484,16.948 58.104,16.24 58.104,15.36 C58.104,14.896 58.208,14.46 58.416,14.052 C58.624,13.644 58.932,13.292 59.34,12.996 C59.748,12.7 60.252,12.468 60.852,12.3 C61.452,12.132 62.152,12.048 62.952,12.048 C63.848,12.048 64.712,12.196 65.544,12.492 C66.376,12.788 67.08,13.136 67.656,13.536 L66.696,14.808 C66.152,14.44 65.552,14.144 64.896,13.92 C64.24,13.696 63.536,13.584 62.784,13.584 C61.792,13.584 61.096,13.752 60.696,14.088 C60.296,14.424 60.096,14.816 60.096,15.264 C60.096,15.776 60.36,16.164 60.888,16.428 C61.416,16.692 62.28,16.952 63.48,17.208 C64.456,17.416 65.256,17.636 65.88,17.868 C66.504,18.1 66.996,18.36 67.356,18.648 C67.716,18.936 67.964,19.256 68.1,19.608 C68.236,19.96 68.304,20.36 68.304,20.808 C68.304,21.288 68.192,21.736 67.968,22.152 C67.744,22.568 67.412,22.936 66.972,23.256 C66.532,23.576 65.988,23.828 65.34,24.012 C64.692,24.196 63.952,24.288 63.12,24.288 Z" id="Path"></path>
            <path d="M78.264,27.456 C77.32,27.456 76.424,27.252 75.576,26.844 C74.728,26.436 73.984,25.836 73.344,25.044 C72.704,24.252 72.196,23.264 71.82,22.08 C71.444,20.896 71.256,19.536 71.256,18 C71.256,16.464 71.436,15.12 71.796,13.968 C72.156,12.816 72.656,11.856 73.296,11.088 C73.936,10.32 74.684,9.74 75.54,9.348 C76.396,8.956 77.32,8.76 78.312,8.76 C79.144,8.76 79.864,8.904 80.472,9.192 C81.08,9.48 81.584,9.88 81.984,10.392 C82.384,10.904 82.684,11.508 82.884,12.204 C83.084,12.9 83.184,13.656 83.184,14.472 L83.184,21.6 L81.984,21.6 L81.816,20.208 L81.72,20.208 C81.368,20.656 80.908,21.048 80.34,21.384 C79.772,21.72 79.176,21.888 78.552,21.888 C78.12,21.888 77.716,21.816 77.34,21.672 C76.964,21.528 76.636,21.32 76.356,21.048 C76.076,20.776 75.856,20.444 75.696,20.052 C75.536,19.66 75.456,19.224 75.456,18.744 C75.456,17.512 76,16.584 77.088,15.96 C78.176,15.336 79.744,14.896 81.792,14.64 L81.792,14.304 C81.792,13.728 81.724,13.184 81.588,12.672 C81.452,12.16 81.24,11.712 80.952,11.328 C80.664,10.944 80.292,10.64 79.836,10.416 C79.38,10.192 78.84,10.08 78.216,10.08 C77.496,10.08 76.808,10.248 76.152,10.584 C75.496,10.92 74.916,11.42 74.412,12.084 C73.908,12.748 73.508,13.58 73.212,14.58 C72.916,15.58 72.768,16.744 72.768,18.072 C72.768,19.352 72.912,20.492 73.2,21.492 C73.488,22.492 73.88,23.336 74.376,24.024 C74.872,24.712 75.456,25.236 76.128,25.596 C76.8,25.956 77.528,26.136 78.312,26.136 C79.032,26.136 79.66,26.044 80.196,25.86 C80.732,25.676 81.232,25.408 81.696,25.056 L82.368,26.136 C81.744,26.568 81.104,26.896 80.448,27.12 C79.792,27.344 79.064,27.456 78.264,27.456 Z M78.96,20.496 C79.856,20.496 80.752,19.984 81.648,18.96 L81.648,15.936 C79.984,16.16 78.8,16.492 78.096,16.932 C77.392,17.372 77.04,17.96 77.04,18.696 C77.04,19.256 77.212,19.696 77.556,20.016 C77.9,20.336 78.368,20.496 78.96,20.496 Z" id="Shape"></path>
            <path d="M86.712,24 L86.712,12.336 L88.344,12.336 L88.512,14.328 L88.608,14.328 C89.216,13.672 89.872,13.128 90.576,12.696 C91.28,12.264 92.088,12.048 93,12.048 C94.392,12.048 95.412,12.444 96.06,13.236 C96.708,14.028 97.032,15.2 97.032,16.752 L97.032,24 L95.064,24 L95.064,17.016 C95.064,15.912 94.856,15.092 94.44,14.556 C94.024,14.02 93.336,13.752 92.376,13.752 C92.024,13.752 91.7,13.796 91.404,13.884 C91.108,13.972 90.816,14.104 90.528,14.28 C90.24,14.456 89.944,14.676 89.64,14.94 C89.336,15.204 89.016,15.512 88.68,15.864 L88.68,24 L86.712,24 Z" id="Path"></path>
            <path d="M104.784,24.288 C103.376,24.288 102.348,23.892 101.7,23.1 C101.052,22.308 100.728,21.136 100.728,19.584 L100.728,12.336 L102.72,12.336 L102.72,19.32 C102.72,20.424 102.924,21.244 103.332,21.78 C103.74,22.316 104.432,22.584 105.408,22.584 C106.08,22.584 106.688,22.412 107.232,22.068 C107.776,21.724 108.376,21.176 109.032,20.424 L109.032,12.336 L111,12.336 L111,24 L109.392,24 L109.224,21.96 L109.128,21.96 C108.536,22.648 107.892,23.208 107.196,23.64 C106.5,24.072 105.696,24.288 104.784,24.288 Z" id="Path"></path>
            <path d="M122.736,24.288 C121.888,24.288 121.176,24.172 120.6,23.94 C120.024,23.708 119.56,23.38 119.208,22.956 C118.856,22.532 118.604,22.024 118.452,21.432 C118.3,20.84 118.224,20.184 118.224,19.464 L118.224,13.944 L114.936,13.944 L114.936,12.456 L118.296,12.336 L118.56,8.592 L120.192,8.592 L120.192,12.336 L125.928,12.336 L125.928,13.944 L120.192,13.944 L120.192,19.488 C120.192,20.016 120.24,20.476 120.336,20.868 C120.432,21.26 120.592,21.592 120.816,21.864 C121.04,22.136 121.344,22.34 121.728,22.476 C122.112,22.612 122.584,22.68 123.144,22.68 C123.704,22.68 124.208,22.632 124.656,22.536 C125.104,22.44 125.536,22.312 125.952,22.152 L126.384,23.592 C125.856,23.784 125.3,23.948 124.716,24.084 C124.132,24.22 123.472,24.288 122.736,24.288 Z" id="Path"></path>
            <path d="M129.912,24 L129.912,6.912 L131.88,6.912 L131.88,11.568 L131.76,14.328 L131.832,14.328 C132.44,13.672 133.092,13.128 133.788,12.696 C134.484,12.264 135.288,12.048 136.2,12.048 C137.592,12.048 138.612,12.444 139.26,13.236 C139.908,14.028 140.232,15.2 140.232,16.752 L140.232,24 L138.264,24 L138.264,17.016 C138.264,15.912 138.056,15.092 137.64,14.556 C137.224,14.02 136.536,13.752 135.576,13.752 C135.224,13.752 134.9,13.796 134.604,13.884 C134.308,13.972 134.016,14.104 133.728,14.28 C133.44,14.456 133.144,14.676 132.84,14.94 C132.536,15.204 132.216,15.512 131.88,15.864 L131.88,24 L129.912,24 Z" id="Path"></path>
            <path d="M147.984,24.288 C147.44,24.288 146.928,24.212 146.448,24.06 C145.968,23.908 145.548,23.692 145.188,23.412 C144.828,23.132 144.544,22.788 144.336,22.38 C144.128,21.972 144.024,21.504 144.024,20.976 C144.024,20.32 144.18,19.748 144.492,19.26 C144.804,18.772 145.3,18.352 145.98,18 C146.66,17.648 147.536,17.36 148.608,17.136 C149.68,16.912 150.968,16.736 152.472,16.608 C152.456,16.208 152.392,15.832 152.28,15.48 C152.168,15.128 151.992,14.82 151.752,14.556 C151.512,14.292 151.196,14.08 150.804,13.92 C150.412,13.76 149.936,13.68 149.376,13.68 C148.608,13.68 147.872,13.828 147.168,14.124 C146.464,14.42 145.84,14.736 145.296,15.072 L144.528,13.728 C144.816,13.536 145.156,13.34 145.548,13.14 C145.94,12.94 146.356,12.76 146.796,12.6 C147.236,12.44 147.704,12.308 148.2,12.204 C148.696,12.1 149.2,12.048 149.712,12.048 C151.312,12.048 152.5,12.484 153.276,13.356 C154.052,14.228 154.44,15.392 154.44,16.848 L154.44,24 L152.832,24 L152.664,22.416 L152.592,22.416 C151.936,22.928 151.212,23.368 150.42,23.736 C149.628,24.104 148.816,24.288 147.984,24.288 Z M148.512,22.704 C149.184,22.704 149.844,22.556 150.492,22.26 C151.14,21.964 151.8,21.536 152.472,20.976 L152.472,17.904 C151.224,18 150.18,18.136 149.34,18.312 C148.5,18.488 147.828,18.7 147.324,18.948 C146.82,19.196 146.464,19.476 146.256,19.788 C146.048,20.1 145.944,20.448 145.944,20.832 C145.944,21.168 146.016,21.452 146.16,21.684 C146.304,21.916 146.492,22.108 146.724,22.26 C146.956,22.412 147.228,22.524 147.54,22.596 C147.852,22.668 148.176,22.704 148.512,22.704 Z" id="Shape"></path>
            <path d="M165.936,24.288 C165.088,24.288 164.376,24.172 163.8,23.94 C163.224,23.708 162.76,23.38 162.408,22.956 C162.056,22.532 161.804,22.024 161.652,21.432 C161.5,20.84 161.424,20.184 161.424,19.464 L161.424,13.944 L158.136,13.944 L158.136,12.456 L161.496,12.336 L161.76,8.592 L163.392,8.592 L163.392,12.336 L169.128,12.336 L169.128,13.944 L163.392,13.944 L163.392,19.488 C163.392,20.016 163.44,20.476 163.536,20.868 C163.632,21.26 163.792,21.592 164.016,21.864 C164.24,22.136 164.544,22.34 164.928,22.476 C165.312,22.612 165.784,22.68 166.344,22.68 C166.904,22.68 167.408,22.632 167.856,22.536 C168.304,22.44 168.736,22.312 169.152,22.152 L169.584,23.592 C169.056,23.784 168.5,23.948 167.916,24.084 C167.332,24.22 166.672,24.288 165.936,24.288 Z" id="Path"></path>
            <path d="M179.184,24.288 C178.272,24.288 177.428,24.152 176.652,23.88 C175.876,23.608 175.2,23.212 174.624,22.692 C174.048,22.172 173.6,21.532 173.28,20.772 C172.96,20.012 172.8,19.152 172.8,18.192 C172.8,17.216 172.972,16.348 173.316,15.588 C173.66,14.828 174.128,14.184 174.72,13.656 C175.312,13.128 176.004,12.728 176.796,12.456 C177.588,12.184 178.424,12.048 179.304,12.048 C180.264,12.048 181.092,12.216 181.788,12.552 C182.484,12.888 183.072,13.288 183.552,13.752 L182.568,15.024 C182.088,14.608 181.588,14.28 181.068,14.04 C180.548,13.8 179.984,13.68 179.376,13.68 C178.704,13.68 178.088,13.788 177.528,14.004 C176.968,14.22 176.492,14.528 176.1,14.928 C175.708,15.328 175.4,15.804 175.176,16.356 C174.952,16.908 174.84,17.52 174.84,18.192 C174.84,18.864 174.948,19.472 175.164,20.016 C175.38,20.56 175.684,21.028 176.076,21.42 C176.468,21.812 176.94,22.116 177.492,22.332 C178.044,22.548 178.656,22.656 179.328,22.656 C180.048,22.656 180.708,22.516 181.308,22.236 C181.908,21.956 182.448,21.608 182.928,21.192 L183.816,22.464 C183.16,23.04 182.44,23.488 181.656,23.808 C180.872,24.128 180.048,24.288 179.184,24.288 Z" id="Path"></path>
            <path d="M187.512,24 L187.512,6.912 L189.48,6.912 L189.48,11.568 L189.36,14.328 L189.432,14.328 C190.04,13.672 190.692,13.128 191.388,12.696 C192.084,12.264 192.888,12.048 193.8,12.048 C195.192,12.048 196.212,12.444 196.86,13.236 C197.508,14.028 197.832,15.2 197.832,16.752 L197.832,24 L195.864,24 L195.864,17.016 C195.864,15.912 195.656,15.092 195.24,14.556 C194.824,14.02 194.136,13.752 193.176,13.752 C192.824,13.752 192.5,13.796 192.204,13.884 C191.908,13.972 191.616,14.104 191.328,14.28 C191.04,14.456 190.744,14.676 190.44,14.94 C190.136,15.204 189.816,15.512 189.48,15.864 L189.48,24 L187.512,24 Z" id="Path"></path>
            <path d="M223.392,17.832 C222.912,17.832 222.484,17.728 222.108,17.52 C221.732,17.312 221.38,17.08 221.052,16.824 C220.724,16.568 220.404,16.336 220.092,16.128 C219.78,15.92 219.456,15.816 219.12,15.816 C218.752,15.816 218.404,15.952 218.076,16.224 C217.748,16.496 217.448,17.048 217.176,17.88 L215.904,17.328 C216.32,16.208 216.816,15.428 217.392,14.988 C217.968,14.548 218.56,14.328 219.168,14.328 C219.648,14.328 220.076,14.432 220.452,14.64 C220.828,14.848 221.18,15.08 221.508,15.336 C221.836,15.592 222.156,15.824 222.468,16.032 C222.78,16.24 223.104,16.344 223.44,16.344 C223.632,16.344 223.812,16.316 223.98,16.26 C224.148,16.204 224.316,16.1 224.484,15.948 C224.652,15.796 224.808,15.584 224.952,15.312 C225.096,15.04 225.24,14.696 225.384,14.28 L226.656,14.856 C226.24,15.976 225.744,16.752 225.168,17.184 C224.592,17.616 224,17.832 223.392,17.832 Z" id="Path"></path>
            <path d="M246.888,16.296 C245.912,16.296 245.112,15.944 244.488,15.24 C243.864,14.536 243.552,13.56 243.552,12.312 C243.552,11.064 243.864,10.1 244.488,9.42 C245.112,8.74 245.912,8.4 246.888,8.4 C247.864,8.4 248.664,8.74 249.288,9.42 C249.912,10.1 250.224,11.064 250.224,12.312 C250.224,13.56 249.912,14.536 249.288,15.24 C248.664,15.944 247.864,16.296 246.888,16.296 Z M246.888,15.096 C247.4,15.096 247.84,14.868 248.208,14.412 C248.576,13.956 248.76,13.256 248.76,12.312 C248.76,11.352 248.576,10.656 248.208,10.224 C247.84,9.792 247.4,9.576 246.888,9.576 C246.376,9.576 245.936,9.792 245.568,10.224 C245.2,10.656 245.016,11.352 245.016,12.312 C245.016,13.256 245.2,13.956 245.568,14.412 C245.936,14.868 246.376,15.096 246.888,15.096 Z M244.728,23.232 L243.552,22.152 L247.944,17.64 L248.736,18.36 L244.728,23.232 Z M252.216,14.616 L251.424,13.896 L255.432,9.024 L256.608,10.104 L252.216,14.616 Z M253.296,24.288 C252.32,24.288 251.52,23.936 250.896,23.232 C250.272,22.528 249.96,21.552 249.96,20.304 C249.96,19.056 250.272,18.092 250.896,17.412 C251.52,16.732 252.32,16.392 253.296,16.392 C254.272,16.392 255.072,16.732 255.696,17.412 C256.32,18.092 256.632,19.056 256.632,20.304 C256.632,21.552 256.32,22.528 255.696,23.232 C255.072,23.936 254.272,24.288 253.296,24.288 Z M253.296,23.088 C253.808,23.088 254.248,22.86 254.616,22.404 C254.984,21.948 255.168,21.248 255.168,20.304 C255.168,19.344 254.984,18.648 254.616,18.216 C254.248,17.784 253.808,17.568 253.296,17.568 C252.784,17.568 252.344,17.784 251.976,18.216 C251.608,18.648 251.424,19.344 251.424,20.304 C251.424,21.248 251.608,21.948 251.976,22.404 C252.344,22.86 252.784,23.088 253.296,23.088 Z" id="Shape"></path>
            <polygon id="Path" points="271.68 33.6 271.68 0 286.08 0 286.08 33.6"></polygon>
        </g>
        <line x1="1151" y1="251.512942" x2="-1" y2="250.615986" id="Line" stroke="#EBEBEB" stroke-width="2" opacity="0.100000001" stroke-linecap="square" stroke-dasharray="8"></line>
    </g>
</svg>