<svg xmlns="http://www.w3.org/2000/svg" viewBox="0 0 1158 252"><g fill="none" fill-rule="evenodd"><rect width="1154" height="246" x="1.89" y="1.037" fill="#FFF" stroke="#BFBFBF" stroke-width="2" rx="10"/><g transform="translate(2.844 2.037)"><path fill="#EBEBEB" stroke="#BFBFBF" stroke-width="2" d="M1142-1c3.038 0 5.788 1.231 7.778 3.222A10.97 10.97 0 0 1 1153 10v25H-1V10C-1 6.962.231 4.212 2.222 2.222A10.97 10.97 0 0 1 10-1z"/><circle cx="17.156" cy="17" r="5.5" fill="#D8D8D8" stroke="#979797"/><circle cx="35.88" cy="17" r="5.5" fill="#D8D8D8" stroke="#979797"/><circle cx="54.603" cy="17" r="5.5" fill="#D8D8D8" stroke="#979797"/></g><g fill="#D97705" fill-rule="nonzero"><path d="M624.307 223.458q-.72.528-1.704.804a7.6 7.6 0 0 1-2.064.276q-1.392 0-2.352-.444a4 4 0 0 1-1.572-1.272q-.612-.828-.888-1.992a11.2 11.2 0 0 1-.276-2.58q0-3.048 1.344-4.668t3.864-1.62q1.152 0 1.956.18t1.452.516l-.552 1.656a5.2 5.2 0 0 0-1.224-.492 5.6 5.6 0 0 0-1.44-.18q-3.408 0-3.408 4.608 0 .912.18 1.74t.6 1.464 1.104 1.02 1.692.384q.864 0 1.548-.264t1.116-.6zM625.723 218.25q0-3.048 1.356-4.668t3.9-1.62q1.344 0 2.34.444t1.644 1.272.96 1.992.312 2.58q0 3.048-1.356 4.668t-3.9 1.62q-1.344 0-2.34-.444a4.25 4.25 0 0 1-1.644-1.272q-.648-.828-.96-1.992t-.312-2.58m1.992 0q0 .912.18 1.752t.564 1.464 1.008 1.008 1.512.384q3.264.024 3.264-4.608a8.5 8.5 0 0 0-.18-1.776 4.6 4.6 0 0 0-.564-1.464 2.9 2.9 0 0 0-1.008-.996q-.624-.372-1.512-.372-3.264-.024-3.264 4.608M646.29 224.25v-6.792q0-.96-.083-1.668-.084-.708-.324-1.188t-.684-.72-1.164-.24q-1.104 0-1.836.672a3.56 3.56 0 0 0-1.02 1.68v8.256h-1.92v-12h1.344l.36 1.464h.096a5.6 5.6 0 0 1 1.5-1.26q.852-.492 2.22-.492 1.152 0 1.884.444t1.14 1.548a3.9 3.9 0 0 1 1.524-1.464q.972-.528 2.196-.528 1.008 0 1.704.228t1.152.804.66 1.56.204 2.496v7.2h-1.92v-7.224q0-.864-.084-1.5t-.336-1.056-.696-.624-1.164-.204q-1.2 0-1.872.672t-.96 1.92v8.016zM665.779 224.25v-6.792q0-.96-.084-1.668t-.324-1.188-.684-.72-1.164-.24q-1.104 0-1.836.672a3.56 3.56 0 0 0-1.02 1.68v8.256h-1.92v-12h1.344l.36 1.464h.096a5.6 5.6 0 0 1 1.5-1.26q.852-.492 2.22-.492 1.152 0 1.884.444t1.14 1.548a3.9 3.9 0 0 1 1.524-1.464q.972-.528 2.196-.528 1.008 0 1.704.228t1.152.804.66 1.56.204 2.496v7.2h-1.92v-7.224q0-.864-.084-1.5t-.336-1.056-.696-.624-1.164-.204q-1.2 0-1.872.672t-.96 1.92v8.016zM678.043 213.138q.912-.552 2.124-.816a12 12 0 0 1 2.532-.264q1.248 0 2.004.336t1.152.876a3 3 0 0 1 .528 1.188q.132.648.132 1.296 0 1.44-.072 2.808a49 49 0 0 0-.072 2.592q0 .888.072 1.68t.264 1.464h-1.416l-.504-1.68h-.12a4 4 0 0 1-.54.66 3.5 3.5 0 0 1-.78.576 5 5 0 0 1-1.056.42q-.6.168-1.368.168t-1.428-.24-1.14-.684a3.2 3.2 0 0 1-.756-1.068 3.5 3.5 0 0 1-.276-1.416q0-1.056.432-1.764a3.1 3.1 0 0 1 1.212-1.128q.78-.42 1.872-.6t2.412-.18h.66q.324 0 .66.048.072-.72.072-1.296 0-1.32-.528-1.848t-1.92-.528q-.408 0-.876.06t-.96.168a8 8 0 0 0-.936.264q-.444.156-.78.348zm3.408 9.624q.672 0 1.2-.18t.912-.456a2.9 2.9 0 0 0 1.008-1.26v-1.992a19 19 0 0 0-1.368-.048q-.744 0-1.452.084t-1.248.312-.864.624-.324.996q0 .84.6 1.38t1.536.54M697.843 224.25v-6.84q0-1.872-.54-2.82t-1.98-.948q-1.272 0-2.1.684a3.64 3.64 0 0 0-1.164 1.716v8.208h-1.92v-12h1.344l.36 1.464h.096q.576-.768 1.548-1.26t2.316-.492q.984 0 1.728.228t1.236.804.744 1.548.252 2.46v7.248zM712.483 220.122q0 1.224.024 2.22t.216 1.956h-1.296l-.48-1.704h-.096q-.48.84-1.392 1.392t-2.136.552q-2.4 0-3.564-1.512t-1.164-4.728q0-3.072 1.452-4.668t3.996-1.596q.888 0 1.404.096t1.116.312v-4.992h1.92zm-4.848 2.736q1.224 0 1.944-.636t.984-1.932v-5.952a2.7 2.7 0 0 0-.984-.48q-.552-.144-1.464-.144-1.656 0-2.592 1.092t-.936 3.492a10 10 0 0 0 .156 1.824q.156.84.516 1.44t.948.948 1.428.348M724.723 221.298q0 .84.288 1.2t.816.36q.312 0 .672-.048t.816-.216l.216 1.512q-.384.192-1.068.312t-1.188.12q-1.08 0-1.776-.612t-.696-2.076v-14.4h1.92zM730.003 212.25h1.92v12h-1.92zm-.408-3.648q0-.552.372-.948t.948-.396.984.396.408.948-.408.912-.984.36-.948-.36a1.22 1.22 0 0 1-.372-.912M743.73 224.25v-6.84q0-1.872-.54-2.82t-1.98-.948q-1.27 0-2.1.684a3.64 3.64 0 0 0-1.163 1.716v8.208h-1.92v-12h1.344l.36 1.464h.096q.576-.768 1.548-1.26t2.316-.492q.984 0 1.728.228t1.236.804.744 1.548.252 2.46v7.248zM757.915 223.29q-.72.576-1.812.912t-2.316.336q-1.368 0-2.376-.444a4.2 4.2 0 0 1-1.656-1.272q-.648-.828-.96-1.98t-.312-2.592q0-3.072 1.368-4.68t3.912-1.608q.816 0 1.632.18t1.464.684 1.056 1.428.408 2.436q0 .792-.144 1.752h-7.704q0 1.056.216 1.872t.672 1.38 1.188.864 1.788.3q.816 0 1.632-.288t1.224-.672zm-4.128-9.648q-1.416 0-2.268.744t-1.02 2.544h5.952q0-1.824-.696-2.556t-1.968-.732"/></g><path stroke="#D97705" stroke-linecap="square" stroke-width="2" d="M138.85 179.375v22.875"/><path fill="#D97705" fill-rule="nonzero" d="M17.9 186.375a7 7 0 1 1 6.929-8.001h228.042a7.002 7.002 0 0 1 13.929 1.001 7 7 0 0 1-13.93 1H24.83a7 7 0 0 1-6.93 6m241.9-12a5 5 0 1 0 0 10 5 5 0 0 0 0-10m-241.9 0a5 5 0 1 0 0 10 5 5 0 0 0 0-10M288.804 172a7 7 0 0 1 1 13.93v17.32h-2v-17.32a7.002 7.002 0 0 1 1-13.93m0 2a5 5 0 1 0 0 10 5 5 0 0 0 0-10M691.275 137.974a7 7 0 0 1 1 13.929v51.347h-2v-51.347a7.002 7.002 0 0 1 1-13.93m0 2a5 5 0 1 0 0 10 5 5 0 0 0 0-10"/><text fill="#D97705" font-family="PTSans-Regular, PT Sans" font-size="24">
            <tspan x="46.85" y="224.25">command prompt</tspan>
        </text><text fill="#D97705" font-family="PTSans-Regular, PT Sans" font-size="24">
            <tspan x="255.804" y="224.25">cursor</tspan>
        </text><path fill="#D97705" fill-rule="nonzero" d="m47.85 82.1.001 17.32a7.002 7.002 0 0 1-1.001 13.93 7 7 0 0 1-1-13.93V82.1zm-1 19.25a5 5 0 1 0 0 10 5 5 0 0 0 0-10"/><text fill="#D97705" font-family="PTSans-Regular, PT Sans" font-size="24">
            <tspan x="24.85" y="75.099">user</tspan>
        </text><path fill="#D97705" fill-rule="nonzero" d="M145.85 82.224v17.321a7.002 7.002 0 0 1-1 13.93 7 7 0 0 1-1.001-13.93l.001-17.32zm-1 19.25a5 5 0 1 0 0 10 5 5 0 0 0 0-10"/><text fill="#D97705" font-family="PTSans-Regular, PT Sans" font-size="24">
            <tspan x="122.35" y="75.099">host</tspan>
        </text><path fill="#D97705" fill-rule="nonzero" d="M232.85 82.35v17.32a7.002 7.002 0 0 1-1 13.93 7 7 0 0 1-1.001-13.93V82.35zm-1 19.25a5 5 0 1 0 0 10 5 5 0 0 0 0-10"/><text fill="#D97705" font-family="PTSans-Regular, PT Sans" font-size="24">
            <tspan x="209.35" y="75.099">current folder</tspan>
        </text><path fill="#FCBF24" d="M2.844 122.995h1152v44h-1152z" opacity=".281"/><text fill="#0A0A0A" font-family="SourceCodePro-Regular, Source Code Pro" font-size="24">
            <tspan x="8" y="152">chris@nuthatch ~ % █ </tspan>
        </text><path stroke="#EBEBEB" stroke-dasharray="8" stroke-linecap="square" stroke-width="2" d="m1151 251.513-1152-.897" opacity=".1"/></g></svg>
