<svg xmlns="http://www.w3.org/2000/svg" viewBox="0 0 1158 264"><g fill="none" fill-rule="evenodd"><rect width="1154" height="262" x="1.89" y="1.037" fill="#FFF" stroke="#BFBFBF" stroke-width="2" rx="10"/><g transform="translate(3 2.037)"><path fill="#EBEBEB" stroke="#BFBFBF" stroke-width="2" d="M1142-1c3.038 0 5.788 1.231 7.778 3.222A10.97 10.97 0 0 1 1153 10v25H-1V10C-1 6.962.231 4.212 2.222 2.222A10.97 10.97 0 0 1 10-1z"/><circle cx="17.156" cy="17" r="5.5" fill="#D8D8D8" stroke="#979797"/><circle cx="35.88" cy="17" r="5.5" fill="#D8D8D8" stroke="#979797"/><circle cx="54.603" cy="17" r="5.5" fill="#D8D8D8" stroke="#979797"/></g><path stroke="#D97705" stroke-linecap="square" stroke-width="2" d="M493.5 193.638v22.875"/><g fill="#D97705" fill-rule="nonzero"><path d="M453.54 224.88a12 12 0 0 1 1.968-.287 31 31 0 0 1 2.088-.072q1.104 0 2.244.216t2.076.792a4.46 4.46 0 0 1 1.524 1.584q.588 1.008.588 2.568 0 1.536-.552 2.592a4.86 4.86 0 0 1-1.464 1.716 5.9 5.9 0 0 1-2.088.948q-1.176.288-2.424.288h-.396a14 14 0 0 1-1.164-.048 4 4 0 0 1-.408-.048v6.384h-1.992zm4.104 1.369q-.624 0-1.2.024t-.912.12v6.96q.12.048.384.06l.552.024q.288.012.552.012h.384q.816 0 1.62-.156a4.2 4.2 0 0 0 1.452-.564 3 3 0 0 0 1.044-1.152q.396-.744.396-1.896 0-.984-.372-1.644a3 3 0 0 0-.984-1.056 4.2 4.2 0 0 0-1.38-.564 7.2 7.2 0 0 0-1.536-.168M467.172 229.513h1.92v12h-1.92zm-.408-3.648q0-.552.372-.948t.948-.396.984.396.408.948-.408.912-.984.36-.948-.36a1.22 1.22 0 0 1-.372-.912M473.196 229.513h1.32l.36 1.44h.096q.552-.84 1.428-1.284t2.004-.444q2.4 0 3.576 1.416t1.176 4.632q0 1.512-.396 2.724t-1.116 2.052-1.74 1.296-2.268.456q-.888 0-1.404-.108a5.7 5.7 0 0 1-1.116-.372v4.992h-1.92zm4.848 1.392q-1.224 0-1.932.636t-.996 1.932v5.952q.432.336.984.516t1.464.18q1.656 0 2.628-1.236t.972-3.636q0-.984-.168-1.788t-.54-1.368a2.6 2.6 0 0 0-.96-.876q-.588-.312-1.452-.312M494.94 240.553q-.72.576-1.812.912t-2.316.336q-1.368 0-2.376-.444a4.2 4.2 0 0 1-1.656-1.272q-.648-.828-.96-1.98t-.312-2.592q0-3.072 1.368-4.68t3.912-1.608q.816 0 1.632.18t1.464.684 1.056 1.428.408 2.436q0 .792-.144 1.752H487.5q0 1.056.216 1.872t.672 1.38 1.188.864 1.788.3q.816 0 1.632-.288t1.224-.672zm-4.128-9.648q-1.416 0-2.268.744t-1.02 2.544h5.952q0-1.824-.696-2.556t-1.968-.732M500.508 238.56q0 .84.288 1.2t.816.36q.312 0 .672-.047.36-.048.816-.216l.216 1.512q-.384.192-1.068.312t-1.188.12q-1.08 0-1.776-.612t-.696-2.076v-14.4h1.92zM505.788 229.513h1.92v12h-1.92zm-.408-3.648q0-.552.372-.948t.948-.396.984.396.408.948-.408.912-.984.36-.948-.36a1.22 1.22 0 0 1-.372-.912M519.516 241.513v-6.84q0-1.872-.54-2.82t-1.98-.948q-1.272 0-2.1.684a3.64 3.64 0 0 0-1.164 1.716v8.208h-1.92v-12h1.344l.36 1.464h.096q.576-.768 1.548-1.26t2.316-.492q.984 0 1.728.228t1.236.804.744 1.548.252 2.46v7.248zM533.7 240.553q-.72.576-1.812.912t-2.316.336q-1.368 0-2.376-.444a4.2 4.2 0 0 1-1.656-1.272q-.648-.828-.96-1.98t-.312-2.592q0-3.072 1.368-4.68t3.912-1.608q.816 0 1.632.18t1.464.684 1.056 1.428.408 2.436q0 .792-.144 1.752h-7.704q0 1.056.216 1.872t.672 1.38 1.188.864 1.788.3q.816 0 1.632-.288t1.224-.672zm-4.128-9.648q-1.416 0-2.268.744t-1.02 2.544h5.952q0-1.824-.696-2.556t-1.968-.732"/></g><path fill="#D97705" fill-rule="nonzero" d="M701 184.638a7 7 0 1 1-6.929 8.001H292.929A7.002 7.002 0 0 1 279 191.638a7 7 0 0 1 13.929-1.001h401.142a7 7 0 0 1 6.929-5.999m0 2a5 5 0 1 0 0 10 5 5 0 0 0 0-10m-415 0a5 5 0 1 0 0 10 5 5 0 0 0 0-10M415.724 85l.001 17.321a7.002 7.002 0 0 1-1.001 13.929 7 7 0 0 1-1-13.93V85zm-1 19.25a5 5 0 1 0 0 10 5 5 0 0 0 0-10"/><g fill="#D97705" fill-rule="nonzero"><path d="M394.177 57.513a12 12 0 0 1 1.968-.288 31 31 0 0 1 2.088-.072q1.104 0 2.244.216t2.076.792a4.46 4.46 0 0 1 1.524 1.584q.588 1.008.588 2.568 0 1.536-.552 2.592a4.86 4.86 0 0 1-1.464 1.716 5.9 5.9 0 0 1-2.088.948q-1.176.288-2.424.288h-.396a14 14 0 0 1-1.164-.048 4 4 0 0 1-.408-.048v6.384h-1.992zm4.104 1.368q-.624 0-1.2.024t-.912.12v6.96q.12.048.384.06l.552.024q.288.012.552.012h.384q.816 0 1.62-.156a4.2 4.2 0 0 0 1.452-.564 3 3 0 0 0 1.044-1.152q.396-.744.396-1.896 0-.984-.372-1.644a3 3 0 0 0-.984-1.056 4.2 4.2 0 0 0-1.38-.564 7.2 7.2 0 0 0-1.536-.168M407.81 62.145h1.92v12h-1.92zm-.409-3.648q0-.552.372-.948t.948-.396.984.396.408.948-.408.912-.984.36-.948-.36a1.22 1.22 0 0 1-.372-.912M413.833 62.145h1.32l.36 1.44h.096q.552-.84 1.428-1.284t2.004-.444q2.4 0 3.576 1.416t1.176 4.632q0 1.512-.396 2.724t-1.116 2.052-1.74 1.296-2.268.456q-.888 0-1.404-.108a5.7 5.7 0 0 1-1.116-.372v4.992h-1.92zm4.848 1.392q-1.224 0-1.932.636t-.996 1.932v5.952q.432.336.984.516t1.464.18q1.656 0 2.628-1.236t.972-3.636q0-.984-.168-1.788t-.54-1.368a2.6 2.6 0 0 0-.96-.876q-.588-.312-1.452-.312M435.577 73.185q-.72.576-1.812.912t-2.316.336q-1.368 0-2.376-.444a4.2 4.2 0 0 1-1.656-1.272q-.648-.828-.96-1.98t-.312-2.592q0-3.072 1.368-4.68t3.912-1.608q.816 0 1.632.18t1.464.684 1.056 1.428.408 2.436q0 .792-.144 1.752h-7.704q0 1.056.216 1.872t.672 1.38 1.188.864 1.788.3q.816 0 1.632-.288t1.224-.672zm-4.128-9.648q-1.416 0-2.268.744t-1.02 2.544h5.952q0-1.824-.696-2.556t-1.968-.732"/></g><path fill="#D97705" fill-rule="nonzero" d="M574.304 85v17.32a7.002 7.002 0 0 1-1 13.93 7 7 0 0 1-1-13.93V85zm-1 19.25a5 5 0 1 0 0 10 5 5 0 0 0 0-10"/><g fill="#D97705" fill-rule="nonzero"><path d="M552.764 57.506a12 12 0 0 1 1.968-.288 31 31 0 0 1 2.088-.073q1.104 0 2.244.216 1.14.217 2.076.793a4.46 4.46 0 0 1 1.524 1.583q.588 1.008.588 2.568 0 1.537-.552 2.592a4.86 4.86 0 0 1-1.464 1.716 5.9 5.9 0 0 1-2.088.948q-1.176.288-2.424.288h-.396a14 14 0 0 1-1.164-.047 4 4 0 0 1-.408-.049v6.385h-1.992zm4.104 1.367q-.624 0-1.2.025-.576.023-.912.12v6.96q.12.048.384.06l.552.023q.288.012.552.012h.384q.816 0 1.62-.155a4.2 4.2 0 0 0 1.452-.565 3 3 0 0 0 1.044-1.151q.396-.745.396-1.897 0-.983-.372-1.644a3 3 0 0 0-.984-1.056 4.2 4.2 0 0 0-1.38-.563 7.2 7.2 0 0 0-1.536-.169M566.396 62.137h1.92v12h-1.92zm-.408-3.648q0-.551.372-.947.372-.397.948-.397t.984.396.408.949q0 .55-.408.911-.408.36-.984.36t-.948-.36a1.22 1.22 0 0 1-.372-.912M572.42 62.137h1.32l.36 1.44h.096q.552-.84 1.428-1.284.876-.443 2.004-.444 2.4 0 3.576 1.416 1.176 1.417 1.176 4.632 0 1.512-.396 2.724t-1.116 2.053-1.74 1.295q-1.02.457-2.268.457-.888 0-1.404-.109a5.7 5.7 0 0 1-1.116-.371v4.992h-1.92zm4.848 1.392q-1.224 0-1.932.636t-.996 1.932v5.953q.432.335.984.516.552.18 1.464.18 1.656 0 2.628-1.236.972-1.237.972-3.637 0-.984-.168-1.788-.168-.803-.54-1.367a2.6 2.6 0 0 0-.96-.877q-.588-.312-1.452-.312M594.164 73.178q-.72.575-1.812.912-1.092.335-2.316.335-1.368 0-2.376-.444a4.2 4.2 0 0 1-1.656-1.272q-.648-.828-.96-1.98-.312-1.151-.312-2.591 0-3.074 1.368-4.68 1.368-1.608 3.912-1.608.816 0 1.632.18t1.464.683q.648.505 1.056 1.428.408.924.408 2.436 0 .793-.144 1.752h-7.704q0 1.057.216 1.873.216.815.672 1.38.456.563 1.188.864.732.3 1.788.3.816 0 1.632-.288t1.224-.672zm-4.128-9.648q-1.416 0-2.268.743-.852.744-1.02 2.544h5.952q0-1.823-.696-2.555t-1.968-.733"/></g><path fill="#FCBF24" d="M2.844 121.995h1152v44h-1152z" opacity=".281"/><text fill="#0A0A0A" font-family="SourceCodePro-Regular, Source Code Pro" font-size="24">
            <tspan x="8" y="151">chris@nuthatch ~ %  </tspan>
        </text><g fill="#0A0A0A" fill-rule="nonzero"><path d="M286.232 151.288q-1.416 0-2.616-.42t-2.1-1.212a5.45 5.45 0 0 1-1.404-1.956q-.504-1.164-.504-2.652t.564-2.652a5.8 5.8 0 0 1 1.512-1.956 6.7 6.7 0 0 1 2.196-1.212 8.2 8.2 0 0 1 2.616-.42q1.416 0 2.556.456t1.908 1.152l-1.632 2.184q-1.32-.936-2.64-.936-1.536 0-2.496.912t-.96 2.472.924 2.472 2.412.912q.936 0 1.716-.336a8 8 0 0 0 1.428-.792l1.416 2.232a7 7 0 0 1-2.376 1.332q-1.296.42-2.52.42M299.6 151.288q-1.176 0-2.268-.42a6 6 0 0 1-1.944-1.212 5.75 5.75 0 0 1-1.356-1.956q-.504-1.164-.504-2.652t.504-2.652a5.75 5.75 0 0 1 1.356-1.956 6 6 0 0 1 1.944-1.212 6.3 6.3 0 0 1 2.268-.42q1.176 0 2.268.42t1.944 1.212a5.75 5.75 0 0 1 1.356 1.956q.504 1.164.504 2.652t-.504 2.652a5.75 5.75 0 0 1-1.356 1.956 6 6 0 0 1-1.944 1.212q-1.092.42-2.268.42m0-2.856q1.224 0 1.836-.912t.612-2.472-.612-2.472-1.836-.912-1.836.912-.612 2.472.612 2.472 1.836.912M307.64 151v-11.904h2.664l.24 1.464h.096q.336-.72.936-1.236t1.632-.516q.768 0 1.308.492t.756 1.452a3.7 3.7 0 0 1 .972-1.38q.636-.564 1.668-.564 1.296 0 1.98 1.02t.684 2.82V151h-3.36v-8.112q0-.552-.144-.816t-.504-.264q-.336 0-.576.288t-.504.864V151h-2.76v-8.112q0-1.08-.672-1.08-.336 0-.576.288t-.48.864V151zM322.04 151v-11.904h2.664l.24 1.464h.096q.336-.72.936-1.236t1.632-.516q.768 0 1.308.492t.756 1.452a3.7 3.7 0 0 1 .972-1.38q.636-.564 1.668-.564 1.296 0 1.98 1.02t.684 2.82V151h-3.36v-8.112q0-.552-.144-.816t-.504-.264q-.336 0-.576.288t-.504.864V151h-2.76v-8.112q0-1.08-.672-1.08-.336 0-.576.288t-.48.864V151zM340.976 151.288q-.912 0-1.632-.276a3.5 3.5 0 0 1-1.224-.768 3.5 3.5 0 0 1-.78-1.14 3.6 3.6 0 0 1-.276-1.416q0-1.008.432-1.764t1.38-1.284 2.436-.852 3.6-.444q-.096-.816-.708-1.272t-1.836-.456q-.864 0-1.74.3t-1.884.804l-1.248-2.304a14 14 0 0 1 2.628-1.152 9.5 9.5 0 0 1 2.94-.456q2.496 0 3.936 1.32t1.44 4.056V151h-2.88l-.264-1.344h-.096a9.5 9.5 0 0 1-1.992 1.164 5.6 5.6 0 0 1-2.232.468m1.128-2.736q.792 0 1.488-.324a7 7 0 0 0 1.32-.804v-1.968q-1.32.072-2.184.24t-1.368.42-.708.588a1.36 1.36 0 0 0-.204.72q0 .576.444.852t1.212.276M351.728 151v-11.904h2.88l.264 1.584h.096a7.9 7.9 0 0 1 1.764-1.32q.996-.552 2.34-.552 2.016 0 2.952 1.296t.936 3.552V151h-3.528v-6.888q0-1.2-.384-1.752t-1.368-.552q-.72 0-1.26.312t-1.164.936V151zM370.544 151.288q-1.128 0-2.052-.432a4.5 4.5 0 0 1-1.584-1.236q-.66-.804-1.02-1.956t-.36-2.616.432-2.616 1.14-1.956a5 5 0 0 1 1.62-1.236 4.4 4.4 0 0 1 1.896-.432q1.008 0 1.704.324t1.296.948h.096l-.168-1.848v-4.056h3.528V151h-2.88l-.264-1.224h-.072q-.672.648-1.536 1.08a3.9 3.9 0 0 1-1.776.432m.912-2.88q.6 0 1.104-.252t.984-.852v-4.824a3 3 0 0 0-.972-.612 3 3 0 0 0-1.02-.18q-.984 0-1.692.816t-.708 2.496q0 1.776.6 2.592t1.704.816M380.696 151v-2.856h4.104v-8.808h-3.384v-2.184q.768-.12 1.38-.252t1.116-.3.948-.372.876-.468h2.592v12.384h3.456V151zM413.24 157v-24h3.12v24zM444.632 151.288q-1.416 0-2.616-.42t-2.1-1.212a5.45 5.45 0 0 1-1.404-1.956q-.504-1.164-.504-2.652t.564-2.652a5.8 5.8 0 0 1 1.512-1.956 6.7 6.7 0 0 1 2.196-1.212 8.2 8.2 0 0 1 2.616-.42q1.416 0 2.556.456t1.908 1.152l-1.632 2.184q-1.32-.936-2.64-.936-1.536 0-2.496.912t-.96 2.472.924 2.472 2.412.912q.936 0 1.716-.336a8 8 0 0 0 1.428-.792l1.416 2.232a7 7 0 0 1-2.376 1.332q-1.296.42-2.52.42M458 151.288q-1.176 0-2.268-.42a6 6 0 0 1-1.944-1.212 5.75 5.75 0 0 1-1.356-1.956q-.504-1.164-.504-2.652t.504-2.652a5.75 5.75 0 0 1 1.356-1.956 6 6 0 0 1 1.944-1.212 6.3 6.3 0 0 1 2.268-.42q1.176 0 2.268.42t1.944 1.212a5.75 5.75 0 0 1 1.356 1.956q.504 1.164.504 2.652t-.504 2.652a5.75 5.75 0 0 1-1.356 1.956 6 6 0 0 1-1.944 1.212q-1.092.42-2.268.42m0-2.856q1.224 0 1.836-.912t.612-2.472-.612-2.472-1.836-.912-1.836.912-.612 2.472.612 2.472 1.836.912M466.04 151v-11.904h2.664l.24 1.464h.096q.336-.72.936-1.236t1.632-.516q.768 0 1.308.492t.756 1.452a3.7 3.7 0 0 1 .972-1.38q.636-.564 1.668-.564 1.296 0 1.98 1.02t.684 2.82V151h-3.36v-8.112q0-.552-.144-.816t-.504-.264q-.336 0-.576.288t-.504.864V151h-2.76v-8.112q0-1.08-.672-1.08-.336 0-.576.288t-.48.864V151zM480.44 151v-11.904h2.664l.24 1.464h.096q.336-.72.936-1.236t1.632-.516q.768 0 1.308.492t.756 1.452a3.7 3.7 0 0 1 .972-1.38q.636-.564 1.668-.564 1.296 0 1.98 1.02t.684 2.82V151h-3.36v-8.112q0-.552-.144-.816t-.504-.264q-.336 0-.576.288t-.504.864V151h-2.76v-8.112q0-1.08-.672-1.08-.336 0-.576.288t-.48.864V151zM499.376 151.288q-.912 0-1.632-.276a3.5 3.5 0 0 1-1.224-.768 3.5 3.5 0 0 1-.78-1.14 3.6 3.6 0 0 1-.276-1.416q0-1.008.432-1.764t1.38-1.284 2.436-.852 3.6-.444q-.096-.816-.708-1.272t-1.836-.456q-.864 0-1.74.3t-1.884.804l-1.248-2.304a14 14 0 0 1 2.628-1.152 9.5 9.5 0 0 1 2.94-.456q2.496 0 3.936 1.32t1.44 4.056V151h-2.88l-.264-1.344h-.096a9.5 9.5 0 0 1-1.992 1.164 5.6 5.6 0 0 1-2.232.468m1.128-2.736q.792 0 1.488-.324a7 7 0 0 0 1.32-.804v-1.968q-1.32.072-2.184.24t-1.368.42-.708.588a1.36 1.36 0 0 0-.204.72q0 .576.444.852t1.212.276M510.128 151v-11.904h2.88l.264 1.584h.096a7.9 7.9 0 0 1 1.764-1.32q.996-.552 2.34-.552 2.016 0 2.952 1.296t.936 3.552V151h-3.528v-6.888q0-1.2-.384-1.752t-1.368-.552q-.72 0-1.26.312t-1.164.936V151zM528.944 151.288q-1.128 0-2.052-.432a4.5 4.5 0 0 1-1.584-1.236q-.66-.804-1.02-1.956t-.36-2.616.432-2.616 1.14-1.956a5 5 0 0 1 1.62-1.236 4.4 4.4 0 0 1 1.896-.432q1.008 0 1.704.324t1.296.948h.096l-.168-1.848v-4.056h3.528V151h-2.88l-.264-1.224h-.072q-.672.648-1.536 1.08a3.9 3.9 0 0 1-1.776.432m.912-2.88q.6 0 1.104-.252t.984-.852v-4.824a3 3 0 0 0-.972-.612 3 3 0 0 0-1.02-.18q-.984 0-1.692.816t-.708 2.496q0 1.776.6 2.592t1.704.816M538.592 151v-2.016q1.632-1.368 2.976-2.556a33 33 0 0 0 2.304-2.22q.96-1.032 1.488-1.944t.528-1.728q0-1.128-.648-1.716t-1.848-.588q-.912 0-1.668.468a8.4 8.4 0 0 0-1.404 1.092l-1.896-1.896q.6-.6 1.188-1.056a6.3 6.3 0 0 1 1.248-.756q.66-.3 1.392-.456a7.8 7.8 0 0 1 1.62-.156q1.2 0 2.184.348t1.692.984 1.104 1.524.396 1.992q0 .96-.456 1.956a10 10 0 0 1-1.236 1.992 21 21 0 0 1-1.788 1.992 45 45 0 0 1-2.112 1.956q.648-.072 1.404-.132t1.356-.06h3.624V151zM571.64 157v-24h3.12v24zM603.032 151.288q-1.416 0-2.616-.42t-2.1-1.212a5.45 5.45 0 0 1-1.404-1.956q-.504-1.164-.504-2.652t.564-2.652a5.8 5.8 0 0 1 1.512-1.956 6.7 6.7 0 0 1 2.196-1.212 8.2 8.2 0 0 1 2.616-.42q1.416 0 2.556.456t1.908 1.152l-1.632 2.184q-1.32-.936-2.64-.936-1.536 0-2.496.912t-.96 2.472.924 2.472 2.412.912q.936 0 1.716-.336a8 8 0 0 0 1.428-.792l1.416 2.232a7 7 0 0 1-2.376 1.332q-1.296.42-2.52.42M616.4 151.288q-1.176 0-2.268-.42a6 6 0 0 1-1.944-1.212 5.75 5.75 0 0 1-1.356-1.956q-.504-1.164-.504-2.652t.504-2.652a5.75 5.75 0 0 1 1.356-1.956 6 6 0 0 1 1.944-1.212 6.3 6.3 0 0 1 2.268-.42q1.176 0 2.268.42t1.944 1.212a5.75 5.75 0 0 1 1.356 1.956q.504 1.164.504 2.652t-.504 2.652a5.75 5.75 0 0 1-1.356 1.956 6 6 0 0 1-1.944 1.212q-1.092.42-2.268.42m0-2.856q1.224 0 1.836-.912t.612-2.472-.612-2.472-1.836-.912-1.836.912-.612 2.472.612 2.472 1.836.912M624.44 151v-11.904h2.664l.24 1.464h.096q.336-.72.936-1.236t1.632-.516q.768 0 1.308.492t.756 1.452a3.7 3.7 0 0 1 .972-1.38q.636-.564 1.668-.564 1.296 0 1.98 1.02t.684 2.82V151h-3.36v-8.112q0-.552-.144-.816t-.504-.264q-.336 0-.576.288t-.504.864V151h-2.76v-8.112q0-1.08-.672-1.08-.336 0-.576.288t-.48.864V151zM638.84 151v-11.904h2.664l.24 1.464h.096q.336-.72.936-1.236t1.632-.516q.768 0 1.308.492t.756 1.452a3.7 3.7 0 0 1 .972-1.38q.636-.564 1.668-.564 1.296 0 1.98 1.02t.684 2.82V151h-3.36v-8.112q0-.552-.144-.816t-.504-.264q-.336 0-.576.288t-.504.864V151h-2.76v-8.112q0-1.08-.672-1.08-.336 0-.576.288t-.48.864V151zM657.776 151.288q-.912 0-1.632-.276a3.5 3.5 0 0 1-1.224-.768 3.5 3.5 0 0 1-.78-1.14 3.6 3.6 0 0 1-.276-1.416q0-1.008.432-1.764t1.38-1.284 2.436-.852 3.6-.444q-.096-.816-.708-1.272t-1.836-.456q-.864 0-1.74.3t-1.884.804l-1.248-2.304a14 14 0 0 1 2.628-1.152 9.5 9.5 0 0 1 2.94-.456q2.496 0 3.936 1.32t1.44 4.056V151h-2.88l-.264-1.344H662a9.5 9.5 0 0 1-1.992 1.164 5.6 5.6 0 0 1-2.232.468m1.128-2.736q.792 0 1.488-.324a7 7 0 0 0 1.32-.804v-1.968q-1.32.072-2.184.24t-1.368.42-.708.588a1.36 1.36 0 0 0-.204.72q0 .576.444.852t1.212.276M668.528 151v-11.904h2.88l.264 1.584h.096a7.9 7.9 0 0 1 1.764-1.32q.996-.552 2.34-.552 2.016 0 2.952 1.296t.936 3.552V151h-3.528v-6.888q0-1.2-.384-1.752t-1.368-.552q-.72 0-1.26.312t-1.164.936V151zM687.344 151.288q-1.128 0-2.052-.432a4.5 4.5 0 0 1-1.584-1.236q-.66-.804-1.02-1.956t-.36-2.616.432-2.616 1.14-1.956a5 5 0 0 1 1.62-1.236 4.4 4.4 0 0 1 1.896-.432q1.008 0 1.704.324t1.296.948h.096l-.168-1.848v-4.056h3.528V151h-2.88l-.264-1.224h-.072q-.672.648-1.536 1.08a3.9 3.9 0 0 1-1.776.432m.912-2.88q.6 0 1.104-.252t.984-.852v-4.824a3 3 0 0 0-.972-.612 3 3 0 0 0-1.02-.18q-.984 0-1.692.816t-.708 2.496q0 1.776.6 2.592t1.704.816M702.296 151.288q-1.968 0-3.384-.588t-2.304-1.572l1.632-2.232a7 7 0 0 0 1.716 1.104q.948.432 2.004.432 1.248 0 2.052-.468t.804-1.332q0-.504-.216-.912t-.744-.684-1.416-.432-2.232-.156v-2.496q2.256 0 3.18-.564t.924-1.476q0-.792-.6-1.236t-1.656-.444q-.912 0-1.68.36a8 8 0 0 0-1.56.984l-1.776-2.16a9.4 9.4 0 0 1 2.412-1.428 7.4 7.4 0 0 1 2.772-.516q1.248 0 2.28.276t1.776.816 1.152 1.308.408 1.776q0 1.2-.768 2.028t-2.136 1.356v.096q1.44.384 2.424 1.308t.984 2.412q0 1.056-.492 1.884a4.4 4.4 0 0 1-1.32 1.392 6.4 6.4 0 0 1-1.932.864q-1.104.3-2.304.3"/></g></g></svg>
