<?xml version="1.0" encoding="UTF-8"?>
<svg width="1158px" height="420px" viewBox="0 0 1158 420" version="1.1" xmlns="http://www.w3.org/2000/svg" xmlns:xlink="http://www.w3.org/1999/xlink">
    <title>chapter-02-linux-file-permissions</title>
    <g id="chapter-02-linux-file-permissions" stroke="none" stroke-width="1" fill="none" fill-rule="evenodd">
        <rect id="Border" stroke="#BFBFBF" stroke-width="2" x="1" y="1" width="1156" height="418" rx="12"></rect>
        <polygon id="Path" fill="#FAFAF9" points="215.051275 90.4 925.447442 90.4 925.447442 191 225.922 360 40.5753282 325.519805"></polygon>
        <rect id="Rectangle" fill="#FFFBEB" x="287.549992" y="68.7893043" width="209" height="154.332676"></rect>
        <rect id="Rectangle" fill="#FFFBEB" x="716.023795" y="68.7893043" width="209.5" height="154.332676"></rect>
        <rect id="Rectangle" fill="#FEF4C7" x="496.549992" y="68.7893043" width="219.449829" height="154.332676"></rect>
        <rect id="Inset-Zoom" stroke="#BFBFBF" stroke-width="0.862004887" fill="#FAFAF9" x="41.0063307" y="325.950807" width="184.484667" height="33.6181906"></rect>
        <g id="listing" transform="translate(44.2247, 329.52)" fill="#0A0A0A" fill-rule="nonzero">
            <path d="M6.33,21.84 C5.37,21.84 4.505,21.67 3.735,21.33 C2.965,20.99 2.3,20.495 1.74,19.845 C1.18,19.195 0.75,18.4 0.45,17.46 C0.15,16.52 0,15.44 0,14.22 C0,13.04 0.185,11.975 0.555,11.025 C0.925,10.075 1.415,9.27 2.025,8.61 C2.635,7.95 3.34,7.44 4.14,7.08 C4.94,6.72 5.77,6.54 6.63,6.54 C7.51,6.54 8.295,6.705 8.985,7.035 C9.675,7.365 10.34,7.83 10.98,8.43 L11.07,8.43 L10.95,5.73 L10.95,0.12 L13.41,0.12 L13.41,21.48 L11.37,21.48 L11.16,19.56 L11.07,19.56 C10.47,20.18 9.755,20.715 8.925,21.165 C8.095,21.615 7.23,21.84 6.33,21.84 Z M6.84,19.77 C8.28,19.77 9.65,19.04 10.95,17.58 L10.95,10.32 C10.29,9.7 9.645,9.26 9.015,9 C8.385,8.74 7.75,8.61 7.11,8.61 C6.47,8.61 5.875,8.745 5.325,9.015 C4.775,9.285 4.295,9.665 3.885,10.155 C3.475,10.645 3.15,11.23 2.91,11.91 C2.67,12.59 2.55,13.35 2.55,14.19 C2.55,15.95 2.925,17.32 3.675,18.3 C4.425,19.28 5.48,19.77 6.84,19.77 Z" id="Shape"></path>
            <path d="M20.58,21.48 L20.58,6.9 L22.62,6.9 L22.83,10.35 L22.92,10.35 C23.68,9.17 24.615,8.24 25.725,7.56 C26.835,6.88 28.07,6.54 29.43,6.54 C29.97,6.54 30.47,6.585 30.93,6.675 C31.39,6.765 31.85,6.92 32.31,7.14 L31.74,9.27 C31.22,9.09 30.785,8.96 30.435,8.88 C30.085,8.8 29.62,8.76 29.04,8.76 C27.94,8.76 26.885,9.075 25.875,9.705 C24.865,10.335 23.92,11.41 23.04,12.93 L23.04,21.48 L20.58,21.48 Z" id="Path"></path>
            <path d="M37.62,21.48 L34.44,6.9 L36.9,6.9 L38.64,15.36 C38.78,16.06 38.9,16.73 39,17.37 C39.1,18.01 39.2,18.68 39.3,19.38 L39.42,19.38 C39.52,18.68 39.645,18.005 39.795,17.355 C39.945,16.705 40.1,16.04 40.26,15.36 L42.06,7.8 L44.52,7.8 L46.26,15.36 C46.42,16.06 46.585,16.73 46.755,17.37 C46.925,18.01 47.06,18.68 47.16,19.38 L47.28,19.38 C47.4,18.68 47.505,18.01 47.595,17.37 C47.685,16.73 47.8,16.06 47.94,15.36 L49.68,6.9 L51.96,6.9 L48.84,21.48 L45.66,21.48 L43.98,14.52 C43.74,13.5 43.5,12.06 43.26,10.2 L43.14,10.2 C42.9,12.06 42.66,13.5 42.42,14.52 L40.8,21.48 L37.62,21.48 Z" id="Path"></path>
            <path d="M54.12,21.48 L59.67,13.92 L54.54,6.9 L57.27,6.9 L59.58,10.11 C59.84,10.51 60.115,10.92 60.405,11.34 C60.695,11.76 60.99,12.17 61.29,12.57 L61.41,12.57 C61.69,12.17 61.97,11.75 62.25,11.31 C62.53,10.87 62.8,10.45 63.06,10.05 L65.25,6.9 L67.86,6.9 L62.67,14.13 L68.25,21.48 L65.55,21.48 L63,18.12 C62.7,17.7 62.385,17.26 62.055,16.8 C61.725,16.34 61.4,15.9 61.08,15.48 L60.96,15.48 C60.66,15.92 60.36,16.355 60.06,16.785 C59.76,17.215 59.46,17.66 59.16,18.12 L56.76,21.48 L54.12,21.48 Z" id="Path"></path>
            <path d="M74.58,21.48 L74.58,6.9 L76.62,6.9 L76.83,10.35 L76.92,10.35 C77.68,9.17 78.615,8.24 79.725,7.56 C80.835,6.88 82.07,6.54 83.43,6.54 C83.97,6.54 84.47,6.585 84.93,6.675 C85.39,6.765 85.85,6.92 86.31,7.14 L85.74,9.27 C85.22,9.09 84.785,8.96 84.435,8.88 C84.085,8.8 83.62,8.76 83.04,8.76 C81.94,8.76 80.885,9.075 79.875,9.705 C78.865,10.335 77.92,11.41 77.04,12.93 L77.04,21.48 L74.58,21.48 Z" id="Path"></path>
            <polygon id="Path" points="90.75 12.51 90.75 10.65 103.65 10.65 103.65 12.51"></polygon>
            <path d="M108.12,21.48 L113.67,13.92 L108.54,6.9 L111.27,6.9 L113.58,10.11 C113.84,10.51 114.115,10.92 114.405,11.34 C114.695,11.76 114.99,12.17 115.29,12.57 L115.41,12.57 C115.69,12.17 115.97,11.75 116.25,11.31 C116.53,10.87 116.8,10.45 117.06,10.05 L119.25,6.9 L121.86,6.9 L116.67,14.13 L122.25,21.48 L119.55,21.48 L117,18.12 C116.7,17.7 116.385,17.26 116.055,16.8 C115.725,16.34 115.4,15.9 115.08,15.48 L114.96,15.48 C114.66,15.92 114.36,16.355 114.06,16.785 C113.76,17.215 113.46,17.66 113.16,18.12 L110.76,21.48 L108.12,21.48 Z" id="Path"></path>
            <path d="M128.58,21.48 L128.58,6.9 L130.62,6.9 L130.83,10.35 L130.92,10.35 C131.68,9.17 132.615,8.24 133.725,7.56 C134.835,6.88 136.07,6.54 137.43,6.54 C137.97,6.54 138.47,6.585 138.93,6.675 C139.39,6.765 139.85,6.92 140.31,7.14 L139.74,9.27 C139.22,9.09 138.785,8.96 138.435,8.88 C138.085,8.8 137.62,8.76 137.04,8.76 C135.94,8.76 134.885,9.075 133.875,9.705 C132.865,10.335 131.92,11.41 131.04,12.93 L131.04,21.48 L128.58,21.48 Z" id="Path"></path>
            <polygon id="Path" points="144.75 12.51 144.75 10.65 157.65 10.65 157.65 12.51"></polygon>
            <path d="M162.12,21.48 L167.67,13.92 L162.54,6.9 L165.27,6.9 L167.58,10.11 C167.84,10.51 168.115,10.92 168.405,11.34 C168.695,11.76 168.99,12.17 169.29,12.57 L169.41,12.57 C169.69,12.17 169.97,11.75 170.25,11.31 C170.53,10.87 170.8,10.45 171.06,10.05 L173.25,6.9 L175.86,6.9 L170.67,14.13 L176.25,21.48 L173.55,21.48 L171,18.12 C170.7,17.7 170.385,17.26 170.055,16.8 C169.725,16.34 169.4,15.9 169.08,15.48 L168.96,15.48 C168.66,15.92 168.36,16.355 168.06,16.785 C167.76,17.215 167.46,17.66 167.16,18.12 L164.76,21.48 L162.12,21.48 Z" id="Path"></path>
            <path d="M216.39,21.48 L216.39,20.01 C218.01,18.57 219.445,17.27 220.695,16.11 C221.945,14.95 222.995,13.885 223.845,12.915 C224.695,11.945 225.34,11.04 225.78,10.2 C226.22,9.36 226.44,8.54 226.44,7.74 C226.44,6.64 226.1,5.74 225.42,5.04 C224.74,4.34 223.69,3.99 222.27,3.99 C221.37,3.99 220.535,4.215 219.765,4.665 C218.995,5.115 218.3,5.66 217.68,6.3 L216.27,4.89 C217.13,4.01 218.055,3.305 219.045,2.775 C220.035,2.245 221.21,1.98 222.57,1.98 C223.53,1.98 224.395,2.115 225.165,2.385 C225.935,2.655 226.59,3.035 227.13,3.525 C227.67,4.015 228.085,4.61 228.375,5.31 C228.665,6.01 228.81,6.78 228.81,7.62 C228.81,8.52 228.595,9.425 228.165,10.335 C227.735,11.245 227.13,12.185 226.35,13.155 C225.57,14.125 224.64,15.135 223.56,16.185 C222.48,17.235 221.29,18.35 219.99,19.53 C220.59,19.49 221.19,19.45 221.79,19.41 C222.39,19.37 222.98,19.35 223.56,19.35 L229.86,19.35 L229.86,21.48 L216.39,21.48 Z" id="Path"></path>
            <path d="M260.58,21.84 C259.44,21.84 258.385,21.67 257.415,21.33 C256.445,20.99 255.6,20.495 254.88,19.845 C254.16,19.195 253.6,18.395 253.2,17.445 C252.8,16.495 252.6,15.42 252.6,14.22 C252.6,13 252.815,11.915 253.245,10.965 C253.675,10.015 254.26,9.21 255,8.55 C255.74,7.89 256.605,7.39 257.595,7.05 C258.585,6.71 259.63,6.54 260.73,6.54 C261.93,6.54 262.965,6.75 263.835,7.17 C264.705,7.59 265.44,8.09 266.04,8.67 L264.81,10.26 C264.21,9.74 263.585,9.33 262.935,9.03 C262.285,8.73 261.58,8.58 260.82,8.58 C259.98,8.58 259.21,8.715 258.51,8.985 C257.81,9.255 257.215,9.64 256.725,10.14 C256.235,10.64 255.85,11.235 255.57,11.925 C255.29,12.615 255.15,13.38 255.15,14.22 C255.15,15.06 255.285,15.82 255.555,16.5 C255.825,17.18 256.205,17.765 256.695,18.255 C257.185,18.745 257.775,19.125 258.465,19.395 C259.155,19.665 259.92,19.8 260.76,19.8 C261.66,19.8 262.485,19.625 263.235,19.275 C263.985,18.925 264.66,18.49 265.26,17.97 L266.37,19.56 C265.55,20.28 264.65,20.84 263.67,21.24 C262.69,21.64 261.66,21.84 260.58,21.84 Z" id="Path"></path>
            <path d="M270.99,21.48 L270.99,0.12 L273.45,0.12 L273.45,5.94 L273.3,9.39 L273.39,9.39 C274.15,8.57 274.965,7.89 275.835,7.35 C276.705,6.81 277.71,6.54 278.85,6.54 C280.59,6.54 281.865,7.035 282.675,8.025 C283.485,9.015 283.89,10.48 283.89,12.42 L283.89,21.48 L281.43,21.48 L281.43,12.75 C281.43,11.37 281.17,10.345 280.65,9.675 C280.13,9.005 279.27,8.67 278.07,8.67 C277.63,8.67 277.225,8.725 276.855,8.835 C276.485,8.945 276.12,9.11 275.76,9.33 C275.4,9.55 275.03,9.825 274.65,10.155 C274.27,10.485 273.87,10.87 273.45,11.31 L273.45,21.48 L270.99,21.48 Z" id="Path"></path>
            <path d="M290.58,21.48 L290.58,6.9 L292.62,6.9 L292.83,10.35 L292.92,10.35 C293.68,9.17 294.615,8.24 295.725,7.56 C296.835,6.88 298.07,6.54 299.43,6.54 C299.97,6.54 300.47,6.585 300.93,6.675 C301.39,6.765 301.85,6.92 302.31,7.14 L301.74,9.27 C301.22,9.09 300.785,8.96 300.435,8.88 C300.085,8.8 299.62,8.76 299.04,8.76 C297.94,8.76 296.885,9.075 295.875,9.705 C294.865,10.335 293.92,11.41 293.04,12.93 L293.04,21.48 L290.58,21.48 Z" id="Path"></path>
            <path d="M313.68,21.48 L313.68,8.91 L306.9,8.91 L306.9,6.9 L316.14,6.9 L316.14,21.48 L313.68,21.48 Z M314.64,3.84 C314.08,3.84 313.61,3.665 313.23,3.315 C312.85,2.965 312.66,2.5 312.66,1.92 C312.66,1.34 312.85,0.875 313.23,0.525 C313.61,0.175 314.08,0 314.64,0 C315.2,0 315.67,0.175 316.05,0.525 C316.43,0.875 316.62,1.34 316.62,1.92 C316.62,2.5 316.43,2.965 316.05,3.315 C315.67,3.665 315.2,3.84 314.64,3.84 Z" id="Shape"></path>
            <path d="M331.5,21.84 C330.06,21.84 328.73,21.615 327.51,21.165 C326.29,20.715 325.23,20.18 324.33,19.56 L325.47,17.94 C326.31,18.54 327.235,19.02 328.245,19.38 C329.255,19.74 330.44,19.92 331.8,19.92 C333.04,19.92 333.965,19.695 334.575,19.245 C335.185,18.795 335.49,18.26 335.49,17.64 C335.49,17.36 335.44,17.1 335.34,16.86 C335.24,16.62 335.025,16.39 334.695,16.17 C334.365,15.95 333.9,15.74 333.3,15.54 C332.7,15.34 331.91,15.14 330.93,14.94 C329.03,14.54 327.605,14.005 326.655,13.335 C325.705,12.665 325.23,11.78 325.23,10.68 C325.23,10.1 325.36,9.555 325.62,9.045 C325.88,8.535 326.265,8.095 326.775,7.725 C327.285,7.355 327.915,7.065 328.665,6.855 C329.415,6.645 330.29,6.54 331.29,6.54 C332.41,6.54 333.49,6.725 334.53,7.095 C335.57,7.465 336.45,7.9 337.17,8.4 L335.97,9.99 C335.29,9.53 334.54,9.16 333.72,8.88 C332.9,8.6 332.02,8.46 331.08,8.46 C329.84,8.46 328.97,8.67 328.47,9.09 C327.97,9.51 327.72,10 327.72,10.56 C327.72,11.2 328.05,11.685 328.71,12.015 C329.37,12.345 330.45,12.67 331.95,12.99 C333.17,13.25 334.17,13.525 334.95,13.815 C335.73,14.105 336.345,14.43 336.795,14.79 C337.245,15.15 337.555,15.55 337.725,15.99 C337.895,16.43 337.98,16.93 337.98,17.49 C337.98,18.09 337.84,18.65 337.56,19.17 C337.28,19.69 336.865,20.15 336.315,20.55 C335.765,20.95 335.085,21.265 334.275,21.495 C333.465,21.725 332.54,21.84 331.5,21.84 Z" id="Path"></path>
            <path d="M368.58,21.84 C367.44,21.84 366.385,21.67 365.415,21.33 C364.445,20.99 363.6,20.495 362.88,19.845 C362.16,19.195 361.6,18.395 361.2,17.445 C360.8,16.495 360.6,15.42 360.6,14.22 C360.6,13 360.815,11.915 361.245,10.965 C361.675,10.015 362.26,9.21 363,8.55 C363.74,7.89 364.605,7.39 365.595,7.05 C366.585,6.71 367.63,6.54 368.73,6.54 C369.93,6.54 370.965,6.75 371.835,7.17 C372.705,7.59 373.44,8.09 374.04,8.67 L372.81,10.26 C372.21,9.74 371.585,9.33 370.935,9.03 C370.285,8.73 369.58,8.58 368.82,8.58 C367.98,8.58 367.21,8.715 366.51,8.985 C365.81,9.255 365.215,9.64 364.725,10.14 C364.235,10.64 363.85,11.235 363.57,11.925 C363.29,12.615 363.15,13.38 363.15,14.22 C363.15,15.06 363.285,15.82 363.555,16.5 C363.825,17.18 364.205,17.765 364.695,18.255 C365.185,18.745 365.775,19.125 366.465,19.395 C367.155,19.665 367.92,19.8 368.76,19.8 C369.66,19.8 370.485,19.625 371.235,19.275 C371.985,18.925 372.66,18.49 373.26,17.97 L374.37,19.56 C373.55,20.28 372.65,20.84 371.67,21.24 C370.69,21.64 369.66,21.84 368.58,21.84 Z" id="Path"></path>
            <path d="M378.99,21.48 L378.99,0.12 L381.45,0.12 L381.45,5.94 L381.3,9.39 L381.39,9.39 C382.15,8.57 382.965,7.89 383.835,7.35 C384.705,6.81 385.71,6.54 386.85,6.54 C388.59,6.54 389.865,7.035 390.675,8.025 C391.485,9.015 391.89,10.48 391.89,12.42 L391.89,21.48 L389.43,21.48 L389.43,12.75 C389.43,11.37 389.17,10.345 388.65,9.675 C388.13,9.005 387.27,8.67 386.07,8.67 C385.63,8.67 385.225,8.725 384.855,8.835 C384.485,8.945 384.12,9.11 383.76,9.33 C383.4,9.55 383.03,9.825 382.65,10.155 C382.27,10.485 381.87,10.87 381.45,11.31 L381.45,21.48 L378.99,21.48 Z" id="Path"></path>
            <path d="M398.58,21.48 L398.58,6.9 L400.62,6.9 L400.83,10.35 L400.92,10.35 C401.68,9.17 402.615,8.24 403.725,7.56 C404.835,6.88 406.07,6.54 407.43,6.54 C407.97,6.54 408.47,6.585 408.93,6.675 C409.39,6.765 409.85,6.92 410.31,7.14 L409.74,9.27 C409.22,9.09 408.785,8.96 408.435,8.88 C408.085,8.8 407.62,8.76 407.04,8.76 C405.94,8.76 404.885,9.075 403.875,9.705 C402.865,10.335 401.92,11.41 401.04,12.93 L401.04,21.48 L398.58,21.48 Z" id="Path"></path>
            <path d="M421.68,21.48 L421.68,8.91 L414.9,8.91 L414.9,6.9 L424.14,6.9 L424.14,21.48 L421.68,21.48 Z M422.64,3.84 C422.08,3.84 421.61,3.665 421.23,3.315 C420.85,2.965 420.66,2.5 420.66,1.92 C420.66,1.34 420.85,0.875 421.23,0.525 C421.61,0.175 422.08,0 422.64,0 C423.2,0 423.67,0.175 424.05,0.525 C424.43,0.875 424.62,1.34 424.62,1.92 C424.62,2.5 424.43,2.965 424.05,3.315 C423.67,3.665 423.2,3.84 422.64,3.84 Z" id="Shape"></path>
            <path d="M439.5,21.84 C438.06,21.84 436.73,21.615 435.51,21.165 C434.29,20.715 433.23,20.18 432.33,19.56 L433.47,17.94 C434.31,18.54 435.235,19.02 436.245,19.38 C437.255,19.74 438.44,19.92 439.8,19.92 C441.04,19.92 441.965,19.695 442.575,19.245 C443.185,18.795 443.49,18.26 443.49,17.64 C443.49,17.36 443.44,17.1 443.34,16.86 C443.24,16.62 443.025,16.39 442.695,16.17 C442.365,15.95 441.9,15.74 441.3,15.54 C440.7,15.34 439.91,15.14 438.93,14.94 C437.03,14.54 435.605,14.005 434.655,13.335 C433.705,12.665 433.23,11.78 433.23,10.68 C433.23,10.1 433.36,9.555 433.62,9.045 C433.88,8.535 434.265,8.095 434.775,7.725 C435.285,7.355 435.915,7.065 436.665,6.855 C437.415,6.645 438.29,6.54 439.29,6.54 C440.41,6.54 441.49,6.725 442.53,7.095 C443.57,7.465 444.45,7.9 445.17,8.4 L443.97,9.99 C443.29,9.53 442.54,9.16 441.72,8.88 C440.9,8.6 440.02,8.46 439.08,8.46 C437.84,8.46 436.97,8.67 436.47,9.09 C435.97,9.51 435.72,10 435.72,10.56 C435.72,11.2 436.05,11.685 436.71,12.015 C437.37,12.345 438.45,12.67 439.95,12.99 C441.17,13.25 442.17,13.525 442.95,13.815 C443.73,14.105 444.345,14.43 444.795,14.79 C445.245,15.15 445.555,15.55 445.725,15.99 C445.895,16.43 445.98,16.93 445.98,17.49 C445.98,18.09 445.84,18.65 445.56,19.17 C445.28,19.69 444.865,20.15 444.315,20.55 C443.765,20.95 443.085,21.265 442.275,21.495 C441.465,21.725 440.54,21.84 439.5,21.84 Z" id="Path"></path>
            <path d="M477.24,21.48 L477.24,16.2 L467.37,16.2 L467.37,14.55 L476.94,2.34 L479.58,2.34 L479.58,14.22 L482.55,14.22 L482.55,16.2 L479.58,16.2 L479.58,21.48 L477.24,21.48 Z M470.1,14.22 L477.24,14.22 L477.24,8.28 C477.26,7.76 477.28,7.195 477.3,6.585 C477.32,5.975 477.35,5.41 477.39,4.89 L477.24,4.89 C476.94,5.35 476.62,5.815 476.28,6.285 C475.94,6.755 475.61,7.22 475.29,7.68 L470.1,14.22 Z" id="Shape"></path>
            <path d="M493.2,21.84 C492.52,21.84 491.945,21.61 491.475,21.15 C491.005,20.69 490.77,20.08 490.77,19.32 C490.77,18.56 491.005,17.945 491.475,17.475 C491.945,17.005 492.52,16.77 493.2,16.77 C493.88,16.77 494.455,17.005 494.925,17.475 C495.395,17.945 495.63,18.56 495.63,19.32 C495.63,20.08 495.395,20.69 494.925,21.15 C494.455,21.61 493.88,21.84 493.2,21.84 Z" id="Path"></path>
            <path d="M511.2,21.84 C509.06,21.84 507.38,20.975 506.16,19.245 C504.94,17.515 504.33,15.05 504.33,11.85 C504.33,8.63 504.94,6.18 506.16,4.5 C507.38,2.82 509.06,1.98 511.2,1.98 C513.34,1.98 515.02,2.82 516.24,4.5 C517.46,6.18 518.07,8.63 518.07,11.85 C518.07,15.05 517.46,17.515 516.24,19.245 C515.02,20.975 513.34,21.84 511.2,21.84 Z M511.2,19.86 C512.54,19.86 513.635,19.21 514.485,17.91 C515.335,16.61 515.76,14.59 515.76,11.85 C515.76,10.47 515.65,9.285 515.43,8.295 C515.21,7.305 514.895,6.485 514.485,5.835 C514.075,5.185 513.59,4.71 513.03,4.41 C512.47,4.11 511.86,3.96 511.2,3.96 C510.54,3.96 509.93,4.11 509.37,4.41 C508.81,4.71 508.325,5.185 507.915,5.835 C507.505,6.485 507.19,7.305 506.97,8.295 C506.75,9.285 506.64,10.47 506.64,11.85 C506.64,14.59 507.065,16.61 507.915,17.91 C508.765,19.21 509.86,19.86 511.2,19.86 Z M511.2,13.65 C510.7,13.65 510.265,13.475 509.895,13.125 C509.525,12.775 509.34,12.28 509.34,11.64 C509.34,11.02 509.525,10.535 509.895,10.185 C510.265,9.835 510.7,9.66 511.2,9.66 C511.7,9.66 512.135,9.835 512.505,10.185 C512.875,10.535 513.06,11.02 513.06,11.64 C513.06,12.28 512.875,12.775 512.505,13.125 C512.135,13.475 511.7,13.65 511.2,13.65 Z" id="Shape"></path>
            <polygon id="Path" points="523.14 21.48 523.14 1.8 525.66 1.8 525.66 11.67 525.75 11.67 534.03 1.8 536.88 1.8 530.64 9.27 537.6 21.48 534.78 21.48 529.05 11.16 525.66 15.21 525.66 21.48"></polygon>
            <path d="M564.48,21.84 C563.38,21.84 562.3,21.58 561.24,21.06 C560.18,20.54 559.31,19.71 558.63,18.57 L560.19,17.04 C560.75,17.94 561.405,18.6 562.155,19.02 C562.905,19.44 563.66,19.65 564.42,19.65 C565.84,19.65 566.875,19.275 567.525,18.525 C568.175,17.775 568.5,16.59 568.5,14.97 L568.5,3.87 L560.25,3.87 L560.25,1.77 L570.99,1.77 L570.99,15.18 C570.99,16.1 570.88,16.965 570.66,17.775 C570.44,18.585 570.075,19.29 569.565,19.89 C569.055,20.49 568.385,20.965 567.555,21.315 C566.725,21.665 565.7,21.84 564.48,21.84 Z" id="Path"></path>
            <path d="M581.58,21.84 C580.9,21.84 580.26,21.745 579.66,21.555 C579.06,21.365 578.535,21.095 578.085,20.745 C577.635,20.395 577.28,19.965 577.02,19.455 C576.76,18.945 576.63,18.36 576.63,17.7 C576.63,16.88 576.825,16.165 577.215,15.555 C577.605,14.945 578.225,14.42 579.075,13.98 C579.925,13.54 581.02,13.18 582.36,12.9 C583.7,12.62 585.31,12.4 587.19,12.24 C587.17,11.74 587.09,11.27 586.95,10.83 C586.81,10.39 586.59,10.005 586.29,9.675 C585.99,9.345 585.595,9.08 585.105,8.88 C584.615,8.68 584.02,8.58 583.32,8.58 C582.36,8.58 581.44,8.765 580.56,9.135 C579.68,9.505 578.9,9.9 578.22,10.32 L577.26,8.64 C577.62,8.4 578.045,8.155 578.535,7.905 C579.025,7.655 579.545,7.43 580.095,7.23 C580.645,7.03 581.23,6.865 581.85,6.735 C582.47,6.605 583.1,6.54 583.74,6.54 C585.74,6.54 587.225,7.085 588.195,8.175 C589.165,9.265 589.65,10.72 589.65,12.54 L589.65,21.48 L587.64,21.48 L587.43,19.5 L587.34,19.5 C586.52,20.14 585.615,20.69 584.625,21.15 C583.635,21.61 582.62,21.84 581.58,21.84 Z M582.24,19.86 C583.08,19.86 583.905,19.675 584.715,19.305 C585.525,18.935 586.35,18.4 587.19,17.7 L587.19,13.86 C585.63,13.98 584.325,14.15 583.275,14.37 C582.225,14.59 581.385,14.855 580.755,15.165 C580.125,15.475 579.68,15.825 579.42,16.215 C579.16,16.605 579.03,17.04 579.03,17.52 C579.03,17.94 579.12,18.295 579.3,18.585 C579.48,18.875 579.715,19.115 580.005,19.305 C580.295,19.495 580.635,19.635 581.025,19.725 C581.415,19.815 581.82,19.86 582.24,19.86 Z" id="Shape"></path>
            <path d="M594.99,21.48 L594.99,6.9 L597.03,6.9 L597.24,9.39 L597.36,9.39 C598.12,8.57 598.94,7.89 599.82,7.35 C600.7,6.81 601.71,6.54 602.85,6.54 C604.59,6.54 605.865,7.035 606.675,8.025 C607.485,9.015 607.89,10.48 607.89,12.42 L607.89,21.48 L605.43,21.48 L605.43,12.75 C605.43,11.37 605.17,10.345 604.65,9.675 C604.13,9.005 603.27,8.67 602.07,8.67 C601.63,8.67 601.225,8.725 600.855,8.835 C600.485,8.945 600.12,9.11 599.76,9.33 C599.4,9.55 599.03,9.825 598.65,10.155 C598.27,10.485 597.87,10.87 597.45,11.31 L597.45,21.48 L594.99,21.48 Z" id="Path"></path>
            <path d="M631.11,21.48 L631.11,19.44 L636.63,19.44 L636.63,5.34 L632.34,5.34 L632.34,3.75 C633.48,3.59 634.43,3.4 635.19,3.18 C635.95,2.96 636.64,2.68 637.26,2.34 L639.09,2.34 L639.09,19.44 L644.1,19.44 L644.1,21.48 L631.11,21.48 Z" id="Path"></path>
            <path d="M655.2,21.84 C653.06,21.84 651.38,20.975 650.16,19.245 C648.94,17.515 648.33,15.05 648.33,11.85 C648.33,8.63 648.94,6.18 650.16,4.5 C651.38,2.82 653.06,1.98 655.2,1.98 C657.34,1.98 659.02,2.82 660.24,4.5 C661.46,6.18 662.07,8.63 662.07,11.85 C662.07,15.05 661.46,17.515 660.24,19.245 C659.02,20.975 657.34,21.84 655.2,21.84 Z M655.2,19.86 C656.54,19.86 657.635,19.21 658.485,17.91 C659.335,16.61 659.76,14.59 659.76,11.85 C659.76,10.47 659.65,9.285 659.43,8.295 C659.21,7.305 658.895,6.485 658.485,5.835 C658.075,5.185 657.59,4.71 657.03,4.41 C656.47,4.11 655.86,3.96 655.2,3.96 C654.54,3.96 653.93,4.11 653.37,4.41 C652.81,4.71 652.325,5.185 651.915,5.835 C651.505,6.485 651.19,7.305 650.97,8.295 C650.75,9.285 650.64,10.47 650.64,11.85 C650.64,14.59 651.065,16.61 651.915,17.91 C652.765,19.21 653.86,19.86 655.2,19.86 Z M655.2,13.65 C654.7,13.65 654.265,13.475 653.895,13.125 C653.525,12.775 653.34,12.28 653.34,11.64 C653.34,11.02 653.525,10.535 653.895,10.185 C654.265,9.835 654.7,9.66 655.2,9.66 C655.7,9.66 656.135,9.835 656.505,10.185 C656.875,10.535 657.06,11.02 657.06,11.64 C657.06,12.28 656.875,12.775 656.505,13.125 C656.135,13.475 655.7,13.65 655.2,13.65 Z" id="Shape"></path>
            <path d="M685.11,21.48 L685.11,19.44 L690.63,19.44 L690.63,5.34 L686.34,5.34 L686.34,3.75 C687.48,3.59 688.43,3.4 689.19,3.18 C689.95,2.96 690.64,2.68 691.26,2.34 L693.09,2.34 L693.09,19.44 L698.1,19.44 L698.1,21.48 L685.11,21.48 Z" id="Path"></path>
            <path d="M709.2,21.84 C707.06,21.84 705.38,20.975 704.16,19.245 C702.94,17.515 702.33,15.05 702.33,11.85 C702.33,8.63 702.94,6.18 704.16,4.5 C705.38,2.82 707.06,1.98 709.2,1.98 C711.34,1.98 713.02,2.82 714.24,4.5 C715.46,6.18 716.07,8.63 716.07,11.85 C716.07,15.05 715.46,17.515 714.24,19.245 C713.02,20.975 711.34,21.84 709.2,21.84 Z M709.2,19.86 C710.54,19.86 711.635,19.21 712.485,17.91 C713.335,16.61 713.76,14.59 713.76,11.85 C713.76,10.47 713.65,9.285 713.43,8.295 C713.21,7.305 712.895,6.485 712.485,5.835 C712.075,5.185 711.59,4.71 711.03,4.41 C710.47,4.11 709.86,3.96 709.2,3.96 C708.54,3.96 707.93,4.11 707.37,4.41 C706.81,4.71 706.325,5.185 705.915,5.835 C705.505,6.485 705.19,7.305 704.97,8.295 C704.75,9.285 704.64,10.47 704.64,11.85 C704.64,14.59 705.065,16.61 705.915,17.91 C706.765,19.21 707.86,19.86 709.2,19.86 Z M709.2,13.65 C708.7,13.65 708.265,13.475 707.895,13.125 C707.525,12.775 707.34,12.28 707.34,11.64 C707.34,11.02 707.525,10.535 707.895,10.185 C708.265,9.835 708.7,9.66 709.2,9.66 C709.7,9.66 710.135,9.835 710.505,10.185 C710.875,10.535 711.06,11.02 711.06,11.64 C711.06,12.28 710.875,12.775 710.505,13.125 C710.135,13.475 709.7,13.65 709.2,13.65 Z" id="Shape"></path>
            <path d="M727.2,11.1 C726.52,11.1 725.945,10.87 725.475,10.41 C725.005,9.95 724.77,9.34 724.77,8.58 C724.77,7.82 725.005,7.205 725.475,6.735 C725.945,6.265 726.52,6.03 727.2,6.03 C727.88,6.03 728.455,6.265 728.925,6.735 C729.395,7.205 729.63,7.82 729.63,8.58 C729.63,9.34 729.395,9.95 728.925,10.41 C728.455,10.87 727.88,11.1 727.2,11.1 Z M727.2,21.84 C726.52,21.84 725.945,21.61 725.475,21.15 C725.005,20.69 724.77,20.08 724.77,19.32 C724.77,18.56 725.005,17.945 725.475,17.475 C725.945,17.005 726.52,16.77 727.2,16.77 C727.88,16.77 728.455,17.005 728.925,17.475 C729.395,17.945 729.63,18.56 729.63,19.32 C729.63,20.08 729.395,20.69 728.925,21.15 C728.455,21.61 727.88,21.84 727.2,21.84 Z" id="Shape"></path>
            <path d="M744.78,21.84 C743.92,21.84 743.145,21.765 742.455,21.615 C741.765,21.465 741.145,21.27 740.595,21.03 C740.045,20.79 739.545,20.515 739.095,20.205 C738.645,19.895 738.24,19.57 737.88,19.23 L739.11,17.61 C739.43,17.89 739.77,18.165 740.13,18.435 C740.49,18.705 740.885,18.94 741.315,19.14 C741.745,19.34 742.225,19.5 742.755,19.62 C743.285,19.74 743.87,19.8 744.51,19.8 C745.19,19.8 745.825,19.695 746.415,19.485 C747.005,19.275 747.52,18.98 747.96,18.6 C748.4,18.22 748.745,17.76 748.995,17.22 C749.245,16.68 749.37,16.08 749.37,15.42 C749.37,14.1 748.945,13.07 748.095,12.33 C747.245,11.59 746.1,11.22 744.66,11.22 C743.86,11.22 743.18,11.32 742.62,11.52 C742.06,11.72 741.44,12.01 740.76,12.39 L739.44,11.55 L740.07,2.34 L750.9,2.34 L750.9,4.47 L742.26,4.47 L741.75,10.14 C742.31,9.9 742.855,9.71 743.385,9.57 C743.915,9.43 744.55,9.36 745.29,9.36 C746.21,9.36 747.07,9.48 747.87,9.72 C748.67,9.96 749.365,10.325 749.955,10.815 C750.545,11.305 751.01,11.925 751.35,12.675 C751.69,13.425 751.86,14.32 751.86,15.36 C751.86,16.4 751.665,17.32 751.275,18.12 C750.885,18.92 750.36,19.595 749.7,20.145 C749.04,20.695 748.285,21.115 747.435,21.405 C746.585,21.695 745.7,21.84 744.78,21.84 Z" id="Path"></path>
            <path d="M762.78,21.84 C761.92,21.84 761.145,21.765 760.455,21.615 C759.765,21.465 759.145,21.27 758.595,21.03 C758.045,20.79 757.545,20.515 757.095,20.205 C756.645,19.895 756.24,19.57 755.88,19.23 L757.11,17.61 C757.43,17.89 757.77,18.165 758.13,18.435 C758.49,18.705 758.885,18.94 759.315,19.14 C759.745,19.34 760.225,19.5 760.755,19.62 C761.285,19.74 761.87,19.8 762.51,19.8 C763.19,19.8 763.825,19.695 764.415,19.485 C765.005,19.275 765.52,18.98 765.96,18.6 C766.4,18.22 766.745,17.76 766.995,17.22 C767.245,16.68 767.37,16.08 767.37,15.42 C767.37,14.1 766.945,13.07 766.095,12.33 C765.245,11.59 764.1,11.22 762.66,11.22 C761.86,11.22 761.18,11.32 760.62,11.52 C760.06,11.72 759.44,12.01 758.76,12.39 L757.44,11.55 L758.07,2.34 L768.9,2.34 L768.9,4.47 L760.26,4.47 L759.75,10.14 C760.31,9.9 760.855,9.71 761.385,9.57 C761.915,9.43 762.55,9.36 763.29,9.36 C764.21,9.36 765.07,9.48 765.87,9.72 C766.67,9.96 767.365,10.325 767.955,10.815 C768.545,11.305 769.01,11.925 769.35,12.675 C769.69,13.425 769.86,14.32 769.86,15.36 C769.86,16.4 769.665,17.32 769.275,18.12 C768.885,18.92 768.36,19.595 767.7,20.145 C767.04,20.695 766.285,21.115 765.435,21.405 C764.585,21.695 763.7,21.84 762.78,21.84 Z" id="Path"></path>
            <path d="M797.76,21.48 L791.49,1.8 L794.13,1.8 L797.31,12.42 C797.65,13.6 797.96,14.69 798.24,15.69 C798.52,16.69 798.84,17.77 799.2,18.93 L799.32,18.93 C799.5,18.35 799.67,17.795 799.83,17.265 C799.99,16.735 800.145,16.21 800.295,15.69 C800.445,15.17 800.595,14.64 800.745,14.1 C800.895,13.56 801.05,13 801.21,12.42 L804.36,1.8 L806.91,1.8 L800.67,21.48 L797.76,21.48 Z" id="Path"></path>
            <path d="M817.68,21.48 L817.68,8.91 L810.9,8.91 L810.9,6.9 L820.14,6.9 L820.14,21.48 L817.68,21.48 Z M818.64,3.84 C818.08,3.84 817.61,3.665 817.23,3.315 C816.85,2.965 816.66,2.5 816.66,1.92 C816.66,1.34 816.85,0.875 817.23,0.525 C817.61,0.175 818.08,0 818.64,0 C819.2,0 819.67,0.175 820.05,0.525 C820.43,0.875 820.62,1.34 820.62,1.92 C820.62,2.5 820.43,2.965 820.05,3.315 C819.67,3.665 819.2,3.84 818.64,3.84 Z" id="Shape"></path>
            <path d="M834.33,21.84 C833.37,21.84 832.505,21.67 831.735,21.33 C830.965,20.99 830.3,20.495 829.74,19.845 C829.18,19.195 828.75,18.4 828.45,17.46 C828.15,16.52 828,15.44 828,14.22 C828,13.04 828.185,11.975 828.555,11.025 C828.925,10.075 829.415,9.27 830.025,8.61 C830.635,7.95 831.34,7.44 832.14,7.08 C832.94,6.72 833.77,6.54 834.63,6.54 C835.51,6.54 836.295,6.705 836.985,7.035 C837.675,7.365 838.34,7.83 838.98,8.43 L839.07,8.43 L838.95,5.73 L838.95,0.12 L841.41,0.12 L841.41,21.48 L839.37,21.48 L839.16,19.56 L839.07,19.56 C838.47,20.18 837.755,20.715 836.925,21.165 C836.095,21.615 835.23,21.84 834.33,21.84 Z M834.84,19.77 C836.28,19.77 837.65,19.04 838.95,17.58 L838.95,10.32 C838.29,9.7 837.645,9.26 837.015,9 C836.385,8.74 835.75,8.61 835.11,8.61 C834.47,8.61 833.875,8.745 833.325,9.015 C832.775,9.285 832.295,9.665 831.885,10.155 C831.475,10.645 831.15,11.23 830.91,11.91 C830.67,12.59 830.55,13.35 830.55,14.19 C830.55,15.95 830.925,17.32 831.675,18.3 C832.425,19.28 833.48,19.77 834.84,19.77 Z" id="Shape"></path>
            <path d="M854.1,21.84 C853,21.84 851.975,21.67 851.025,21.33 C850.075,20.99 849.245,20.49 848.535,19.83 C847.825,19.17 847.265,18.365 846.855,17.415 C846.445,16.465 846.24,15.38 846.24,14.16 C846.24,12.98 846.445,11.92 846.855,10.98 C847.265,10.04 847.815,9.24 848.505,8.58 C849.195,7.92 849.985,7.415 850.875,7.065 C851.765,6.715 852.7,6.54 853.68,6.54 C854.72,6.54 855.655,6.705 856.485,7.035 C857.315,7.365 858.015,7.83 858.585,8.43 C859.155,9.03 859.59,9.75 859.89,10.59 C860.19,11.43 860.34,12.36 860.34,13.38 C860.34,13.66 860.33,13.93 860.31,14.19 C860.29,14.45 860.26,14.68 860.22,14.88 L848.73,14.88 C848.89,16.54 849.495,17.785 850.545,18.615 C851.595,19.445 852.88,19.86 854.4,19.86 C855.28,19.86 856.075,19.735 856.785,19.485 C857.495,19.235 858.18,18.9 858.84,18.48 L859.74,20.1 C859.02,20.58 858.195,20.99 857.265,21.33 C856.335,21.67 855.28,21.84 854.1,21.84 Z M853.74,8.49 C853.14,8.49 852.565,8.59 852.015,8.79 C851.465,8.99 850.97,9.275 850.53,9.645 C850.09,10.015 849.72,10.48 849.42,11.04 C849.12,11.6 848.91,12.24 848.79,12.96 L858.09,12.96 C857.99,11.46 857.555,10.34 856.785,9.6 C856.015,8.86 855,8.49 853.74,8.49 Z" id="Shape"></path>
            <path d="M871.2,21.84 C870.24,21.84 869.325,21.67 868.455,21.33 C867.585,20.99 866.82,20.495 866.16,19.845 C865.5,19.195 864.975,18.395 864.585,17.445 C864.195,16.495 864,15.42 864,14.22 C864,13 864.195,11.915 864.585,10.965 C864.975,10.015 865.5,9.21 866.16,8.55 C866.82,7.89 867.585,7.39 868.455,7.05 C869.325,6.71 870.24,6.54 871.2,6.54 C872.16,6.54 873.075,6.71 873.945,7.05 C874.815,7.39 875.58,7.89 876.24,8.55 C876.9,9.21 877.425,10.015 877.815,10.965 C878.205,11.915 878.4,13 878.4,14.22 C878.4,15.42 878.205,16.495 877.815,17.445 C877.425,18.395 876.9,19.195 876.24,19.845 C875.58,20.495 874.815,20.99 873.945,21.33 C873.075,21.67 872.16,21.84 871.2,21.84 Z M871.2,19.8 C871.9,19.8 872.535,19.665 873.105,19.395 C873.675,19.125 874.165,18.745 874.575,18.255 C874.985,17.765 875.3,17.18 875.52,16.5 C875.74,15.82 875.85,15.06 875.85,14.22 C875.85,13.38 875.74,12.615 875.52,11.925 C875.3,11.235 874.985,10.64 874.575,10.14 C874.165,9.64 873.675,9.255 873.105,8.985 C872.535,8.715 871.9,8.58 871.2,8.58 C870.5,8.58 869.865,8.715 869.295,8.985 C868.725,9.255 868.235,9.64 867.825,10.14 C867.415,10.64 867.1,11.235 866.88,11.925 C866.66,12.615 866.55,13.38 866.55,14.22 C866.55,15.06 866.66,15.82 866.88,16.5 C867.1,17.18 867.415,17.765 867.825,18.255 C868.235,18.745 868.725,19.125 869.295,19.395 C869.865,19.665 870.5,19.8 871.2,19.8 Z" id="Shape"></path>
            <path d="M889.5,21.84 C888.06,21.84 886.73,21.615 885.51,21.165 C884.29,20.715 883.23,20.18 882.33,19.56 L883.47,17.94 C884.31,18.54 885.235,19.02 886.245,19.38 C887.255,19.74 888.44,19.92 889.8,19.92 C891.04,19.92 891.965,19.695 892.575,19.245 C893.185,18.795 893.49,18.26 893.49,17.64 C893.49,17.36 893.44,17.1 893.34,16.86 C893.24,16.62 893.025,16.39 892.695,16.17 C892.365,15.95 891.9,15.74 891.3,15.54 C890.7,15.34 889.91,15.14 888.93,14.94 C887.03,14.54 885.605,14.005 884.655,13.335 C883.705,12.665 883.23,11.78 883.23,10.68 C883.23,10.1 883.36,9.555 883.62,9.045 C883.88,8.535 884.265,8.095 884.775,7.725 C885.285,7.355 885.915,7.065 886.665,6.855 C887.415,6.645 888.29,6.54 889.29,6.54 C890.41,6.54 891.49,6.725 892.53,7.095 C893.57,7.465 894.45,7.9 895.17,8.4 L893.97,9.99 C893.29,9.53 892.54,9.16 891.72,8.88 C890.9,8.6 890.02,8.46 889.08,8.46 C887.84,8.46 886.97,8.67 886.47,9.09 C885.97,9.51 885.72,10 885.72,10.56 C885.72,11.2 886.05,11.685 886.71,12.015 C887.37,12.345 888.45,12.67 889.95,12.99 C891.17,13.25 892.17,13.525 892.95,13.815 C893.73,14.105 894.345,14.43 894.795,14.79 C895.245,15.15 895.555,15.55 895.725,15.99 C895.895,16.43 895.98,16.93 895.98,17.49 C895.98,18.09 895.84,18.65 895.56,19.17 C895.28,19.69 894.865,20.15 894.315,20.55 C893.765,20.95 893.085,21.265 892.275,21.495 C891.465,21.725 890.54,21.84 889.5,21.84 Z" id="Path"></path>
            <polygon id="Path" points="0.75 57.51 0.75 55.65 13.65 55.65 13.65 57.51"></polygon>
            <path d="M20.58,66.48 L20.58,51.9 L22.62,51.9 L22.83,55.35 L22.92,55.35 C23.68,54.17 24.615,53.24 25.725,52.56 C26.835,51.88 28.07,51.54 29.43,51.54 C29.97,51.54 30.47,51.585 30.93,51.675 C31.39,51.765 31.85,51.92 32.31,52.14 L31.74,54.27 C31.22,54.09 30.785,53.96 30.435,53.88 C30.085,53.8 29.62,53.76 29.04,53.76 C27.94,53.76 26.885,54.075 25.875,54.705 C24.865,55.335 23.92,56.41 23.04,57.93 L23.04,66.48 L20.58,66.48 Z" id="Path"></path>
            <path d="M37.62,66.48 L34.44,51.9 L36.9,51.9 L38.64,60.36 C38.78,61.06 38.9,61.73 39,62.37 C39.1,63.01 39.2,63.68 39.3,64.38 L39.42,64.38 C39.52,63.68 39.645,63.005 39.795,62.355 C39.945,61.705 40.1,61.04 40.26,60.36 L42.06,52.8 L44.52,52.8 L46.26,60.36 C46.42,61.06 46.585,61.73 46.755,62.37 C46.925,63.01 47.06,63.68 47.16,64.38 L47.28,64.38 C47.4,63.68 47.505,63.01 47.595,62.37 C47.685,61.73 47.8,61.06 47.94,60.36 L49.68,51.9 L51.96,51.9 L48.84,66.48 L45.66,66.48 L43.98,59.52 C43.74,58.5 43.5,57.06 43.26,55.2 L43.14,55.2 C42.9,57.06 42.66,58.5 42.42,59.52 L40.8,66.48 L37.62,66.48 Z" id="Path"></path>
            <polygon id="Path" points="54.75 57.51 54.75 55.65 67.65 55.65 67.65 57.51"></polygon>
            <path d="M74.58,66.48 L74.58,51.9 L76.62,51.9 L76.83,55.35 L76.92,55.35 C77.68,54.17 78.615,53.24 79.725,52.56 C80.835,51.88 82.07,51.54 83.43,51.54 C83.97,51.54 84.47,51.585 84.93,51.675 C85.39,51.765 85.85,51.92 86.31,52.14 L85.74,54.27 C85.22,54.09 84.785,53.96 84.435,53.88 C84.085,53.8 83.62,53.76 83.04,53.76 C81.94,53.76 80.885,54.075 79.875,54.705 C78.865,55.335 77.92,56.41 77.04,57.93 L77.04,66.48 L74.58,66.48 Z" id="Path"></path>
            <path d="M91.62,66.48 L88.44,51.9 L90.9,51.9 L92.64,60.36 C92.78,61.06 92.9,61.73 93,62.37 C93.1,63.01 93.2,63.68 93.3,64.38 L93.42,64.38 C93.52,63.68 93.645,63.005 93.795,62.355 C93.945,61.705 94.1,61.04 94.26,60.36 L96.06,52.8 L98.52,52.8 L100.26,60.36 C100.42,61.06 100.585,61.73 100.755,62.37 C100.925,63.01 101.06,63.68 101.16,64.38 L101.28,64.38 C101.4,63.68 101.505,63.01 101.595,62.37 C101.685,61.73 101.8,61.06 101.94,60.36 L103.68,51.9 L105.96,51.9 L102.84,66.48 L99.66,66.48 L97.98,59.52 C97.74,58.5 97.5,57.06 97.26,55.2 L97.14,55.2 C96.9,57.06 96.66,58.5 96.42,59.52 L94.8,66.48 L91.62,66.48 Z" id="Path"></path>
            <polygon id="Path" points="108.75 57.51 108.75 55.65 121.65 55.65 121.65 57.51"></polygon>
            <path d="M128.58,66.48 L128.58,51.9 L130.62,51.9 L130.83,55.35 L130.92,55.35 C131.68,54.17 132.615,53.24 133.725,52.56 C134.835,51.88 136.07,51.54 137.43,51.54 C137.97,51.54 138.47,51.585 138.93,51.675 C139.39,51.765 139.85,51.92 140.31,52.14 L139.74,54.27 C139.22,54.09 138.785,53.96 138.435,53.88 C138.085,53.8 137.62,53.76 137.04,53.76 C135.94,53.76 134.885,54.075 133.875,54.705 C132.865,55.335 131.92,56.41 131.04,57.93 L131.04,66.48 L128.58,66.48 Z" id="Path"></path>
            <polygon id="Path" points="144.75 57.51 144.75 55.65 157.65 55.65 157.65 57.51"></polygon>
            <polygon id="Path" points="162.75 57.51 162.75 55.65 175.65 55.65 175.65 57.51"></polygon>
            <path d="M217.11,66.48 L217.11,64.44 L222.63,64.44 L222.63,50.34 L218.34,50.34 L218.34,48.75 C219.48,48.59 220.43,48.4 221.19,48.18 C221.95,47.96 222.64,47.68 223.26,47.34 L225.09,47.34 L225.09,64.44 L230.1,64.44 L230.1,66.48 L217.11,66.48 Z" id="Path"></path>
            <path d="M260.58,66.84 C259.44,66.84 258.385,66.67 257.415,66.33 C256.445,65.99 255.6,65.495 254.88,64.845 C254.16,64.195 253.6,63.395 253.2,62.445 C252.8,61.495 252.6,60.42 252.6,59.22 C252.6,58 252.815,56.915 253.245,55.965 C253.675,55.015 254.26,54.21 255,53.55 C255.74,52.89 256.605,52.39 257.595,52.05 C258.585,51.71 259.63,51.54 260.73,51.54 C261.93,51.54 262.965,51.75 263.835,52.17 C264.705,52.59 265.44,53.09 266.04,53.67 L264.81,55.26 C264.21,54.74 263.585,54.33 262.935,54.03 C262.285,53.73 261.58,53.58 260.82,53.58 C259.98,53.58 259.21,53.715 258.51,53.985 C257.81,54.255 257.215,54.64 256.725,55.14 C256.235,55.64 255.85,56.235 255.57,56.925 C255.29,57.615 255.15,58.38 255.15,59.22 C255.15,60.06 255.285,60.82 255.555,61.5 C255.825,62.18 256.205,62.765 256.695,63.255 C257.185,63.745 257.775,64.125 258.465,64.395 C259.155,64.665 259.92,64.8 260.76,64.8 C261.66,64.8 262.485,64.625 263.235,64.275 C263.985,63.925 264.66,63.49 265.26,62.97 L266.37,64.56 C265.55,65.28 264.65,65.84 263.67,66.24 C262.69,66.64 261.66,66.84 260.58,66.84 Z" id="Path"></path>
            <path d="M270.99,66.48 L270.99,45.12 L273.45,45.12 L273.45,50.94 L273.3,54.39 L273.39,54.39 C274.15,53.57 274.965,52.89 275.835,52.35 C276.705,51.81 277.71,51.54 278.85,51.54 C280.59,51.54 281.865,52.035 282.675,53.025 C283.485,54.015 283.89,55.48 283.89,57.42 L283.89,66.48 L281.43,66.48 L281.43,57.75 C281.43,56.37 281.17,55.345 280.65,54.675 C280.13,54.005 279.27,53.67 278.07,53.67 C277.63,53.67 277.225,53.725 276.855,53.835 C276.485,53.945 276.12,54.11 275.76,54.33 C275.4,54.55 275.03,54.825 274.65,55.155 C274.27,55.485 273.87,55.87 273.45,56.31 L273.45,66.48 L270.99,66.48 Z" id="Path"></path>
            <path d="M290.58,66.48 L290.58,51.9 L292.62,51.9 L292.83,55.35 L292.92,55.35 C293.68,54.17 294.615,53.24 295.725,52.56 C296.835,51.88 298.07,51.54 299.43,51.54 C299.97,51.54 300.47,51.585 300.93,51.675 C301.39,51.765 301.85,51.92 302.31,52.14 L301.74,54.27 C301.22,54.09 300.785,53.96 300.435,53.88 C300.085,53.8 299.62,53.76 299.04,53.76 C297.94,53.76 296.885,54.075 295.875,54.705 C294.865,55.335 293.92,56.41 293.04,57.93 L293.04,66.48 L290.58,66.48 Z" id="Path"></path>
            <path d="M313.68,66.48 L313.68,53.91 L306.9,53.91 L306.9,51.9 L316.14,51.9 L316.14,66.48 L313.68,66.48 Z M314.64,48.84 C314.08,48.84 313.61,48.665 313.23,48.315 C312.85,47.965 312.66,47.5 312.66,46.92 C312.66,46.34 312.85,45.875 313.23,45.525 C313.61,45.175 314.08,45 314.64,45 C315.2,45 315.67,45.175 316.05,45.525 C316.43,45.875 316.62,46.34 316.62,46.92 C316.62,47.5 316.43,47.965 316.05,48.315 C315.67,48.665 315.2,48.84 314.64,48.84 Z" id="Shape"></path>
            <path d="M331.5,66.84 C330.06,66.84 328.73,66.615 327.51,66.165 C326.29,65.715 325.23,65.18 324.33,64.56 L325.47,62.94 C326.31,63.54 327.235,64.02 328.245,64.38 C329.255,64.74 330.44,64.92 331.8,64.92 C333.04,64.92 333.965,64.695 334.575,64.245 C335.185,63.795 335.49,63.26 335.49,62.64 C335.49,62.36 335.44,62.1 335.34,61.86 C335.24,61.62 335.025,61.39 334.695,61.17 C334.365,60.95 333.9,60.74 333.3,60.54 C332.7,60.34 331.91,60.14 330.93,59.94 C329.03,59.54 327.605,59.005 326.655,58.335 C325.705,57.665 325.23,56.78 325.23,55.68 C325.23,55.1 325.36,54.555 325.62,54.045 C325.88,53.535 326.265,53.095 326.775,52.725 C327.285,52.355 327.915,52.065 328.665,51.855 C329.415,51.645 330.29,51.54 331.29,51.54 C332.41,51.54 333.49,51.725 334.53,52.095 C335.57,52.465 336.45,52.9 337.17,53.4 L335.97,54.99 C335.29,54.53 334.54,54.16 333.72,53.88 C332.9,53.6 332.02,53.46 331.08,53.46 C329.84,53.46 328.97,53.67 328.47,54.09 C327.97,54.51 327.72,55 327.72,55.56 C327.72,56.2 328.05,56.685 328.71,57.015 C329.37,57.345 330.45,57.67 331.95,57.99 C333.17,58.25 334.17,58.525 334.95,58.815 C335.73,59.105 336.345,59.43 336.795,59.79 C337.245,60.15 337.555,60.55 337.725,60.99 C337.895,61.43 337.98,61.93 337.98,62.49 C337.98,63.09 337.84,63.65 337.56,64.17 C337.28,64.69 336.865,65.15 336.315,65.55 C335.765,65.95 335.085,66.265 334.275,66.495 C333.465,66.725 332.54,66.84 331.5,66.84 Z" id="Path"></path>
            <path d="M368.58,66.84 C367.44,66.84 366.385,66.67 365.415,66.33 C364.445,65.99 363.6,65.495 362.88,64.845 C362.16,64.195 361.6,63.395 361.2,62.445 C360.8,61.495 360.6,60.42 360.6,59.22 C360.6,58 360.815,56.915 361.245,55.965 C361.675,55.015 362.26,54.21 363,53.55 C363.74,52.89 364.605,52.39 365.595,52.05 C366.585,51.71 367.63,51.54 368.73,51.54 C369.93,51.54 370.965,51.75 371.835,52.17 C372.705,52.59 373.44,53.09 374.04,53.67 L372.81,55.26 C372.21,54.74 371.585,54.33 370.935,54.03 C370.285,53.73 369.58,53.58 368.82,53.58 C367.98,53.58 367.21,53.715 366.51,53.985 C365.81,54.255 365.215,54.64 364.725,55.14 C364.235,55.64 363.85,56.235 363.57,56.925 C363.29,57.615 363.15,58.38 363.15,59.22 C363.15,60.06 363.285,60.82 363.555,61.5 C363.825,62.18 364.205,62.765 364.695,63.255 C365.185,63.745 365.775,64.125 366.465,64.395 C367.155,64.665 367.92,64.8 368.76,64.8 C369.66,64.8 370.485,64.625 371.235,64.275 C371.985,63.925 372.66,63.49 373.26,62.97 L374.37,64.56 C373.55,65.28 372.65,65.84 371.67,66.24 C370.69,66.64 369.66,66.84 368.58,66.84 Z" id="Path"></path>
            <path d="M378.99,66.48 L378.99,45.12 L381.45,45.12 L381.45,50.94 L381.3,54.39 L381.39,54.39 C382.15,53.57 382.965,52.89 383.835,52.35 C384.705,51.81 385.71,51.54 386.85,51.54 C388.59,51.54 389.865,52.035 390.675,53.025 C391.485,54.015 391.89,55.48 391.89,57.42 L391.89,66.48 L389.43,66.48 L389.43,57.75 C389.43,56.37 389.17,55.345 388.65,54.675 C388.13,54.005 387.27,53.67 386.07,53.67 C385.63,53.67 385.225,53.725 384.855,53.835 C384.485,53.945 384.12,54.11 383.76,54.33 C383.4,54.55 383.03,54.825 382.65,55.155 C382.27,55.485 381.87,55.87 381.45,56.31 L381.45,66.48 L378.99,66.48 Z" id="Path"></path>
            <path d="M398.58,66.48 L398.58,51.9 L400.62,51.9 L400.83,55.35 L400.92,55.35 C401.68,54.17 402.615,53.24 403.725,52.56 C404.835,51.88 406.07,51.54 407.43,51.54 C407.97,51.54 408.47,51.585 408.93,51.675 C409.39,51.765 409.85,51.92 410.31,52.14 L409.74,54.27 C409.22,54.09 408.785,53.96 408.435,53.88 C408.085,53.8 407.62,53.76 407.04,53.76 C405.94,53.76 404.885,54.075 403.875,54.705 C402.865,55.335 401.92,56.41 401.04,57.93 L401.04,66.48 L398.58,66.48 Z" id="Path"></path>
            <path d="M421.68,66.48 L421.68,53.91 L414.9,53.91 L414.9,51.9 L424.14,51.9 L424.14,66.48 L421.68,66.48 Z M422.64,48.84 C422.08,48.84 421.61,48.665 421.23,48.315 C420.85,47.965 420.66,47.5 420.66,46.92 C420.66,46.34 420.85,45.875 421.23,45.525 C421.61,45.175 422.08,45 422.64,45 C423.2,45 423.67,45.175 424.05,45.525 C424.43,45.875 424.62,46.34 424.62,46.92 C424.62,47.5 424.43,47.965 424.05,48.315 C423.67,48.665 423.2,48.84 422.64,48.84 Z" id="Shape"></path>
            <path d="M439.5,66.84 C438.06,66.84 436.73,66.615 435.51,66.165 C434.29,65.715 433.23,65.18 432.33,64.56 L433.47,62.94 C434.31,63.54 435.235,64.02 436.245,64.38 C437.255,64.74 438.44,64.92 439.8,64.92 C441.04,64.92 441.965,64.695 442.575,64.245 C443.185,63.795 443.49,63.26 443.49,62.64 C443.49,62.36 443.44,62.1 443.34,61.86 C443.24,61.62 443.025,61.39 442.695,61.17 C442.365,60.95 441.9,60.74 441.3,60.54 C440.7,60.34 439.91,60.14 438.93,59.94 C437.03,59.54 435.605,59.005 434.655,58.335 C433.705,57.665 433.23,56.78 433.23,55.68 C433.23,55.1 433.36,54.555 433.62,54.045 C433.88,53.535 434.265,53.095 434.775,52.725 C435.285,52.355 435.915,52.065 436.665,51.855 C437.415,51.645 438.29,51.54 439.29,51.54 C440.41,51.54 441.49,51.725 442.53,52.095 C443.57,52.465 444.45,52.9 445.17,53.4 L443.97,54.99 C443.29,54.53 442.54,54.16 441.72,53.88 C440.9,53.6 440.02,53.46 439.08,53.46 C437.84,53.46 436.97,53.67 436.47,54.09 C435.97,54.51 435.72,55 435.72,55.56 C435.72,56.2 436.05,56.685 436.71,57.015 C437.37,57.345 438.45,57.67 439.95,57.99 C441.17,58.25 442.17,58.525 442.95,58.815 C443.73,59.105 444.345,59.43 444.795,59.79 C445.245,60.15 445.555,60.55 445.725,60.99 C445.895,61.43 445.98,61.93 445.98,62.49 C445.98,63.09 445.84,63.65 445.56,64.17 C445.28,64.69 444.865,65.15 444.315,65.55 C443.765,65.95 443.085,66.265 442.275,66.495 C441.465,66.725 440.54,66.84 439.5,66.84 Z" id="Path"></path>
            <path d="M486.39,66.48 L486.39,65.01 C488.01,63.57 489.445,62.27 490.695,61.11 C491.945,59.95 492.995,58.885 493.845,57.915 C494.695,56.945 495.34,56.04 495.78,55.2 C496.22,54.36 496.44,53.54 496.44,52.74 C496.44,51.64 496.1,50.74 495.42,50.04 C494.74,49.34 493.69,48.99 492.27,48.99 C491.37,48.99 490.535,49.215 489.765,49.665 C488.995,50.115 488.3,50.66 487.68,51.3 L486.27,49.89 C487.13,49.01 488.055,48.305 489.045,47.775 C490.035,47.245 491.21,46.98 492.57,46.98 C493.53,46.98 494.395,47.115 495.165,47.385 C495.935,47.655 496.59,48.035 497.13,48.525 C497.67,49.015 498.085,49.61 498.375,50.31 C498.665,51.01 498.81,51.78 498.81,52.62 C498.81,53.52 498.595,54.425 498.165,55.335 C497.735,56.245 497.13,57.185 496.35,58.155 C495.57,59.125 494.64,60.135 493.56,61.185 C492.48,62.235 491.29,63.35 489.99,64.53 C490.59,64.49 491.19,64.45 491.79,64.41 C492.39,64.37 492.98,64.35 493.56,64.35 L499.86,64.35 L499.86,66.48 L486.39,66.48 Z" id="Path"></path>
            <path d="M511.83,66.84 C510.79,66.84 509.825,66.65 508.935,66.27 C508.045,65.89 507.27,65.315 506.61,64.545 C505.95,63.775 505.435,62.815 505.065,61.665 C504.695,60.515 504.51,59.17 504.51,57.63 C504.51,55.71 504.73,54.075 505.17,52.725 C505.61,51.375 506.2,50.275 506.94,49.425 C507.68,48.575 508.535,47.955 509.505,47.565 C510.475,47.175 511.48,46.98 512.52,46.98 C513.7,46.98 514.725,47.175 515.595,47.565 C516.465,47.955 517.22,48.44 517.86,49.02 L516.48,50.55 C515.98,50.09 515.4,49.725 514.74,49.455 C514.08,49.185 513.39,49.05 512.67,49.05 C511.91,49.05 511.18,49.19 510.48,49.47 C509.78,49.75 509.165,50.21 508.635,50.85 C508.105,51.49 507.675,52.335 507.345,53.385 C507.015,54.435 506.84,55.73 506.82,57.27 C507.6,56.51 508.46,55.905 509.4,55.455 C510.34,55.005 511.29,54.78 512.25,54.78 C513.13,54.78 513.935,54.905 514.665,55.155 C515.395,55.405 516.025,55.775 516.555,56.265 C517.085,56.755 517.495,57.37 517.785,58.11 C518.075,58.85 518.22,59.71 518.22,60.69 C518.22,61.61 518.045,62.445 517.695,63.195 C517.345,63.945 516.88,64.59 516.3,65.13 C515.72,65.67 515.045,66.09 514.275,66.39 C513.505,66.69 512.69,66.84 511.83,66.84 Z M511.83,64.89 C512.39,64.89 512.92,64.79 513.42,64.59 C513.92,64.39 514.35,64.105 514.71,63.735 C515.07,63.365 515.355,62.925 515.565,62.415 C515.775,61.905 515.88,61.33 515.88,60.69 C515.88,59.37 515.53,58.365 514.83,57.675 C514.13,56.985 513.12,56.64 511.8,56.64 C511.04,56.64 510.225,56.84 509.355,57.24 C508.485,57.64 507.67,58.3 506.91,59.22 C507.09,61.08 507.605,62.49 508.455,63.45 C509.305,64.41 510.43,64.89 511.83,64.89 Z" id="Shape"></path>
            <path d="M522.36,66.48 L522.36,46.8 L525.42,46.8 L528.18,55.2 L529.14,58.38 L529.26,58.38 L530.19,55.2 L532.98,46.8 L536.04,46.8 L536.04,66.48 L533.64,66.48 L533.64,56.64 C533.64,56.16 533.655,55.605 533.685,54.975 C533.715,54.345 533.755,53.71 533.805,53.07 C533.855,52.43 533.9,51.81 533.94,51.21 C533.98,50.61 534.02,50.1 534.06,49.68 L533.97,49.68 L532.86,53.52 L530.04,61.26 L528.24,61.26 L525.48,53.52 L524.34,49.68 L524.28,49.68 C524.32,50.1 524.365,50.61 524.415,51.21 C524.465,51.81 524.51,52.43 524.55,53.07 C524.59,53.71 524.625,54.345 524.655,54.975 C524.685,55.605 524.7,56.16 524.7,56.64 L524.7,66.48 L522.36,66.48 Z" id="Path"></path>
            <path d="M564.48,66.84 C563.38,66.84 562.3,66.58 561.24,66.06 C560.18,65.54 559.31,64.71 558.63,63.57 L560.19,62.04 C560.75,62.94 561.405,63.6 562.155,64.02 C562.905,64.44 563.66,64.65 564.42,64.65 C565.84,64.65 566.875,64.275 567.525,63.525 C568.175,62.775 568.5,61.59 568.5,59.97 L568.5,48.87 L560.25,48.87 L560.25,46.77 L570.99,46.77 L570.99,60.18 C570.99,61.1 570.88,61.965 570.66,62.775 C570.44,63.585 570.075,64.29 569.565,64.89 C569.055,65.49 568.385,65.965 567.555,66.315 C566.725,66.665 565.7,66.84 564.48,66.84 Z" id="Path"></path>
            <path d="M581.58,66.84 C580.9,66.84 580.26,66.745 579.66,66.555 C579.06,66.365 578.535,66.095 578.085,65.745 C577.635,65.395 577.28,64.965 577.02,64.455 C576.76,63.945 576.63,63.36 576.63,62.7 C576.63,61.88 576.825,61.165 577.215,60.555 C577.605,59.945 578.225,59.42 579.075,58.98 C579.925,58.54 581.02,58.18 582.36,57.9 C583.7,57.62 585.31,57.4 587.19,57.24 C587.17,56.74 587.09,56.27 586.95,55.83 C586.81,55.39 586.59,55.005 586.29,54.675 C585.99,54.345 585.595,54.08 585.105,53.88 C584.615,53.68 584.02,53.58 583.32,53.58 C582.36,53.58 581.44,53.765 580.56,54.135 C579.68,54.505 578.9,54.9 578.22,55.32 L577.26,53.64 C577.62,53.4 578.045,53.155 578.535,52.905 C579.025,52.655 579.545,52.43 580.095,52.23 C580.645,52.03 581.23,51.865 581.85,51.735 C582.47,51.605 583.1,51.54 583.74,51.54 C585.74,51.54 587.225,52.085 588.195,53.175 C589.165,54.265 589.65,55.72 589.65,57.54 L589.65,66.48 L587.64,66.48 L587.43,64.5 L587.34,64.5 C586.52,65.14 585.615,65.69 584.625,66.15 C583.635,66.61 582.62,66.84 581.58,66.84 Z M582.24,64.86 C583.08,64.86 583.905,64.675 584.715,64.305 C585.525,63.935 586.35,63.4 587.19,62.7 L587.19,58.86 C585.63,58.98 584.325,59.15 583.275,59.37 C582.225,59.59 581.385,59.855 580.755,60.165 C580.125,60.475 579.68,60.825 579.42,61.215 C579.16,61.605 579.03,62.04 579.03,62.52 C579.03,62.94 579.12,63.295 579.3,63.585 C579.48,63.875 579.715,64.115 580.005,64.305 C580.295,64.495 580.635,64.635 581.025,64.725 C581.415,64.815 581.82,64.86 582.24,64.86 Z" id="Shape"></path>
            <path d="M594.99,66.48 L594.99,51.9 L597.03,51.9 L597.24,54.39 L597.36,54.39 C598.12,53.57 598.94,52.89 599.82,52.35 C600.7,51.81 601.71,51.54 602.85,51.54 C604.59,51.54 605.865,52.035 606.675,53.025 C607.485,54.015 607.89,55.48 607.89,57.42 L607.89,66.48 L605.43,66.48 L605.43,57.75 C605.43,56.37 605.17,55.345 604.65,54.675 C604.13,54.005 603.27,53.67 602.07,53.67 C601.63,53.67 601.225,53.725 600.855,53.835 C600.485,53.945 600.12,54.11 599.76,54.33 C599.4,54.55 599.03,54.825 598.65,55.155 C598.27,55.485 597.87,55.87 597.45,56.31 L597.45,66.48 L594.99,66.48 Z" id="Path"></path>
            <path d="M630.39,66.48 L630.39,65.01 C632.01,63.57 633.445,62.27 634.695,61.11 C635.945,59.95 636.995,58.885 637.845,57.915 C638.695,56.945 639.34,56.04 639.78,55.2 C640.22,54.36 640.44,53.54 640.44,52.74 C640.44,51.64 640.1,50.74 639.42,50.04 C638.74,49.34 637.69,48.99 636.27,48.99 C635.37,48.99 634.535,49.215 633.765,49.665 C632.995,50.115 632.3,50.66 631.68,51.3 L630.27,49.89 C631.13,49.01 632.055,48.305 633.045,47.775 C634.035,47.245 635.21,46.98 636.57,46.98 C637.53,46.98 638.395,47.115 639.165,47.385 C639.935,47.655 640.59,48.035 641.13,48.525 C641.67,49.015 642.085,49.61 642.375,50.31 C642.665,51.01 642.81,51.78 642.81,52.62 C642.81,53.52 642.595,54.425 642.165,55.335 C641.735,56.245 641.13,57.185 640.35,58.155 C639.57,59.125 638.64,60.135 637.56,61.185 C636.48,62.235 635.29,63.35 633.99,64.53 C634.59,64.49 635.19,64.45 635.79,64.41 C636.39,64.37 636.98,64.35 637.56,64.35 L643.86,64.35 L643.86,66.48 L630.39,66.48 Z" id="Path"></path>
            <path d="M648.39,66.48 L648.39,65.01 C650.01,63.57 651.445,62.27 652.695,61.11 C653.945,59.95 654.995,58.885 655.845,57.915 C656.695,56.945 657.34,56.04 657.78,55.2 C658.22,54.36 658.44,53.54 658.44,52.74 C658.44,51.64 658.1,50.74 657.42,50.04 C656.74,49.34 655.69,48.99 654.27,48.99 C653.37,48.99 652.535,49.215 651.765,49.665 C650.995,50.115 650.3,50.66 649.68,51.3 L648.27,49.89 C649.13,49.01 650.055,48.305 651.045,47.775 C652.035,47.245 653.21,46.98 654.57,46.98 C655.53,46.98 656.395,47.115 657.165,47.385 C657.935,47.655 658.59,48.035 659.13,48.525 C659.67,49.015 660.085,49.61 660.375,50.31 C660.665,51.01 660.81,51.78 660.81,52.62 C660.81,53.52 660.595,54.425 660.165,55.335 C659.735,56.245 659.13,57.185 658.35,58.155 C657.57,59.125 656.64,60.135 655.56,61.185 C654.48,62.235 653.29,63.35 651.99,64.53 C652.59,64.49 653.19,64.45 653.79,64.41 C654.39,64.37 654.98,64.35 655.56,64.35 L661.86,64.35 L661.86,66.48 L648.39,66.48 Z" id="Path"></path>
            <path d="M691.2,66.84 C689.06,66.84 687.38,65.975 686.16,64.245 C684.94,62.515 684.33,60.05 684.33,56.85 C684.33,53.63 684.94,51.18 686.16,49.5 C687.38,47.82 689.06,46.98 691.2,46.98 C693.34,46.98 695.02,47.82 696.24,49.5 C697.46,51.18 698.07,53.63 698.07,56.85 C698.07,60.05 697.46,62.515 696.24,64.245 C695.02,65.975 693.34,66.84 691.2,66.84 Z M691.2,64.86 C692.54,64.86 693.635,64.21 694.485,62.91 C695.335,61.61 695.76,59.59 695.76,56.85 C695.76,55.47 695.65,54.285 695.43,53.295 C695.21,52.305 694.895,51.485 694.485,50.835 C694.075,50.185 693.59,49.71 693.03,49.41 C692.47,49.11 691.86,48.96 691.2,48.96 C690.54,48.96 689.93,49.11 689.37,49.41 C688.81,49.71 688.325,50.185 687.915,50.835 C687.505,51.485 687.19,52.305 686.97,53.295 C686.75,54.285 686.64,55.47 686.64,56.85 C686.64,59.59 687.065,61.61 687.915,62.91 C688.765,64.21 689.86,64.86 691.2,64.86 Z M691.2,58.65 C690.7,58.65 690.265,58.475 689.895,58.125 C689.525,57.775 689.34,57.28 689.34,56.64 C689.34,56.02 689.525,55.535 689.895,55.185 C690.265,54.835 690.7,54.66 691.2,54.66 C691.7,54.66 692.135,54.835 692.505,55.185 C692.875,55.535 693.06,56.02 693.06,56.64 C693.06,57.28 692.875,57.775 692.505,58.125 C692.135,58.475 691.7,58.65 691.2,58.65 Z" id="Shape"></path>
            <path d="M708.78,66.84 C707.92,66.84 707.145,66.765 706.455,66.615 C705.765,66.465 705.145,66.27 704.595,66.03 C704.045,65.79 703.545,65.515 703.095,65.205 C702.645,64.895 702.24,64.57 701.88,64.23 L703.11,62.61 C703.43,62.89 703.77,63.165 704.13,63.435 C704.49,63.705 704.885,63.94 705.315,64.14 C705.745,64.34 706.225,64.5 706.755,64.62 C707.285,64.74 707.87,64.8 708.51,64.8 C709.19,64.8 709.825,64.695 710.415,64.485 C711.005,64.275 711.52,63.98 711.96,63.6 C712.4,63.22 712.745,62.76 712.995,62.22 C713.245,61.68 713.37,61.08 713.37,60.42 C713.37,59.1 712.945,58.07 712.095,57.33 C711.245,56.59 710.1,56.22 708.66,56.22 C707.86,56.22 707.18,56.32 706.62,56.52 C706.06,56.72 705.44,57.01 704.76,57.39 L703.44,56.55 L704.07,47.34 L714.9,47.34 L714.9,49.47 L706.26,49.47 L705.75,55.14 C706.31,54.9 706.855,54.71 707.385,54.57 C707.915,54.43 708.55,54.36 709.29,54.36 C710.21,54.36 711.07,54.48 711.87,54.72 C712.67,54.96 713.365,55.325 713.955,55.815 C714.545,56.305 715.01,56.925 715.35,57.675 C715.69,58.425 715.86,59.32 715.86,60.36 C715.86,61.4 715.665,62.32 715.275,63.12 C714.885,63.92 714.36,64.595 713.7,65.145 C713.04,65.695 712.285,66.115 711.435,66.405 C710.585,66.695 709.7,66.84 708.78,66.84 Z" id="Path"></path>
            <path d="M727.2,56.1 C726.52,56.1 725.945,55.87 725.475,55.41 C725.005,54.95 724.77,54.34 724.77,53.58 C724.77,52.82 725.005,52.205 725.475,51.735 C725.945,51.265 726.52,51.03 727.2,51.03 C727.88,51.03 728.455,51.265 728.925,51.735 C729.395,52.205 729.63,52.82 729.63,53.58 C729.63,54.34 729.395,54.95 728.925,55.41 C728.455,55.87 727.88,56.1 727.2,56.1 Z M727.2,66.84 C726.52,66.84 725.945,66.61 725.475,66.15 C725.005,65.69 724.77,65.08 724.77,64.32 C724.77,63.56 725.005,62.945 725.475,62.475 C725.945,62.005 726.52,61.77 727.2,61.77 C727.88,61.77 728.455,62.005 728.925,62.475 C729.395,62.945 729.63,63.56 729.63,64.32 C729.63,65.08 729.395,65.69 728.925,66.15 C728.455,66.61 727.88,66.84 727.2,66.84 Z" id="Shape"></path>
            <path d="M745.2,66.84 C743.06,66.84 741.38,65.975 740.16,64.245 C738.94,62.515 738.33,60.05 738.33,56.85 C738.33,53.63 738.94,51.18 740.16,49.5 C741.38,47.82 743.06,46.98 745.2,46.98 C747.34,46.98 749.02,47.82 750.24,49.5 C751.46,51.18 752.07,53.63 752.07,56.85 C752.07,60.05 751.46,62.515 750.24,64.245 C749.02,65.975 747.34,66.84 745.2,66.84 Z M745.2,64.86 C746.54,64.86 747.635,64.21 748.485,62.91 C749.335,61.61 749.76,59.59 749.76,56.85 C749.76,55.47 749.65,54.285 749.43,53.295 C749.21,52.305 748.895,51.485 748.485,50.835 C748.075,50.185 747.59,49.71 747.03,49.41 C746.47,49.11 745.86,48.96 745.2,48.96 C744.54,48.96 743.93,49.11 743.37,49.41 C742.81,49.71 742.325,50.185 741.915,50.835 C741.505,51.485 741.19,52.305 740.97,53.295 C740.75,54.285 740.64,55.47 740.64,56.85 C740.64,59.59 741.065,61.61 741.915,62.91 C742.765,64.21 743.86,64.86 745.2,64.86 Z M745.2,58.65 C744.7,58.65 744.265,58.475 743.895,58.125 C743.525,57.775 743.34,57.28 743.34,56.64 C743.34,56.02 743.525,55.535 743.895,55.185 C744.265,54.835 744.7,54.66 745.2,54.66 C745.7,54.66 746.135,54.835 746.505,55.185 C746.875,55.535 747.06,56.02 747.06,56.64 C747.06,57.28 746.875,57.775 746.505,58.125 C746.135,58.475 745.7,58.65 745.2,58.65 Z" id="Shape"></path>
            <path d="M763.26,66.84 C762.18,66.84 761.205,66.71 760.335,66.45 C759.465,66.19 758.73,65.825 758.13,65.355 C757.53,64.885 757.065,64.33 756.735,63.69 C756.405,63.05 756.24,62.35 756.24,61.59 C756.24,60.93 756.36,60.34 756.6,59.82 C756.84,59.3 757.15,58.83 757.53,58.41 C757.91,57.99 758.345,57.625 758.835,57.315 C759.325,57.005 759.83,56.73 760.35,56.49 L760.35,56.37 C759.55,55.87 758.865,55.255 758.295,54.525 C757.725,53.795 757.44,52.92 757.44,51.9 C757.44,51.16 757.585,50.49 757.875,49.89 C758.165,49.29 758.575,48.775 759.105,48.345 C759.635,47.915 760.26,47.58 760.98,47.34 C761.7,47.1 762.49,46.98 763.35,46.98 C764.29,46.98 765.125,47.105 765.855,47.355 C766.585,47.605 767.205,47.955 767.715,48.405 C768.225,48.855 768.615,49.395 768.885,50.025 C769.155,50.655 769.29,51.34 769.29,52.08 C769.29,52.98 769.005,53.825 768.435,54.615 C767.865,55.405 767.18,56.08 766.38,56.64 L766.38,56.76 C766.9,57.02 767.39,57.3 767.85,57.6 C768.31,57.9 768.71,58.24 769.05,58.62 C769.39,59 769.655,59.445 769.845,59.955 C770.035,60.465 770.13,61.06 770.13,61.74 C770.13,62.46 769.975,63.13 769.665,63.75 C769.355,64.37 768.91,64.91 768.33,65.37 C767.75,65.83 767.035,66.19 766.185,66.45 C765.335,66.71 764.36,66.84 763.26,66.84 Z M764.76,56.04 C766.36,54.88 767.16,53.6 767.16,52.2 C767.16,51.24 766.83,50.435 766.17,49.785 C765.51,49.135 764.55,48.81 763.29,48.81 C762.21,48.81 761.34,49.09 760.68,49.65 C760.02,50.21 759.69,50.96 759.69,51.9 C759.69,52.48 759.82,52.975 760.08,53.385 C760.34,53.795 760.7,54.16 761.16,54.48 C761.62,54.8 762.155,55.085 762.765,55.335 C763.375,55.585 764.04,55.82 764.76,56.04 Z M763.32,65.01 C764.76,65.01 765.86,64.7 766.62,64.08 C767.38,63.46 767.76,62.65 767.76,61.65 C767.76,60.99 767.605,60.435 767.295,59.985 C766.985,59.535 766.56,59.15 766.02,58.83 C765.48,58.51 764.845,58.225 764.115,57.975 C763.385,57.725 762.6,57.46 761.76,57.18 C760.82,57.7 760.04,58.285 759.42,58.935 C758.8,59.585 758.49,60.39 758.49,61.35 C758.49,62.43 758.925,63.31 759.795,63.99 C760.665,64.67 761.84,65.01 763.32,65.01 Z" id="Shape"></path>
            <path d="M793.62,66.48 L790.44,51.9 L792.9,51.9 L794.64,60.36 C794.78,61.06 794.9,61.73 795,62.37 C795.1,63.01 795.2,63.68 795.3,64.38 L795.42,64.38 C795.52,63.68 795.645,63.005 795.795,62.355 C795.945,61.705 796.1,61.04 796.26,60.36 L798.06,52.8 L800.52,52.8 L802.26,60.36 C802.42,61.06 802.585,61.73 802.755,62.37 C802.925,63.01 803.06,63.68 803.16,64.38 L803.28,64.38 C803.4,63.68 803.505,63.01 803.595,62.37 C803.685,61.73 803.8,61.06 803.94,60.36 L805.68,51.9 L807.96,51.9 L804.84,66.48 L801.66,66.48 L799.98,59.52 C799.74,58.5 799.5,57.06 799.26,55.2 L799.14,55.2 C798.9,57.06 798.66,58.5 798.42,59.52 L796.8,66.48 L793.62,66.48 Z" id="Path"></path>
            <path d="M818.1,66.84 C817,66.84 815.975,66.67 815.025,66.33 C814.075,65.99 813.245,65.49 812.535,64.83 C811.825,64.17 811.265,63.365 810.855,62.415 C810.445,61.465 810.24,60.38 810.24,59.16 C810.24,57.98 810.445,56.92 810.855,55.98 C811.265,55.04 811.815,54.24 812.505,53.58 C813.195,52.92 813.985,52.415 814.875,52.065 C815.765,51.715 816.7,51.54 817.68,51.54 C818.72,51.54 819.655,51.705 820.485,52.035 C821.315,52.365 822.015,52.83 822.585,53.43 C823.155,54.03 823.59,54.75 823.89,55.59 C824.19,56.43 824.34,57.36 824.34,58.38 C824.34,58.66 824.33,58.93 824.31,59.19 C824.29,59.45 824.26,59.68 824.22,59.88 L812.73,59.88 C812.89,61.54 813.495,62.785 814.545,63.615 C815.595,64.445 816.88,64.86 818.4,64.86 C819.28,64.86 820.075,64.735 820.785,64.485 C821.495,64.235 822.18,63.9 822.84,63.48 L823.74,65.1 C823.02,65.58 822.195,65.99 821.265,66.33 C820.335,66.67 819.28,66.84 818.1,66.84 Z M817.74,53.49 C817.14,53.49 816.565,53.59 816.015,53.79 C815.465,53.99 814.97,54.275 814.53,54.645 C814.09,55.015 813.72,55.48 813.42,56.04 C813.12,56.6 812.91,57.24 812.79,57.96 L822.09,57.96 C821.99,56.46 821.555,55.34 820.785,54.6 C820.015,53.86 819,53.49 817.74,53.49 Z" id="Shape"></path>
            <path d="M836.1,66.84 C835,66.84 833.975,66.67 833.025,66.33 C832.075,65.99 831.245,65.49 830.535,64.83 C829.825,64.17 829.265,63.365 828.855,62.415 C828.445,61.465 828.24,60.38 828.24,59.16 C828.24,57.98 828.445,56.92 828.855,55.98 C829.265,55.04 829.815,54.24 830.505,53.58 C831.195,52.92 831.985,52.415 832.875,52.065 C833.765,51.715 834.7,51.54 835.68,51.54 C836.72,51.54 837.655,51.705 838.485,52.035 C839.315,52.365 840.015,52.83 840.585,53.43 C841.155,54.03 841.59,54.75 841.89,55.59 C842.19,56.43 842.34,57.36 842.34,58.38 C842.34,58.66 842.33,58.93 842.31,59.19 C842.29,59.45 842.26,59.68 842.22,59.88 L830.73,59.88 C830.89,61.54 831.495,62.785 832.545,63.615 C833.595,64.445 834.88,64.86 836.4,64.86 C837.28,64.86 838.075,64.735 838.785,64.485 C839.495,64.235 840.18,63.9 840.84,63.48 L841.74,65.1 C841.02,65.58 840.195,65.99 839.265,66.33 C838.335,66.67 837.28,66.84 836.1,66.84 Z M835.74,53.49 C835.14,53.49 834.565,53.59 834.015,53.79 C833.465,53.99 832.97,54.275 832.53,54.645 C832.09,55.015 831.72,55.48 831.42,56.04 C831.12,56.6 830.91,57.24 830.79,57.96 L840.09,57.96 C839.99,56.46 839.555,55.34 838.785,54.6 C838.015,53.86 837,53.49 835.74,53.49 Z" id="Shape"></path>
            <polygon id="Path" points="847.38 66.48 847.38 45.12 849.84 45.12 849.84 59.58 849.96 59.58 857.82 51.9 860.64 51.9 854.82 57.63 861.42 66.48 858.66 66.48 853.29 59.13 849.84 62.52 849.84 66.48"></polygon>
            <path d="M874.41,66.84 C872.85,66.84 871.66,66.4 870.84,65.52 C870.02,64.64 869.61,63.33 869.61,61.59 L869.61,47.13 L864.42,47.13 L864.42,45.12 L872.07,45.12 L872.07,61.77 C872.07,62.85 872.33,63.625 872.85,64.095 C873.37,64.565 874.07,64.8 874.95,64.8 C875.81,64.8 876.72,64.58 877.68,64.14 L878.31,65.97 C877.63,66.25 877.01,66.465 876.45,66.615 C875.89,66.765 875.21,66.84 874.41,66.84 Z" id="Path"></path>
            <path d="M884.13,72.75 C883.41,72.75 882.77,72.65 882.21,72.45 L882.72,70.5 C882.92,70.56 883.135,70.61 883.365,70.65 C883.595,70.69 883.82,70.71 884.04,70.71 C885.06,70.71 885.89,70.415 886.53,69.825 C887.17,69.235 887.67,68.49 888.03,67.59 L888.48,66.51 L881.67,51.9 L884.16,51.9 L887.73,59.97 C888.01,60.61 888.305,61.3 888.615,62.04 C888.925,62.78 889.23,63.5 889.53,64.2 L889.65,64.2 C889.91,63.5 890.175,62.785 890.445,62.055 C890.715,61.325 890.97,60.63 891.21,59.97 L894.39,51.9 L896.73,51.9 L890.31,67.68 C890.03,68.4 889.71,69.07 889.35,69.69 C888.99,70.31 888.56,70.845 888.06,71.295 C887.56,71.745 886.985,72.1 886.335,72.36 C885.685,72.62 884.95,72.75 884.13,72.75 Z" id="Path"></path>
            <polygon id="Path" points="900.75 57.51 900.75 55.65 913.65 55.65 913.65 57.51"></polygon>
            <path d="M924.33,66.84 C923.37,66.84 922.505,66.67 921.735,66.33 C920.965,65.99 920.3,65.495 919.74,64.845 C919.18,64.195 918.75,63.4 918.45,62.46 C918.15,61.52 918,60.44 918,59.22 C918,58.04 918.185,56.975 918.555,56.025 C918.925,55.075 919.415,54.27 920.025,53.61 C920.635,52.95 921.34,52.44 922.14,52.08 C922.94,51.72 923.77,51.54 924.63,51.54 C925.51,51.54 926.295,51.705 926.985,52.035 C927.675,52.365 928.34,52.83 928.98,53.43 L929.07,53.43 L928.95,50.73 L928.95,45.12 L931.41,45.12 L931.41,66.48 L929.37,66.48 L929.16,64.56 L929.07,64.56 C928.47,65.18 927.755,65.715 926.925,66.165 C926.095,66.615 925.23,66.84 924.33,66.84 Z M924.84,64.77 C926.28,64.77 927.65,64.04 928.95,62.58 L928.95,55.32 C928.29,54.7 927.645,54.26 927.015,54 C926.385,53.74 925.75,53.61 925.11,53.61 C924.47,53.61 923.875,53.745 923.325,54.015 C922.775,54.285 922.295,54.665 921.885,55.155 C921.475,55.645 921.15,56.23 920.91,56.91 C920.67,57.59 920.55,58.35 920.55,59.19 C920.55,60.95 920.925,62.32 921.675,63.3 C922.425,64.28 923.48,64.77 924.84,64.77 Z" id="Shape"></path>
            <path d="M941.58,66.84 C940.9,66.84 940.26,66.745 939.66,66.555 C939.06,66.365 938.535,66.095 938.085,65.745 C937.635,65.395 937.28,64.965 937.02,64.455 C936.76,63.945 936.63,63.36 936.63,62.7 C936.63,61.88 936.825,61.165 937.215,60.555 C937.605,59.945 938.225,59.42 939.075,58.98 C939.925,58.54 941.02,58.18 942.36,57.9 C943.7,57.62 945.31,57.4 947.19,57.24 C947.17,56.74 947.09,56.27 946.95,55.83 C946.81,55.39 946.59,55.005 946.29,54.675 C945.99,54.345 945.595,54.08 945.105,53.88 C944.615,53.68 944.02,53.58 943.32,53.58 C942.36,53.58 941.44,53.765 940.56,54.135 C939.68,54.505 938.9,54.9 938.22,55.32 L937.26,53.64 C937.62,53.4 938.045,53.155 938.535,52.905 C939.025,52.655 939.545,52.43 940.095,52.23 C940.645,52.03 941.23,51.865 941.85,51.735 C942.47,51.605 943.1,51.54 943.74,51.54 C945.74,51.54 947.225,52.085 948.195,53.175 C949.165,54.265 949.65,55.72 949.65,57.54 L949.65,66.48 L947.64,66.48 L947.43,64.5 L947.34,64.5 C946.52,65.14 945.615,65.69 944.625,66.15 C943.635,66.61 942.62,66.84 941.58,66.84 Z M942.24,64.86 C943.08,64.86 943.905,64.675 944.715,64.305 C945.525,63.935 946.35,63.4 947.19,62.7 L947.19,58.86 C945.63,58.98 944.325,59.15 943.275,59.37 C942.225,59.59 941.385,59.855 940.755,60.165 C940.125,60.475 939.68,60.825 939.42,61.215 C939.16,61.605 939.03,62.04 939.03,62.52 C939.03,62.94 939.12,63.295 939.3,63.585 C939.48,63.875 939.715,64.115 940.005,64.305 C940.295,64.495 940.635,64.635 941.025,64.725 C941.415,64.815 941.82,64.86 942.24,64.86 Z" id="Shape"></path>
            <path d="M964.02,66.84 C962.96,66.84 962.07,66.695 961.35,66.405 C960.63,66.115 960.05,65.705 959.61,65.175 C959.17,64.645 958.855,64.01 958.665,63.27 C958.475,62.53 958.38,61.71 958.38,60.81 L958.38,53.91 L954.27,53.91 L954.27,52.05 L958.47,51.9 L958.8,47.22 L960.84,47.22 L960.84,51.9 L968.01,51.9 L968.01,53.91 L960.84,53.91 L960.84,60.84 C960.84,61.5 960.9,62.075 961.02,62.565 C961.14,63.055 961.34,63.47 961.62,63.81 C961.9,64.15 962.28,64.405 962.76,64.575 C963.24,64.745 963.83,64.83 964.53,64.83 C965.23,64.83 965.86,64.77 966.42,64.65 C966.98,64.53 967.52,64.37 968.04,64.17 L968.58,65.97 C967.92,66.21 967.225,66.415 966.495,66.585 C965.765,66.755 964.94,66.84 964.02,66.84 Z" id="Path"></path>
            <path d="M977.58,66.84 C976.9,66.84 976.26,66.745 975.66,66.555 C975.06,66.365 974.535,66.095 974.085,65.745 C973.635,65.395 973.28,64.965 973.02,64.455 C972.76,63.945 972.63,63.36 972.63,62.7 C972.63,61.88 972.825,61.165 973.215,60.555 C973.605,59.945 974.225,59.42 975.075,58.98 C975.925,58.54 977.02,58.18 978.36,57.9 C979.7,57.62 981.31,57.4 983.19,57.24 C983.17,56.74 983.09,56.27 982.95,55.83 C982.81,55.39 982.59,55.005 982.29,54.675 C981.99,54.345 981.595,54.08 981.105,53.88 C980.615,53.68 980.02,53.58 979.32,53.58 C978.36,53.58 977.44,53.765 976.56,54.135 C975.68,54.505 974.9,54.9 974.22,55.32 L973.26,53.64 C973.62,53.4 974.045,53.155 974.535,52.905 C975.025,52.655 975.545,52.43 976.095,52.23 C976.645,52.03 977.23,51.865 977.85,51.735 C978.47,51.605 979.1,51.54 979.74,51.54 C981.74,51.54 983.225,52.085 984.195,53.175 C985.165,54.265 985.65,55.72 985.65,57.54 L985.65,66.48 L983.64,66.48 L983.43,64.5 L983.34,64.5 C982.52,65.14 981.615,65.69 980.625,66.15 C979.635,66.61 978.62,66.84 977.58,66.84 Z M978.24,64.86 C979.08,64.86 979.905,64.675 980.715,64.305 C981.525,63.935 982.35,63.4 983.19,62.7 L983.19,58.86 C981.63,58.98 980.325,59.15 979.275,59.37 C978.225,59.59 977.385,59.855 976.755,60.165 C976.125,60.475 975.68,60.825 975.42,61.215 C975.16,61.605 975.03,62.04 975.03,62.52 C975.03,62.94 975.12,63.295 975.3,63.585 C975.48,63.875 975.715,64.115 976.005,64.305 C976.295,64.495 976.635,64.635 977.025,64.725 C977.415,64.815 977.82,64.86 978.24,64.86 Z" id="Shape"></path>
            <path d="M997.2,66.84 C996.52,66.84 995.945,66.61 995.475,66.15 C995.005,65.69 994.77,65.08 994.77,64.32 C994.77,63.56 995.005,62.945 995.475,62.475 C995.945,62.005 996.52,61.77 997.2,61.77 C997.88,61.77 998.455,62.005 998.925,62.475 C999.395,62.945 999.63,63.56 999.63,64.32 C999.63,65.08 999.395,65.69 998.925,66.15 C998.455,66.61 997.88,66.84 997.2,66.84 Z" id="Path"></path>
            <path d="M1016.58,66.84 C1015.44,66.84 1014.385,66.67 1013.415,66.33 C1012.445,65.99 1011.6,65.495 1010.88,64.845 C1010.16,64.195 1009.6,63.395 1009.2,62.445 C1008.8,61.495 1008.6,60.42 1008.6,59.22 C1008.6,58 1008.815,56.915 1009.245,55.965 C1009.675,55.015 1010.26,54.21 1011,53.55 C1011.74,52.89 1012.605,52.39 1013.595,52.05 C1014.585,51.71 1015.63,51.54 1016.73,51.54 C1017.93,51.54 1018.965,51.75 1019.835,52.17 C1020.705,52.59 1021.44,53.09 1022.04,53.67 L1020.81,55.26 C1020.21,54.74 1019.585,54.33 1018.935,54.03 C1018.285,53.73 1017.58,53.58 1016.82,53.58 C1015.98,53.58 1015.21,53.715 1014.51,53.985 C1013.81,54.255 1013.215,54.64 1012.725,55.14 C1012.235,55.64 1011.85,56.235 1011.57,56.925 C1011.29,57.615 1011.15,58.38 1011.15,59.22 C1011.15,60.06 1011.285,60.82 1011.555,61.5 C1011.825,62.18 1012.205,62.765 1012.695,63.255 C1013.185,63.745 1013.775,64.125 1014.465,64.395 C1015.155,64.665 1015.92,64.8 1016.76,64.8 C1017.66,64.8 1018.485,64.625 1019.235,64.275 C1019.985,63.925 1020.66,63.49 1021.26,62.97 L1022.37,64.56 C1021.55,65.28 1020.65,65.84 1019.67,66.24 C1018.69,66.64 1017.66,66.84 1016.58,66.84 Z" id="Path"></path>
            <path d="M1033.5,66.84 C1032.06,66.84 1030.73,66.615 1029.51,66.165 C1028.29,65.715 1027.23,65.18 1026.33,64.56 L1027.47,62.94 C1028.31,63.54 1029.235,64.02 1030.245,64.38 C1031.255,64.74 1032.44,64.92 1033.8,64.92 C1035.04,64.92 1035.965,64.695 1036.575,64.245 C1037.185,63.795 1037.49,63.26 1037.49,62.64 C1037.49,62.36 1037.44,62.1 1037.34,61.86 C1037.24,61.62 1037.025,61.39 1036.695,61.17 C1036.365,60.95 1035.9,60.74 1035.3,60.54 C1034.7,60.34 1033.91,60.14 1032.93,59.94 C1031.03,59.54 1029.605,59.005 1028.655,58.335 C1027.705,57.665 1027.23,56.78 1027.23,55.68 C1027.23,55.1 1027.36,54.555 1027.62,54.045 C1027.88,53.535 1028.265,53.095 1028.775,52.725 C1029.285,52.355 1029.915,52.065 1030.665,51.855 C1031.415,51.645 1032.29,51.54 1033.29,51.54 C1034.41,51.54 1035.49,51.725 1036.53,52.095 C1037.57,52.465 1038.45,52.9 1039.17,53.4 L1037.97,54.99 C1037.29,54.53 1036.54,54.16 1035.72,53.88 C1034.9,53.6 1034.02,53.46 1033.08,53.46 C1031.84,53.46 1030.97,53.67 1030.47,54.09 C1029.97,54.51 1029.72,55 1029.72,55.56 C1029.72,56.2 1030.05,56.685 1030.71,57.015 C1031.37,57.345 1032.45,57.67 1033.95,57.99 C1035.17,58.25 1036.17,58.525 1036.95,58.815 C1037.73,59.105 1038.345,59.43 1038.795,59.79 C1039.245,60.15 1039.555,60.55 1039.725,60.99 C1039.895,61.43 1039.98,61.93 1039.98,62.49 C1039.98,63.09 1039.84,63.65 1039.56,64.17 C1039.28,64.69 1038.865,65.15 1038.315,65.55 C1037.765,65.95 1037.085,66.265 1036.275,66.495 C1035.465,66.725 1034.54,66.84 1033.5,66.84 Z" id="Path"></path>
            <path d="M1049.88,66.48 L1043.73,51.9 L1046.22,51.9 L1049.58,60.18 C1049.88,60.92 1050.165,61.645 1050.435,62.355 C1050.705,63.065 1050.97,63.77 1051.23,64.47 L1051.35,64.47 C1051.61,63.77 1051.865,63.065 1052.115,62.355 C1052.365,61.645 1052.64,60.92 1052.94,60.18 L1056.3,51.9 L1058.67,51.9 L1052.64,66.48 L1049.88,66.48 Z" id="Path"></path>
        </g>
        <g id="Permissions" transform="translate(215.0513, 81)">
            <g id="User-Read-Bit" transform="translate(72.8747, 0)">
                <rect id="slot" stroke="#BFBFBF" stroke-width="1.88" fill="#E7E5E4" x="0.94" y="10.34" width="52.6440528" height="73.32"></rect>
                <text id="dash" font-family="SourceCodePro-Regular, Source Code Pro" font-size="67.68" font-weight="normal" line-spacing="84.6" letter-spacing="14.8520002" fill="#0A0A0A">
                    <tspan x="6.87467928" y="67">r</tspan>
                </text>
            </g>
            <g id="User-Write-Bit" transform="translate(145.7494, 0)">
                <rect id="slot" stroke="#BFBFBF" stroke-width="1.88" fill="#E7E5E4" x="0.94" y="10.34" width="52.6440528" height="73.32"></rect>
                <text id="dash" font-family="SourceCodePro-Regular, Source Code Pro" font-size="67.68" font-weight="normal" line-spacing="84.6" letter-spacing="14.8520002" fill="#0A0A0A">
                    <tspan x="6.87467928" y="67">w</tspan>
                </text>
            </g>
            <g id="User-Execute-Bit" transform="translate(218.624, 0)">
                <rect id="slot" stroke="#BFBFBF" stroke-width="1.88" fill="#E7E5E4" x="0.94" y="10.34" width="52.6440528" height="73.32"></rect>
                <text id="dash" font-family="SourceCodePro-Regular, Source Code Pro" font-size="67.68" font-weight="normal" line-spacing="84.6" letter-spacing="14.8520002" fill="#0A0A0A">
                    <tspan x="6.87467928" y="67">x</tspan>
                </text>
            </g>
            <g id="Group-Read-Bit" transform="translate(291.4987, 0)">
                <rect id="slot" stroke="#BFBFBF" stroke-width="1.88" fill="#E7E5E4" x="0.94" y="10.34" width="52.6440528" height="73.32"></rect>
                <text id="dash" font-family="SourceCodePro-Regular, Source Code Pro" font-size="67.68" font-weight="normal" line-spacing="84.6" letter-spacing="14.8520002" fill="#0A0A0A">
                    <tspan x="6.87467928" y="67">r</tspan>
                </text>
            </g>
            <g id="Group-Write-Bit" transform="translate(364.3734, 0)">
                <rect id="slot" stroke="#BFBFBF" stroke-width="1.88" fill="#E7E5E4" x="0.94" y="10.34" width="52.6440528" height="73.32"></rect>
                <text id="dash" font-family="SourceCodePro-Regular, Source Code Pro" font-size="67.68" font-weight="normal" line-spacing="84.6" letter-spacing="14.8520002" fill="#0A0A0A">
                    <tspan x="6.87467928" y="67">-</tspan>
                </text>
            </g>
            <g id="Group-Execute-Bit" transform="translate(437.2481, 0)">
                <rect id="slot" stroke="#BFBFBF" stroke-width="1.88" fill="#E7E5E4" x="0.94" y="10.34" width="52.6440528" height="73.32"></rect>
                <text id="dash" font-family="SourceCodePro-Regular, Source Code Pro" font-size="67.68" font-weight="normal" line-spacing="84.6" letter-spacing="14.8520002" fill="#0A0A0A">
                    <tspan x="6.87467928" y="67">x</tspan>
                </text>
            </g>
            <g id="Other-Read-Bit" transform="translate(510.1228, 0)">
                <rect id="slot" stroke="#BFBFBF" stroke-width="1.88" fill="#E7E5E4" x="0.94" y="10.34" width="52.6440528" height="73.32"></rect>
                <text id="dash" font-family="SourceCodePro-Regular, Source Code Pro" font-size="67.68" font-weight="normal" line-spacing="84.6" letter-spacing="14.8520002" fill="#0A0A0A">
                    <tspan x="6.87467928" y="67">r</tspan>
                </text>
            </g>
            <g id="Other-Write-Bit" transform="translate(582.9974, 0)">
                <rect id="slot" stroke="#BFBFBF" stroke-width="1.88" fill="#E7E5E4" x="0.94" y="10.34" width="52.6440528" height="73.32"></rect>
                <text id="dash" font-family="SourceCodePro-Regular, Source Code Pro" font-size="67.68" font-weight="normal" line-spacing="84.6" letter-spacing="14.8520002" fill="#0A0A0A">
                    <tspan x="6.87467928" y="67">-</tspan>
                </text>
            </g>
            <g id="Other-Execute-Bit" transform="translate(655.8721, 0)">
                <rect id="slot" stroke="#BFBFBF" stroke-width="1.88" fill="#E7E5E4" x="0.94" y="10.34" width="52.6440528" height="73.32"></rect>
                <text id="dash" font-family="SourceCodePro-Regular, Source Code Pro" font-size="67.68" font-weight="normal" line-spacing="84.6" letter-spacing="14.8520002" fill="#0A0A0A">
                    <tspan x="6.87467928" y="67">-</tspan>
                </text>
            </g>
            <g id="Type-Bit" transform="translate(0, 0)">
                <rect id="slot" stroke="#BFBFBF" stroke-width="1.88" fill="#FAFAF9" x="0.94" y="10.34" width="52.6440528" height="73.32"></rect>
                <text id="dash" font-family="SourceCodePro-Regular, Source Code Pro" font-size="67.68" font-weight="normal" line-spacing="84.6" letter-spacing="14.8520002" fill="#0A0A0A">
                    <tspan x="6.87467928" y="67">d</tspan>
                </text>
            </g>
        </g>
        <path d="M242.172835,47.37485 L242.173845,63.1716325 C245.565646,63.6145583 248.172835,66.2750268 248.172835,69.49085 C248.172835,73.0166358 245.038828,75.87485 241.172835,75.87485 C237.306841,75.87485 234.172835,73.0166358 234.172835,69.49085 C234.172835,66.2750268 236.780023,63.6145583 240.171825,63.1716325 L240.172835,47.37485 L242.172835,47.37485 Z M241.172835,64.93085 C238.411411,64.93085 236.172835,66.9724315 236.172835,69.49085 C236.172835,72.0092685 238.411411,74.05085 241.172835,74.05085 C243.934258,74.05085 246.172835,72.0092685 246.172835,69.49085 C246.172835,66.9724315 243.934258,64.93085 241.172835,64.93085 Z" id="Line-2" fill="#D97705" fill-rule="nonzero"></path>
        <g id="Cursor" transform="translate(218.1048, 22.6374)" fill="#D97705" fill-rule="nonzero">
            <polygon id="Path" points="12.456 1.776 7.224 1.776 7.224 16.8 5.232 16.8 5.232 1.776 0 1.776 0 0 12.456 0"></polygon>
            <path d="M15.192,12.576 L15.864,14.88 L15.984,14.88 L16.512,12.552 L18.84,4.8 L20.784,4.8 L17.232,15.576 C16.96,16.36 16.692,17.12 16.428,17.856 C16.164,18.592 15.872,19.248 15.552,19.824 C15.232,20.4 14.872,20.86 14.472,21.204 C14.072,21.548 13.608,21.72 13.08,21.72 C12.504,21.72 12.032,21.64 11.664,21.48 L12,19.824 C12.208,19.904 12.408,19.944 12.6,19.944 C13.048,19.944 13.48,19.708 13.896,19.236 C14.312,18.764 14.656,17.952 14.928,16.8 L10.104,4.8 L12.312,4.8 L15.192,12.576 Z" id="Path"></path>
            <path d="M22.848,4.8 L24.168,4.8 L24.528,6.24 L24.624,6.24 C24.992,5.68 25.468,5.252 26.052,4.956 C26.636,4.66 27.304,4.512 28.056,4.512 C29.656,4.512 30.848,4.984 31.632,5.928 C32.416,6.872 32.808,8.416 32.808,10.56 C32.808,11.568 32.676,12.476 32.412,13.284 C32.148,14.092 31.776,14.776 31.296,15.336 C30.816,15.896 30.236,16.328 29.556,16.632 C28.876,16.936 28.12,17.088 27.288,17.088 C26.696,17.088 26.228,17.052 25.884,16.98 C25.54,16.908 25.168,16.784 24.768,16.608 L24.768,21.6 L22.848,21.6 L22.848,4.8 Z M27.696,6.192 C26.88,6.192 26.236,6.404 25.764,6.828 C25.292,7.252 24.96,7.896 24.768,8.76 L24.768,14.712 C25.056,14.936 25.384,15.108 25.752,15.228 C26.12,15.348 26.608,15.408 27.216,15.408 C28.32,15.408 29.196,14.996 29.844,14.172 C30.492,13.348 30.816,12.136 30.816,10.536 C30.816,9.88 30.76,9.284 30.648,8.748 C30.536,8.212 30.356,7.756 30.108,7.38 C29.86,7.004 29.54,6.712 29.148,6.504 C28.756,6.296 28.272,6.192 27.696,6.192 Z" id="Shape"></path>
            <path d="M44.592,15.84 C44.112,16.224 43.508,16.528 42.78,16.752 C42.052,16.976 41.28,17.088 40.464,17.088 C39.552,17.088 38.76,16.94 38.088,16.644 C37.416,16.348 36.864,15.924 36.432,15.372 C36,14.82 35.68,14.16 35.472,13.392 C35.264,12.624 35.16,11.76 35.16,10.8 C35.16,8.752 35.616,7.192 36.528,6.12 C37.44,5.048 38.744,4.512 40.44,4.512 C40.984,4.512 41.528,4.572 42.072,4.692 C42.616,4.812 43.104,5.04 43.536,5.376 C43.968,5.712 44.32,6.188 44.592,6.804 C44.864,7.42 45,8.232 45,9.24 C45,9.768 44.952,10.352 44.856,10.992 L37.152,10.992 C37.152,11.696 37.224,12.32 37.368,12.864 C37.512,13.408 37.736,13.868 38.04,14.244 C38.344,14.62 38.74,14.908 39.228,15.108 C39.716,15.308 40.312,15.408 41.016,15.408 C41.56,15.408 42.104,15.312 42.648,15.12 C43.192,14.928 43.6,14.704 43.872,14.448 L44.592,15.84 Z M40.464,6.192 C39.52,6.192 38.764,6.44 38.196,6.936 C37.628,7.432 37.288,8.28 37.176,9.48 L43.128,9.48 C43.128,8.264 42.896,7.412 42.432,6.924 C41.968,6.436 41.312,6.192 40.464,6.192 Z" id="Shape"></path>
        </g>
        <g id="User-Label" transform="translate(295.2998, 17.0002)">
            <line x1="92.762724" y1="29" x2="92.762724" y2="51.87495" id="Line-2" stroke="#D97705" stroke-width="2" stroke-linecap="square"></line>
            <path id="Line-2" d="M0.26394875,58.87485 C-3.6020445,58.87485 -6.73605125,55.7408432 -6.73605125,51.87485 C-6.73605125,48.0088568 -3.6020445,44.87485 0.26394875,44.87485 C3.79034266,44.87485 6.70770118,47.4824405 7.19302769,50.8746249 L178.995304,50.8746249 C179.480631,47.4824405 182.397989,44.87485 185.924383,44.87485 C189.790377,44.87485 192.924383,48.0088568 192.924383,51.87485 C192.924383,55.7408432 189.790377,58.87485 185.924383,58.87485 C182.397914,58.87485 179.480507,56.2671484 178.995273,52.8748582 L7.19305871,52.8748582 C6.70782551,56.2671484 3.79041781,58.87485 0.26394875,58.87485 Z M185.924383,46.87485 C183.16296,46.87485 180.924383,49.1134263 180.924383,51.87485 C180.924383,54.6362737 183.16296,56.87485 185.924383,56.87485 C188.685807,56.87485 190.924383,54.6362737 190.924383,51.87485 C190.924383,49.1134263 188.685807,46.87485 185.924383,46.87485 Z M0.26394875,46.87485 C-2.497475,46.87485 -4.73605125,49.1134263 -4.73605125,51.87485 C-4.73605125,54.6362737 -2.497475,56.87485 0.26394875,56.87485 C3.0253725,56.87485 5.26394875,54.6362737 5.26394875,51.87485 C5.26394875,49.1134263 3.0253725,46.87485 0.26394875,46.87485 Z" fill="#D97705" fill-rule="nonzero"></path>
            <text id="Command-Prompt" font-family="PTSans-Regular, PT Sans" font-size="24" font-weight="normal" fill="#D97705">
                <tspan x="69.262724" y="22">User</tspan>
            </text>
        </g>
        <g id="Group-Label" transform="translate(513.2998, 17.0002)">
            <line x1="92.762724" y1="29" x2="92.762724" y2="51.87495" id="Line-2" stroke="#D97705" stroke-width="2" stroke-linecap="square"></line>
            <path id="Line-2" d="M0.26394875,58.87485 C-3.6020445,58.87485 -6.73605125,55.7408432 -6.73605125,51.87485 C-6.73605125,48.0088568 -3.6020445,44.87485 0.26394875,44.87485 C3.79034266,44.87485 6.70770118,47.4824405 7.19302769,50.8746249 L178.995304,50.8746249 C179.480631,47.4824405 182.397989,44.87485 185.924383,44.87485 C189.790377,44.87485 192.924383,48.0088568 192.924383,51.87485 C192.924383,55.7408432 189.790377,58.87485 185.924383,58.87485 C182.397914,58.87485 179.480507,56.2671484 178.995273,52.8748582 L7.19305871,52.8748582 C6.70782551,56.2671484 3.79041781,58.87485 0.26394875,58.87485 Z M185.924383,46.87485 C183.16296,46.87485 180.924383,49.1134263 180.924383,51.87485 C180.924383,54.6362737 183.16296,56.87485 185.924383,56.87485 C188.685807,56.87485 190.924383,54.6362737 190.924383,51.87485 C190.924383,49.1134263 188.685807,46.87485 185.924383,46.87485 Z M0.26394875,46.87485 C-2.497475,46.87485 -4.73605125,49.1134263 -4.73605125,51.87485 C-4.73605125,54.6362737 -2.497475,56.87485 0.26394875,56.87485 C3.0253725,56.87485 5.26394875,54.6362737 5.26394875,51.87485 C5.26394875,49.1134263 3.0253725,46.87485 0.26394875,46.87485 Z" fill="#D97705" fill-rule="nonzero"></path>
            <text id="Command-Prompt" font-family="PTSans-Regular, PT Sans" font-size="24" font-weight="normal" fill="#D97705">
                <tspan x="61.762824" y="22">Group</tspan>
            </text>
        </g>
        <g id="Other-Label" transform="translate(732.2998, 17.0002)">
            <line x1="92.762724" y1="29" x2="92.762724" y2="51.87495" id="Line-2" stroke="#D97705" stroke-width="2" stroke-linecap="square"></line>
            <path id="Line-2" d="M0.26394875,58.87485 C-3.6020445,58.87485 -6.73605125,55.7408432 -6.73605125,51.87485 C-6.73605125,48.0088568 -3.6020445,44.87485 0.26394875,44.87485 C3.79034266,44.87485 6.70770118,47.4824405 7.19302769,50.8746249 L178.995304,50.8746249 C179.480631,47.4824405 182.397989,44.87485 185.924383,44.87485 C189.790377,44.87485 192.924383,48.0088568 192.924383,51.87485 C192.924383,55.7408432 189.790377,58.87485 185.924383,58.87485 C182.397914,58.87485 179.480507,56.2671484 178.995273,52.8748582 L7.19305871,52.8748582 C6.70782551,56.2671484 3.79041781,58.87485 0.26394875,58.87485 Z M185.924383,46.87485 C183.16296,46.87485 180.924383,49.1134263 180.924383,51.87485 C180.924383,54.6362737 183.16296,56.87485 185.924383,56.87485 C188.685807,56.87485 190.924383,54.6362737 190.924383,51.87485 C190.924383,49.1134263 188.685807,46.87485 185.924383,46.87485 Z M0.26394875,46.87485 C-2.497475,46.87485 -4.73605125,49.1134263 -4.73605125,51.87485 C-4.73605125,54.6362737 -2.497475,56.87485 0.26394875,56.87485 C3.0253725,56.87485 5.26394875,54.6362737 5.26394875,51.87485 C5.26394875,49.1134263 3.0253725,46.87485 0.26394875,46.87485 Z" fill="#D97705" fill-rule="nonzero"></path>
            <text id="Command-Prompt" font-family="PTSans-Regular, PT Sans" font-size="24" font-weight="normal" fill="#D97705">
                <tspan x="63.262824" y="22">Other</tspan>
            </text>
        </g>
        <g id="Permissions-Label" transform="translate(294.688, 180.5)">
            <text id="Execute" font-family="PTSans-Regular, PT Sans" font-size="18" font-weight="normal" fill="#D97705">
                <tspan x="135.636706" y="16">Execute</tspan>
            </text>
            <text id="Write" font-family="PTSans-Regular, PT Sans" font-size="18" font-weight="normal" fill="#D97705">
                <tspan x="72.6367057" y="16">Write</tspan>
            </text>
            <text id="Read" font-family="PTSans-Regular, PT Sans" font-size="18" font-weight="normal" fill="#D97705">
                <tspan x="0" y="16">Read</tspan>
            </text>
            <text id="Execute" font-family="PTSans-Regular, PT Sans" font-size="18" font-weight="normal" fill="#D97705">
                <tspan x="354.636706" y="16">Execute</tspan>
            </text>
            <text id="Write" font-family="PTSans-Regular, PT Sans" font-size="18" font-weight="normal" fill="#D97705">
                <tspan x="291.636706" y="16">Write</tspan>
            </text>
            <text id="Read" font-family="PTSans-Regular, PT Sans" font-size="18" font-weight="normal" fill="#D97705">
                <tspan x="219" y="16">Read</tspan>
            </text>
            <text id="Execute" font-family="PTSans-Regular, PT Sans" font-size="18" font-weight="normal" fill="#D97705">
                <tspan x="574.636706" y="16">Execute</tspan>
            </text>
            <text id="Write" font-family="PTSans-Regular, PT Sans" font-size="18" font-weight="normal" fill="#D97705">
                <tspan x="511.636706" y="16">Write</tspan>
            </text>
            <text id="Read" font-family="PTSans-Regular, PT Sans" font-size="18" font-weight="normal" fill="#D97705">
                <tspan x="439" y="16">Read</tspan>
            </text>
            <line x1="311.426583" y1="42.37495" x2="311.426583" y2="65.2499" id="Line-2" stroke="#D97705" stroke-width="2" stroke-linecap="square"></line>
            <path id="Line-2" d="M0.181950271,49.37495 C-3.68404298,49.37495 -6.81804973,46.2409432 -6.81804973,42.37495 C-6.81804973,38.5089568 -3.68404298,35.37495 0.181950271,35.37495 C3.70807217,35.37495 6.62525262,37.9821382 7.11091686,41.3739399 L616.865956,41.3739399 C617.351621,37.9821382 620.268801,35.37495 623.794923,35.37495 C627.660916,35.37495 630.794923,38.5089568 630.794923,42.37495 C630.794923,46.2409432 627.660916,49.37495 623.794923,49.37495 C620.268454,49.37495 617.351046,46.7672484 616.865813,43.3749582 L7.11106024,43.3749582 C6.62582703,46.7672484 3.70841933,49.37495 0.181950271,49.37495 Z M623.794923,37.37495 C621.033499,37.37495 618.794923,39.6135263 618.794923,42.37495 C618.794923,45.1363737 621.033499,47.37495 623.794923,47.37495 C626.556347,47.37495 628.794923,45.1363737 628.794923,42.37495 C628.794923,39.6135263 626.556347,37.37495 623.794923,37.37495 Z M0.181950271,37.37495 C-2.57947348,37.37495 -4.81804973,39.6135263 -4.81804973,42.37495 C-4.81804973,45.1363737 -2.57947348,47.37495 0.181950271,47.37495 C2.94337402,47.37495 5.18195027,45.1363737 5.18195027,42.37495 C5.18195027,39.6135263 2.94337402,37.37495 0.181950271,37.37495 Z" fill="#D97705" fill-rule="nonzero"></path>
            <text id="Permissions" font-family="PTSans-Regular, PT Sans" font-size="24" font-weight="normal" fill="#D97705">
                <tspan x="250.680634" y="87.2499">Permissions</tspan>
            </text>
        </g>
    </g>
</svg>