<svg xmlns="http://www.w3.org/2000/svg" viewBox="0 0 1280 1024"><g fill="none" fill-rule="evenodd"><rect width="1246" height="990" x="17" y="17" stroke="#A8A29E" stroke-width="34" rx="237"/><rect width="1165" height="911" x="56.5" y="56.5" fill="#1C1917" stroke="#0A0A0A" stroke-width="49" rx="202"/><path fill="#292524" d="M1041.747 944h-806c-85.604 0-155-69.396-155-155V441h1116v348c0 85.604-69.396 155-155 155"/><g fill="#FCBF24" fill-rule="nonzero"><path d="m845.468 387.895-23.312-62.137-62.137-23.311 62.137-23.312 23.312-62.137 23.311 62.137 62.137 23.312-62.137 23.311zM665.224 302.447l-11.443-31.281-31.281-11.444 31.281-11.443 11.443-31.281 11.444 31.28 31.28 11.444-31.28 11.444zM727.976 463.998l-11.868-30.857-30.857-11.867 30.857-11.868 11.868-30.857 11.867 30.857 30.857 11.868-30.857 11.867z"/></g><path fill="#D6D3D1" fill-rule="nonzero" d="m227 459.998 76.452-121.419L227 216.998h51.488l75.049 121.581-75.049 121.419z"/><path fill="#D6D3D1" d="M398.27 459.998v-38.653h170.88v38.653z"/></g></svg>
