<svg xmlns="http://www.w3.org/2000/svg" viewBox="0 0 280 103"><g fill="none" fill-rule="evenodd"><rect width="122" height="96.4" x="79" y="3" fill="#F5F5F4" stroke="#44403C" stroke-width="6" rx="24"/><path fill="#FCBF24" fill-rule="nonzero" d="m166.565 47.435-.873-12.82-.218-6.047h6.372l-.218 6.046-.873 12.821zm2.095 12.14q-1.876 0-3.12-1.296t-1.244-3.342 1.244-3.296 3.12-1.25q1.876 0 3.12 1.25t1.244 3.296-1.243 3.342q-1.245 1.296-3.12 1.296"/><path fill="#44403C" fill-rule="nonzero" d="m107.024 59.575 9.764-15.507-9.764-15.527h6.576l9.584 15.527-9.584 15.507z"/><path fill="#44403C" d="M130.897 59.575v-4.937h21.823v4.937z"/><g fill="#FCBF24" fill-rule="nonzero"><path d="m258.089 72.861-5.91-15.752-15.751-5.909 15.752-5.91 5.909-15.751 5.91 15.752L279.75 51.2l-15.752 5.91zM234 82.861l-2.678-7.322L224 72.861l7.322-2.678L234 62.86l2.678 7.322L244 72.86l-7.322 2.678zM234 39.539l-2.778-7.222L224 29.539l7.222-2.778L234 19.54l2.778 7.222L244 29.54l-7.222 2.778z"/></g><g fill="#FCBF24" fill-rule="nonzero"><path d="m21.911 73.161 5.91-15.752L43.571 51.5 27.82 45.59 21.911 29.84l-5.91 15.752L.25 51.5l15.752 5.91zM46 83.161l2.678-7.322L56 73.161l-7.322-2.678L46 63.16l-2.678 7.322L36 73.16l7.322 2.678zM46 39.839l2.778-7.222L56 29.839l-7.222-2.778L46 19.84l-2.778 7.222L36 29.84l7.222 2.778z"/></g></g></svg>
