<?xml version="1.0" encoding="UTF-8"?>
<svg width="128px" height="103px" viewBox="0 0 128 103" version="1.1" xmlns="http://www.w3.org/2000/svg" xmlns:xlink="http://www.w3.org/1999/xlink">
    <title>logo-header-ornament</title>
    <g id="logo-header-ornament" stroke="none" stroke-width="1" fill="none" fill-rule="evenodd">
        <rect id="Outer-Edge" stroke="#44403C" stroke-width="6" fill="#F5F5F4" x="3" y="3" width="122" height="96.4" rx="24"></rect>
        <g id="Prompt" transform="translate(31.0243, 28.5413)">
            <g id="!" transform="translate(57.2716, 0.0263)" fill="#F59E0C" fill-rule="nonzero">
                <path d="M2.26938705,18.8678871 L1.39654588,6.04681684 L1.17833558,0 L7.55007614,0 L7.33186585,6.04681684 L6.45902468,18.8678871 L2.26938705,18.8678871 Z M4.36420586,31.0069856 C3.11313352,31.0069856 2.07299779,30.5750701 1.24379867,29.7112391 C0.414599557,28.8474082 0,27.7335209 0,26.3695772 C0,25.0056336 0.414599557,23.9069012 1.24379867,23.0733801 C2.07299779,22.2398589 3.11313352,21.8230984 4.36420586,21.8230984 C5.61527821,21.8230984 6.65541394,22.2398589 7.48461306,23.0733801 C8.31381217,23.9069012 8.72841173,25.0056336 8.72841173,26.3695772 C8.72841173,27.7335209 8.31381217,28.8474082 7.48461306,29.7112391 C6.65541394,30.5750701 5.61527821,31.0069856 4.36420586,31.0069856 Z" id="Shape"></path>
            </g>
            <g id="â¯" fill="#44403C" fill-rule="nonzero">
                <polygon id="Path" points="0 31.0333161 9.76367079 15.5270371 0 0 6.57553339 0 16.1598714 15.5270371 6.57553339 31.0333161"></polygon>
            </g>
            <polygon id="Rectangle" fill="#44403C" transform="translate(34.7842, 28.5652) rotate(-90) translate(-34.7842, -28.5652)" points="32.3160463 17.653623 37.252334 17.653623 37.252334 39.4767214 32.3160463 39.4767214"></polygon>
        </g>
    </g>
</svg>