<svg xmlns="http://www.w3.org/2000/svg" viewBox="0 0 280 103"><g fill="none" fill-rule="evenodd"><g fill="#F59E0C" fill-rule="nonzero"><path d="m229 69-8.73-23.27L197 37l23.27-8.73L229 5l8.73 23.27L261 37l-23.27 8.73zM161.5 37l-4.285-11.715L145.5 21l11.715-4.285L161.5 5l4.285 11.715L177.5 21l-11.715 4.285zM185 97.5l-4.444-11.556L169 81.5l11.556-4.444L185 65.5l4.444 11.556L201 81.5l-11.556 4.444z"/></g><path fill="#292524" fill-rule="nonzero" d="m20.73 92 25.484-40.473L20.73 11h17.162l25.016 40.527L37.892 92z"/><path fill="#292524" d="M83.04 92V79.116H140V92z"/></g></svg>
