<?xml version="1.0" encoding="UTF-8"?>
<svg width="1280px" height="1024px" viewBox="0 0 1280 1024" version="1.1" xmlns="http://www.w3.org/2000/svg" xmlns:xlink="http://www.w3.org/1999/xlink">
    <title>logo-1024x1280</title>
    <g id="logo-1024x1280" stroke="none" stroke-width="1" fill="none" fill-rule="evenodd">
        <rect id="Outer-Edge" stroke="#A8A29E" stroke-width="34" x="17" y="17" width="1246" height="990" rx="237"></rect>
        <rect id="Inner-Edge" stroke="#0A0A0A" stroke-width="49" fill="#1C1917" x="56.5" y="56.5" width="1165" height="911" rx="202"></rect>
        <path d="M235.746698,401 L1041.7467,401 C1127.35083,401 1196.7467,470.395864 1196.7467,556 L1196.7467,944 L1196.7467,944 L80.7466976,944 L80.7466976,556 C80.7466976,470.395864 150.142561,401 235.746698,401 Z" id="Reflection" fill="#292524" transform="translate(638.7467, 672.5) rotate(180) translate(-638.7467, -672.5)"></path>
        <g id="Prompt" transform="translate(170, 165.9979)">
            <g id="!" transform="translate(424.9625, 0.2062)" fill="#F59E0C" fill-rule="nonzero">
                <path d="M17.7699686,147.74111 L10.9353653,47.3483559 L9.22671448,0 L59.1193187,0 L57.4106679,47.3483559 L50.5760646,147.74111 L17.7699686,147.74111 Z M34.1730166,242.793825 C24.3767518,242.793825 16.2321829,239.411799 9.73930973,232.647748 C3.24643658,225.883698 0,217.161632 0,206.481552 C0,195.801472 3.24643658,187.198074 9.73930973,180.671358 C16.2321829,174.144642 24.3767518,170.881284 34.1730166,170.881284 C43.9692813,170.881284 52.1138503,174.144642 58.6067234,180.671358 C65.0995966,187.198074 68.3460332,195.801472 68.3460332,206.481552 C68.3460332,217.161632 65.0995966,225.883698 58.6067234,232.647748 C52.1138503,239.411799 43.9692813,242.793825 34.1730166,242.793825 Z" id="Shape"></path>
            </g>
            <g id="â¯" transform="translate(0, -0)" fill="#D6D3D1" fill-rule="nonzero">
                <polygon id="Path" points="0 243 76.4524164 121.581271 0 0 51.488362 0 126.53655 121.581271 51.488362 243"></polygon>
            </g>
            <polygon id="Rectangle" fill="#D6D3D1" transform="translate(256.7099, 223.6737) rotate(-90) translate(-256.7099, -223.6737)" points="237.383567 138.233065 276.036153 138.233065 276.036153 309.114349 237.383567 309.114349"></polygon>
        </g>
    </g>
</svg>