<svg xmlns="http://www.w3.org/2000/svg" viewBox="0 0 128 128"><g fill="#292524" fill-rule="nonzero"><path d="M81.782 30.958c-11.52 0-16.388 5.497-24.41 5.497-8.225 0-14.499-5.457-24.481-5.457-9.77 0-20.19 5.965-26.807 16.127-9.29 14.331-7.714 41.32 7.334 64.313C18.8 119.67 25.988 128.9 35.416 129h.172c8.194 0 10.628-5.365 21.904-5.428h.171c11.108 0 13.337 5.397 21.496 5.397h.172c9.428-.1 17.001-10.328 22.384-18.528 3.874-5.897 5.314-8.856 8.285-15.527-21.767-8.263-25.264-39.12-3.737-50.951-6.57-8.228-15.805-12.994-24.51-12.994z"/><path d="M79.245 1c-6.857.466-14.856 4.831-19.542 10.53-4.25 5.166-7.748 12.828-6.376 20.26h.548c7.303 0 14.776-4.397 19.142-10.031C77.222 16.396 80.41 8.797 79.245 1"/></g></svg>
