<svg xmlns="http://www.w3.org/2000/svg" viewBox="0 0 128 128"><path fill="#D97705" fill-rule="nonzero" d="M103.497 47.303a85.9 85.9 0 0 0-15.251-25.714C76.914 8.47 59.429 0 45.714 0c5.429 20-4.103 33.463-12.797 46.791-7.203 11.026-14.631 22.429-14.631 35.495C18.286 107.49 38.794 128 64 128s45.714-20.509 45.714-45.714c0-12.372-2.091-24.14-6.217-34.983m-30.26 63.18c-2.951 3.143-6.651 3.803-9.237 3.803s-6.286-.66-9.237-3.803-4.477-8.129-4.477-14.483c0-7.183 2.52-12.651 4.954-17.937 1.851-4.02 4.189-7.777 4.317-12.712 3.229 1.68 6.763 4.832 9.869 8.938 5.191 6.857 8.285 14.977 8.285 21.714.003 6.351-1.545 11.36-4.474 14.48"/></svg>
