<?xml version="1.0" encoding="UTF-8"?>
<svg width="128px" height="128px" viewBox="0 0 128 128" version="1.1" xmlns="http://www.w3.org/2000/svg" xmlns:xlink="http://www.w3.org/1999/xlink">
    <title>caution</title>
    <g id="caution" stroke="none" stroke-width="1" fill="none" fill-rule="evenodd">
        <g id="warning" transform="translate(-0.1514, 0)" fill="#D97705" fill-rule="nonzero">
            <path d="M126.790883,112.132037 L72.9064433,5.66160315 C69.087139,-1.88720105 58.9128664,-1.88720105 55.0904004,5.66160315 L1.20912218,112.132037 C-0.477780021,115.465657 -0.394724102,119.497086 1.42785092,122.748854 C3.25042595,126.000622 6.54453116,127.994593 10.1029161,128 L117.881281,128 C121.442485,128 124.741689,126.00889 126.568096,122.756068 C128.394503,119.503245 128.479116,115.468296 126.790883,112.132037 Z M64.0000027,111.516426 C60.5077121,111.516426 57.6766512,108.504202 57.6766512,104.788436 C57.6766512,101.07267 60.5077121,98.0604468 64.0000027,98.0604468 C67.4922933,98.0604468 70.3233542,101.07267 70.3233542,104.788436 C70.3233542,106.57281 69.6571459,108.2841 68.4712874,109.545843 C67.285429,110.807586 65.6770598,111.516426 64.0000027,111.516426 Z M70.8671624,43.8496715 L69.0523606,84.8904074 C69.0523606,87.8630202 66.7875118,90.2727989 63.9936793,90.2727989 C61.1998469,90.2727989 58.9349981,87.8630202 58.9349981,84.8904074 L57.1201963,43.8664915 L57.1201963,43.8664915 C57.0377887,41.8858074 57.715065,39.9544633 58.9967296,38.5153055 C60.2783942,37.0761478 62.0545012,36.2526326 63.9177991,36.2335864 L63.9841943,36.2335864 C65.8604344,36.2325583 67.6555226,37.0476412 68.952951,38.489715 C70.2503794,39.9317889 70.9373674,41.8754999 70.8545157,43.8698555 L70.8671624,43.8496715 Z" id="Shape"></path>
        </g>
    </g>
</svg>