<svg xmlns="http://www.w3.org/2000/svg" viewBox="0 0 128 128"><path fill="#292524" fill-rule="nonzero" d="M57.324 30.823c.25.125.45.425.75.425.275 0 .7-.1.725-.375.05-.35-.475-.575-.8-.725-.425-.175-.975-.25-1.375-.025-.1.05-.2.175-.15.275.075.325.575.275.85.425m-5.475.425c.3 0 .5-.3.75-.425.275-.15.775-.1.875-.4.05-.1-.05-.225-.15-.275-.4-.225-.95-.15-1.375.025-.325.15-.85.375-.8.725.025.25.45.375.7.35m55.27 69.694c-.9-1-1.324-2.9-1.8-4.925-.45-2.025-.974-4.2-2.624-5.6a7 7 0 0 0-1-.724 5.6 5.6 0 0 0-1.025-.5c2.3-6.825 1.4-13.624-.925-19.774-2.85-7.524-7.824-14.098-11.624-18.598-4.274-5.375-8.424-10.474-8.35-17.999C79.898 21.348 81.048.025 60.824 0 35.226-.05 41.625 25.848 41.35 33.797c-.425 5.85-1.6 10.45-5.624 16.174C31 55.595 24.352 64.67 21.202 74.144c-1.5 4.475-2.2 9.024-1.55 13.324-1.625 1.45-2.85 3.675-4.15 5.05-1.05 1.074-2.575 1.474-4.25 2.074s-3.5 1.5-4.624 3.625c-.525.975-.7 2.025-.7 3.1 0 .975.15 1.974.3 2.95.3 2.024.625 3.924.2 5.199-1.3 3.6-1.475 6.1-.55 7.924.95 1.825 2.85 2.625 5.025 3.075 4.324.9 10.199.675 14.823 3.125 4.95 2.6 9.975 3.524 13.974 2.6 2.9-.65 5.275-2.4 6.475-5.05 3.124-.025 6.574-1.35 12.074-1.65 3.724-.3 8.399 1.325 13.774 1.025.15.575.35 1.15.624 1.675v.025c2.075 4.175 5.95 6.074 10.075 5.75 4.15-.326 8.524-2.75 12.074-6.975 3.4-4.1 8.999-5.8 12.724-8.05 1.85-1.124 3.35-2.524 3.474-4.574.1-2.05-1.1-4.325-3.874-7.424M58.05 21.823c2.45-5.55 8.549-5.45 10.999-.1 1.625 3.55.9 7.725-1.075 10.1-.4-.2-1.475-.65-3.15-1.225.275-.3.775-.675.975-1.15 1.2-2.95-.05-6.75-2.275-6.825-1.825-.125-3.474 2.7-2.95 5.75-1.024-.5-2.35-.875-3.25-1.1-.25-1.725-.074-3.65.726-5.45M47.875 18.95c2.524 0 5.2 3.55 4.774 8.374-.875.25-1.775.625-2.55 1.15.3-2.225-.825-5.025-2.4-4.9-2.1.175-2.45 5.3-.45 7.025.25.2.476-.05-1.474 1.374-3.9-3.65-2.625-13.023 2.1-13.023m-3.4 15.173c1.55-1.15 3.4-2.5 3.525-2.624 1.174-1.1 3.374-3.55 6.974-3.55 1.775 0 3.9.575 6.474 2.225 1.575 1.025 2.825 1.1 5.65 2.324 2.1.875 3.425 2.425 2.625 4.55-.65 1.775-2.75 3.6-5.675 4.525-2.775.9-4.95 4-9.549 3.724-.975-.05-1.75-.25-2.4-.525-2-.875-3.05-2.6-5-3.75-2.15-1.2-3.3-2.6-3.674-3.824q-.525-1.837 1.05-3.075m.825 83.493c-.675 8.775-10.974 8.6-18.824 4.5-7.474-3.95-17.148-1.625-19.123-5.475-.6-1.175-.6-3.174.65-6.6v-.05c.6-1.899.15-3.999-.15-5.974-.3-1.95-.45-3.75.225-5 .875-1.674 2.125-2.274 3.7-2.824 2.574-.925 2.95-.85 4.9-2.475 1.374-1.425 2.374-3.224 3.574-4.5 1.275-1.374 2.5-2.024 4.425-1.724 2.024.3 3.774 1.7 5.474 4l4.9 8.899c2.374 4.974 10.774 12.099 10.249 17.223m-3.95-11.374c1.775 0 3.55-.55 4.175-2.225.575-1.55 0-3.724-1.85-6.224-3.375-4.55-9.574-8.124-9.574-8.124-3.375-2.1-5.275-4.675-6.15-7.475s-.75-5.824-.075-8.799c1.3-5.725 4.65-11.3 6.8-14.799.575-.425.2.8-2.175 5.2-2.125 4.024-6.1 13.324-.65 20.598.15-5.174 1.375-10.45 3.45-15.374 3-6.85 9.324-18.723 9.824-28.172.275.2 1.15.8 1.55 1.025 1.15.675 2.024 1.674 3.15 2.574 3.1 2.5 7.124 2.3 10.599.3 1.55-.875 2.8-1.874 3.974-2.25 2.475-.774 4.45-2.15 5.575-3.75 1.925 7.6 6.424 18.574 9.299 23.924 1.525 2.85 4.575 8.874 5.9 16.149.824-.025 1.75.1 2.724.35 3.45-8.925-2.925-18.549-5.824-21.224-1.175-1.15-1.225-1.65-.65-1.625 3.15 2.8 7.3 8.425 8.799 14.75.7 2.899.825 5.924.1 8.923 4.1 1.7 8.974 4.475 7.674 8.7-.55-.025-.8 0-1.05 0 .8-2.525-.974-4.4-5.7-6.525-4.899-2.15-8.998-2.15-9.573 3.125-3.025 1.05-4.575 3.675-5.35 6.824-.7 2.8-.9 6.175-1.1 9.975-.125 1.924-.9 4.5-1.7 7.249-8.024 5.725-19.173 8.224-28.572 1.8-1.025-1.65-2.4-3.4-3.6-4.9m67.944 2.025c-.225 4.2-10.299 4.975-15.798 11.624-3.3 3.925-7.35 6.1-10.9 6.375-3.549.275-6.624-1.2-8.424-4.825-1.175-2.775-.6-5.775.275-9.074.925-3.55 2.3-7.2 2.475-10.15.2-3.8.425-7.124 1.05-9.674.65-2.574 1.65-4.3 3.425-5.274.075-.05.175-.075.25-.125.2 3.3 1.825 6.65 4.7 7.374 3.15.825 7.674-1.875 9.599-4.074 2.25-.075 3.924-.225 5.65 1.274 2.474 2.125 1.774 7.575 4.274 10.4 2.65 2.9 3.5 4.874 3.424 6.15M47.45 38.946c1.65 1.3 3.95 2.65 6.824 2.65 2.9 0 5.625-1.474 7.95-2.7 1.224-.65 2.724-1.749 3.7-2.599.974-.85 1.474-1.575.774-1.65s-.65.65-1.5 1.275c-1.1.8-2.425 1.85-3.475 2.45-1.85 1.05-4.874 2.55-7.474 2.55s-4.675-1.2-6.224-2.425c-.775-.625-1.425-1.25-1.925-1.725-.375-.35-.475-1.15-1.075-1.225-.35-.025-.45.925.425 1.625.5.475 1.175 1.125 2 1.775"/></svg>
