<?xml version="1.0" encoding="UTF-8"?>
<svg width="128px" height="128px" viewBox="0 0 128 128" version="1.1" xmlns="http://www.w3.org/2000/svg" xmlns:xlink="http://www.w3.org/1999/xlink">
    <title>tip</title>
    <g id="tip" stroke="none" stroke-width="1" fill="none" fill-rule="evenodd">
        <g id="sunny" fill="#FCBF24" fill-rule="nonzero">
            <path d="M64,25.6 C60.6190568,25.6 57.8782609,22.859204 57.8782609,19.4782609 L57.8782609,6.12173913 C57.8782609,2.74079597 60.6190568,0 64,0 C67.3809432,0 70.1217391,2.74079597 70.1217391,6.12173913 L70.1217391,19.4782609 C70.1217391,22.859204 67.3809432,25.6 64,25.6 Z" id="Path"></path>
            <path d="M64,128 C60.6190568,128 57.8782609,125.259204 57.8782609,121.878261 L57.8782609,108.521739 C57.8782609,105.140796 60.6190568,102.4 64,102.4 C67.3809432,102.4 70.1217391,105.140796 70.1217391,108.521739 L70.1217391,121.878261 C70.1217391,125.259204 67.3809432,128 64,128 Z" id="Path"></path>
            <path d="M95.4824348,38.6393087 C93.0070136,38.639001 90.775399,37.1479165 89.8277699,34.8610608 C88.8801407,32.5742051 89.4030229,29.9417099 91.1526957,28.1906087 L100.59687,18.7464348 C102.996311,16.409379 106.828477,16.4346151 109.196931,18.8030689 C111.565385,21.1715227 111.590621,25.0036893 109.253565,27.4031304 L99.8093913,36.8473043 C98.6628249,37.9963665 97.1056891,38.641251 95.4824348,38.6393087 L95.4824348,38.6393087 Z" id="Path"></path>
            <path d="M23.0733913,111.048351 C20.5972541,111.048044 18.3651419,109.556108 17.4179739,107.268286 C16.4708059,104.980465 16.9951304,102.347352 18.7464348,100.59687 L28.1906087,91.1526957 C29.7300175,89.5721938 32.0008042,88.9423178 34.134414,89.5039892 C36.2680238,90.0656606 37.9343394,91.7319762 38.4960108,93.865586 C39.0576822,95.9991958 38.4278062,98.2699825 36.8473043,99.8093913 L27.4031304,109.253565 C26.2561661,110.404071 24.6979493,111.04999 23.0733913,111.048351 Z" id="Path"></path>
            <path d="M121.878261,70.1217391 L108.521739,70.1217391 C105.140796,70.1217391 102.4,67.3809432 102.4,64 C102.4,60.6190568 105.140796,57.8782609 108.521739,57.8782609 L121.878261,57.8782609 C125.259204,57.8782609 128,60.6190568 128,64 C128,67.3809432 125.259204,70.1217391 121.878261,70.1217391 Z" id="Path"></path>
            <path d="M19.4782609,70.1217391 L6.12173913,70.1217391 C2.74079597,70.1217391 0,67.3809432 0,64 C0,60.6190568 2.74079597,57.8782609 6.12173913,57.8782609 L19.4782609,57.8782609 C22.859204,57.8782609 25.6,60.6190568 25.6,64 C25.6,67.3809432 22.859204,70.1217391 19.4782609,70.1217391 Z" id="Path"></path>
            <path d="M104.926609,111.048351 C103.302051,111.04999 101.743834,110.404071 100.59687,109.253565 L91.1526957,99.8093913 C88.8156399,97.4099502 88.8408759,93.5777836 91.2093298,91.2093298 C93.5777836,88.8408759 97.4099502,88.8156399 99.8093913,91.1526957 L109.253565,100.59687 C111.00487,102.347352 111.529194,104.980465 110.582026,107.268286 C109.634858,109.556108 107.402746,111.048044 104.926609,111.048351 L104.926609,111.048351 Z" id="Path"></path>
            <path d="M32.5175652,38.639316 C30.8940666,38.6424843 29.3364759,37.9974113 28.1906087,36.8473043 L18.7464348,27.4031304 C16.409379,25.0036893 16.4346151,21.1715227 18.8030689,18.8030689 C21.1715227,16.4346151 25.0036893,16.409379 27.4031304,18.7464348 L36.8473043,28.1906087 C38.5969771,29.9417099 39.1198593,32.5742051 38.1722301,34.8610608 C37.224601,37.1479165 34.9929864,38.639001 32.5175652,38.639316 Z" id="Path"></path>
            <path d="M64,92.3826087 C48.3247181,92.3826087 35.6173913,79.6752819 35.6173913,64 C35.6173913,48.3247181 48.3247181,35.6173913 64,35.6173913 C79.6752819,35.6173913 92.3826087,48.3247181 92.3826087,64 C92.3642086,79.6676541 79.6676541,92.3642086 64,92.3826087 Z" id="Path"></path>
        </g>
    </g>
</svg>